<svg width="241" height="64" viewBox="0 0 241 64" fill="none" xmlns="http://www.w3.org/2000/svg">
<path d="M41.1562 38.111V14.1444H52.8657C55.8786 14.1444 58.1383 14.715 59.6447 15.8563C61.1742 16.9975 61.9387 18.504 61.9387 20.3757C61.9387 21.631 61.6305 22.7267 61.0143 23.6625C60.398 24.5755 59.5534 25.2832 58.4807 25.7853C57.408 26.2874 56.1755 26.5385 54.783 26.5385L55.4335 25.1348C56.94 25.1348 58.2753 25.3858 59.4393 25.888C60.6034 26.3673 61.5049 27.0863 62.1442 28.045C62.8059 29.0037 63.137 30.1792 63.137 31.5715C63.137 33.6258 62.3266 35.2349 60.7061 36.3991C59.0857 37.5402 56.7003 38.111 53.5504 38.111H41.1562ZM46.6685 33.9339H53.1396C54.5776 33.9339 55.6619 33.7056 56.3922 33.2492C57.1454 32.7698 57.522 32.0166 57.522 30.9895C57.522 29.9851 57.1454 29.2433 56.3922 28.7639C55.6619 28.2618 54.5776 28.0107 53.1396 28.0107H46.2577V23.9707H52.1809C53.5274 23.9707 54.5546 23.7424 55.2624 23.2859C55.9926 22.8065 56.3579 22.0876 56.3579 21.1289C56.3579 20.1931 55.9926 19.4969 55.2624 19.0404C54.5546 18.561 53.5274 18.3214 52.1809 18.3214H46.6685V33.9339ZM77.4365 38.5218C75.5422 38.5218 73.7844 38.2137 72.1639 37.5974C70.566 36.9811 69.1739 36.1138 67.9868 34.9953C66.8227 33.8768 65.9096 32.5644 65.2478 31.0579C64.6086 29.5514 64.2891 27.9081 64.2891 26.1276C64.2891 24.3473 64.6086 22.7038 65.2478 21.1973C65.9096 19.6909 66.8341 18.3785 68.0211 17.26C69.2081 16.1415 70.6003 15.2742 72.1982 14.6579C73.796 14.0416 75.5305 13.7335 77.4023 13.7335C79.2967 13.7335 81.0315 14.0416 82.6065 14.6579C84.2043 15.2742 85.5852 16.1415 86.7493 17.26C87.9363 18.3785 88.8607 19.6909 89.5226 21.1973C90.1844 22.681 90.5154 24.3245 90.5154 26.1276C90.5154 27.9081 90.1844 29.5628 89.5226 31.0922C88.8607 32.5986 87.9363 33.9109 86.7493 35.0295C85.5852 36.1252 84.2043 36.9811 82.6065 37.5974C81.0315 38.2137 79.3083 38.5218 77.4365 38.5218ZM77.4023 33.7969C78.475 33.7969 79.4566 33.6145 80.3468 33.2492C81.2599 32.8838 82.0586 32.359 82.7434 31.6742C83.4282 30.9895 83.9531 30.1792 84.3184 29.2433C84.7063 28.3075 84.9004 27.269 84.9004 26.1276C84.9004 24.9864 84.7063 23.9479 84.3184 23.012C83.9531 22.0762 83.4282 21.2659 82.7434 20.5811C82.0816 19.8963 81.2941 19.3713 80.381 19.0062C79.4679 18.641 78.475 18.4583 77.4023 18.4583C76.3297 18.4583 75.3367 18.641 74.4236 19.0062C73.5334 19.3713 72.746 19.8963 72.0612 20.5811C71.3764 21.2659 70.8399 22.0762 70.452 23.012C70.0866 23.9479 69.9042 24.9864 69.9042 26.1276C69.9042 27.2461 70.0866 28.2847 70.452 29.2433C70.8399 30.1792 71.3651 30.9895 72.0269 31.6742C72.7117 32.359 73.5105 32.8838 74.4236 33.2492C75.3367 33.6145 76.3297 33.7969 77.4023 33.7969ZM101.018 38.5218C99.1003 38.5218 97.2634 38.2709 95.5061 37.7685C93.7478 37.2438 92.3328 36.5702 91.2602 35.7486L93.1432 31.5715C94.1701 32.3018 95.3803 32.9068 96.772 33.3861C98.1876 33.8425 99.6138 34.0708 101.052 34.0708C102.147 34.0708 103.027 33.9681 103.689 33.7628C104.373 33.5343 104.876 33.2262 105.195 32.8383C105.514 32.4504 105.675 32.0053 105.675 31.5031C105.675 30.8639 105.423 30.3617 104.921 29.9965C104.419 29.6085 103.757 29.3003 102.935 29.0721C102.114 28.8211 101.2 28.5928 100.196 28.3873C99.2145 28.1591 98.2221 27.8852 97.2173 27.5656C96.2355 27.2461 95.3343 26.8352 94.5127 26.3331C93.6912 25.8309 93.0175 25.1689 92.4927 24.3473C91.9904 23.5256 91.7395 22.4756 91.7395 21.1973C91.7395 19.8279 92.1047 18.5839 92.8351 17.4655C93.5885 16.3242 94.7066 15.4226 96.1904 14.7606C97.6972 14.0759 99.5802 13.7335 101.839 13.7335C103.346 13.7335 104.83 13.9161 106.291 14.2813C107.751 14.6237 109.041 15.1487 110.159 15.8563L108.447 20.0675C107.329 19.4284 106.211 18.9605 105.092 18.6638C103.974 18.3442 102.878 18.1844 101.806 18.1844C100.733 18.1844 99.8537 18.31 99.1694 18.561C98.4842 18.8121 97.9937 19.1431 97.6972 19.554C97.3997 19.942 97.2518 20.3985 97.2518 20.9235C97.2518 21.5398 97.5023 22.0419 98.0052 22.4299C98.5072 22.7952 99.1694 23.0919 99.991 23.3201C100.812 23.5484 101.714 23.7766 102.695 24.0049C103.699 24.2332 104.693 24.4956 105.675 24.7923C106.678 25.0891 107.592 25.4885 108.414 25.9907C109.235 26.4929 109.896 27.1548 110.399 27.9765C110.924 28.7982 111.186 29.8367 111.186 31.0922C111.186 32.4387 110.81 33.6713 110.057 34.7899C109.303 35.9085 108.174 36.8099 106.667 37.4946C105.184 38.1794 103.3 38.5218 101.018 38.5218Z" fill="white"/>
<path d="M138.026 14.1444H143.573V38.111H138.026V14.1444ZM127.138 38.111H121.592V14.1444H127.138V38.111ZM138.437 28.2847H126.727V23.594H138.437V28.2847ZM144.552 38.111L155.235 14.1444H160.713L171.429 38.111H165.608L156.843 16.9519H159.035L150.235 38.111H144.552ZM149.894 32.9753L151.366 28.7639H163.691L165.198 32.9753H149.894ZM183.511 38.5218C181.661 38.5218 179.938 38.225 178.34 37.6316C176.765 37.0153 175.396 36.1481 174.232 35.0295C173.068 33.9109 172.155 32.5986 171.493 31.0922C170.853 29.5857 170.534 27.9309 170.534 26.1276C170.534 24.3245 170.853 22.6696 171.493 21.1632C172.155 19.6567 173.068 18.3442 174.232 17.2257C175.419 16.1073 176.799 15.2514 178.374 14.6579C179.95 14.0416 181.673 13.7335 183.544 13.7335C185.622 13.7335 187.493 14.0987 189.16 14.8292C190.849 15.5367 192.263 16.5866 193.405 17.979L189.844 21.2659C189.022 20.33 188.11 19.6338 187.105 19.1774C186.101 18.698 185.005 18.4583 183.819 18.4583C182.701 18.4583 181.673 18.641 180.737 19.0062C179.801 19.3713 178.991 19.8963 178.306 20.5811C177.622 21.2659 177.085 22.0762 176.696 23.012C176.332 23.9479 176.149 24.9864 176.149 26.1276C176.149 27.269 176.332 28.3075 176.696 29.2433C177.085 30.1792 177.622 30.9895 178.306 31.6742C178.991 32.359 179.801 32.8838 180.737 33.2492C181.673 33.6145 182.701 33.7969 183.819 33.7969C185.005 33.7969 186.101 33.5686 187.105 33.1123C188.11 32.6329 189.022 31.9139 189.844 30.9552L193.405 34.2421C192.263 35.6346 190.849 36.6959 189.16 37.4262C187.493 38.1565 185.61 38.5218 183.511 38.5218ZM200.575 32.6329L200.267 26.2303L211.736 14.1444H217.899L207.559 25.2717L204.477 28.5586L200.575 32.6329ZM195.61 38.111V14.1444H201.122V38.111H195.61ZM212.01 38.111L203.485 27.6684L207.113 23.731L218.481 38.111H212.01ZM226.786 38.5218C224.87 38.5218 223.032 38.2709 221.274 37.7685C219.516 37.2438 218.102 36.5702 217.029 35.7486L218.912 31.5715C219.939 32.3018 221.149 32.9068 222.541 33.3861C223.956 33.8425 225.383 34.0708 226.821 34.0708C227.917 34.0708 228.795 33.9681 229.457 33.7628C230.142 33.5343 230.643 33.2262 230.964 32.8383C231.283 32.4504 231.443 32.0053 231.443 31.5031C231.443 30.8639 231.191 30.3617 230.69 29.9965C230.188 29.6085 229.525 29.3003 228.704 29.0721C227.882 28.8211 226.97 28.5928 225.965 28.3873C224.983 28.1591 223.991 27.8852 222.987 27.5656C222.005 27.2461 221.103 26.8352 220.281 26.3331C219.46 25.8309 218.786 25.1689 218.262 24.3473C217.759 23.5256 217.508 22.4756 217.508 21.1973C217.508 19.8279 217.873 18.5839 218.604 17.4655C219.357 16.3242 220.475 15.4226 221.959 14.7606C223.466 14.0759 225.349 13.7335 227.609 13.7335C229.115 13.7335 230.598 13.9161 232.059 14.2813C233.52 14.6237 234.81 15.1487 235.928 15.8563L234.217 20.0675C233.098 19.4284 231.979 18.9605 230.861 18.6638C229.742 18.3442 228.647 18.1844 227.574 18.1844C226.501 18.1844 225.622 18.31 224.938 18.561C224.253 18.8121 223.762 19.1431 223.466 19.554C223.169 19.942 223.02 20.3985 223.02 20.9235C223.02 21.5398 223.272 22.0419 223.774 22.4299C224.276 22.7952 224.938 23.0919 225.759 23.3201C226.581 23.5484 227.483 23.7766 228.464 24.0049C229.469 24.2332 230.461 24.4956 231.443 24.7923C232.447 25.0891 233.361 25.4885 234.182 25.9907C235.004 26.4929 235.666 27.1548 236.168 27.9765C236.693 28.7982 236.956 29.8367 236.956 31.0922C236.956 32.4387 236.579 33.6713 235.825 34.7899C235.073 35.9085 233.942 36.8099 232.436 37.4946C230.953 38.1794 229.069 38.5218 226.786 38.5218Z" fill="white"/>
<path d="M29.5126 17.946C28.537 17.946 27.6311 18.4493 27.1199 19.2767L21.6134 27.4109C21.434 27.6789 21.5069 28.0404 21.7763 28.2188C21.9947 28.3637 22.2836 28.3458 22.4825 28.1755L27.9028 23.498C27.9928 23.4173 28.1317 23.4255 28.2127 23.5152C28.2495 23.5563 28.269 23.6092 28.269 23.6637V38.3086C28.269 38.4296 28.1706 38.5267 28.0491 38.5267C27.9838 38.5267 27.9223 38.4983 27.881 38.4483L11.4964 18.9347C10.9627 18.3082 10.1792 17.9468 9.35441 17.946H8.78173C7.23194 17.946 5.97559 19.196 5.97559 20.7381V41.3643C5.97559 42.9062 7.23194 44.1563 8.78173 44.1563C9.7574 44.1563 10.6633 43.653 11.1745 42.8256L16.681 34.6915C16.8604 34.4234 16.7875 34.062 16.5181 33.8835C16.2997 33.7386 16.0108 33.7566 15.8118 33.9268L10.3916 38.6043C10.3016 38.685 10.1627 38.6768 10.0817 38.5872C10.0449 38.5461 10.0254 38.4931 10.0261 38.4386V23.79C10.0261 23.6689 10.1244 23.5719 10.246 23.5719C10.3106 23.5719 10.3729 23.6003 10.4142 23.6503L26.7965 43.1676C27.3301 43.7941 28.1136 44.1555 28.9384 44.1563H29.5111C31.0609 44.157 32.3181 42.9077 32.3195 41.3657V20.7381C32.3195 19.196 31.0625 17.946 29.5126 17.946Z" fill="white"/>
<path d="M14.9702 23.8383C14.9702 23.8383 17.7319 24.1121 21.6919 23.8725C24.0842 23.729 27.281 20.9529 28.9988 19.6354C30.7186 18.315 33.6173 15.8588 32.3031 15.3185C30.9889 14.7785 27.4974 13.9139 27.4974 13.9139C27.4974 13.9139 31.786 17.0463 14.9702 23.8383Z" fill="white" stroke="black" stroke-width="3" stroke-linejoin="round"/>
<path d="M29.1323 14.3484C29.8701 16.1165 25.179 19.7577 18.6533 22.4812C12.1282 25.2043 6.24136 25.9779 5.50342 24.2097C6.45251 22.6551 5.90921 21.9064 5.90921 21.9064L27.2648 12.9938C27.2648 12.9938 27.422 13.9039 29.1323 14.3484Z" fill="white" stroke="black" stroke-width="3" stroke-linejoin="round"/>
<path d="M4.5659 15.0356C4.57854 14.3226 4.73326 11.8137 6.20232 9.47989C8.86406 5.24574 13.7531 3.80119 17.1695 4.25016C19.4791 4.5557 21.3407 5.41455 23.2088 7.03658C23.6647 7.43296 24.5712 8.30651 25.5239 9.69968C26.3497 10.9083 26.7243 11.7315 27.3466 13.0986C27.8296 14.2561 26.0662 16.2181 22.4928 18.3065C17.4909 21.2269 10.8309 23.2828 7.61889 22.8979C6.69994 22.788 6.1622 22.4873 5.98192 22.0511C5.28944 20.2382 4.50929 18.1826 4.5659 15.0356Z" fill="white"/>
<path d="M4.5659 15.0356C4.57854 14.3226 4.73326 11.8137 6.20232 9.47989C8.86406 5.24574 13.7531 3.80119 17.1695 4.25016C19.4791 4.5557 21.3407 5.41455 23.2088 7.03658C23.6647 7.43296 24.5712 8.30651 25.5239 9.69968C26.3497 10.9083 26.7243 11.7315 27.3466 13.0986C27.8296 14.2561 26.0662 16.2181 22.4928 18.3065C17.4909 21.2269 10.8309 23.2828 7.61889 22.8979C6.69994 22.788 6.1622 22.4873 5.98192 22.0511C5.28944 20.2382 4.50929 18.1826 4.5659 15.0356Z" fill="#74FC00" stroke="black" stroke-width="3" stroke-linejoin="round"/>
<path d="M14.8618 23.8221C14.8618 23.8221 17.6232 24.0936 21.5833 23.8562C23.9742 23.7116 27.1713 20.9371 28.8885 19.6177C30.6092 18.2992 33.5084 15.8427 32.1932 15.3005C30.8791 14.7607 27.3895 13.8966 27.3895 13.8966C27.3895 13.8966 31.6768 17.0298 14.8618 23.8221Z" fill="#272727" stroke="#272727" stroke-width="3" stroke-linejoin="round"/>
<path d="M29.0204 14.3329C29.7583 16.1011 25.0683 19.7404 18.5418 22.4642C12.0169 25.1873 6.12967 25.9626 5.3916 24.1941C6.34158 22.6394 5.79673 21.8917 5.79673 21.8917L27.1539 12.9786C27.1539 12.9786 27.4313 14.0008 29.1406 14.4456L29.0204 14.3329Z" fill="#2C2C2C" stroke="#2C2C2C" stroke-width="3" stroke-linejoin="round"/>
<path d="M4.45443 15.0195C4.4672 14.307 4.6228 11.7987 6.09071 9.46376C8.75206 5.2299 13.641 3.78607 17.0581 4.23453C19.3688 4.53963 21.2297 5.39865 23.0962 7.01939C23.5527 7.41557 24.4602 8.28865 25.4117 9.68325C26.2364 10.8914 26.6115 11.7151 27.2337 13.0802C27.717 14.2379 25.9531 16.202 22.3784 18.2888C17.3776 21.211 10.7172 23.2648 7.50603 22.8795C6.58698 22.7696 6.04924 22.4708 5.8684 22.033C5.17947 20.222 4.39922 18.1661 4.45443 15.0195Z" fill="#FFD520"/>
<path d="M4.45443 15.0195C4.4672 14.307 4.6228 11.7987 6.09071 9.46376C8.75206 5.2299 13.641 3.78607 17.0581 4.23453C19.3688 4.53963 21.2297 5.39865 23.0962 7.01939C23.5527 7.41557 24.4602 8.28865 25.4117 9.68325C26.2364 10.8914 26.6115 11.7151 27.2337 13.0802C27.717 14.2379 25.9531 16.202 22.3784 18.2888C17.3776 21.211 10.7172 23.2648 7.50603 22.8795C6.58698 22.7696 6.04924 22.4708 5.8684 22.033C5.17947 20.222 4.39922 18.1661 4.45443 15.0195Z" stroke="black" stroke-width="3" stroke-linejoin="round"/>
<path d="M4.45443 15.0195C4.4672 14.307 4.6228 11.7987 6.09071 9.46376C8.75206 5.2299 13.641 3.78607 17.0581 4.23453C19.3688 4.53963 21.2297 5.39865 23.0962 7.01939C23.5527 7.41557 24.4602 8.28865 25.4117 9.68325C26.2364 10.8914 26.6115 11.7151 27.2337 13.0802C27.717 14.2379 25.9531 16.202 22.3784 18.2888C17.3776 21.211 10.7172 23.2648 7.50603 22.8795C6.58698 22.7696 6.04924 22.4708 5.8684 22.033C5.17947 20.222 4.39922 18.1661 4.45443 15.0195Z" fill="#303030" stroke="#272727" stroke-width="3" stroke-linejoin="round"/>
<path d="M6.41602 8.85888C12.2389 0.48811 24.6285 7.5184 27.1613 14.2964L28.0237 14.2861C24.9879 7.0131 12.6325 -0.418491 6.41602 8.85888Z" fill="#CCCCCC"/>
<path d="M28.8811 15.2104L28.0225 14.2863L27.1602 14.2965L28.8811 15.2104Z" fill="#CCCCCC"/>
<path d="M25.3721 16.6154C22.6249 10.0324 14.4163 1.4156 8.27441 6.71294C14.8253 0.947227 25.2649 7.68074 28.0213 14.2855L28.8799 15.2098L26.2285 17.5384L25.3721 16.6154Z" fill="#303030"/>
<path d="M25.3732 16.6145L26.2315 17.539L23.893 17.026C21.3606 10.2473 12.2403 0.4884 6.41602 8.85749C12.633 -0.418355 22.3373 9.33985 25.3732 16.6145Z" fill="#CCCCCC"/>
<path d="M25.3732 16.6145L26.2315 17.539L23.893 17.026C21.3606 10.2473 12.2403 0.4884 6.41602 8.85749C12.633 -0.418355 22.3373 9.33985 25.3732 16.6145Z" fill="#272727"/>
<path d="M13.0148 16.8246L12.5571 17.9423L13.7636 21.1919L14.0182 18.8911L13.0148 16.8246Z" fill="#272727" stroke="#272727" stroke-width="3" stroke-linecap="round" stroke-linejoin="round"/>
<path d="M7.93153 18.5032L7.69092 19.0883L8.89856 22.3384L8.77571 20.1941L7.93153 18.5032Z" fill="black"/>
<path d="M13.7629 21.1913C13.7629 21.1913 9.20762 22.4618 8.89973 22.3354C8.59204 22.2111 7.69189 19.0863 7.69189 19.0863L12.556 17.9396L13.7629 21.1913Z" fill="#3A3A3A" stroke="#3A3A3A" stroke-width="3" stroke-linecap="round" stroke-linejoin="round"/>
<path d="M7.69287 19.089L8.1524 17.9714L13.0155 16.825L12.5578 17.9427L7.69287 19.089Z" fill="#272727" stroke="#272727" stroke-width="3" stroke-linecap="round" stroke-linejoin="round"/>
<path d="M81.9458 54.1562H80.9849V46.8965C80.9106 46.9707 80.8013 47.0566 80.6567 47.1543C80.5161 47.248 80.356 47.3418 80.1763 47.4355C80.0005 47.5293 79.813 47.6172 79.6138 47.6992C79.4185 47.7812 79.2271 47.8457 79.0396 47.8926V46.9199C79.2505 46.8613 79.4731 46.7832 79.7075 46.6855C79.9458 46.584 80.1782 46.4727 80.4048 46.3516C80.6353 46.2266 80.8521 46.0977 81.0552 45.9648C81.2583 45.8281 81.4341 45.6953 81.5825 45.5664H81.9458V54.1562ZM84.7817 53.9395V52.9082C85.3052 53.2949 85.8813 53.4883 86.5103 53.4883C87.354 53.4883 87.7759 53.207 87.7759 52.6445C87.7759 52.4844 87.7388 52.3496 87.6646 52.2402C87.5942 52.127 87.4966 52.0273 87.3716 51.9414C87.2505 51.8555 87.106 51.7793 86.938 51.7129C86.7739 51.6426 86.5962 51.5703 86.4048 51.4961C86.1392 51.3906 85.9048 51.2852 85.7017 51.1797C85.5024 51.0703 85.3345 50.9492 85.1978 50.8164C85.0649 50.6797 84.9634 50.5254 84.8931 50.3535C84.8267 50.1816 84.7935 49.9805 84.7935 49.75C84.7935 49.4688 84.8579 49.2207 84.9868 49.0059C85.1157 48.7871 85.2876 48.6055 85.5024 48.4609C85.7173 48.3125 85.9614 48.2012 86.2349 48.127C86.5122 48.0527 86.7974 48.0156 87.0903 48.0156C87.6099 48.0156 88.0747 48.1055 88.4849 48.2852V49.2578C88.0435 48.9688 87.5356 48.8242 86.9614 48.8242C86.7817 48.8242 86.6196 48.8457 86.4751 48.8887C86.3306 48.9277 86.2056 48.9844 86.1001 49.0586C85.9985 49.1328 85.9185 49.2227 85.8599 49.3281C85.8052 49.4297 85.7778 49.543 85.7778 49.668C85.7778 49.8242 85.8052 49.9551 85.8599 50.0605C85.9185 50.166 86.0024 50.2598 86.1118 50.3418C86.2212 50.4238 86.354 50.498 86.5103 50.5645C86.6665 50.6309 86.8442 50.7031 87.0435 50.7812C87.3091 50.8828 87.5474 50.9883 87.7583 51.0977C87.9692 51.2031 88.1489 51.3242 88.2974 51.4609C88.4458 51.5938 88.5591 51.748 88.6372 51.9238C88.7192 52.0996 88.7603 52.3086 88.7603 52.5508C88.7603 52.8477 88.6938 53.1055 88.561 53.3242C88.4321 53.543 88.2583 53.7246 88.0396 53.8691C87.8208 54.0137 87.5688 54.1211 87.2837 54.1914C86.9985 54.2617 86.6997 54.2969 86.3872 54.2969C85.77 54.2969 85.2349 54.1777 84.7817 53.9395ZM93.0259 54.0977C92.7993 54.2227 92.5005 54.2852 92.1294 54.2852C91.0786 54.2852 90.5532 53.6992 90.5532 52.5273V48.9766H89.522V48.1562H90.5532V46.6914L91.5142 46.3809V48.1562H93.0259V48.9766H91.5142V52.3574C91.5142 52.7598 91.5825 53.0469 91.7192 53.2188C91.856 53.3906 92.0825 53.4766 92.3989 53.4766C92.6411 53.4766 92.8501 53.4102 93.0259 53.2773V54.0977ZM98.5864 53.2891H98.563V56.916H97.6021V48.1562H98.563V49.2109H98.5864C99.0591 48.4141 99.7505 48.0156 100.661 48.0156C101.434 48.0156 102.038 48.2852 102.471 48.8242C102.905 49.3594 103.122 50.0781 103.122 50.9805C103.122 51.9844 102.877 52.7891 102.389 53.3945C101.901 53.9961 101.233 54.2969 100.385 54.2969C99.6079 54.2969 99.0083 53.9609 98.5864 53.2891ZM98.563 50.8691V51.707C98.563 52.2031 98.7231 52.625 99.0435 52.9727C99.3677 53.3164 99.7778 53.4883 100.274 53.4883C100.856 53.4883 101.311 53.2656 101.639 52.8203C101.971 52.375 102.137 51.7559 102.137 50.9629C102.137 50.2949 101.983 49.7715 101.674 49.3926C101.366 49.0137 100.948 48.8242 100.42 48.8242C99.8618 48.8242 99.4126 49.0195 99.0728 49.4102C98.7329 49.7969 98.563 50.2832 98.563 50.8691ZM105.618 54.1562H104.657V45.2734H105.618V54.1562ZM111.858 54.1562H110.897V53.2188H110.874C110.456 53.9375 109.84 54.2969 109.028 54.2969C108.43 54.2969 107.961 54.1387 107.622 53.8223C107.286 53.5059 107.118 53.0859 107.118 52.5625C107.118 51.4414 107.778 50.7891 109.098 50.6055L110.897 50.3535C110.897 49.334 110.485 48.8242 109.661 48.8242C108.938 48.8242 108.286 49.0703 107.704 49.5625V48.5781C108.293 48.2031 108.973 48.0156 109.743 48.0156C111.153 48.0156 111.858 48.7617 111.858 50.2539V54.1562ZM110.897 51.1211L109.45 51.3203C109.004 51.3828 108.668 51.4941 108.442 51.6543C108.215 51.8105 108.102 52.0898 108.102 52.4922C108.102 52.7852 108.206 53.0254 108.413 53.2129C108.624 53.3965 108.903 53.4883 109.25 53.4883C109.727 53.4883 110.12 53.3223 110.428 52.9902C110.741 52.6543 110.897 52.2305 110.897 51.7188V51.1211ZM117.758 53.8809C117.297 54.1582 116.75 54.2969 116.118 54.2969C115.262 54.2969 114.571 54.0195 114.043 53.4648C113.52 52.9062 113.258 52.1836 113.258 51.2969C113.258 50.3086 113.542 49.5156 114.108 48.918C114.674 48.3164 115.43 48.0156 116.375 48.0156C116.903 48.0156 117.368 48.1133 117.77 48.3086V49.293C117.325 48.9805 116.848 48.8242 116.34 48.8242C115.727 48.8242 115.223 49.0449 114.829 49.4863C114.438 49.9238 114.243 50.5 114.243 51.2148C114.243 51.918 114.426 52.4727 114.793 52.8789C115.165 53.2852 115.661 53.4883 116.282 53.4883C116.805 53.4883 117.297 53.3145 117.758 52.9668V53.8809ZM124.034 51.3965H119.797C119.813 52.0645 119.993 52.5801 120.336 52.9434C120.68 53.3066 121.153 53.4883 121.754 53.4883C122.43 53.4883 123.051 53.2656 123.618 52.8203V53.7227C123.09 54.1055 122.393 54.2969 121.526 54.2969C120.678 54.2969 120.012 54.0254 119.528 53.4824C119.043 52.9355 118.801 52.168 118.801 51.1797C118.801 50.2461 119.065 49.4863 119.592 48.9004C120.124 48.3105 120.782 48.0156 121.567 48.0156C122.352 48.0156 122.959 48.2695 123.389 48.7773C123.819 49.2852 124.034 49.9902 124.034 50.8926V51.3965ZM123.049 50.582C123.045 50.0273 122.911 49.5957 122.645 49.2871C122.383 48.9785 122.018 48.8242 121.549 48.8242C121.096 48.8242 120.711 48.9863 120.395 49.3105C120.079 49.6348 119.883 50.0586 119.809 50.582H123.049ZM136.344 48.1562L134.545 54.1562H133.549L132.313 49.8613C132.266 49.6973 132.235 49.5117 132.219 49.3047H132.196C132.184 49.4453 132.143 49.627 132.073 49.8496L130.731 54.1562H129.77L127.954 48.1562H128.961L130.204 52.668C130.243 52.8047 130.27 52.9844 130.286 53.207H130.333C130.344 53.0352 130.379 52.8516 130.438 52.6562L131.821 48.1562H132.7L133.942 52.6797C133.981 52.8242 134.01 53.0039 134.03 53.2188H134.077C134.084 53.0664 134.118 52.8867 134.176 52.6797L135.395 48.1562H136.344ZM137.95 46.6328C137.778 46.6328 137.631 46.5742 137.51 46.457C137.389 46.3398 137.329 46.1914 137.329 46.0117C137.329 45.832 137.389 45.6836 137.51 45.5664C137.631 45.4453 137.778 45.3848 137.95 45.3848C138.125 45.3848 138.274 45.4453 138.395 45.5664C138.52 45.6836 138.583 45.832 138.583 46.0117C138.583 46.1836 138.52 46.3301 138.395 46.4512C138.274 46.5723 138.125 46.6328 137.95 46.6328ZM138.418 54.1562H137.458V48.1562H138.418V54.1562ZM145.344 54.1562H144.383V50.7344C144.383 49.4609 143.918 48.8242 142.989 48.8242C142.508 48.8242 142.11 49.0059 141.793 49.3691C141.481 49.7285 141.325 50.1836 141.325 50.7344V54.1562H140.364V48.1562H141.325V49.1523H141.348C141.801 48.3945 142.458 48.0156 143.317 48.0156C143.973 48.0156 144.475 48.2285 144.823 48.6543C145.17 49.0762 145.344 49.6875 145.344 50.4883V54.1562ZM152.141 54.1562H151.18V50.7344C151.18 49.4609 150.715 48.8242 149.786 48.8242C149.305 48.8242 148.907 49.0059 148.59 49.3691C148.278 49.7285 148.122 50.1836 148.122 50.7344V54.1562H147.161V48.1562H148.122V49.1523H148.145C148.598 48.3945 149.254 48.0156 150.114 48.0156C150.77 48.0156 151.272 48.2285 151.62 48.6543C151.967 49.0762 152.141 49.6875 152.141 50.4883V54.1562ZM158.78 51.3965H154.543C154.559 52.0645 154.739 52.5801 155.083 52.9434C155.426 53.3066 155.899 53.4883 156.5 53.4883C157.176 53.4883 157.797 53.2656 158.364 52.8203V53.7227C157.836 54.1055 157.139 54.2969 156.272 54.2969C155.424 54.2969 154.758 54.0254 154.274 53.4824C153.79 52.9355 153.547 52.168 153.547 51.1797C153.547 50.2461 153.811 49.4863 154.338 48.9004C154.87 48.3105 155.528 48.0156 156.313 48.0156C157.098 48.0156 157.706 48.2695 158.135 48.7773C158.565 49.2852 158.78 49.9902 158.78 50.8926V51.3965ZM157.795 50.582C157.792 50.0273 157.657 49.5957 157.391 49.2871C157.129 48.9785 156.764 48.8242 156.295 48.8242C155.842 48.8242 155.458 48.9863 155.141 49.3105C154.825 49.6348 154.629 50.0586 154.555 50.582H157.795ZM163.368 49.1289C163.2 49 162.958 48.9355 162.641 48.9355C162.231 48.9355 161.887 49.1289 161.61 49.5156C161.336 49.9023 161.2 50.4297 161.2 51.0977V54.1562H160.239V48.1562H161.2V49.3926H161.223C161.36 48.9707 161.569 48.6426 161.85 48.4082C162.131 48.1699 162.446 48.0508 162.793 48.0508C163.043 48.0508 163.235 48.0781 163.368 48.1328V49.1289Z" fill="white"/>
</svg>
