<svg width="120" height="64" viewBox="0 0 120 64" fill="none" xmlns="http://www.w3.org/2000/svg">
<path d="M7.74512 19.1562H1.45605V7.95312H7.49512V9.53125H3.31543V12.7031H7.16699V14.2734H3.31543V17.5859H7.74512V19.1562ZM19.2373 19.1562H17.2061L11.8545 10.9219C11.7191 10.7135 11.6071 10.4974 11.5186 10.2734H11.4717C11.5133 10.513 11.5342 11.026 11.5342 11.8125V19.1562H9.7373V7.95312H11.9014L17.0732 15.9922C17.292 16.3255 17.4326 16.5547 17.4951 16.6797H17.5264C17.4743 16.3828 17.4482 15.8802 17.4482 15.1719V7.95312H19.2373V19.1562ZM29.8311 18.6875C28.9873 19.125 27.9378 19.3438 26.6826 19.3438C25.0576 19.3438 23.7555 18.8307 22.7764 17.8047C21.7972 16.7786 21.3076 15.4323 21.3076 13.7656C21.3076 11.974 21.8571 10.526 22.9561 9.42188C24.0602 8.31771 25.4535 7.76562 27.1357 7.76562C28.2191 7.76562 29.1175 7.91927 29.8311 8.22656V10.0703C29.0758 9.6224 28.2425 9.39844 27.3311 9.39844C26.1175 9.39844 25.1331 9.78646 24.3779 10.5625C23.6279 11.3385 23.2529 12.375 23.2529 13.6719C23.2529 14.9062 23.6045 15.8906 24.3076 16.625C25.0107 17.3542 25.9352 17.7188 27.0811 17.7188C28.1383 17.7188 29.055 17.4688 29.8311 16.9688V18.6875ZM36.3701 19.3438C34.7555 19.3438 33.4613 18.8203 32.4873 17.7734C31.5186 16.7266 31.0342 15.3646 31.0342 13.6875C31.0342 11.8854 31.529 10.4479 32.5186 9.375C33.5081 8.30208 34.8519 7.76562 36.5498 7.76562C38.1227 7.76562 39.3883 8.28646 40.3467 9.32812C41.3102 10.3698 41.792 11.7318 41.792 13.4141C41.792 15.2422 41.2998 16.6875 40.3154 17.75C39.3311 18.8125 38.016 19.3438 36.3701 19.3438ZM36.4561 9.39844C35.43 9.39844 34.5941 9.78125 33.9482 10.5469C33.3076 11.3125 32.9873 12.3203 32.9873 13.5703C32.9873 14.8151 33.2998 15.8177 33.9248 16.5781C34.5498 17.3385 35.3675 17.7188 36.3779 17.7188C37.4508 17.7188 38.2972 17.3568 38.917 16.6328C39.5368 15.9089 39.8467 14.8958 39.8467 13.5938C39.8467 12.2552 39.5446 11.2214 38.9404 10.4922C38.3415 9.76302 37.5133 9.39844 36.4561 9.39844ZM43.8467 19.1562V7.95312H47.0811C51.2113 7.95312 53.2764 9.77344 53.2764 13.4141C53.2764 15.1432 52.7035 16.5339 51.5576 17.5859C50.4118 18.6328 48.8753 19.1562 46.9482 19.1562H43.8467ZM45.6982 9.53125V17.5859H47.1826C48.4899 17.5859 49.5055 17.2266 50.2295 16.5078C50.9587 15.7891 51.3232 14.7734 51.3232 13.4609C51.3232 10.8411 49.9665 9.53125 47.2529 9.53125H45.6982ZM61.6201 19.1562H55.3311V7.95312H61.3701V9.53125H57.1904V12.7031H61.042V14.2734H57.1904V17.5859H61.6201V19.1562ZM74.5029 11.1562L71.8389 15.2031L74.4717 19.1562H72.3701L70.9639 16.6797C70.8753 16.5286 70.7712 16.3359 70.6514 16.1016H70.6201C70.5993 16.1484 70.4899 16.3411 70.292 16.6797L68.8623 19.1562H66.7686L69.4873 15.2344L66.9092 11.1562H69.0186L70.4014 13.7578C70.5055 13.9505 70.6071 14.1484 70.7061 14.3516H70.7295L72.5186 11.1562H74.5029ZM10.9561 35.1562H8.9248L3.57324 26.9219C3.43783 26.7135 3.32585 26.4974 3.2373 26.2734H3.19043C3.2321 26.513 3.25293 27.026 3.25293 27.8125V35.1562H1.45605V23.9531H3.62012L8.79199 31.9922C9.01074 32.3255 9.15137 32.5547 9.21387 32.6797H9.24512C9.19303 32.3828 9.16699 31.8802 9.16699 31.1719V23.9531H10.9561V35.1562ZM20.0264 35.1562H13.7373V23.9531H19.7764V25.5312H15.5967V28.7031H19.4482V30.2734H15.5967V33.5859H20.0264V35.1562ZM31.3779 35.1562H29.3389L28.3311 32.3047H23.9248L22.9561 35.1562H20.9248L25.1201 23.9531H27.2139L31.3779 35.1562ZM27.8389 30.7891L26.2842 26.3203C26.2373 26.1745 26.1878 25.9401 26.1357 25.6172H26.1045C26.0576 25.9141 26.0055 26.1484 25.9482 26.3203L24.4092 30.7891H27.8389ZM41.5811 35.1562H39.4092L37.6201 32.1562C37.4587 31.8802 37.2998 31.6458 37.1436 31.4531C36.9925 31.2552 36.8363 31.0938 36.6748 30.9688C36.5186 30.8438 36.3467 30.7526 36.1592 30.6953C35.9717 30.638 35.7607 30.6094 35.5264 30.6094H34.7764V35.1562H32.9248V23.9531H36.6123C37.1383 23.9531 37.6227 24.0156 38.0654 24.1406C38.5081 24.2656 38.8936 24.4557 39.2217 24.7109C39.5498 24.9609 39.805 25.276 39.9873 25.6562C40.1748 26.0312 40.2686 26.4714 40.2686 26.9766C40.2686 27.3724 40.2087 27.737 40.0889 28.0703C39.9743 28.3984 39.8076 28.6927 39.5889 28.9531C39.3753 29.2083 39.1149 29.4271 38.8076 29.6094C38.5055 29.7917 38.1644 29.9323 37.7842 30.0312V30.0625C37.9873 30.1771 38.1644 30.3047 38.3154 30.4453C38.4665 30.5807 38.6097 30.7214 38.7451 30.8672C38.8805 31.013 39.0133 31.1797 39.1436 31.3672C39.279 31.5495 39.4274 31.763 39.5889 32.0078L41.5811 35.1562ZM34.7764 25.4609V29.1016H36.3232C36.6097 29.1016 36.8727 29.0573 37.1123 28.9688C37.3571 28.8802 37.568 28.7526 37.7451 28.5859C37.9222 28.4193 38.0602 28.2161 38.1592 27.9766C38.2581 27.737 38.3076 27.4688 38.3076 27.1719C38.3076 26.6354 38.1383 26.2161 37.7998 25.9141C37.4613 25.612 36.9743 25.4609 36.3389 25.4609H34.7764ZM56.2998 35.1562H54.4326V30.2969H49.1592V35.1562H47.2998V23.9531H49.1592V28.6641H54.4326V23.9531H56.2998V35.1562ZM63.6826 35.3438C62.068 35.3438 60.7738 34.8203 59.7998 33.7734C58.8311 32.7266 58.3467 31.3646 58.3467 29.6875C58.3467 27.8854 58.8415 26.4479 59.8311 25.375C60.8206 24.3021 62.1644 23.7656 63.8623 23.7656C65.4352 23.7656 66.7008 24.2865 67.6592 25.3281C68.6227 26.3698 69.1045 27.7318 69.1045 29.4141C69.1045 31.2422 68.6123 32.6875 67.6279 33.75C66.6436 34.8125 65.3285 35.3438 63.6826 35.3438ZM63.7686 25.3984C62.7425 25.3984 61.9066 25.7812 61.2607 26.5469C60.6201 27.3125 60.2998 28.3203 60.2998 29.5703C60.2998 30.8151 60.6123 31.8177 61.2373 32.5781C61.8623 33.3385 62.68 33.7188 63.6904 33.7188C64.7633 33.7188 65.6097 33.3568 66.2295 32.6328C66.8493 31.9089 67.1592 30.8958 67.1592 29.5938C67.1592 28.2552 66.8571 27.2214 66.2529 26.4922C65.654 25.763 64.8258 25.3984 63.7686 25.3984ZM79.8154 35.1562H77.6436L75.8545 32.1562C75.693 31.8802 75.5342 31.6458 75.3779 31.4531C75.2269 31.2552 75.0706 31.0938 74.9092 30.9688C74.7529 30.8438 74.5811 30.7526 74.3936 30.6953C74.2061 30.638 73.9951 30.6094 73.7607 30.6094H73.0107V35.1562H71.1592V23.9531H74.8467C75.3727 23.9531 75.8571 24.0156 76.2998 24.1406C76.7425 24.2656 77.1279 24.4557 77.4561 24.7109C77.7842 24.9609 78.0394 25.276 78.2217 25.6562C78.4092 26.0312 78.5029 26.4714 78.5029 26.9766C78.5029 27.3724 78.443 27.737 78.3232 28.0703C78.2087 28.3984 78.042 28.6927 77.8232 28.9531C77.6097 29.2083 77.3493 29.4271 77.042 29.6094C76.7399 29.7917 76.3988 29.9323 76.0186 30.0312V30.0625C76.2217 30.1771 76.3988 30.3047 76.5498 30.4453C76.7008 30.5807 76.8441 30.7214 76.9795 30.8672C77.1149 31.013 77.2477 31.1797 77.3779 31.3672C77.5133 31.5495 77.6618 31.763 77.8232 32.0078L79.8154 35.1562ZM73.0107 25.4609V29.1016H74.5576C74.8441 29.1016 75.1071 29.0573 75.3467 28.9688C75.5915 28.8802 75.8024 28.7526 75.9795 28.5859C76.1566 28.4193 76.2946 28.2161 76.3936 27.9766C76.4925 27.737 76.542 27.4688 76.542 27.1719C76.542 26.6354 76.3727 26.2161 76.0342 25.9141C75.6956 25.612 75.2087 25.4609 74.5732 25.4609H73.0107ZM83.0342 35.1562H81.1201V23.9531H83.0342V35.1562ZM93.4404 24.7656L87.2998 33.5859H93.3623V35.1562H84.6982V34.3047L90.8623 25.5312H85.1748V23.9531H93.4404V24.7656ZM99.8076 35.3438C98.193 35.3438 96.8988 34.8203 95.9248 33.7734C94.9561 32.7266 94.4717 31.3646 94.4717 29.6875C94.4717 27.8854 94.9665 26.4479 95.9561 25.375C96.9456 24.3021 98.2894 23.7656 99.9873 23.7656C101.56 23.7656 102.826 24.2865 103.784 25.3281C104.748 26.3698 105.229 27.7318 105.229 29.4141C105.229 31.2422 104.737 32.6875 103.753 33.75C102.769 34.8125 101.453 35.3438 99.8076 35.3438ZM99.8936 25.3984C98.8675 25.3984 98.0316 25.7812 97.3857 26.5469C96.7451 27.3125 96.4248 28.3203 96.4248 29.5703C96.4248 30.8151 96.7373 31.8177 97.3623 32.5781C97.9873 33.3385 98.805 33.7188 99.8154 33.7188C100.888 33.7188 101.735 33.3568 102.354 32.6328C102.974 31.9089 103.284 30.8958 103.284 29.5938C103.284 28.2552 102.982 27.2214 102.378 26.4922C101.779 25.763 100.951 25.3984 99.8936 25.3984ZM116.784 35.1562H114.753L109.401 26.9219C109.266 26.7135 109.154 26.4974 109.065 26.2734H109.019C109.06 26.513 109.081 27.026 109.081 27.8125V35.1562H107.284V23.9531H109.448L114.62 31.9922C114.839 32.3255 114.979 32.5547 115.042 32.6797H115.073C115.021 32.3828 114.995 31.8802 114.995 31.1719V23.9531H116.784V35.1562Z" fill="white"/>
<path d="M20.8154 54.1562H19.8545V46.8965C19.7803 46.9707 19.6709 47.0566 19.5264 47.1543C19.3857 47.248 19.2256 47.3418 19.0459 47.4355C18.8701 47.5293 18.6826 47.6172 18.4834 47.6992C18.2881 47.7812 18.0967 47.8457 17.9092 47.8926V46.9199C18.1201 46.8613 18.3428 46.7832 18.5771 46.6855C18.8154 46.584 19.0479 46.4727 19.2744 46.3516C19.5049 46.2266 19.7217 46.0977 19.9248 45.9648C20.1279 45.8281 20.3037 45.6953 20.4521 45.5664H20.8154V54.1562ZM23.6514 53.9395V52.9082C24.1748 53.2949 24.751 53.4883 25.3799 53.4883C26.2236 53.4883 26.6455 53.207 26.6455 52.6445C26.6455 52.4844 26.6084 52.3496 26.5342 52.2402C26.4639 52.127 26.3662 52.0273 26.2412 51.9414C26.1201 51.8555 25.9756 51.7793 25.8076 51.7129C25.6436 51.6426 25.4658 51.5703 25.2744 51.4961C25.0088 51.3906 24.7744 51.2852 24.5713 51.1797C24.3721 51.0703 24.2041 50.9492 24.0674 50.8164C23.9346 50.6797 23.833 50.5254 23.7627 50.3535C23.6963 50.1816 23.6631 49.9805 23.6631 49.75C23.6631 49.4688 23.7275 49.2207 23.8564 49.0059C23.9854 48.7871 24.1572 48.6055 24.3721 48.4609C24.5869 48.3125 24.8311 48.2012 25.1045 48.127C25.3818 48.0527 25.667 48.0156 25.96 48.0156C26.4795 48.0156 26.9443 48.1055 27.3545 48.2852V49.2578C26.9131 48.9688 26.4053 48.8242 25.8311 48.8242C25.6514 48.8242 25.4893 48.8457 25.3447 48.8887C25.2002 48.9277 25.0752 48.9844 24.9697 49.0586C24.8682 49.1328 24.7881 49.2227 24.7295 49.3281C24.6748 49.4297 24.6475 49.543 24.6475 49.668C24.6475 49.8242 24.6748 49.9551 24.7295 50.0605C24.7881 50.166 24.8721 50.2598 24.9814 50.3418C25.0908 50.4238 25.2236 50.498 25.3799 50.5645C25.5361 50.6309 25.7139 50.7031 25.9131 50.7812C26.1787 50.8828 26.417 50.9883 26.6279 51.0977C26.8389 51.2031 27.0186 51.3242 27.167 51.4609C27.3154 51.5938 27.4287 51.748 27.5068 51.9238C27.5889 52.0996 27.6299 52.3086 27.6299 52.5508C27.6299 52.8477 27.5635 53.1055 27.4307 53.3242C27.3018 53.543 27.1279 53.7246 26.9092 53.8691C26.6904 54.0137 26.4385 54.1211 26.1533 54.1914C25.8682 54.2617 25.5693 54.2969 25.2568 54.2969C24.6396 54.2969 24.1045 54.1777 23.6514 53.9395ZM31.8955 54.0977C31.6689 54.2227 31.3701 54.2852 30.999 54.2852C29.9482 54.2852 29.4229 53.6992 29.4229 52.5273V48.9766H28.3916V48.1562H29.4229V46.6914L30.3838 46.3809V48.1562H31.8955V48.9766H30.3838V52.3574C30.3838 52.7598 30.4521 53.0469 30.5889 53.2188C30.7256 53.3906 30.9521 53.4766 31.2686 53.4766C31.5107 53.4766 31.7197 53.4102 31.8955 53.2773V54.0977ZM37.4561 53.2891H37.4326V56.916H36.4717V48.1562H37.4326V49.2109H37.4561C37.9287 48.4141 38.6201 48.0156 39.5303 48.0156C40.3037 48.0156 40.9072 48.2852 41.3408 48.8242C41.7744 49.3594 41.9912 50.0781 41.9912 50.9805C41.9912 51.9844 41.7471 52.7891 41.2588 53.3945C40.7705 53.9961 40.1025 54.2969 39.2549 54.2969C38.4775 54.2969 37.8779 53.9609 37.4561 53.2891ZM37.4326 50.8691V51.707C37.4326 52.2031 37.5928 52.625 37.9131 52.9727C38.2373 53.3164 38.6475 53.4883 39.1436 53.4883C39.7256 53.4883 40.1807 53.2656 40.5088 52.8203C40.8408 52.375 41.0068 51.7559 41.0068 50.9629C41.0068 50.2949 40.8525 49.7715 40.5439 49.3926C40.2354 49.0137 39.8174 48.8242 39.29 48.8242C38.7314 48.8242 38.2822 49.0195 37.9424 49.4102C37.6025 49.7969 37.4326 50.2832 37.4326 50.8691ZM44.4873 54.1562H43.5264V45.2734H44.4873V54.1562ZM50.7275 54.1562H49.7666V53.2188H49.7432C49.3252 53.9375 48.71 54.2969 47.8975 54.2969C47.2998 54.2969 46.8311 54.1387 46.4912 53.8223C46.1553 53.5059 45.9873 53.0859 45.9873 52.5625C45.9873 51.4414 46.6475 50.7891 47.9678 50.6055L49.7666 50.3535C49.7666 49.334 49.3545 48.8242 48.5303 48.8242C47.8076 48.8242 47.1553 49.0703 46.5732 49.5625V48.5781C47.1631 48.2031 47.8428 48.0156 48.6123 48.0156C50.0225 48.0156 50.7275 48.7617 50.7275 50.2539V54.1562ZM49.7666 51.1211L48.3193 51.3203C47.874 51.3828 47.5381 51.4941 47.3115 51.6543C47.085 51.8105 46.9717 52.0898 46.9717 52.4922C46.9717 52.7852 47.0752 53.0254 47.2822 53.2129C47.4932 53.3965 47.7725 53.4883 48.1201 53.4883C48.5967 53.4883 48.9893 53.3223 49.2979 52.9902C49.6104 52.6543 49.7666 52.2305 49.7666 51.7188V51.1211ZM56.6279 53.8809C56.167 54.1582 55.6201 54.2969 54.9873 54.2969C54.1318 54.2969 53.4404 54.0195 52.9131 53.4648C52.3896 52.9062 52.1279 52.1836 52.1279 51.2969C52.1279 50.3086 52.4111 49.5156 52.9775 48.918C53.5439 48.3164 54.2998 48.0156 55.2451 48.0156C55.7725 48.0156 56.2373 48.1133 56.6396 48.3086V49.293C56.1943 48.9805 55.7178 48.8242 55.21 48.8242C54.5967 48.8242 54.0928 49.0449 53.6982 49.4863C53.3076 49.9238 53.1123 50.5 53.1123 51.2148C53.1123 51.918 53.2959 52.4727 53.6631 52.8789C54.0342 53.2852 54.5303 53.4883 55.1514 53.4883C55.6748 53.4883 56.167 53.3145 56.6279 52.9668V53.8809ZM62.9033 51.3965H58.667C58.6826 52.0645 58.8623 52.5801 59.2061 52.9434C59.5498 53.3066 60.0225 53.4883 60.624 53.4883C61.2998 53.4883 61.9209 53.2656 62.4873 52.8203V53.7227C61.96 54.1055 61.2627 54.2969 60.3955 54.2969C59.5479 54.2969 58.8818 54.0254 58.3975 53.4824C57.9131 52.9355 57.6709 52.168 57.6709 51.1797C57.6709 50.2461 57.9346 49.4863 58.4619 48.9004C58.9932 48.3105 59.6514 48.0156 60.4365 48.0156C61.2217 48.0156 61.8291 48.2695 62.2588 48.7773C62.6885 49.2852 62.9033 49.9902 62.9033 50.8926V51.3965ZM61.9189 50.582C61.915 50.0273 61.7803 49.5957 61.5146 49.2871C61.2529 48.9785 60.8877 48.8242 60.4189 48.8242C59.9658 48.8242 59.5811 48.9863 59.2646 49.3105C58.9482 49.6348 58.7529 50.0586 58.6787 50.582H61.9189ZM75.2139 48.1562L73.415 54.1562H72.4189L71.1826 49.8613C71.1357 49.6973 71.1045 49.5117 71.0889 49.3047H71.0654C71.0537 49.4453 71.0127 49.627 70.9424 49.8496L69.6006 54.1562H68.6396L66.8232 48.1562H67.8311L69.0732 52.668C69.1123 52.8047 69.1396 52.9844 69.1553 53.207H69.2021C69.2139 53.0352 69.249 52.8516 69.3076 52.6562L70.6904 48.1562H71.5693L72.8115 52.6797C72.8506 52.8242 72.8799 53.0039 72.8994 53.2188H72.9463C72.9541 53.0664 72.9873 52.8867 73.0459 52.6797L74.2646 48.1562H75.2139ZM76.8193 46.6328C76.6475 46.6328 76.501 46.5742 76.3799 46.457C76.2588 46.3398 76.1982 46.1914 76.1982 46.0117C76.1982 45.832 76.2588 45.6836 76.3799 45.5664C76.501 45.4453 76.6475 45.3848 76.8193 45.3848C76.9951 45.3848 77.1436 45.4453 77.2646 45.5664C77.3896 45.6836 77.4521 45.832 77.4521 46.0117C77.4521 46.1836 77.3896 46.3301 77.2646 46.4512C77.1436 46.5723 76.9951 46.6328 76.8193 46.6328ZM77.2881 54.1562H76.3271V48.1562H77.2881V54.1562ZM84.2139 54.1562H83.2529V50.7344C83.2529 49.4609 82.7881 48.8242 81.8584 48.8242C81.3779 48.8242 80.9795 49.0059 80.6631 49.3691C80.3506 49.7285 80.1943 50.1836 80.1943 50.7344V54.1562H79.2334V48.1562H80.1943V49.1523H80.2178C80.6709 48.3945 81.3271 48.0156 82.1865 48.0156C82.8428 48.0156 83.3447 48.2285 83.6924 48.6543C84.04 49.0762 84.2139 49.6875 84.2139 50.4883V54.1562ZM91.0107 54.1562H90.0498V50.7344C90.0498 49.4609 89.585 48.8242 88.6553 48.8242C88.1748 48.8242 87.7764 49.0059 87.46 49.3691C87.1475 49.7285 86.9912 50.1836 86.9912 50.7344V54.1562H86.0303V48.1562H86.9912V49.1523H87.0146C87.4678 48.3945 88.124 48.0156 88.9834 48.0156C89.6396 48.0156 90.1416 48.2285 90.4893 48.6543C90.8369 49.0762 91.0107 49.6875 91.0107 50.4883V54.1562ZM97.6494 51.3965H93.4131C93.4287 52.0645 93.6084 52.5801 93.9521 52.9434C94.2959 53.3066 94.7686 53.4883 95.3701 53.4883C96.0459 53.4883 96.667 53.2656 97.2334 52.8203V53.7227C96.7061 54.1055 96.0088 54.2969 95.1416 54.2969C94.2939 54.2969 93.6279 54.0254 93.1436 53.4824C92.6592 52.9355 92.417 52.168 92.417 51.1797C92.417 50.2461 92.6807 49.4863 93.208 48.9004C93.7393 48.3105 94.3975 48.0156 95.1826 48.0156C95.9678 48.0156 96.5752 48.2695 97.0049 48.7773C97.4346 49.2852 97.6494 49.9902 97.6494 50.8926V51.3965ZM96.665 50.582C96.6611 50.0273 96.5264 49.5957 96.2607 49.2871C95.999 48.9785 95.6338 48.8242 95.165 48.8242C94.7119 48.8242 94.3271 48.9863 94.0107 49.3105C93.6943 49.6348 93.499 50.0586 93.4248 50.582H96.665ZM102.237 49.1289C102.069 49 101.827 48.9355 101.511 48.9355C101.101 48.9355 100.757 49.1289 100.479 49.5156C100.206 49.9023 100.069 50.4297 100.069 51.0977V54.1562H99.1084V48.1562H100.069V49.3926H100.093C100.229 48.9707 100.438 48.6426 100.72 48.4082C101.001 48.1699 101.315 48.0508 101.663 48.0508C101.913 48.0508 102.104 48.0781 102.237 48.1328V49.1289Z" fill="white"/>
</svg>
