<svg width="236" height="64" viewBox="0 0 236 64" fill="none" xmlns="http://www.w3.org/2000/svg">
<path d="M51.2246 18.1426H54.5127L56.5527 29.7854H56.6487L59.9848 18.1426H62.4328L65.6969 29.7854H65.7929L67.8329 18.1426H71.1209L67.6409 34.6405H64.5928L61.2568 23.0449H61.1608L57.7527 34.6405H54.7047L51.2246 18.1426Z" fill="#222222"/>
<path d="M73.2787 18.1426H85.4229V20.853H76.5428V25.0246H84.7269V27.6879H76.5428V31.9302H85.4229V34.6405H73.2787V18.1426Z" fill="#222222"/>
<path d="M87.8337 18.1426H98.3699L100.77 20.4995V25.1189L99.8099 26.0852L101.514 27.7821V32.0952L98.9219 34.6405H87.8337V18.1426ZM96.6898 25.0482L97.5538 24.1997V21.6543L96.7138 20.8294H91.0257V25.0482H96.6898ZM97.2658 31.9537L98.2978 30.9403V28.6306L97.2658 27.6172H91.0257V31.9537H97.2658Z" fill="#222222"/>
<path d="M103.192 32.0952V29.5026H106.456V31.1288L107.248 31.9066H111.568L112.36 31.1288V28.4656L111.592 27.7114H106.792V24.9775H111.592L112.36 24.2233V21.6543L111.568 20.8766H107.392L106.6 21.6543V23.2806H103.336V20.688L105.928 18.1426H113.032L115.624 20.688V25.166L114.4 26.3445L115.624 27.5464V32.0952L113.032 34.6405H105.784L103.192 32.0952Z" fill="#222222"/>
<path d="M118.853 18.1426H120.245V25.8024H129.365V18.1426H130.757V34.6405H129.365V27.0279H120.245V34.6405H118.853V18.1426Z" fill="#222222"/>
<path d="M139.23 18.1426H140.886L146.718 34.6405H145.278L143.646 29.9269H136.47L134.838 34.6405H133.398L139.23 18.1426ZM143.238 28.7249L140.094 19.6275H140.022L136.902 28.7249H143.238Z" fill="#222222"/>
<path d="M148.778 32.1659V20.6173L151.298 18.1426H158.306L160.73 20.5231V21.7722H159.338V20.9473L157.706 19.3682H151.922L150.17 21.0651V31.6945L151.922 33.415H157.706L159.338 31.8359V31.011H160.73V32.2601L158.306 34.6405H151.298L148.778 32.1659Z" fill="#222222"/>
<path d="M163.971 18.1426H165.363V25.7788H169.659L173.955 18.1426H175.443L170.811 26.368L175.803 34.6405H174.291L169.659 27.0044H165.363V34.6405H163.971V18.1426Z" fill="#222222"/>
<path d="M178.432 18.1426H188.609V19.3682H179.824V25.7788H187.457V27.0044H179.824V34.6405H178.432V18.1426Z" fill="#222222"/>
<path d="M191.487 18.1426H201.903V19.3682H192.879V25.7317H201.207V26.9572H192.879V33.415H201.903V34.6405H191.487V18.1426Z" fill="#222222"/>
<path d="M204.909 32.5901V31.341H206.277V32.1187L207.573 33.415H213.501L214.821 32.0716V28.065L213.501 26.7687H207.045L204.957 24.7418V20.1931L207.045 18.1426H213.909L215.997 20.1931V21.4658H214.629V20.6409L213.309 19.3682H207.645L206.325 20.6409V24.2704L207.645 25.5431H214.101L216.189 27.5936V32.543L214.053 34.6405H206.997L204.909 32.5901Z" fill="#222222"/>
<path d="M223.079 19.3446H217.991V18.1426H229.559V19.3446H224.471V34.6405H223.079V19.3446Z" fill="#222222"/>
<path d="M6.4439 24.5615C7.10533 22.2118 8.34083 20.2295 10.2153 18.6597C10.4524 18.4598 10.6221 18.0048 11.0015 18.1973C11.3385 18.3673 11.2012 18.7997 11.1937 19.1147C11.1288 21.2744 11.3585 23.4391 11.0065 25.5964C10.8093 26.8037 11.1663 27.9186 12.0473 28.8059C14.1564 30.9357 16.288 33.0404 18.3821 35.1801C18.9412 35.7501 19.4104 35.8151 19.9321 35.1876C20.0369 35.0602 20.1667 34.9502 20.284 34.8327C21.131 33.9861 21.1418 33.1471 20.3165 32.3155C18.6716 30.6632 17.0418 29.0009 15.3745 27.3711C14.733 26.7462 14.4285 26.0463 14.451 25.1514C14.5333 21.7818 14.5932 18.4123 14.6481 15.0427C14.6581 14.4653 14.8553 13.9978 15.2621 13.5979C16.2106 12.663 17.1416 11.7106 18.0926 10.7807C18.3172 10.5608 18.5244 10.1683 18.8988 10.3208C19.2732 10.4733 19.1583 10.8982 19.1583 11.2157C19.1683 15.0877 19.2207 18.9622 19.1434 22.8342C19.1159 24.1615 19.4978 25.1239 20.4812 25.9988C21.7217 27.1037 22.8798 28.3085 24.0105 29.5284C24.622 30.1858 25.0363 30.1258 25.6229 29.5034C26.9682 28.086 28.3535 26.7037 29.7662 25.3514C30.3877 24.7565 30.6298 24.1015 30.6248 23.2492C30.5998 19.3347 30.6123 15.4202 30.6323 11.5056C30.6323 11.1232 30.4076 10.5633 30.9018 10.4008C31.2663 10.2808 31.4734 10.8057 31.7704 11.0157C34.5759 12.9955 35.6392 15.6426 35.1874 19.0722C34.9453 20.9145 35.0776 22.8167 35.1699 24.6865C35.2348 25.9663 34.803 26.8837 33.877 27.7461C32.2047 29.3059 30.6572 31.0007 28.9999 32.578C28.2736 33.2704 28.1738 33.7578 28.96 34.4927C30.8419 36.2475 30.2853 36.23 32.05 34.4927C33.7397 32.8279 35.3796 31.1107 37.0893 29.4684C38.4097 28.201 38.8515 26.7287 38.5495 24.9389C38.2125 22.9567 38.4546 20.9494 38.4147 18.9547C38.4097 18.7097 38.4047 18.4173 38.6768 18.3023C38.9513 18.1873 39.126 18.4273 39.3157 18.5797C44.2253 22.5092 44.5672 28.4585 40.1294 32.9204C37.1942 35.87 34.234 38.7947 31.3212 41.7668C30.6772 42.4242 30.2853 42.4592 29.6289 41.7618C28.346 40.402 26.9158 39.1821 25.6254 37.8298C25.0238 37.1974 24.6395 37.1474 24.0305 37.7923C22.745 39.1546 21.3698 40.4295 20.0868 41.7918C19.4828 42.4317 19.076 42.4067 18.467 41.7868C15.2297 38.4922 11.9575 35.2326 8.69276 31.963C7.46725 30.7357 7.02297 29.1159 6.44141 27.5586V24.559L6.4439 24.5615Z" fill="#222222"/>
<path d="M24.9144 4.00159C27.0983 5.57639 27.3929 7.8036 27.1932 10.2783C27.0584 11.9431 27.1283 11.9906 25.3886 11.9881C22.1414 11.9831 22.6356 12.2405 22.3685 9.04845C22.1788 6.77873 23.2496 5.38391 24.6648 4.00409H24.9144V4.00159Z" fill="#222222"/>
<path d="M24.6648 47.996C23.8561 47.1661 23.0698 46.3112 22.2287 45.5163C21.747 45.0614 21.752 44.6989 22.2237 44.2815C22.3485 44.1715 22.4558 44.044 22.5756 43.9315C25.4036 41.2569 24.3003 41.1644 27.278 43.9915C27.9295 44.6089 27.9669 45.1164 27.298 45.7513C26.5492 46.4612 25.8728 47.2461 25.1639 47.9985H24.6648V47.996Z" fill="#222222"/>
<path d="M27.1754 19.4396C27.1754 19.9795 27.0856 20.5395 27.1929 21.0569C27.5573 22.8542 26.3043 23.784 25.266 24.8389C25.0788 25.0289 24.8841 25.1089 24.5996 24.9939C23.7884 24.6589 22.4406 22.7542 22.4331 21.8468C22.4231 20.142 22.4431 18.4372 22.4306 16.7324C22.4231 15.9075 22.775 15.5051 23.6187 15.5101C27.8793 15.5351 27.0881 15.0527 27.1729 18.8147C27.1779 19.0221 27.1729 19.2296 27.1729 19.4396H27.1754Z" fill="#222222"/>
<rect x="60" y="39.9984" width="116" height="20" rx="10" fill="#E3E8EB"/>
<path opacity="0.8" d="M73.9531 53.9984H72.9922V50.5414C72.9922 49.2914 72.5273 48.6664 71.5977 48.6664C71.1289 48.6664 70.7344 48.848 70.4141 49.2113C70.0938 49.5707 69.9336 50.0336 69.9336 50.6V53.9984H68.9727V45.1156H69.9336V48.9945H69.957C70.418 48.2367 71.0742 47.8578 71.9258 47.8578C73.2773 47.8578 73.9531 48.6722 73.9531 50.3011V53.9984ZM80.0645 53.9984H79.1035V53.0609H79.0801C78.6621 53.7797 78.0469 54.139 77.2344 54.139C76.6367 54.139 76.168 53.9808 75.8281 53.6644C75.4922 53.348 75.3242 52.9281 75.3242 52.4047C75.3242 51.2836 75.9844 50.6312 77.3047 50.4476L79.1035 50.1957C79.1035 49.1761 78.6914 48.6664 77.8672 48.6664C77.1445 48.6664 76.4922 48.9125 75.9102 49.4047V48.4203C76.5 48.0453 77.1797 47.8578 77.9492 47.8578C79.3594 47.8578 80.0645 48.6039 80.0645 50.0961V53.9984ZM79.1035 50.9633L77.6562 51.1625C77.2109 51.225 76.875 51.3363 76.6484 51.4965C76.4219 51.6527 76.3086 51.932 76.3086 52.3344C76.3086 52.6273 76.4121 52.8676 76.6191 53.0551C76.8301 53.2386 77.1094 53.3304 77.457 53.3304C77.9336 53.3304 78.3262 53.1644 78.6348 52.8324C78.9473 52.4965 79.1035 52.0726 79.1035 51.5609V50.9633ZM85.9648 53.723C85.5039 54.0004 84.957 54.139 84.3242 54.139C83.4688 54.139 82.7773 53.8617 82.25 53.307C81.7266 52.7484 81.4648 52.0258 81.4648 51.139C81.4648 50.1508 81.748 49.3578 82.3145 48.7601C82.8809 48.1586 83.6367 47.8578 84.582 47.8578C85.1094 47.8578 85.5742 47.9554 85.9766 48.1508V49.1351C85.5312 48.8226 85.0547 48.6664 84.5469 48.6664C83.9336 48.6664 83.4297 48.8871 83.0352 49.3285C82.6445 49.766 82.4492 50.3422 82.4492 51.057C82.4492 51.7601 82.6328 52.3148 83 52.7211C83.3711 53.1273 83.8672 53.3304 84.4883 53.3304C85.0117 53.3304 85.5039 53.1566 85.9648 52.809V53.723ZM92.3984 53.9984H91.0508L88.4023 51.1156H88.3789V53.9984H87.418V45.1156H88.3789V50.7465H88.4023L90.9219 47.9984H92.1816L89.3984 50.8929L92.3984 53.9984ZM97.6777 53.9984H96.7168V53.0609H96.6934C96.2754 53.7797 95.6602 54.139 94.8477 54.139C94.25 54.139 93.7812 53.9808 93.4414 53.6644C93.1055 53.348 92.9375 52.9281 92.9375 52.4047C92.9375 51.2836 93.5977 50.6312 94.918 50.4476L96.7168 50.1957C96.7168 49.1761 96.3047 48.6664 95.4805 48.6664C94.7578 48.6664 94.1055 48.9125 93.5234 49.4047V48.4203C94.1133 48.0453 94.793 47.8578 95.5625 47.8578C96.9727 47.8578 97.6777 48.6039 97.6777 50.0961V53.9984ZM96.7168 50.9633L95.2695 51.1625C94.8242 51.225 94.4883 51.3363 94.2617 51.4965C94.0352 51.6527 93.9219 51.932 93.9219 52.3344C93.9219 52.6273 94.0254 52.8676 94.2324 53.0551C94.4434 53.2386 94.7227 53.3304 95.0703 53.3304C95.5469 53.3304 95.9395 53.1644 96.248 52.8324C96.5605 52.4965 96.7168 52.0726 96.7168 51.5609V50.9633ZM102.271 53.9398C102.045 54.0648 101.746 54.1273 101.375 54.1273C100.324 54.1273 99.7988 53.5414 99.7988 52.3695V48.8187H98.7676V47.9984H99.7988V46.5336L100.76 46.223V47.9984H102.271V48.8187H100.76V52.1996C100.76 52.6019 100.828 52.889 100.965 53.0609C101.102 53.2328 101.328 53.3187 101.645 53.3187C101.887 53.3187 102.096 53.2523 102.271 53.1195V53.9398ZM108.535 53.9984H107.574V50.5414C107.574 49.2914 107.109 48.6664 106.18 48.6664C105.711 48.6664 105.316 48.848 104.996 49.2113C104.676 49.5707 104.516 50.0336 104.516 50.6V53.9984H103.555V45.1156H104.516V48.9945H104.539C105 48.2367 105.656 47.8578 106.508 47.8578C107.859 47.8578 108.535 48.6722 108.535 50.3011V53.9984ZM112.859 54.139C111.973 54.139 111.264 53.8597 110.732 53.3011C110.205 52.7386 109.941 51.9945 109.941 51.0687C109.941 50.0609 110.217 49.2738 110.768 48.7074C111.318 48.141 112.062 47.8578 113 47.8578C113.895 47.8578 114.592 48.1332 115.092 48.684C115.596 49.2347 115.848 49.9984 115.848 50.975C115.848 51.932 115.576 52.6996 115.033 53.2777C114.494 53.8519 113.77 54.139 112.859 54.139ZM112.93 48.6664C112.312 48.6664 111.824 48.8773 111.465 49.2992C111.105 49.7172 110.926 50.2953 110.926 51.0336C110.926 51.7445 111.107 52.3051 111.471 52.7152C111.834 53.1254 112.32 53.3304 112.93 53.3304C113.551 53.3304 114.027 53.1293 114.359 52.7269C114.695 52.3246 114.863 51.7523 114.863 51.0101C114.863 50.2601 114.695 49.682 114.359 49.2758C114.027 48.8695 113.551 48.6664 112.93 48.6664ZM122.363 53.9984H121.402V50.5765C121.402 49.3031 120.938 48.6664 120.008 48.6664C119.527 48.6664 119.129 48.848 118.812 49.2113C118.5 49.5707 118.344 50.0258 118.344 50.5765V53.9984H117.383V47.9984H118.344V48.9945H118.367C118.82 48.2367 119.477 47.8578 120.336 47.8578C120.992 47.8578 121.494 48.0707 121.842 48.4965C122.189 48.9183 122.363 49.5297 122.363 50.3304V53.9984ZM135.031 47.9984L133.232 53.9984H132.236L131 49.7035C130.953 49.5394 130.922 49.3539 130.906 49.1469H130.883C130.871 49.2875 130.83 49.4691 130.76 49.6918L129.418 53.9984H128.457L126.641 47.9984H127.648L128.891 52.5101C128.93 52.6469 128.957 52.8265 128.973 53.0492H129.02C129.031 52.8773 129.066 52.6937 129.125 52.4984L130.508 47.9984H131.387L132.629 52.5219C132.668 52.6664 132.697 52.8461 132.717 53.0609H132.764C132.771 52.9086 132.805 52.7289 132.863 52.5219L134.082 47.9984H135.031ZM136.637 46.475C136.465 46.475 136.318 46.4164 136.197 46.2992C136.076 46.182 136.016 46.0336 136.016 45.8539C136.016 45.6742 136.076 45.5258 136.197 45.4086C136.318 45.2875 136.465 45.2269 136.637 45.2269C136.812 45.2269 136.961 45.2875 137.082 45.4086C137.207 45.5258 137.27 45.6742 137.27 45.8539C137.27 46.0258 137.207 46.1722 137.082 46.2933C136.961 46.4144 136.812 46.475 136.637 46.475ZM137.105 53.9984H136.145V47.9984H137.105V53.9984ZM144.031 53.9984H143.07V50.5765C143.07 49.3031 142.605 48.6664 141.676 48.6664C141.195 48.6664 140.797 48.848 140.48 49.2113C140.168 49.5707 140.012 50.0258 140.012 50.5765V53.9984H139.051V47.9984H140.012V48.9945H140.035C140.488 48.2367 141.145 47.8578 142.004 47.8578C142.66 47.8578 143.162 48.0707 143.51 48.4965C143.857 48.9183 144.031 49.5297 144.031 50.3304V53.9984ZM150.828 53.9984H149.867V50.5765C149.867 49.3031 149.402 48.6664 148.473 48.6664C147.992 48.6664 147.594 48.848 147.277 49.2113C146.965 49.5707 146.809 50.0258 146.809 50.5765V53.9984H145.848V47.9984H146.809V48.9945H146.832C147.285 48.2367 147.941 47.8578 148.801 47.8578C149.457 47.8578 149.959 48.0707 150.307 48.4965C150.654 48.9183 150.828 49.5297 150.828 50.3304V53.9984ZM157.467 51.2386H153.23C153.246 51.9066 153.426 52.4222 153.77 52.7855C154.113 53.1488 154.586 53.3304 155.188 53.3304C155.863 53.3304 156.484 53.1078 157.051 52.6625V53.5648C156.523 53.9476 155.826 54.139 154.959 54.139C154.111 54.139 153.445 53.8676 152.961 53.3246C152.477 52.7777 152.234 52.0101 152.234 51.0219C152.234 50.0883 152.498 49.3285 153.025 48.7426C153.557 48.1527 154.215 47.8578 155 47.8578C155.785 47.8578 156.393 48.1117 156.822 48.6195C157.252 49.1273 157.467 49.8324 157.467 50.7347V51.2386ZM156.482 50.4242C156.479 49.8695 156.344 49.4379 156.078 49.1293C155.816 48.8207 155.451 48.6664 154.982 48.6664C154.529 48.6664 154.145 48.8285 153.828 49.1527C153.512 49.4769 153.316 49.9008 153.242 50.4242H156.482ZM162.055 48.9711C161.887 48.8422 161.645 48.7777 161.328 48.7777C160.918 48.7777 160.574 48.9711 160.297 49.3578C160.023 49.7445 159.887 50.2719 159.887 50.9398V53.9984H158.926V47.9984H159.887V49.2347H159.91C160.047 48.8129 160.256 48.4847 160.537 48.2504C160.818 48.0121 161.133 47.8929 161.48 47.8929C161.73 47.8929 161.922 47.9203 162.055 47.975V48.9711ZM162.734 53.7816V52.7504C163.258 53.1371 163.834 53.3304 164.463 53.3304C165.307 53.3304 165.729 53.0492 165.729 52.4867C165.729 52.3265 165.691 52.1918 165.617 52.0824C165.547 51.9691 165.449 51.8695 165.324 51.7836C165.203 51.6976 165.059 51.6215 164.891 51.5551C164.727 51.4847 164.549 51.4125 164.357 51.3383C164.092 51.2328 163.857 51.1273 163.654 51.0219C163.455 50.9125 163.287 50.7914 163.15 50.6586C163.018 50.5219 162.916 50.3676 162.846 50.1957C162.779 50.0238 162.746 49.8226 162.746 49.5922C162.746 49.3109 162.811 49.0629 162.939 48.848C163.068 48.6293 163.24 48.4476 163.455 48.3031C163.67 48.1547 163.914 48.0433 164.188 47.9691C164.465 47.8949 164.75 47.8578 165.043 47.8578C165.562 47.8578 166.027 47.9476 166.438 48.1273V49.1C165.996 48.8109 165.488 48.6664 164.914 48.6664C164.734 48.6664 164.572 48.6879 164.428 48.7308C164.283 48.7699 164.158 48.8265 164.053 48.9008C163.951 48.975 163.871 49.0648 163.812 49.1703C163.758 49.2719 163.73 49.3851 163.73 49.5101C163.73 49.6664 163.758 49.7972 163.812 49.9027C163.871 50.0082 163.955 50.1019 164.064 50.184C164.174 50.266 164.307 50.3402 164.463 50.4066C164.619 50.473 164.797 50.5453 164.996 50.6234C165.262 50.725 165.5 50.8304 165.711 50.9398C165.922 51.0453 166.102 51.1664 166.25 51.3031C166.398 51.4359 166.512 51.5902 166.59 51.766C166.672 51.9418 166.713 52.1508 166.713 52.3929C166.713 52.6898 166.646 52.9476 166.514 53.1664C166.385 53.3851 166.211 53.5668 165.992 53.7113C165.773 53.8558 165.521 53.9633 165.236 54.0336C164.951 54.1039 164.652 54.139 164.34 54.139C163.723 54.139 163.188 54.0199 162.734 53.7816Z" fill="#222222"/>
</svg>
