<svg width="236" height="64" viewBox="0 0 236 64" fill="none" xmlns="http://www.w3.org/2000/svg">
<path d="M38.0396 12.769C38.0396 11.7994 38.0396 11.3152 38.2282 10.9446C38.3944 10.6189 38.6593 10.3544 38.9853 10.1884C39.3564 10 39.8412 10 40.812 10H52.4539C61.1884 10 65.5563 10 68.8922 11.6983C71.827 13.1907 74.2134 15.5741 75.7076 18.5053C77.4081 21.837 77.4081 26.1994 77.4081 34.9231V51.2311C77.4081 52.2006 77.4081 52.6848 77.2194 53.0554C77.0532 53.3811 76.7884 53.6456 76.4623 53.8116C76.0912 54 75.6052 54 74.6357 54H47.7436C44.3465 54 42.6486 54 41.3517 53.3399C40.2098 52.7584 39.2827 51.8325 38.7005 50.692C38.0396 49.3967 38.0396 47.7009 38.0396 44.3081V12.769Z" fill="#222222"/>
<path d="M48.8065 19.5136L48.7677 19.5323C45.6243 21.0684 43.509 22.9052 43.509 22.9052L42.7182 23.5566C42.6957 23.5753 42.6744 23.5965 42.6557 23.619L41.2614 25.1027C40.999 25.3747 40.8516 25.7391 40.8516 26.1184C40.8516 26.4977 40.999 26.8621 41.2614 27.1341L61.5241 47.4252L65.1549 51.0727C65.2236 51.1363 65.3123 51.1725 65.406 51.175H72.2514C72.3889 51.1725 72.5226 51.1301 72.635 51.0527C72.7487 50.9753 72.8361 50.8668 72.8886 50.7395C72.9398 50.6135 72.9548 50.4737 72.9286 50.3389C72.9024 50.2042 72.8374 50.0806 72.7412 49.9821L65.852 43.0678C65.852 43.0678 66.0082 42.7621 66.0769 42.631C66.6366 41.5791 67.3213 40.184 67.931 38.5718C67.936 38.5531 67.9548 38.462 67.8723 38.4121C67.7798 38.3559 67.6961 38.4121 67.6961 38.4121C66.363 39.3006 64.8812 40.0206 63.2882 40.5247L47.0536 23.9272C47.4271 22.4498 48.0993 21.0122 48.9951 19.6883C49.0026 19.6721 49.0439 19.581 48.9639 19.5236C48.9089 19.4849 48.8452 19.4986 48.8065 19.5136ZM65.6559 21.2905C60.4046 16.0221 54.1177 17.1365 49.5874 19.1505C49.5574 19.1605 49.5099 19.1679 49.4749 19.1367C49.4287 19.0968 49.4512 19.0519 49.4612 19.0369C52.1873 15.4257 56.5952 12.809 61.0631 12.809C68.0909 12.809 74.5953 19.3327 74.5953 26.3817C74.5953 30.8714 72.1852 35.1053 68.3995 37.9167C68.3995 37.9167 68.3096 37.9804 68.2446 37.9167C68.2009 37.8743 68.2021 37.8319 68.2084 37.8081L68.2146 37.7907C69.9088 32.9029 70.7047 26.3493 65.6559 21.2905ZM48.3504 47.4315C48.3504 49.4991 46.6713 51.175 44.601 51.175C42.5308 51.175 40.8516 49.4991 40.8516 47.4315C40.8516 45.3651 42.5308 43.6892 44.601 43.6892C46.6713 43.6892 48.3504 45.3651 48.3504 47.4315Z" fill="#E7ECEF"/>
<path d="M93.107 30.759V47.3502H89.6587V28.0848H92.8472L93.107 30.759ZM102.153 34.9005V35.1701C102.153 36.1821 102.031 37.1217 101.788 37.9864C101.554 38.8449 101.207 39.5949 100.747 40.2375C100.287 40.8727 99.7151 41.3693 99.0292 41.7299C98.352 42.0806 97.5711 42.2565 96.6866 42.2565C95.8182 42.2565 95.0636 42.0943 94.4214 41.7686C93.7792 41.4342 93.237 40.9625 92.7947 40.3536C92.3524 39.7446 91.9963 39.0371 91.7277 38.231C91.4666 37.4174 91.2717 36.5302 91.1417 35.5694V34.7071C91.2717 33.6876 91.4666 32.7617 91.7277 31.9294C91.9963 31.0896 92.3524 30.3646 92.7947 29.7557C93.237 29.1393 93.7755 28.6626 94.4089 28.3282C95.0511 27.9937 95.8007 27.8265 96.6603 27.8265C97.5536 27.8265 98.3395 27.9937 99.0154 28.3282C99.7014 28.6626 100.279 29.143 100.747 29.7694C101.216 30.3946 101.567 31.1408 101.802 32.0068C102.035 32.8728 102.153 33.8374 102.153 34.9005ZM98.7031 35.1701V34.9005C98.7031 34.2829 98.6469 33.7126 98.5344 33.1897C98.422 32.6582 98.2483 32.1952 98.0134 31.8009C97.7798 31.3979 97.4762 31.0846 97.1026 30.8625C96.7303 30.6392 96.278 30.5281 95.7495 30.5281C95.2198 30.5281 94.765 30.6142 94.3827 30.7852C94.0004 30.9561 93.688 31.2007 93.4456 31.5176C93.202 31.8358 93.0121 32.2127 92.8734 32.6494C92.7422 33.0787 92.656 33.5541 92.6123 34.077V36.212C92.691 36.8472 92.8422 37.4174 93.0683 37.9228C93.2932 38.4282 93.623 38.8312 94.0578 39.132C94.5001 39.4314 95.0723 39.5824 95.7757 39.5824C96.3042 39.5824 96.7553 39.4664 97.1288 39.2343C97.5024 39.0034 97.806 38.6865 98.0397 38.2834C98.2745 37.8716 98.4432 37.4 98.5469 36.8684C98.6519 36.3368 98.7031 35.7703 98.7031 35.1701Z" fill="#222222"/>
<path d="M108.101 30.9262V41.9995H104.664V28.0848H107.919L108.101 30.9262ZM112.383 27.9937L112.33 31.1583C112.139 31.1233 111.923 31.0984 111.679 31.0809C111.446 31.0634 111.225 31.0547 111.016 31.0547C110.486 31.0547 110.023 31.1283 109.623 31.2743C109.224 31.4116 108.891 31.6125 108.621 31.8783C108.361 32.1441 108.161 32.4697 108.022 32.8553C107.884 33.2334 107.805 33.6614 107.789 34.1418L107.047 34.052C107.047 33.1685 107.138 32.35 107.32 31.595C107.501 30.8413 107.766 30.18 108.114 29.6147C108.461 29.0482 108.895 28.6114 109.416 28.3032C109.944 27.9863 110.551 27.8265 111.237 27.8265C111.428 27.8265 111.632 27.844 111.849 27.8789C112.074 27.9039 112.253 27.9426 112.383 27.9937Z" fill="#222222"/>
<path d="M113.293 35.1838V34.913C113.293 33.8935 113.44 32.9539 113.735 32.0966C114.03 31.2306 114.46 30.4807 115.025 29.8468C115.588 29.2116 116.278 28.7187 117.094 28.3669C117.909 28.0075 118.838 27.8265 119.879 27.8265C120.937 27.8265 121.874 28.0075 122.69 28.3669C123.514 28.7187 124.209 29.2116 124.772 29.8468C125.336 30.4807 125.766 31.2306 126.061 32.0966C126.357 32.9539 126.503 33.8935 126.503 34.913V35.1838C126.503 36.1945 126.357 37.1342 126.061 38.0002C125.766 38.8574 125.336 39.6074 124.772 40.25C124.209 40.8852 123.518 41.3781 122.703 41.7299C121.888 42.0806 120.954 42.2565 119.905 42.2565C118.864 42.2565 117.931 42.0806 117.106 41.7299C116.283 41.3781 115.588 40.8852 115.025 40.25C114.46 39.6074 114.03 38.8574 113.735 38.0002C113.44 37.1342 113.293 36.1945 113.293 35.1838ZM116.729 34.913V35.1838C116.729 35.7927 116.79 36.363 116.911 36.8946C117.032 37.4262 117.22 37.8928 117.471 38.2959C117.722 38.699 118.048 39.0159 118.447 39.248C118.855 39.4701 119.341 39.5824 119.905 39.5824C120.46 39.5824 120.937 39.4701 121.337 39.248C121.735 39.0159 122.061 38.699 122.312 38.2959C122.572 37.8928 122.763 37.4262 122.885 36.8946C123.007 36.363 123.067 35.7927 123.067 35.1838V34.913C123.067 34.3128 123.007 33.7513 122.885 33.2284C122.763 32.6968 122.572 32.2302 122.312 31.8271C122.061 31.4153 121.731 31.0934 121.323 30.8625C120.924 30.6217 120.443 30.5019 119.879 30.5019C119.324 30.5019 118.847 30.6217 118.447 30.8625C118.048 31.0934 117.722 31.4153 117.471 31.8271C117.22 32.2302 117.032 32.6968 116.911 33.2284C116.79 33.7513 116.729 34.3128 116.729 34.913Z" fill="#222222"/>
<path d="M131.411 28.0836L133.922 32.5084L136.474 28.0836H140.209L136.07 34.9005L140.378 41.9994H136.644L133.949 37.3575L133.272 38.518L132.596 39.6785L131.241 41.9994H127.507L131.801 34.9005L127.689 28.0836H131.411Z" fill="#222222"/>
<path d="M145.844 28.0836V41.9994H142.396V28.0836H145.844Z" fill="#222222"/>
<path d="M152.547 30.9399V41.9995H149.111V28.0848H152.352L152.547 30.9399ZM152.04 34.5399H150.985C150.985 33.5716 151.103 32.6794 151.338 31.8658C151.58 31.051 151.936 30.3434 152.405 29.7432C152.873 29.1343 153.45 28.6626 154.135 28.3282C154.83 27.9937 155.632 27.8265 156.543 27.8265C157.176 27.8265 157.758 27.9214 158.287 28.1098C158.817 28.2907 159.273 28.5777 159.654 28.9721C160.045 29.3576 160.343 29.863 160.552 30.4894C160.761 31.1071 160.864 31.8483 160.864 32.7143V41.9995H157.429V33.0612C157.429 32.4098 157.332 31.8995 157.142 31.5314C156.96 31.162 156.695 30.905 156.348 30.759C156.001 30.6055 155.584 30.5281 155.098 30.5281C154.561 30.5281 154.096 30.6354 153.707 30.8488C153.324 31.0547 153.007 31.3429 152.756 31.7111C152.513 32.0792 152.331 32.5047 152.21 32.9839C152.096 33.4643 152.04 33.9834 152.04 34.5399ZM160.605 33.9097L159.185 34.1668C159.194 33.2933 159.315 32.4747 159.55 31.7111C159.784 30.9399 160.127 30.2661 160.578 29.6921C161.038 29.1093 161.607 28.6551 162.282 28.3282C162.968 27.9937 163.758 27.8265 164.651 27.8265C165.346 27.8265 165.971 27.9251 166.525 28.1235C167.09 28.3119 167.571 28.6152 167.971 29.0357C168.37 29.4475 168.673 29.9841 168.882 30.6442C169.099 31.3043 169.207 32.1091 169.207 33.0612V41.9995H165.745V33.0487C165.745 32.3712 165.65 31.8521 165.458 31.4927C165.276 31.1321 165.012 30.8837 164.665 30.7465C164.318 30.6005 163.91 30.5281 163.442 30.5281C162.963 30.5281 162.547 30.618 162.191 30.7976C161.845 30.9698 161.549 31.2094 161.307 31.5176C161.073 31.8271 160.894 32.1865 160.773 32.5983C160.661 33.0013 160.605 33.4393 160.605 33.9097Z" fill="#222222"/>
<path d="M175.935 28.0836V41.9994H172.486V28.0836H175.935Z" fill="#222222"/>
<path d="M186.785 28.085V30.5283H179.228L181.093 28.085H182.676H186.785ZM179.228 25.6205H182.676V28.085V37.9866C182.676 38.3984 182.732 38.7166 182.845 38.9387C182.958 39.1621 183.127 39.3118 183.353 39.3892C183.578 39.4666 183.848 39.5052 184.16 39.5052C184.385 39.5052 184.594 39.4915 184.785 39.4666C184.975 39.4404 185.136 39.4154 185.266 39.3892L185.278 41.936C184.992 42.0296 184.667 42.107 184.303 42.1669C183.947 42.2268 183.544 42.2567 183.092 42.2567C182.32 42.2567 181.644 42.1282 181.062 41.8711C180.481 41.6054 180.03 41.1811 179.709 40.5983C179.387 40.0069 179.228 39.2257 179.228 38.2574V25.6205Z" fill="#222222"/>
<path d="M190.503 40.456L194.277 28.0849H197.96L192.312 44.1084C192.181 44.4515 192.012 44.8246 191.803 45.2277C191.605 45.6308 191.335 46.0126 190.996 46.372C190.659 46.7413 190.233 47.0408 189.722 47.2729C189.218 47.5038 188.606 47.6198 187.886 47.6198C187.574 47.6198 187.295 47.5986 187.053 47.5549C186.811 47.5125 186.555 47.4563 186.285 47.3877V44.8421C186.372 44.8509 186.472 44.8546 186.585 44.8546C186.706 44.8633 186.811 44.8671 186.897 44.8671C187.4 44.8671 187.816 44.8072 188.146 44.6874C188.476 44.5763 188.741 44.3916 188.941 44.1346C189.148 43.8863 189.322 43.5606 189.461 43.1575L190.503 40.456ZM188.641 28.0849L191.83 38.3346L192.389 41.9222L190.02 42.3464L184.932 28.0849H188.641Z" fill="#222222"/>
</svg>
