<svg width="168" height="44" viewBox="0 0 168 44" fill="none" xmlns="http://www.w3.org/2000/svg">
<path d="M0.399902 26.2425V38.0807L10.6961 44L20.9922 38.0803V26.2406L10.6961 20.3229L0.399902 26.2425ZM34.2584 20.3229L23.9622 26.2422V38.0803L34.2584 44L44.5546 38.0803V26.2402L34.2584 20.3229ZM32.7663 11.8492L27.6217 8.87971L27.6166 2.96122L22.4772 0L12.1882 5.91968V17.7578L22.4772 23.6771L32.7663 17.7578V11.8492Z" fill="white"/>
<path d="M32.7659 11.8492L37.9104 8.87774V2.95964L32.7738 0L27.6162 2.96122L32.7738 5.91415L32.7659 11.8492Z" fill="white"/>
<path d="M96.0568 11.8677L93.5397 29.3485C93.5358 29.3774 93.4938 29.377 93.4902 29.3482L91.2785 11.8685C91.2778 11.8625 91.2748 11.8569 91.2702 11.8529C91.2656 11.8489 91.2597 11.8468 91.2536 11.8468H84.9805C84.9744 11.8468 84.9685 11.8491 84.9639 11.853C84.9594 11.857 84.9564 11.8625 84.9555 11.8685L82.7438 29.3497C82.7403 29.3785 82.6983 29.3789 82.6943 29.3501L80.1773 11.8681C80.1765 11.8622 80.1734 11.8567 80.1689 11.8528C80.1643 11.8489 80.1584 11.8467 80.1524 11.8468H76.3281C76.3245 11.8468 76.321 11.8476 76.3177 11.8491C76.3144 11.8506 76.3115 11.8528 76.3092 11.8556C76.3069 11.8583 76.3052 11.8615 76.3042 11.865C76.3032 11.8684 76.303 11.8721 76.3036 11.8756L79.4958 32.1034C79.4978 32.1156 79.5081 32.1243 79.5203 32.1243H85.7836C85.7962 32.1243 85.8069 32.1148 85.8085 32.1026L88.0927 14.6541C88.0966 14.6253 88.1386 14.6253 88.1422 14.6541L90.4259 32.1026C90.4275 32.1148 90.4382 32.1243 90.4509 32.1243H96.7141C96.7264 32.1243 96.7371 32.1152 96.7387 32.1034L99.9309 11.8756C99.9314 11.8721 99.9312 11.8684 99.9303 11.865C99.9293 11.8615 99.9276 11.8583 99.9253 11.8556C99.9229 11.8528 99.92 11.8506 99.9168 11.8491C99.9135 11.8476 99.9099 11.8468 99.9063 11.8468H96.0817C96.0757 11.8468 96.0699 11.849 96.0653 11.8529C96.0607 11.8568 96.0577 11.8622 96.0568 11.8681V11.8677ZM166.308 12.8156C165.437 11.8058 164.195 11.2936 162.617 11.2936C160.6 11.2936 159.091 12.1968 158.127 13.9793H158.112C157.843 13.2351 157.399 12.6108 156.791 12.1207C156.109 11.5722 155.243 11.2939 154.216 11.2939C153.253 11.2939 152.402 11.5323 151.687 12.0027C151.084 12.3993 150.599 12.9821 150.242 13.7398V11.8721C150.242 11.8655 150.24 11.8591 150.235 11.8545C150.23 11.8498 150.224 11.8472 150.217 11.8472H146.484C146.477 11.8472 146.471 11.8498 146.466 11.8545C146.461 11.8591 146.459 11.8655 146.459 11.8721V32.0994C146.459 32.1132 146.47 32.1243 146.484 32.1243H150.217C150.231 32.1243 150.242 32.1132 150.242 32.0994V18.2732C150.242 17.2491 150.479 16.4153 150.946 15.7946C151.396 15.1967 152.025 14.9063 152.869 14.9063C153.56 14.9063 154.095 15.1435 154.505 15.6316C154.931 16.1387 155.138 16.7705 155.138 17.5625V32.0994C155.138 32.1132 155.149 32.1243 155.163 32.1243H158.897C158.91 32.1243 158.921 32.1132 158.921 32.0994V18.5099C158.921 17.257 159.168 16.3281 159.653 15.75C160.13 15.1821 160.737 14.9059 161.508 14.9059C162.321 14.9059 162.889 15.149 163.247 15.649C163.625 16.1797 163.817 16.8762 163.817 17.7199V32.0986C163.817 32.1125 163.828 32.1235 163.841 32.1235H167.6V16.6935C167.6 15.1158 167.166 13.8112 166.308 12.8156H166.308ZM122.548 29.9184L120.183 32.5505C120.178 32.5555 120.172 32.5585 120.165 32.559C120.159 32.5594 120.152 32.5572 120.147 32.5529L115.981 28.9547C115.977 28.9512 115.972 28.9491 115.966 28.9486C115.961 28.9481 115.956 28.9493 115.951 28.952L110.968 31.852C110.128 32.3303 109.248 32.5694 108.289 32.5694C106.889 32.5694 105.609 32.0517 104.489 31.0553C103.409 30.019 102.849 28.7436 102.849 27.1896C102.849 25.3167 103.849 23.4833 105.569 22.5268L115.634 16.7559C115.642 16.7515 115.646 16.7428 115.646 16.7338V15.4584C115.646 15.4517 115.644 15.4452 115.639 15.4405C115.634 15.4358 115.628 15.4331 115.621 15.4331H103.875C103.868 15.4331 103.862 15.4304 103.857 15.4257C103.852 15.421 103.849 15.4145 103.849 15.4078V11.8725C103.849 11.8582 103.861 11.8472 103.875 11.8472H119.22C119.235 11.8472 119.246 11.8586 119.246 11.8725V27.0187C119.246 27.0262 119.249 27.0329 119.254 27.0381L122.545 29.8829C122.556 29.8923 122.557 29.9085 122.548 29.9192L122.548 29.9184ZM109.168 28.7432L115.634 25.0046C115.642 24.9998 115.646 24.9916 115.646 24.9825V20.9361C115.646 20.9163 115.625 20.9045 115.608 20.914L107.368 25.6344C106.768 25.9931 106.448 26.5112 106.448 27.1888C106.448 28.1848 107.328 28.9823 108.248 28.9823C108.608 28.9823 108.888 28.9026 109.168 28.7428V28.7432ZM140.53 13.2639C139.225 11.9636 137.643 11.2936 135.784 11.2936C133.579 11.2936 131.805 12.1534 130.463 13.8732C130.461 13.8759 130.458 13.8782 130.455 13.8799C130.452 13.8815 130.449 13.8825 130.446 13.8828C130.442 13.8831 130.439 13.8827 130.436 13.8816C130.432 13.8805 130.429 13.8787 130.427 13.8763L128.053 11.7043C128.051 11.7021 128.048 11.7003 128.045 11.6992C128.042 11.698 128.038 11.6975 128.035 11.6977C128.032 11.6978 128.028 11.6986 128.025 11.7C128.022 11.7015 128.02 11.7035 128.018 11.7059L125.678 14.3088C125.674 14.3138 125.672 14.3203 125.672 14.327C125.672 14.3336 125.675 14.3399 125.68 14.3443L129.054 17.394C129.059 17.3987 129.063 17.4054 129.063 17.4125V28.5427C129.063 28.5565 129.051 28.568 129.037 28.568H125.685C125.678 28.568 125.672 28.5707 125.667 28.5754C125.662 28.5801 125.659 28.5865 125.659 28.5932V32.0892C125.659 32.103 125.671 32.1144 125.685 32.1144H137.767C137.781 32.1144 137.792 32.103 137.792 32.0892V28.5932C137.792 28.5865 137.79 28.5801 137.785 28.5754C137.78 28.5707 137.774 28.568 137.767 28.568H132.647C132.64 28.568 132.634 28.5653 132.629 28.5606C132.624 28.5559 132.622 28.5494 132.622 28.5427V18.1623C132.622 16.5061 133.827 15.0097 135.482 14.8542C137.357 14.6778 138.949 16.1588 138.949 17.9922V19.1492C138.949 19.163 138.96 19.1745 138.974 19.1745H142.482C142.496 19.1745 142.508 19.163 142.508 19.1492V17.9922C142.508 16.1403 141.835 14.5638 140.531 13.2635L140.53 13.2639ZM72.631 23.6968C72.3847 23.1242 72.0109 22.6231 71.5622 22.2584C71.1432 21.8413 70.6074 21.5146 69.8863 21.236C69.1497 20.8907 68.4658 20.6894 67.9522 20.5529C67.2849 20.3757 66.5658 20.1894 65.7587 20.0363C64.1814 19.7222 63.0124 19.3308 62.2854 18.8734C61.5753 18.4263 61.2154 17.8371 61.2154 17.1209C61.2154 16.2898 61.5179 15.7082 62.1737 15.2847C63.096 14.6892 64.2341 14.5282 65.3025 14.7473C66.3361 14.9592 67.2679 15.5586 68.0512 16.2436C68.2104 16.383 69.8384 17.8738 69.8083 17.9078L72.1483 15.2658C72.1483 15.2658 71.0221 14.1293 70.4882 13.666C69.2155 12.5619 67.7019 11.6294 65.9971 11.3614C64.3034 11.0951 62.3765 11.35 60.8499 12.1369C60.4282 12.3544 60.0305 12.615 59.663 12.9146C58.3039 14.0227 57.6153 15.4777 57.6153 17.2401C57.6153 19.0024 58.197 20.3923 59.391 21.2537C60.5113 22.0911 62.1226 22.7403 64.1814 23.183C66.0007 23.5686 67.3222 23.9632 68.1177 24.359C68.8749 24.6822 69.2428 25.1995 69.2428 25.9402C69.2428 26.8948 68.8567 27.6174 68.0916 28.0893C66.3686 29.1524 63.9747 29.1051 62.2327 28.1083C61.4815 27.6781 60.8594 27.0542 60.2012 26.5006C59.6963 26.0712 59.2187 25.6103 58.7324 25.1601C58.7269 25.1549 58.7213 25.1498 58.7134 25.1395L56.4356 27.8735C56.4288 27.8818 57.5491 28.907 57.647 28.9958C59.1866 30.3943 60.8463 31.5521 62.9186 31.9799C63.6594 32.1303 64.4138 32.205 65.1699 32.2028C67.399 32.2028 69.2776 31.6184 70.7516 30.4669C72.2976 29.2913 73.0817 27.6616 73.0817 25.6237C73.0817 24.9501 72.9245 24.2809 72.6314 23.6972L72.631 23.6968Z" fill="white"/>
</svg>
