<svg width="235" height="42" viewBox="0 0 235 42" fill="none" xmlns="http://www.w3.org/2000/svg">
<path d="M38.4526 35.9547V11.9881H50.1621C53.175 11.9881 55.4347 12.5588 56.9411 13.7C58.4706 14.8413 59.2351 16.3478 59.2351 18.2195C59.2351 19.4748 58.9269 20.5704 58.3107 21.5063C57.6944 22.4193 56.8497 23.1269 55.777 23.629C54.7043 24.1312 53.4718 24.3822 52.0793 24.3822L52.7299 22.9785C54.2364 22.9785 55.5717 23.2296 56.7357 23.7317C57.8998 24.211 58.8013 24.9301 59.4406 25.8888C60.1023 26.8474 60.4334 28.0229 60.4334 29.4152C60.4334 31.4696 59.623 33.0787 58.0025 34.2428C56.3821 35.384 53.9967 35.9547 50.8468 35.9547H38.4526ZM43.9649 31.7776H50.436C51.874 31.7776 52.9583 31.5493 53.6885 31.093C54.4418 30.6136 54.8184 29.8604 54.8184 28.8332C54.8184 27.8289 54.4418 27.0871 53.6885 26.6077C52.9583 26.1056 51.874 25.8545 50.436 25.8545H43.5541V21.8145H49.4773C50.8238 21.8145 51.851 21.5861 52.5587 21.1297C53.289 20.6503 53.6543 19.9313 53.6543 18.9727C53.6543 18.0368 53.289 17.3406 52.5587 16.8842C51.851 16.4048 50.8238 16.1651 49.4773 16.1651H43.9649V31.7776ZM74.7329 36.3656C72.8386 36.3656 71.0808 36.0574 69.4603 35.4412C67.8624 34.8248 66.4703 33.9576 65.2832 32.839C64.1191 31.7205 63.206 30.4082 62.5442 28.9017C61.905 27.3952 61.5855 25.7518 61.5855 23.9714C61.5855 22.1911 61.905 20.5476 62.5442 19.0411C63.206 17.5347 64.1304 16.2222 65.3175 15.1037C66.5045 13.9853 67.8967 13.1179 69.4945 12.5017C71.0924 11.8853 72.8269 11.5773 74.6987 11.5773C76.5931 11.5773 78.3279 11.8853 79.9029 12.5017C81.5007 13.1179 82.8816 13.9853 84.0457 15.1037C85.2327 16.2222 86.1571 17.5347 86.819 19.0411C87.4808 20.5248 87.8118 22.1682 87.8118 23.9714C87.8118 25.7518 87.4808 27.4066 86.819 28.9359C86.1571 30.4423 85.2327 31.7547 84.0457 32.8733C82.8816 33.9689 81.5007 34.8248 79.9029 35.4412C78.3279 36.0574 76.6047 36.3656 74.7329 36.3656ZM74.6987 31.6407C75.7714 31.6407 76.753 31.4582 77.6431 31.093C78.5563 30.7276 79.355 30.2027 80.0398 29.5179C80.7246 28.8332 81.2495 28.0229 81.6147 27.0871C82.0027 26.1512 82.1968 25.1127 82.1968 23.9714C82.1968 22.8302 82.0027 21.7916 81.6147 20.8558C81.2495 19.9199 80.7246 19.1096 80.0398 18.4248C79.378 17.7401 78.5905 17.2151 77.6774 16.8499C76.7643 16.4847 75.7714 16.3021 74.6987 16.3021C73.626 16.3021 72.6331 16.4847 71.72 16.8499C70.8298 17.2151 70.0424 17.7401 69.3576 18.4248C68.6728 19.1096 68.1363 19.9199 67.7484 20.8558C67.383 21.7916 67.2006 22.8302 67.2006 23.9714C67.2006 25.0899 67.383 26.1284 67.7484 27.0871C68.1363 28.0229 68.6615 28.8332 69.3233 29.5179C70.0081 30.2027 70.8069 30.7276 71.72 31.093C72.6331 31.4582 73.626 31.6407 74.6987 31.6407ZM98.3143 36.3656C96.3967 36.3656 94.5597 36.1146 92.8025 35.6123C91.0442 35.0875 89.6292 34.414 88.5566 33.5923L90.4396 29.4152C91.4665 30.1455 92.6767 30.7505 94.0684 31.2298C95.484 31.6863 96.9102 31.9146 98.3488 31.9146C99.4439 31.9146 100.323 31.8119 100.985 31.6065C101.67 31.3781 102.172 31.0699 102.491 30.6821C102.811 30.2942 102.971 29.849 102.971 29.3468C102.971 28.7076 102.719 28.2055 102.218 27.8403C101.716 27.4523 101.053 27.1441 100.232 26.9159C99.4103 26.6648 98.4966 26.4366 97.4927 26.2311C96.5109 26.0029 95.5185 25.729 94.5137 25.4094C93.5319 25.0899 92.6307 24.679 91.8091 24.1769C90.9876 23.6746 90.3138 23.0127 89.7891 22.1911C89.2868 21.3693 89.0359 20.3194 89.0359 19.0411C89.0359 17.6716 89.4011 16.4276 90.1315 15.3092C90.8849 14.1679 92.003 13.2663 93.4868 12.6044C94.9935 11.9196 96.8766 11.5773 99.1358 11.5773C100.643 11.5773 102.126 11.7598 103.587 12.1251C105.048 12.4674 106.338 12.9924 107.456 13.7L105.744 17.9113C104.626 17.2722 103.507 16.8042 102.388 16.5076C101.27 16.188 100.174 16.0282 99.1022 16.0282C98.0292 16.0282 97.1501 16.1537 96.4658 16.4048C95.7805 16.6558 95.2901 16.9869 94.9936 17.3977C94.696 17.7857 94.5482 18.2423 94.5482 18.7673C94.5482 19.3835 94.7987 19.8857 95.3016 20.2737C95.8036 20.639 96.4658 20.9356 97.2873 21.1638C98.1089 21.3922 99.0101 21.6204 99.9919 21.8486C100.996 22.0769 101.989 22.3393 102.971 22.6361C103.975 22.9328 104.888 23.3323 105.71 23.8344C106.532 24.3367 107.193 24.9986 107.696 25.8202C108.221 26.642 108.483 27.6805 108.483 28.9359C108.483 30.2825 108.107 31.5151 107.353 32.6336C106.6 33.7522 105.47 34.6537 103.963 35.3384C102.48 36.0232 100.597 36.3656 98.3143 36.3656Z" fill="white"/>
<path d="M135.323 11.9881H140.869V35.9547H135.323V11.9881ZM124.435 35.9547H118.888V11.9881H124.435V35.9547ZM135.734 26.1284H124.024V21.4378H135.734V26.1284ZM141.848 35.9547L152.531 11.9881H158.009L168.726 35.9547H162.905L154.14 14.7957H156.332L147.532 35.9547H141.848ZM147.19 30.819L148.662 26.6077H160.987L162.494 30.819H147.19ZM180.807 36.3656C178.957 36.3656 177.235 36.0687 175.637 35.4753C174.062 34.8591 172.692 33.9919 171.528 32.8733C170.364 31.7547 169.451 30.4423 168.789 28.9359C168.15 27.4294 167.83 25.7746 167.83 23.9714C167.83 22.1682 168.15 20.5133 168.789 19.0069C169.451 17.5004 170.364 16.188 171.528 15.0695C172.715 13.9511 174.095 13.0951 175.67 12.5017C177.246 11.8853 178.969 11.5773 180.84 11.5773C182.918 11.5773 184.79 11.9425 186.456 12.6729C188.145 13.3804 189.56 14.4304 190.701 15.8228L187.14 19.1096C186.319 18.1738 185.406 17.4776 184.401 17.0211C183.397 16.5417 182.301 16.3021 181.115 16.3021C179.997 16.3021 178.969 16.4847 178.033 16.8499C177.098 17.2151 176.287 17.7401 175.602 18.4248C174.918 19.1096 174.381 19.9199 173.993 20.8558C173.628 21.7916 173.446 22.8302 173.446 23.9714C173.446 25.1127 173.628 26.1512 173.993 27.0871C174.381 28.0229 174.918 28.8332 175.602 29.5179C176.287 30.2027 177.098 30.7276 178.033 31.093C178.969 31.4582 179.997 31.6407 181.115 31.6407C182.301 31.6407 183.397 31.4124 184.401 30.956C185.406 30.4766 186.319 29.7577 187.14 28.799L190.701 32.0858C189.56 33.4783 188.145 34.5397 186.456 35.2699C184.79 36.0002 182.907 36.3656 180.807 36.3656ZM197.871 30.4766L197.563 24.0741L209.032 11.9881H215.195L204.855 23.1155L201.773 26.4023L197.871 30.4766ZM192.906 35.9547V11.9881H198.418V35.9547H192.906ZM209.306 35.9547L200.781 25.5122L204.41 21.5747L215.777 35.9547H209.306ZM224.083 36.3656C222.166 36.3656 220.328 36.1146 218.571 35.6123C216.813 35.0875 215.398 34.414 214.325 33.5923L216.208 29.4152C217.236 30.1455 218.445 30.7505 219.838 31.2298C221.252 31.6863 222.68 31.9146 224.117 31.9146C225.213 31.9146 226.091 31.8119 226.754 31.6065C227.438 31.3781 227.94 31.0699 228.26 30.6821C228.579 30.2942 228.739 29.849 228.739 29.3468C228.739 28.7076 228.488 28.2055 227.986 27.8403C227.484 27.4523 226.822 27.1441 226 26.9159C225.179 26.6648 224.266 26.4366 223.261 26.2311C222.279 26.0029 221.287 25.729 220.283 25.4094C219.301 25.0899 218.399 24.679 217.578 24.1769C216.756 23.6746 216.082 23.0127 215.558 22.1911C215.055 21.3693 214.805 20.3194 214.805 19.0411C214.805 17.6716 215.17 16.4276 215.9 15.3092C216.653 14.1679 217.771 13.2663 219.255 12.6044C220.762 11.9196 222.645 11.5773 224.905 11.5773C226.411 11.5773 227.895 11.7598 229.355 12.1251C230.816 12.4674 232.106 12.9924 233.224 13.7L231.513 17.9113C230.394 17.2722 229.276 16.8042 228.158 16.5076C227.039 16.188 225.944 16.0282 224.871 16.0282C223.798 16.0282 222.918 16.1537 222.234 16.4048C221.549 16.6558 221.059 16.9869 220.762 17.3977C220.465 17.7857 220.317 18.2423 220.317 18.7673C220.317 19.3835 220.568 19.8857 221.07 20.2737C221.572 20.639 222.234 20.9356 223.056 21.1638C223.877 21.3922 224.779 21.6204 225.76 21.8486C226.765 22.0769 227.758 22.3393 228.739 22.6361C229.743 22.9328 230.657 23.3323 231.478 23.8344C232.3 24.3367 232.962 24.9986 233.464 25.8202C233.989 26.642 234.252 27.6805 234.252 28.9359C234.252 30.2825 233.875 31.5151 233.121 32.6336C232.369 33.7522 231.238 34.6537 229.733 35.3384C228.249 36.0232 226.365 36.3656 224.083 36.3656Z" fill="white"/>
<path d="M26.809 15.7897C25.8334 15.7897 24.9275 16.293 24.4163 17.1204L18.9098 25.2546C18.7304 25.5227 18.8032 25.8841 19.0726 26.0625C19.2911 26.2074 19.58 26.1895 19.7789 26.0192L25.1992 21.3417C25.2892 21.261 25.4281 21.2693 25.5091 21.3589C25.5459 21.4 25.5654 21.453 25.5654 21.5075V36.1524C25.5654 36.2733 25.467 36.3704 25.3455 36.3704C25.2802 36.3704 25.2186 36.342 25.1774 36.292L8.79275 16.7785C8.25913 16.1519 7.4756 15.7905 6.65079 15.7897H6.07812C4.52832 15.7897 3.27197 17.0398 3.27197 18.5818V39.208C3.27197 40.7499 4.52832 42 6.07812 42C7.05379 42 7.95969 41.4967 8.47085 40.6693L13.9774 32.5352C14.1567 32.2672 14.0839 31.9057 13.8145 31.7272C13.5961 31.5824 13.3072 31.6003 13.1082 31.7706L7.68799 36.4481C7.59796 36.5287 7.45909 36.5206 7.37809 36.4309C7.34133 36.3898 7.32175 36.3369 7.32252 36.2823V21.6337C7.32252 21.5127 7.42079 21.4156 7.54239 21.4156C7.60698 21.4156 7.66927 21.4441 7.71054 21.4941L24.0929 41.0114C24.6265 41.6379 25.41 41.9992 26.2348 42H26.8075C28.3573 42.0008 29.6145 40.7515 29.6159 39.2095V18.5818C29.6159 17.0398 28.3589 15.7897 26.809 15.7897Z" fill="white"/>
<path d="M12.2666 21.682C12.2666 21.682 15.0283 21.9558 18.9883 21.7163C21.3806 21.5728 24.5774 18.7966 26.2952 17.4792C28.015 16.1588 30.9137 13.7025 29.5994 13.1623C28.2853 12.6222 24.7938 11.7577 24.7938 11.7577C24.7938 11.7577 29.0823 14.8901 12.2666 21.682Z" fill="white" stroke="black" stroke-width="3" stroke-linejoin="round"/>
<path d="M26.4287 12.1922C27.1665 13.9602 22.4754 17.6015 15.9497 20.3249C9.42462 23.0481 3.53775 23.8217 2.7998 22.0534C3.74889 20.4988 3.20559 19.7501 3.20559 19.7501L24.5612 10.8376C24.5612 10.8376 24.7184 11.7476 26.4287 12.1922Z" fill="white" stroke="black" stroke-width="3" stroke-linejoin="round"/>
<path d="M1.86228 12.8793C1.87492 12.1663 2.02964 9.65745 3.4987 7.32364C6.16045 3.08949 11.0495 1.64494 14.4659 2.09391C16.7755 2.39945 18.6371 3.2583 20.5051 4.88033C20.9611 5.27671 21.8676 6.15026 22.8203 7.54343C23.6461 8.75203 24.0207 9.5752 24.643 10.9424C25.126 12.0999 23.3626 14.0619 19.7892 16.1502C14.7873 19.0707 8.12725 21.1266 4.91528 20.7416C3.99633 20.6317 3.45858 20.331 3.27831 19.8948C2.58582 18.082 1.80568 16.0264 1.86228 12.8793Z" fill="white"/>
<path d="M1.86228 12.8793C1.87492 12.1663 2.02964 9.65745 3.4987 7.32364C6.16045 3.08949 11.0495 1.64494 14.4659 2.09391C16.7755 2.39945 18.6371 3.2583 20.5051 4.88033C20.9611 5.27671 21.8676 6.15026 22.8203 7.54343C23.6461 8.75203 24.0207 9.5752 24.643 10.9424C25.126 12.0999 23.3626 14.0619 19.7892 16.1502C14.7873 19.0707 8.12725 21.1266 4.91528 20.7416C3.99633 20.6317 3.45858 20.331 3.27831 19.8948C2.58582 18.082 1.80568 16.0264 1.86228 12.8793Z" fill="#74FC00" stroke="black" stroke-width="3" stroke-linejoin="round"/>
<path d="M12.1582 21.6658C12.1582 21.6658 14.9196 21.9373 18.8797 21.7C21.2706 21.5554 24.4677 18.7808 26.1849 17.4615C27.9056 16.143 30.8047 13.6864 29.4896 13.1443C28.1755 12.6044 24.6859 11.7404 24.6859 11.7404C24.6859 11.7404 28.9732 14.8735 12.1582 21.6658Z" fill="#272727" stroke="#272727" stroke-width="3" stroke-linejoin="round"/>
<path d="M26.3168 12.1766C27.0547 13.9448 22.3647 17.5842 15.8382 20.3079C9.31331 23.031 3.42606 23.8064 2.68799 22.0379C3.63797 20.4832 3.09311 19.7355 3.09311 19.7355L24.4503 10.8223C24.4503 10.8223 24.7277 11.8445 26.4369 12.2894L26.3168 12.1766Z" fill="#2C2C2C" stroke="#2C2C2C" stroke-width="3" stroke-linejoin="round"/>
<path d="M1.75082 12.8633C1.76358 12.1508 1.91919 9.64247 3.38709 7.30751C6.04845 3.07365 10.9374 1.62982 14.3544 2.07828C16.6652 2.38338 18.5261 3.2424 20.3926 4.86314C20.8491 5.25932 21.7565 6.1324 22.7081 7.527C23.5327 8.73513 23.9079 9.55887 24.5301 10.9239C25.0133 12.0817 23.2495 14.0458 19.6748 16.1325C14.6739 19.0548 8.01362 21.1085 4.80241 20.7233C3.88336 20.6134 3.34563 20.3145 3.16479 19.8768C2.47586 18.0657 1.6956 16.0099 1.75082 12.8633Z" fill="#FFD520"/>
<path d="M1.75082 12.8633C1.76358 12.1508 1.91919 9.64247 3.38709 7.30751C6.04845 3.07365 10.9374 1.62982 14.3544 2.07828C16.6652 2.38338 18.5261 3.2424 20.3926 4.86314C20.8491 5.25932 21.7565 6.1324 22.7081 7.527C23.5327 8.73513 23.9079 9.55887 24.5301 10.9239C25.0133 12.0817 23.2495 14.0458 19.6748 16.1325C14.6739 19.0548 8.01362 21.1085 4.80241 20.7233C3.88336 20.6134 3.34563 20.3145 3.16479 19.8768C2.47586 18.0657 1.6956 16.0099 1.75082 12.8633Z" stroke="black" stroke-width="3" stroke-linejoin="round"/>
<path d="M1.75082 12.8633C1.76358 12.1508 1.91919 9.64247 3.38709 7.30751C6.04845 3.07365 10.9374 1.62982 14.3544 2.07828C16.6652 2.38338 18.5261 3.2424 20.3926 4.86314C20.8491 5.25932 21.7565 6.1324 22.7081 7.527C23.5327 8.73513 23.9079 9.55887 24.5301 10.9239C25.0133 12.0817 23.2495 14.0458 19.6748 16.1325C14.6739 19.0548 8.01362 21.1085 4.80241 20.7233C3.88336 20.6134 3.34563 20.3145 3.16479 19.8768C2.47586 18.0657 1.6956 16.0099 1.75082 12.8633Z" fill="#303030" stroke="#272727" stroke-width="3" stroke-linejoin="round"/>
<path d="M3.7124 6.70263C9.53525 -1.66814 21.9249 5.36215 24.4577 12.1401L25.32 12.1299C22.2843 4.85685 9.92884 -2.57474 3.7124 6.70263Z" fill="#CCCCCC"/>
<path d="M26.1775 13.0541L25.3189 12.1301L24.4565 12.1402L26.1775 13.0541Z" fill="#CCCCCC"/>
<path d="M22.6685 14.4591C19.9213 7.87615 11.7127 -0.74065 5.5708 4.55669C12.1217 -1.20902 22.5613 5.52449 25.3177 12.1292L26.1763 13.0536L23.5249 15.3822L22.6685 14.4591Z" fill="#303030"/>
<path d="M22.6696 14.4583L23.5279 15.3828L21.1894 14.8697C18.657 8.09104 9.53669 -1.66785 3.7124 6.70124C9.92942 -2.5746 19.6337 7.1836 22.6696 14.4583Z" fill="#CCCCCC"/>
<path d="M22.6696 14.4583L23.5279 15.3828L21.1894 14.8697C18.657 8.09104 9.53669 -1.66785 3.7124 6.70124C9.92942 -2.5746 19.6337 7.1836 22.6696 14.4583Z" fill="#272727"/>
<path d="M10.3112 14.6683L9.85352 15.7861L11.06 19.0356L11.3146 16.7349L10.3112 14.6683Z" fill="#272727" stroke="#272727" stroke-width="3" stroke-linecap="round" stroke-linejoin="round"/>
<path d="M5.22791 16.3469L4.9873 16.9321L6.19495 20.1821L6.0721 18.0379L5.22791 16.3469Z" fill="black"/>
<path d="M11.0593 19.0351C11.0593 19.0351 6.504 20.3056 6.19612 20.1792C5.88842 20.0548 4.98828 16.9301 4.98828 16.9301L9.85235 15.7834L11.0593 19.0351Z" fill="#3A3A3A" stroke="#3A3A3A" stroke-width="3" stroke-linecap="round" stroke-linejoin="round"/>
<path d="M4.98926 16.9328L5.44878 15.8152L10.3119 14.6688L9.85419 15.7865L4.98926 16.9328Z" fill="#272727" stroke="#272727" stroke-width="3" stroke-linecap="round" stroke-linejoin="round"/>
</svg>
