<svg width="1920" height="5073" viewBox="0 0 1920 5073" fill="none" xmlns="http://www.w3.org/2000/svg">
<g clip-path="url(#clip0_744_971)">
<line x1="1609.5" y1="63" x2="1609.5" y2="784" stroke="#C1C6CE" stroke-dasharray="2 2"/>
<line x1="310.5" y1="63" x2="310.5" y2="784" stroke="#C1C6CE" stroke-dasharray="2 2"/>
<line x1="737.5" y1="471" x2="737.5" y2="623" stroke="#C1C6CE" stroke-dasharray="2 2"/>
<line x1="1183.5" y1="471" x2="1183.5" y2="623" stroke="#C1C6CE" stroke-dasharray="2 2"/>
<line x1="310" y1="343.5" y2="343.5" stroke="#C1C6CE" stroke-dasharray="2 2"/>
<line x1="1920" y1="343.5" x2="1610" y2="343.5" stroke="#C1C6CE" stroke-dasharray="2 2"/>
<line x1="1610" y1="623.5" x2="310" y2="623.5" stroke="#C1C6CE" stroke-dasharray="2 2"/>
<line x1="1610" y1="784.5" x2="310" y2="784.5" stroke="#C1C6CE" stroke-dasharray="2 2"/>
<line x1="1610" y1="63.5" x2="310" y2="63.5" stroke="#C1C6CE" stroke-dasharray="2 2"/>
<path d="M1610 471.5H310" stroke="#C1C6CE" stroke-dasharray="2 2"/>
<circle cx="-202.5" cy="1090.5" r="512" fill="#E7ECEF" stroke="#C1C6CE" stroke-dasharray="2 2"/>
<circle cx="1919.5" cy="118.5" r="73" fill="#E7ECEF" stroke="#C1C6CE" stroke-dasharray="2 2"/>
<circle cx="1816.5" cy="465.5" r="45" fill="#E7ECEF" stroke="#C1C6CE" stroke-dasharray="2 2"/>
<circle cx="1761" cy="1280" r="70.5" fill="#E7ECEF" stroke="#C1C6CE" stroke-dasharray="2 2"/>
<circle cx="1944" cy="1408" r="198.5" fill="#E7ECEF" stroke="#C1C6CE" stroke-dasharray="2 2"/>
<circle cx="310" cy="63" r="19.5" fill="#E7ECEF" stroke="#C1C6CE" stroke-dasharray="2 2"/>
<circle cx="310" cy="623" r="19.5" fill="#E7ECEF" stroke="#C1C6CE" stroke-dasharray="2 2"/>
<circle cx="310" cy="784" r="19.5" fill="#E7ECEF" stroke="#C1C6CE" stroke-dasharray="2 2"/>
<circle cx="737" cy="623" r="19.5" fill="#E7ECEF" stroke="#C1C6CE" stroke-dasharray="2 2"/>
<circle cx="737" cy="471" r="19.5" fill="#E7ECEF" stroke="#C1C6CE" stroke-dasharray="2 2"/>
<circle cx="1183" cy="623" r="19.5" fill="#E7ECEF" stroke="#C1C6CE" stroke-dasharray="2 2"/>
<circle cx="1183" cy="471" r="19.5" fill="#E7ECEF" stroke="#C1C6CE" stroke-dasharray="2 2"/>
<circle cx="1609" cy="623" r="19.5" fill="#E7ECEF" stroke="#C1C6CE" stroke-dasharray="2 2"/>
<circle cx="1609" cy="784" r="19.5" fill="#E7ECEF" stroke="#C1C6CE" stroke-dasharray="2 2"/>
<circle cx="1609" cy="63" r="19.5" fill="#E7ECEF" stroke="#C1C6CE" stroke-dasharray="2 2"/>
<circle cx="1855.5" cy="427.5" r="18" fill="#E7ECEF" stroke="#C1C6CE" stroke-dasharray="2 2"/>
<path d="M1293 3971.5L2150.5 3971.5M1292.5 4829.5L1292.5 3971M1292 3991.49L2149.5 3991.49M1312.49 4830.5L1312.49 3972M1292 4011.48L2149.5 4011.48M1332.48 4830.5L1332.48 3972M1292 4031.46L2149.5 4031.46M1352.46 4830.5L1352.46 3972M1292 4051.45L2149.5 4051.45M1372.45 4830.5L1372.45 3972M1292 4071.44L2149.5 4071.44M1392.44 4830.5L1392.44 3972M1292 4091.43L2149.5 4091.43M1412.43 4830.5L1412.43 3972M1292 4111.42L2149.5 4111.42M1432.42 4830.5L1432.42 3972M1292 4131.41L2149.5 4131.41M1452.41 4830.5L1452.41 3972M1292 4151.4L2149.5 4151.4M1472.4 4830.5L1472.4 3972M1292 4171.38L2149.5 4171.38M1492.38 4830.5L1492.38 3972M1292 4191.37L2149.5 4191.37M1512.37 4830.5L1512.37 3972M1292 4211.36L2149.5 4211.36M1532.36 4830.5L1532.36 3972M1292 4231.35L2149.5 4231.35M1552.35 4830.5L1552.35 3972M1292 4251.34L2149.5 4251.34M1572.34 4830.5L1572.34 3972M1292 4271.33L2149.5 4271.33M1592.33 4830.5L1592.33 3972M1292 4291.31L2149.5 4291.31M1612.31 4830.5L1612.31 3972M1292 4311.3L2149.5 4311.3M1632.3 4830.5L1632.3 3972M1292 4331.29L2149.5 4331.29M1652.29 4830.5L1652.29 3972M1292 4351.28L2149.5 4351.28M1672.28 4830.5L1672.28 3972M1292 4371.27L2149.5 4371.27M1692.27 4830.5L1692.27 3972M1292 4391.26L2149.5 4391.26M1712.26 4830.5L1712.26 3972M1292 4411.24L2149.5 4411.24M1732.24 4830.5L1732.24 3972M1292 4431.23L2149.5 4431.23M1752.23 4830.5L1752.23 3972M1292 4451.22L2149.5 4451.22M1772.22 4830.5L1772.22 3972M1292 4471.21L2149.5 4471.21M1792.21 4830.5L1792.21 3972M1292 4491.2L2149.5 4491.2M1812.2 4830.5L1812.2 3972M1292 4511.19L2149.5 4511.19M1832.19 4830.5L1832.19 3972M1292 4531.17L2149.5 4531.17M1852.17 4830.5L1852.17 3972M1292 4551.16L2149.5 4551.16M1872.16 4830.5L1872.16 3972M1292 4571.15L2149.5 4571.15M1892.15 4830.5L1892.15 3972M1292 4591.14L2149.5 4591.14M1912.14 4830.5L1912.14 3972M1292 4611.13L2149.5 4611.13M1932.13 4830.5L1932.13 3972M1292 4631.12L2149.5 4631.12M1952.12 4830.5L1952.12 3972M1292 4651.1L2149.5 4651.1M1972.1 4830.5L1972.1 3972M1292 4671.09L2149.5 4671.09M1992.09 4830.5L1992.09 3972M1292 4691.08L2149.5 4691.08M2012.08 4830.5L2012.08 3972M1292 4711.07L2149.5 4711.07M2032.07 4830.5L2032.07 3972M1292 4731.06L2149.5 4731.06M2052.06 4830.5L2052.06 3972M1292 4751.05L2149.5 4751.05M2072.05 4830.5L2072.05 3972M1292 4771.03L2149.5 4771.03M2092.03 4830.5L2092.03 3972M1292 4791.02L2149.5 4791.02M2112.02 4830.5L2112.02 3972M1292 4811.01L2149.5 4811.01M2132.01 4830.5L2132.01 3972M1292 4831L2149.5 4831M2152 4830.5L2152 3972" stroke="#C1C6CE"/>
<path d="M821.001 4717.5L-36.5008 4717.5M821.5 5575.5L821.5 4717M822 4737.49L-35.5014 4737.49M801.512 5576.5L801.512 4718M822 4757.48L-35.5014 4757.48M781.523 5576.5L781.524 4718M822 4777.46L-35.5014 4777.46M761.535 5576.5L761.535 4718M822 4797.45L-35.5014 4797.45M741.547 5576.5L741.547 4718M822 4817.44L-35.5014 4817.44M721.558 5576.5L721.558 4718M822 4837.43L-35.5014 4837.43M701.57 5576.5L701.57 4718M822 4857.42L-35.5014 4857.42M681.582 5576.5L681.582 4718M822 4877.41L-35.5014 4877.41M661.593 5576.5L661.593 4718M822 4897.4L-35.5014 4897.4M641.605 5576.5L641.605 4718M822 4917.38L-35.5014 4917.38M621.616 5576.5L621.617 4718M822 4937.37L-35.5014 4937.37M601.628 5576.5L601.628 4718M822 4957.36L-35.5014 4957.36M581.64 5576.5L581.64 4718M822 4977.35L-35.5014 4977.35M561.651 5576.5L561.651 4718M822 4997.34L-35.5014 4997.34M541.663 5576.5L541.663 4718M822 5017.33L-35.5014 5017.33M521.675 5576.5L521.675 4718M822 5037.31L-35.5014 5037.31M501.686 5576.5L501.686 4718M822 5057.3L-35.5014 5057.3M481.698 5576.5L481.698 4718M822 5077.29L-35.5014 5077.29M461.709 5576.5L461.71 4718M822 5097.28L-35.5014 5097.28M441.721 5576.5L441.721 4718M822 5117.27L-35.5014 5117.27M421.733 5576.5L421.733 4718M822 5137.26L-35.5014 5137.26M401.744 5576.5L401.744 4718M822 5157.24L-35.5014 5157.24M381.756 5576.5L381.756 4718M822 5177.23L-35.5014 5177.23M361.768 5576.5L361.768 4718M822 5197.22L-35.5014 5197.22M341.779 5576.5L341.779 4718M822 5217.21L-35.5015 5217.21M321.791 5576.5L321.791 4718M822 5237.2L-35.5015 5237.2M301.802 5576.5L301.803 4718M822 5257.19L-35.5015 5257.19M281.814 5576.5L281.814 4718M822 5277.17L-35.5015 5277.17M261.826 5576.5L261.826 4718M822 5297.16L-35.5015 5297.16M241.837 5576.5L241.837 4718M822 5317.15L-35.5015 5317.15M221.849 5576.5L221.849 4718M822 5337.14L-35.5015 5337.14M201.861 5576.5L201.861 4718M822 5357.13L-35.5015 5357.13M181.872 5576.5L181.872 4718M822 5377.12L-35.5015 5377.12M161.884 5576.5L161.884 4718M822 5397.1L-35.5015 5397.1M141.895 5576.5L141.895 4718M822 5417.09L-35.5015 5417.09M121.907 5576.5L121.907 4718M822 5437.08L-35.5015 5437.08M101.919 5576.5L101.919 4718M822 5457.07L-35.5015 5457.07M81.9303 5576.5L81.9304 4718M822 5477.06L-35.5015 5477.06M61.9419 5576.5L61.942 4718M822 5497.05L-35.5015 5497.05M41.9535 5576.5L41.9536 4718M822 5517.03L-35.5015 5517.03M21.9651 5576.5L21.9652 4718M822 5537.02L-35.5015 5537.02M1.97674 5576.5L1.97684 4718M822 5557.01L-35.5015 5557.01M-18.0116 5576.5L-18.0115 4718M822 5577L-35.5015 5577M-38 5576.5L-37.9999 4718" stroke="#C1C6CE"/>
<g filter="url(#filter0_f_744_971)">
<circle cx="1803" cy="3626" r="447" fill="#E7ECEF"/>
<circle cx="225" cy="4344" r="400" fill="#E7ECEF"/>
<circle cx="129" cy="4538" r="400" fill="#E7ECEF"/>
<circle cx="188" cy="5376" r="400" fill="#E7ECEF"/>
<ellipse cx="1849" cy="1819.5" rx="379" ry="378.5" fill="#E7ECEF"/>
<ellipse cx="717" cy="2894.5" rx="94" ry="93.5" fill="#E7ECEF"/>
<ellipse cx="-93" cy="1407.5" rx="423" ry="420.5" fill="#E7ECEF"/>
<ellipse cx="1823" cy="285.5" rx="194" ry="192.5" fill="#E7ECEF"/>
<ellipse cx="155" cy="513.5" rx="134" ry="132.5" fill="#E7ECEF"/>
<circle cx="1359" cy="4374" r="316" fill="#E7ECEF"/>
<circle cx="960" cy="4579" r="196" fill="#E7ECEF"/>
<circle cx="588" cy="4699" r="100" fill="#E7ECEF"/>
<circle cx="1289" cy="4854" r="100" fill="#E7ECEF"/>
<circle cx="1752" cy="4073" r="159" fill="#E7ECEF"/>
<circle cx="1302" cy="3876" r="262" fill="#E7ECEF"/>
<circle cx="1070" cy="4028" r="163" fill="#E7ECEF"/>
<circle cx="1722" cy="4666" r="376" fill="#E7ECEF"/>
<circle cx="726" cy="5115" r="376" fill="#E7ECEF"/>
</g>
<path d="M606 3136L606 3116" stroke="#C1C6CE" stroke-width="4" stroke-linecap="round"/>
<path d="M512 3032L512 3012" stroke="#C1C6CE" stroke-width="4" stroke-linecap="round"/>
<path d="M492 3054H472" stroke="#C1C6CE" stroke-width="4" stroke-linecap="round"/>
</g>
<defs>
<filter id="filter0_f_744_971" x="-616" y="-7" width="2966" height="5883" filterUnits="userSpaceOnUse" color-interpolation-filters="sRGB">
<feFlood flood-opacity="0" result="BackgroundImageFix"/>
<feBlend mode="normal" in="SourceGraphic" in2="BackgroundImageFix" result="shape"/>
<feGaussianBlur stdDeviation="50" result="effect1_foregroundBlur_744_971"/>
</filter>
<clipPath id="clip0_744_971">
<rect width="1920" height="10000" fill="white"/>
</clipPath>
</defs>
</svg>
