<svg xmlns="http://www.w3.org/2000/svg" width="1920" height="952" viewBox="0 0 1920 952" fill="none">
<g clip-path="url(#clip0_210_7)">
<path d="M1293 -291.5L2150.5 -291.5M1292.5 566.501L1292.5 -292M1292 -271.512L2149.5 -271.512M1312.49 567.5L1312.49 -291.001M1292 -251.524L2149.5 -251.524M1332.48 567.5L1332.48 -291.001M1292 -231.535L2149.5 -231.535M1352.46 567.5L1352.46 -291.001M1292 -211.547L2149.5 -211.547M1372.45 567.5L1372.45 -291.001M1292 -191.558L2149.5 -191.558M1392.44 567.5L1392.44 -291.001M1292 -171.57L2149.5 -171.57M1412.43 567.5L1412.43 -291.001M1292 -151.582L2149.5 -151.582M1432.42 567.5L1432.42 -291.001M1292 -131.593L2149.5 -131.593M1452.41 567.5L1452.41 -291.001M1292 -111.605L2149.5 -111.605M1472.4 567.5L1472.4 -291.001M1292 -91.6165L2149.5 -91.6166M1492.38 567.5L1492.38 -291.001M1292 -71.6281L2149.5 -71.6282M1512.37 567.5L1512.37 -291.001M1292 -51.6398L2149.5 -51.6398M1532.36 567.5L1532.36 -291.001M1292 -31.6514L2149.5 -31.6514M1552.35 567.5L1552.35 -291.001M1292 -11.663L2149.5 -11.6631M1572.34 567.5L1572.34 -291.001M1292 8.32538L2149.5 8.32532M1592.33 567.5L1592.33 -291.001M1292 28.3138L2149.5 28.3137M1612.31 567.5L1612.31 -291.001M1292 48.3021L2149.5 48.3021M1632.3 567.5L1632.3 -291.001M1292 68.2905L2149.5 68.2905M1652.29 567.5L1652.29 -291.001M1292 88.2789L2149.5 88.2788M1672.28 567.5L1672.28 -291.001M1292 108.267L2149.5 108.267M1692.27 567.5L1692.27 -291.001M1292 128.256L2149.5 128.256M1712.26 567.5L1712.26 -291.001M1292 148.244L2149.5 148.244M1732.24 567.5L1732.24 -291.001M1292 168.232L2149.5 168.232M1752.23 567.5L1752.23 -291.001M1292 188.221L2149.5 188.221M1772.22 567.5L1772.22 -291.001M1292 208.209L2149.5 208.209M1792.21 567.5L1792.21 -291.001M1292 228.198L2149.5 228.197M1812.2 567.5L1812.2 -291.001M1292 248.186L2149.5 248.186M1832.19 567.5L1832.19 -291.001M1292 268.174L2149.5 268.174M1852.17 567.5L1852.17 -291.001M1292 288.163L2149.5 288.163M1872.16 567.5L1872.16 -291.001M1292 308.151L2149.5 308.151M1892.15 567.5L1892.15 -291.001M1292 328.139L2149.5 328.139M1912.14 567.5L1912.14 -291.001M1292 348.128L2149.5 348.128M1932.13 567.5L1932.13 -291.001M1292 368.116L2149.5 368.116M1952.12 567.5L1952.12 -291.001M1292 388.105L2149.5 388.104M1972.1 567.5L1972.1 -291.001M1292 408.093L2149.5 408.093M1992.09 567.5L1992.09 -291.001M1292 428.081L2149.5 428.081M2012.08 567.5L2012.08 -291.001M1292 448.07L2149.5 448.07M2032.07 567.5L2032.07 -291.001M1292 468.058L2149.5 468.058M2052.06 567.5L2052.06 -291.001M1292 488.046L2149.5 488.046M2072.05 567.5L2072.05 -291.001M1292 508.035L2149.5 508.035M2092.03 567.5L2092.03 -291.001M1292 528.023L2149.5 528.023M2112.02 567.5L2112.02 -291.001M1292 548.012L2149.5 548.011M2132.01 567.5L2132.01 -291.001M1292 568L2149.5 568M2152 567.5L2152 -291.001" stroke="#C1C6CE"/>
<path d="M821.001 454.5L-36.5008 454.5M821.5 1312.5L821.5 454M822 474.488L-35.5014 474.488M801.512 1313.5L801.512 454.999M822 494.476L-35.5014 494.476M781.523 1313.5L781.524 454.999M822 514.465L-35.5014 514.465M761.535 1313.5L761.535 454.999M822 534.453L-35.5014 534.453M741.547 1313.5L741.547 454.999M822 554.442L-35.5014 554.442M721.558 1313.5L721.558 454.999M822 574.43L-35.5014 574.43M701.57 1313.5L701.57 454.999M822 594.418L-35.5014 594.418M681.582 1313.5L681.582 454.999M822 614.407L-35.5014 614.407M661.593 1313.5L661.593 454.999M822 634.395L-35.5014 634.395M641.605 1313.5L641.605 454.999M822 654.383L-35.5014 654.383M621.616 1313.5L621.617 454.999M822 674.372L-35.5014 674.372M601.628 1313.5L601.628 454.999M822 694.36L-35.5014 694.36M581.64 1313.5L581.64 454.999M822 714.349L-35.5014 714.349M561.651 1313.5L561.651 454.999M822 734.337L-35.5014 734.337M541.663 1313.5L541.663 454.999M822 754.325L-35.5014 754.325M521.675 1313.5L521.675 454.999M822 774.314L-35.5014 774.314M501.686 1313.5L501.686 454.999M822 794.302L-35.5014 794.302M481.698 1313.5L481.698 454.999M822 814.291L-35.5014 814.29M461.709 1313.5L461.71 454.999M822 834.279L-35.5014 834.279M441.721 1313.5L441.721 454.999M822 854.267L-35.5014 854.267M421.733 1313.5L421.733 454.999M822 874.256L-35.5014 874.256M401.744 1313.5L401.744 454.999M822 894.244L-35.5014 894.244M381.756 1313.5L381.756 454.999M822 914.232L-35.5014 914.232M361.768 1313.5L361.768 454.999M822 934.221L-35.5014 934.221M341.779 1313.5L341.779 454.999M822 954.209L-35.5015 954.209M321.791 1313.5L321.791 454.999M822 974.198L-35.5015 974.197M301.802 1313.5L301.803 454.999M822 994.186L-35.5015 994.186M281.814 1313.5L281.814 454.999M822 1014.17L-35.5015 1014.17M261.826 1313.5L261.826 454.999M822 1034.16L-35.5015 1034.16M241.837 1313.5L241.837 454.999M822 1054.15L-35.5015 1054.15M221.849 1313.5L221.849 454.999M822 1074.14L-35.5015 1074.14M201.861 1313.5L201.861 454.999M822 1094.13L-35.5015 1094.13M181.872 1313.5L181.872 454.999M822 1114.12L-35.5015 1114.12M161.884 1313.5L161.884 454.999M822 1134.1L-35.5015 1134.1M141.895 1313.5L141.895 454.999M822 1154.09L-35.5015 1154.09M121.907 1313.5L121.907 454.999M822 1174.08L-35.5015 1174.08M101.919 1313.5L101.919 454.999M822 1194.07L-35.5015 1194.07M81.9303 1313.5L81.9304 454.999M822 1214.06L-35.5015 1214.06M61.9419 1313.5L61.942 454.999M822 1234.05L-35.5015 1234.05M41.9535 1313.5L41.9536 454.999M822 1254.03L-35.5015 1254.03M21.9651 1313.5L21.9652 454.999M822 1274.02L-35.5015 1274.02M1.97674 1313.5L1.97684 454.999M822 1294.01L-35.5015 1294.01M-18.0116 1313.5L-18.0115 454.999M822 1314L-35.5015 1314M-38 1313.5L-37.9999 454.999" stroke="#C1C6CE"/>
<g filter="url(#filter0_f_210_7)">
<circle cx="225" cy="81" r="400" fill="#E7ECEF"/>
<circle cx="129" cy="275" r="400" fill="#E7ECEF"/>
<circle cx="188" cy="1113" r="400" fill="#E7ECEF"/>
<circle cx="1359" cy="111" r="316" fill="#E7ECEF"/>
<circle cx="960" cy="316" r="196" fill="#E7ECEF"/>
<circle cx="588" cy="436" r="100" fill="#E7ECEF"/>
<circle cx="1289" cy="591" r="100" fill="#E7ECEF"/>
<circle cx="1722" cy="403" r="376" fill="#E7ECEF"/>
<circle cx="726" cy="852" r="376" fill="#E7ECEF"/>
</g>
</g>
<defs>
<filter id="filter0_f_210_7" x="-616" y="-4270" width="2966" height="5883" filterUnits="userSpaceOnUse" color-interpolation-filters="sRGB">
<feFlood flood-opacity="0" result="BackgroundImageFix"/>
<feBlend mode="normal" in="SourceGraphic" in2="BackgroundImageFix" result="shape"/>
<feGaussianBlur stdDeviation="50" result="effect1_foregroundBlur_210_7"/>
</filter>
<clipPath id="clip0_210_7">
<rect width="1920" height="10000" fill="white" transform="translate(0 -4263)"/>
</clipPath>
</defs>
</svg>