<svg xmlns="http://www.w3.org/2000/svg" width="380" height="351" viewBox="0 0 380 351" fill="none">
<path opacity="0.1" d="M282.978 73.0807L282.974 73.0846C282.519 73.4952 282.056 73.8775 281.588 74.2481L281.58 74.2544L281.58 74.2543L281.579 74.2556C281.362 74.4206 281.14 74.5887 280.91 74.7573L280.909 74.7579C280.517 75.0428 280.124 75.3106 279.713 75.5697C279.393 75.7745 279.064 75.9697 278.744 76.1601L278.741 76.1619C278.407 76.3605 278.066 76.5401 277.738 76.7128L277.732 76.7155L277.731 76.7165C277.3 76.9408 276.863 77.1458 276.43 77.3399L276.43 77.34C276.171 77.4563 275.912 77.5632 275.662 77.667L275.658 77.6686L275.651 77.6714C275.098 77.8909 274.536 78.1049 273.954 78.2931L273.949 78.2946C273.919 78.3038 273.889 78.3135 273.858 78.3237C273.822 78.3357 273.784 78.3483 273.744 78.3615L273.742 78.3623C273.671 78.3858 273.596 78.411 273.521 78.4342L273.517 78.4357C271.213 79.1295 268.765 79.5214 266.226 79.5214C252.338 79.5214 241.076 68.2606 241.076 54.3736C241.076 50.9729 241.762 47.7323 242.981 44.7774L242.985 44.7676L242.985 44.7677C243.014 44.7019 243.041 44.6378 243.07 44.5697C243.098 44.5029 243.127 44.4323 243.159 44.3589M282.978 73.0807L290.728 55.5863M282.978 73.0807C283.038 73.0257 283.091 72.9769 283.144 72.9277C283.194 72.8821 283.244 72.8362 283.299 72.7848C283.33 72.7565 283.357 72.7249 283.381 72.6907M282.978 73.0807L283.381 72.6907M243.159 44.3589C243.384 43.8386 243.643 43.3297 243.893 42.8374L243.897 42.8306L243.9 42.8239L243.9 42.824C244.068 42.5065 244.236 42.196 244.414 41.8844C244.594 41.5696 244.782 41.2652 244.978 40.963M243.159 44.3589C243.159 44.3593 243.159 44.3597 243.159 44.3601L243.618 44.558L243.16 44.3576C243.16 44.358 243.16 44.3585 243.159 44.3589ZM244.978 40.963C245.275 40.4994 245.587 40.027 245.928 39.5694C245.973 39.5065 246.017 39.4462 246.059 39.3897L246.061 39.3876C246.105 39.3282 246.146 39.2727 246.187 39.2157L246.192 39.2086L246.197 39.2017C248.146 36.665 250.613 34.4481 253.559 32.7478C265.587 25.8043 280.962 29.9259 287.906 41.9523L287.906 41.9531C289.17 44.1502 290.069 46.4556 290.612 48.8069C290.631 48.8862 290.647 48.9624 290.662 49.0328L290.663 49.0348C290.678 49.1076 290.692 49.1742 290.708 49.2422L290.711 49.2544L290.711 49.2545C290.835 49.8482 290.942 50.4449 291.022 51.0439L291.023 51.0464C291.058 51.3162 291.093 51.6009 291.12 51.8788C291.174 52.3602 291.209 52.8417 291.227 53.3233C291.245 53.7053 291.254 54.0873 291.254 54.4608V54.4687C291.254 54.8375 291.254 55.2261 291.227 55.6175M244.978 40.963C244.978 40.9633 244.977 40.9636 244.977 40.9639L245.398 41.2339L244.978 40.9622C244.978 40.9625 244.978 40.9628 244.978 40.963ZM291.227 55.6175C291.227 55.6187 291.226 55.6199 291.226 55.6211L290.728 55.5863M291.227 55.6175C291.227 55.6164 291.227 55.6152 291.227 55.614L290.728 55.5863M291.227 55.6175C291.201 56.0845 291.174 56.5577 291.12 57.0418M290.728 55.5863C290.701 56.0575 290.675 56.5199 290.623 56.991M291.12 57.0418C291.12 57.0405 291.121 57.0391 291.121 57.0377L290.623 56.991M291.12 57.0418C291.096 57.3001 291.065 57.5511 291.034 57.7988C291.03 57.8265 291.027 57.8542 291.023 57.8819L291.023 57.8865C290.942 58.4854 290.835 59.0825 290.711 59.6686L290.708 59.6794L290.708 59.6794C290.693 59.7456 290.679 59.8129 290.663 59.8882L290.663 59.8914C290.648 59.9635 290.631 60.0433 290.612 60.1242M291.12 57.0418C291.12 57.0433 291.12 57.0448 291.12 57.0462L290.623 56.991M290.623 56.991L290.612 60.1242M290.612 60.1242L290.126 60.0098L290.612 60.1244C290.612 60.1243 290.612 60.1242 290.612 60.1242ZM290.612 60.1242C290.061 62.4735 289.17 64.7788 287.906 66.9772C286.656 69.1522 285.118 71.0567 283.381 72.6907M290.612 60.1242L283.381 72.6907M246.794 19.1212L246.794 19.1212L246.799 19.1181C247.709 18.6179 248.64 18.1533 249.59 17.7241C252.098 16.5923 253.917 14.1767 253.917 11.3664V6C253.917 2.96243 256.379 0.5 259.417 0.5H273.009C276.047 0.5 278.509 2.96244 278.509 6.00001V11.3538C278.509 14.1661 280.33 16.5833 282.836 17.721C285.266 18.8243 287.568 20.1607 289.71 21.7025C291.95 23.3142 294.962 23.6889 297.404 22.2794L302.063 19.5906C304.694 18.0723 308.057 18.974 309.576 21.6047L316.369 33.3733C317.887 36.004 316.986 39.3677 314.355 40.8862L308.871 44.0517C306.896 45.1918 305.928 47.449 306.186 49.6656C306.362 51.1796 306.454 52.7208 306.457 54.2845C306.452 54.3148 306.449 54.3459 306.449 54.3779C306.448 56.0039 306.348 57.6102 306.158 59.1886C305.885 61.4554 306.874 63.7648 308.893 64.9304L314.347 68.0789C316.977 69.5975 317.879 72.961 316.36 75.5917L309.568 87.36C308.049 89.9909 304.685 90.8925 302.054 89.3738L297.312 86.6363C294.868 85.2252 291.853 85.6017 289.611 87.2126C288.533 87.9863 287.408 88.7137 286.237 89.3898L286.236 89.3901C285.11 90.0422 283.967 90.6315 282.809 91.1606C280.313 92.3018 278.5 94.7141 278.5 97.5193V102.974C278.5 106.012 276.038 108.474 273 108.474H259.408C256.371 108.474 253.908 106.012 253.908 102.974V97.5946C253.908 94.7774 252.081 92.3569 249.567 91.2238C247.163 90.1401 244.857 88.8178 242.689 87.2666C240.449 85.6635 237.441 85.2925 235.003 86.7009L230.363 89.3805C227.732 90.9002 224.368 89.9988 222.849 87.3675L216.056 75.5992C214.538 72.9689 215.439 69.606 218.069 68.087L222.724 65.398C225.155 63.9937 226.339 61.2139 226.068 58.4784C225.966 57.4395 225.903 56.4004 225.881 55.3629V55.3612V55.3595V55.3578V55.356V55.3543V55.3526V55.3508V55.3491V55.3473V55.3456V55.3439V55.3421V55.3404V55.3387V55.3369V55.3352V55.3335V55.3317V55.33V55.3283V55.3265V55.3248V55.3231V55.3213V55.3196V55.3179V55.3161V55.3144V55.3127V55.3109V55.3092V55.3075V55.3057V55.304V55.3023V55.3005V55.2988V55.2971V55.2954V55.2936V55.2919V55.2902V55.2884V55.2867V55.285V55.2832V55.2815V55.2798V55.2781V55.2763V55.2746V55.2729V55.2712V55.2694V55.2677V55.266V55.2642V55.2625V55.2608V55.2591V55.2573V55.2556V55.2539V55.2522V55.2504V55.2487V55.247V55.2453V55.2435V55.2418V55.2401V55.2384V55.2366V55.2349V55.2332V55.2315V55.2297V55.228V55.2263V55.2246V55.2228V55.2211V55.2194V55.2177V55.216V55.2142V55.2125V55.2108V55.2091V55.2073V55.2056V55.2039V55.2022V55.2005V55.1987V55.197V55.1953V55.1936V55.1919V55.1901V55.1884V55.1867V55.185V55.1833V55.1815V55.1798V55.1781V55.1764V55.1747V55.173V55.1712V55.1695V55.1678V55.1661V55.1644V55.1627V55.1609V55.1592V55.1575V55.1558V55.1541V55.1524V55.1506V55.1489V55.1472V55.1455V55.1438V55.1421V55.1403V55.1386V55.1369V55.1352V55.1335V55.1318V55.1301V55.1283V55.1266V55.1249V55.1232V55.1215V55.1198V55.1181V55.1163V55.1146V55.1129V55.1112V55.1095V55.1078V55.1061V55.1044V55.1026V55.1009V55.0992V55.0975V55.0958V55.0941V55.0924V55.0907V55.0889V55.0872V55.0855V55.0838V55.0821V55.0804V55.0787V55.077V55.0753V55.0736V55.0718V55.0701V55.0684V55.0667V55.065V55.0633V55.0616V55.0599V55.0582V55.0565V55.0548V55.053V55.0513V55.0496V55.0479V55.0462V55.0445V55.0428V55.0411V55.0394V55.0377V55.036V55.0343V55.0326V55.0309V55.0291V55.0274V55.0257V55.024V55.0223V55.0206V55.0189V55.0172V55.0155V55.0138V55.0121V55.0104V55.0087V55.007V55.0053V55.0036V55.0019V55.0002V54.9985V54.9967V54.995V54.9933V54.9916V54.9899V54.9882V54.9865V54.9848V54.9831V54.9814V54.9797V54.978V54.9763V54.9746V54.9729V54.9712V54.9695V54.9678V54.9661V54.9644V54.9627V54.961V54.9593V54.9576V54.9559V54.9542V54.9525V54.9508V54.9491V54.9474V54.9457V54.944V54.9423V54.9406V54.9389V54.9372V54.9355V54.9338V54.9321V54.9304V54.9287V54.927V54.9253V54.9236V54.9219V54.9202V54.9185V54.9168V54.9151V54.9134V54.9117V54.91V54.9083V54.9066V54.9049V54.9032V54.9015V54.8998V54.8981V54.8964V54.8947V54.893V54.8913V54.8896V54.8879V54.8862V54.8845V54.8828V54.8811V54.8794V54.8777V54.876V54.8743V54.8726V54.8709V54.8692V54.8675V54.8658V54.8641V54.8624V54.8608V54.8591V54.8574V54.8557V54.854V54.8523V54.8506V54.8489V54.8472V54.8455V54.8438V54.8421V54.8404V54.8387V54.837V54.8353V54.8336V54.8319V54.8302V54.8285V54.8268V54.8252V54.8235V54.8218V54.8201V54.8184V54.8167V54.815V54.8133V54.8116V54.8099V54.8082V54.8065V54.8048V54.8031V54.8014V54.7997V54.798V54.7964V54.7947V54.793V54.7913V54.7896V54.7879V54.7862V54.7845V54.7828V54.7811V54.7794V54.7777V54.776V54.7743V54.7727V54.771V54.7693V54.7676V54.7659V54.7642V54.7625V54.7608V54.7591V54.7574V54.7557V54.754V54.7524V54.7507V54.749V54.7473V54.7456V54.7439V54.7422V54.7405V54.7388V54.7371V54.7354V54.7338V54.7321V54.7304V54.7287V54.727V54.7253V54.7236V54.7219V54.7202V54.7185V54.7168V54.7152V54.7135V54.7118V54.7101V54.7084V54.7067V54.705V54.7033V54.7016V54.6999V54.6983V54.6966V54.6949V54.6932V54.6915V54.6898V54.6881V54.6864V54.6847V54.683V54.6814V54.6797V54.678V54.6763V54.6746V54.6729V54.6712V54.6695V54.6678V54.6662V54.6645V54.6628V54.6611V54.6594V54.6577V54.656V54.6543V54.6526V54.651V54.6493V54.6476V54.6459V54.6442V54.6425V54.6408V54.6391V54.6374V54.6358V54.6341V54.6324V54.6307V54.629V54.6273V54.6256V54.6239V54.6223V54.6206V54.6189V54.6172V54.6155V54.6138V54.6121V54.6104V54.6087V54.6071V54.6054V54.6037V54.602V54.6003V54.5986V54.5969V54.5952V54.5936V54.5919V54.5902V54.5885V54.5868V54.5851V54.5834V54.5817V54.5801V54.5784V54.5767V54.575V54.5733V54.5716V54.5699V54.5682V54.5666V54.5649V54.5632V54.5615V54.5598V54.5581V54.5564V54.5547V54.5531V54.5514V54.5497V54.548V54.5463V54.5446V54.5429V54.5412V54.5396V54.5379V54.5362V54.5345V54.5328V54.5311V54.5294V54.5278V54.5261V54.5244V54.5227V54.521V54.5193V54.5176V54.5159V54.5143V54.5126V54.5109V54.5092V54.5075V54.5058V54.5041V54.5024V54.5008V54.4991V54.4974V54.4957V54.494V54.4922V54.4905V54.4887V54.487V54.4853V54.4835V54.4818V54.48V54.4783V54.4766V54.4748V54.4731V54.4713V54.4696V54.4679V54.4661V54.4644V54.4626V54.4609V54.4592V54.4574V54.4557V54.4539V54.4522V54.4504V54.4487V54.447V54.4452V54.4435V54.4417V54.44V54.4382V54.4365V54.4347V54.433V54.4313V54.4295V54.4278V54.426V54.4243V54.4225V54.4208V54.419V54.4173V54.4155V54.4138V54.412V54.4103V54.4086V54.4068V54.4051V54.4033V54.4016V54.3998V54.3981V54.3963V54.3946V54.3928V54.3911V54.3893V54.3876V54.3858V54.3841V54.3823V54.3806V54.3788V54.3771V54.3753V54.3736V54.3718V54.3701V54.3683V54.3666V54.3648V54.3631V54.3613V54.3596V54.3578V54.3561V54.3543V54.3526V54.3508V54.3491V54.3473V54.3456V54.3438V54.3421V54.3403V54.3385V54.3368V54.335V54.3333V54.3315V54.3298V54.328V54.3263V54.3245V54.3228V54.321V54.3193V54.3175V54.3158V54.314V54.3122V54.3105V54.3087V54.307V54.3052V54.3035V54.3017V54.3V54.2982V54.2964V54.2947V54.2929V54.2912V54.2894V54.2877V54.2859V54.2841V54.2824V54.2806V54.2789V54.2771V54.2754V54.2736V54.2719V54.2701V54.2683V54.2666V54.2648V54.2631V54.2613V54.2595V54.2578V54.256V54.2543V54.2525V54.2508V54.249V54.2472V54.2455V54.2437V54.242V54.2402V54.2384V54.2367V54.2349V54.2332V54.2314V54.2296V54.2279V54.2261V54.2244V54.2226V54.2208V54.2191V54.2173V54.2156V54.2138V54.212V54.2103V54.2085V54.2068V54.205V54.2032V54.2015V54.1997V54.198V54.1962V54.1944V54.1927V54.1909V54.1892V54.1874V54.1856V54.1839V54.1821V54.1804V54.1786V54.1768V54.1751V54.1733V54.1715V54.1698V54.168V54.1663V54.1645V54.1627V54.161V54.1592V54.1574V54.1557V54.1539V54.1522V54.1504V54.1486V54.1469V54.1451V54.1433V54.1416V54.1398V54.1381V54.1363V54.1345V54.1328V54.131V54.1292V54.1275V54.1257V54.124V54.1222V54.1204V54.1187V54.1169V54.1151V54.1134V54.1116V54.1099V54.1081V54.1063V54.1046V54.1028V54.101V54.0993V54.0975V54.0957V54.094V54.0922V54.0905V54.0887V54.0869V54.0852V54.0834V54.0816V54.0799V54.0781V54.0763V54.0746V54.0728V54.0711V54.0693V54.0675V54.0658V54.064V54.0622V54.0605V54.0587V54.0569V54.0552V54.0534V54.0517V54.0499V54.0481V54.0464V54.0446V54.0428V54.0411V54.0393V54.0375V54.0358V54.034V54.0323V54.0305V54.0287V54.027V54.0252V54.0234V54.0217V54.0199V54.0181V54.0164V54.0146V54.0129V54.0111V54.0093V54.0076V54.0058V54.004V54.0023V54.0005V53.9987V53.997V53.9952V53.9935V53.9917V53.9899V53.9882V53.9864V53.9846V53.9829V53.9811V53.9794V53.9776V53.9758V53.9741V53.9723V53.9705V53.9688V53.967V53.9652V53.9635V53.9617V53.96V53.9582V53.9564V53.9547V53.9529V53.9511V53.9494V53.9476V53.9459V53.9441V53.9423V53.9406V53.9388V53.937V53.9353V53.9335V53.9318V53.93V53.9282V53.9265V53.9247V53.923V53.9212V53.9194V53.9177V53.9159V53.9141V53.9124V53.9106V53.9089V53.9071V53.9053V53.9036V53.9018V53.9001V53.8983V53.8965V53.8948V53.893V53.8912V53.8895V53.8877V53.886V53.8842V53.8824V53.8807V53.8789V53.8772V53.8754V53.8736V53.8719V53.8701V53.8684V53.8666V53.8648V53.8631V53.8613V53.8596V53.8578V53.856V53.8543V53.8525V53.8508V53.849V53.8473V53.8455V53.8437V53.842V53.8402V53.8385V53.8367V53.8349V53.8332V53.8314V53.8297V53.8279V53.8262V53.8244V53.8226V53.8209V53.8191V53.8174V53.8156V53.8139V53.8121V53.8103V53.8086V53.8068V53.8051V53.8033V53.8016V53.7998V53.798V53.7963V53.7945V53.7928V53.791V53.7893V53.7875V53.7858V53.784V53.7822V53.7805V53.7787V53.777V53.7752V53.7735V53.7717V53.77V53.7682V53.7665V53.7647V53.763V53.7612V53.7594V53.7577V53.7559V53.7542V53.7524V53.7507V53.7489V53.7472V53.7454V53.7437V53.7419V53.7402V53.7384V53.7367V53.7349V53.7332V53.7314V53.7297V53.7279V53.7262V53.7244V53.7227V53.7209V53.7192V53.7174V53.7156V53.7139V53.7122V53.7104V53.7087V53.7069V53.7052V53.7034V53.7017V53.6999V53.6982V53.6964V53.6947V53.6929V53.6912V53.6894V53.6877V53.6859V53.6842V53.6824V53.6807V53.6789V53.6772V53.6754V53.6737V53.672V53.6702V53.6685V53.6667V53.665V53.6632V53.6615V53.6597V53.658V53.6562V53.6545V53.6528V53.651V53.6493V53.6475V53.6458V53.644V53.6423V53.6405V53.6388V53.6371V53.6353V53.6336V53.6318V53.6301V53.6284V53.6266V53.6249V53.6231V53.6214V53.6196V53.6179V53.6162V53.6144V53.6127V53.6109V53.6092V53.6075V53.6057V53.604V53.6022V53.6015C225.9 52.5725 225.959 51.542 226.06 50.5124C226.327 47.7693 225.148 44.976 222.708 43.5665L218.069 40.8869C215.439 39.3679 214.538 36.005 216.056 33.3748L222.849 21.6065C224.368 18.9752 227.732 18.0738 230.363 19.5934L235.002 22.2725C237.44 23.6812 240.449 23.3099 242.689 21.7058C243.533 21.1017 244.398 20.5321 245.282 19.9978L245.282 19.9978L245.286 19.9948C245.438 19.9009 245.58 19.8203 245.731 19.735C245.83 19.6792 245.933 19.6213 246.043 19.5563C246.121 19.511 246.195 19.4667 246.268 19.4234C246.447 19.3167 246.616 19.216 246.794 19.1212Z" stroke="#222222"/>
<path opacity="0.1" d="M333.944 112.618L333.944 112.618C333.879 112.652 333.815 112.689 333.742 112.731L333.739 112.733C333.673 112.771 333.6 112.813 333.524 112.854C333.451 112.899 333.379 112.941 333.313 112.978L333.31 112.98C333.237 113.022 333.172 113.059 333.112 113.097L333.106 113.101L333.106 113.101C332.961 113.189 332.817 113.278 332.674 113.369C330.69 114.634 328.109 114.979 325.995 113.758C323.774 112.476 320.935 113.237 319.652 115.457L317.576 119.051C316.296 121.268 317.055 124.103 319.272 125.383C321.389 126.605 322.378 129.02 322.28 131.371C322.273 131.536 322.268 131.7 322.265 131.864V131.864V131.865V131.866V131.867V131.868V131.869V131.87V131.871V131.872V131.873V131.874V131.875V131.876V131.877V131.878V131.879V131.88V131.881V131.882V131.883V131.884V131.885V131.886V131.887V131.888V131.889V131.89V131.891V131.891V131.892V131.893V131.894V131.895V131.896V131.897V131.898V131.899V131.9V131.901V131.902V131.903V131.904V131.905V131.906V131.907V131.908V131.909V131.91V131.911V131.912V131.913V131.914V131.915V131.916V131.917V131.918V131.919V131.92V131.921V131.922V131.923V131.924V131.925V131.926V131.927V131.928V131.929V131.93V131.931V131.932V131.933V131.934V131.935V131.936V131.937V131.938V131.939V131.94V131.941V131.942V131.943V131.944V131.945V131.946V131.946V131.947V131.948V131.949V131.95V131.951V131.952V131.953V131.954V131.955V131.956V131.957V131.958V131.959V131.96V131.961V131.962V131.963V131.964V131.965V131.966V131.967V131.968V131.969V131.97V131.971V131.972V131.973V131.974V131.975V131.976V131.977V131.978V131.979V131.98V131.981V131.982V131.983V131.984V131.985V131.986V131.987V131.988V131.989V131.99V131.991V131.992V131.993V131.994V131.995V131.996V131.997V131.998V131.999V132V132.001V132.002V132.003V132.004V132.005V132.006V132.007V132.008V132.009V132.01V132.011V132.012V132.013V132.014V132.015V132.016V132.017V132.018V132.019V132.02V132.021V132.022V132.023V132.024V132.025V132.026V132.027V132.028V132.029V132.03V132.031V132.032V132.033V132.034V132.035V132.036V132.037V132.038V132.039V132.04V132.041V132.042V132.043V132.044V132.045V132.046V132.047V132.048V132.049V132.05V132.051V132.052V132.053V132.054V132.055V132.056V132.057V132.058V132.059V132.06V132.061V132.062V132.063V132.064V132.065V132.066V132.067V132.068V132.069V132.07V132.071V132.071V132.072V132.073V132.074V132.075V132.076V132.077V132.078V132.079V132.08V132.081V132.082V132.083V132.084V132.085V132.086V132.087V132.088V132.089V132.09V132.091V132.092V132.093V132.094V132.095V132.096V132.097V132.098V132.099V132.1V132.101V132.102V132.103V132.104V132.105V132.106V132.107V132.108V132.109V132.11V132.111V132.112V132.113V132.114V132.115V132.116V132.117V132.118V132.119V132.12V132.121V132.122V132.123V132.124V132.125V132.126V132.127V132.128V132.129V132.13V132.131V132.132V132.133V132.134V132.135V132.136V132.137V132.138V132.139V132.14V132.141V132.142V132.143V132.144V132.145V132.146V132.147V132.148V132.149V132.15V132.151V132.152V132.153V132.154V132.155V132.156V132.157V132.158V132.159V132.16V132.161V132.162V132.163V132.164V132.165V132.166V132.167V132.168V132.169V132.17V132.171V132.172V132.173V132.174V132.175V132.176V132.177V132.178V132.179V132.18V132.181V132.182V132.183V132.184V132.185V132.186V132.187V132.188V132.189V132.19V132.191V132.192V132.193V132.194V132.195V132.196V132.197V132.198V132.199V132.2V132.201V132.202V132.203V132.204V132.205V132.206V132.207V132.208V132.209V132.21V132.211V132.212V132.213V132.214V132.215V132.216V132.217V132.218V132.219V132.22V132.221V132.222V132.223V132.224V132.225V132.226V132.227V132.228V132.229V132.23V132.231V132.232V132.233V132.234V132.235V132.236V132.237V132.238V132.239V132.24V132.241V132.242V132.243V132.244V132.245V132.246V132.247V132.248V132.249V132.25V132.251V132.252V132.253V132.254V132.255V132.256V132.257V132.258V132.258V132.259V132.26V132.261V132.262V132.263V132.264V132.265V132.266V132.267V132.268V132.269V132.27V132.271V132.272V132.273V132.274V132.275V132.276V132.277V132.278V132.279V132.28V132.281V132.282V132.283V132.284V132.285V132.286V132.287V132.288V132.289V132.29V132.291V132.292V132.293V132.294V132.295V132.296V132.297V132.298V132.299V132.3V132.301V132.302V132.303V132.304V132.305V132.306V132.307V132.308V132.309V132.31V132.311V132.312V132.313V132.314V132.315V132.316V132.317V132.318V132.319V132.32V132.321V132.321V132.322V132.323V132.324V132.325V132.326V132.327V132.328V132.329V132.33V132.331V132.332V132.333V132.334V132.335V132.336V132.337V132.338V132.339V132.34V132.341V132.342V132.343V132.344V132.345V132.346V132.347V132.348V132.349V132.35V132.351V132.352V132.353V132.354V132.355V132.356V132.357V132.358V132.359V132.36V132.361V132.361V132.362V132.363V132.364V132.365V132.366V132.367V132.368V132.369V132.37V132.371V132.372V132.373V132.374V132.375V132.376V132.377V132.378V132.379V132.38V132.381V132.382V132.383V132.384V132.385V132.386V132.387V132.388V132.389V132.39V132.391V132.392V132.393V132.393V132.394V132.395V132.396V132.397V132.398V132.399V132.4V132.401V132.402V132.403V132.404V132.405V132.406V132.407V132.408V132.409V132.41V132.411V132.412V132.413V132.414V132.415V132.416V132.417V132.418V132.419V132.419V132.42V132.421V132.422V132.423V132.424V132.425V132.426V132.427V132.428V132.429V132.43V132.431V132.432V132.433V132.434V132.435V132.436V132.437V132.438V132.439V132.44V132.441V132.442V132.443V132.443V132.444V132.445V132.446V132.447V132.448V132.449V132.45V132.451V132.452V132.453V132.454V132.455V132.456V132.457V132.458V132.459V132.46V132.461V132.462V132.463V132.464V132.465V132.465V132.466V132.467V132.468V132.469V132.47V132.471V132.472V132.473V132.474V132.475V132.476V132.477V132.478V132.479V132.48V132.481V132.482V132.483V132.484V132.485V132.485V132.486V132.487V132.488V132.489V132.49V132.491V132.492V132.493V132.494V132.495V132.496V132.497V132.498V132.499V132.5V132.501V132.502V132.503V132.504V132.505V132.505V132.506V132.507V132.508V132.509V132.51V132.511V132.512V132.513V132.514V132.515V132.516V132.517V132.518V132.519V132.52V132.521V132.522V132.523V132.524V132.524V132.525V132.526V132.527V132.528V132.529V132.53V132.531V132.532V132.533V132.534V132.535V132.536V132.537V132.538V132.539V132.54V132.541V132.542V132.542V132.543V132.544V132.545V132.546V132.547V132.548V132.549V132.55V132.551V132.552V132.553V132.554V132.555V132.556V132.557V132.558V132.559V132.56V132.56V132.561V132.562V132.563V132.564V132.565V132.566V132.567V132.568V132.569V132.57V132.571V132.572V132.573V132.574V132.575V132.576V132.577V132.578V132.578V132.579V132.58V132.581V132.582V132.583V132.584V132.585V132.586V132.587V132.588V132.589V132.59V132.591V132.592V132.593V132.594V132.595V132.595V132.596V132.597V132.598V132.599V132.6V132.601V132.602V132.603V132.604V132.605V132.606V132.607V132.608V132.609V132.61V132.611V132.612V132.613V132.613V132.614V132.615V132.616V132.617V132.618V132.619V132.62V132.621V132.622V132.623V132.624V132.625V132.626V132.627V132.628V132.629V132.63V132.63V132.631V132.632V132.633V132.634V132.635V132.636V132.637V132.638V132.639V132.64V132.641V132.642V132.643V132.644V132.645V132.646V132.647V132.648V132.648V132.649V132.65V132.651V132.652V132.653V132.654V132.655V132.656V132.657V132.658V132.659V132.66V132.661V132.662V132.663V132.664V132.665V132.666V132.666V132.667V132.668V132.669V132.67V132.671V132.672V132.673V132.674V132.675V132.676V132.677V132.678V132.679V132.68V132.681V132.682V132.683V132.684V132.684V132.685V132.686V132.687V132.688V132.689V132.69V132.691V132.692V132.693V132.694V132.695V132.696V132.697V132.698V132.699V132.7V132.701V132.702V132.702V132.703V132.704V132.705V132.706V132.707V132.708V132.709V132.71V132.711V132.712V132.713V132.714V132.715V132.716V132.717V132.718V132.719V132.72V132.721V132.721V132.722V132.723V132.724V132.725V132.726V132.727V132.728V132.729V132.73V132.731V132.732V132.733V132.734V132.735V132.736V132.737V132.738V132.739V132.74V132.741V132.741V132.742V132.743V132.744V132.745V132.746V132.747V132.748V132.749V132.75V132.751V132.752V132.753V132.754V132.755V132.756V132.757V132.758V132.759V132.76V132.761V132.762V132.762V132.763V132.764V132.765V132.766V132.767V132.768V132.769V132.77V132.771V132.772V132.773V132.774V132.775V132.776V132.777V132.778V132.779V132.78V132.781V132.782V132.783V132.784V132.785V132.785V132.786V132.787V132.788V132.789V132.79V132.791V132.792V132.793V132.794V132.795V132.796V132.797V132.798V132.799V132.8V132.801V132.802V132.803V132.804V132.805V132.806V132.807V132.808V132.809V132.809V132.81V132.811V132.812V132.813V132.814V132.815V132.816V132.817V132.818V132.819V132.82V132.821V132.822V132.823V132.824V132.825V132.826V132.827V132.828V132.829V132.83V132.831V132.832V132.833V132.834V132.835V132.836V132.837V132.837V132.838V132.839V132.84V132.841V132.842V132.843V132.844V132.845V132.846V132.847V132.848V132.849V132.849C322.268 133.013 322.273 133.178 322.28 133.342C322.378 135.694 321.389 138.108 319.272 139.331C317.055 140.611 316.296 143.445 317.576 145.662L319.655 149.261C320.936 151.479 323.772 152.239 325.99 150.958C328.106 149.736 330.691 150.085 332.679 151.346C333.228 151.695 333.792 152.02 334.367 152.318C336.463 153.407 338.067 155.477 338.067 157.929C338.067 160.491 340.144 162.568 342.707 162.568H346.824C349.401 162.568 351.491 160.479 351.491 157.902C351.491 155.449 353.087 153.373 355.177 152.272C355.438 152.134 355.698 151.991 355.955 151.843C356.241 151.677 356.521 151.505 356.797 151.329C358.796 150.052 361.4 149.706 363.53 150.936C365.769 152.229 368.632 151.462 369.925 149.223L371.96 145.699C373.252 143.462 372.486 140.601 370.249 139.31L367.956 137.986C367.201 137.55 366.83 136.689 366.964 135.854C367.149 134.697 367.249 133.509 367.249 132.302L333.944 112.618ZM333.944 112.618L333.951 112.614C334.097 112.534 334.245 112.455 334.393 112.378C336.481 111.29 338.076 109.226 338.076 106.782C338.076 104.221 340.152 102.145 342.713 102.145H346.862C349.423 102.145 351.499 104.221 351.499 106.782C351.499 109.226 353.094 111.291 355.181 112.379C355.76 112.68 356.323 113.006 356.871 113.355C358.863 114.625 361.46 114.982 363.585 113.755C365.803 112.475 368.639 113.234 369.92 115.452L371.981 119.02C373.271 121.254 372.506 124.111 370.272 125.401L367.968 126.732C367.227 127.16 366.863 128.004 366.99 128.823C367.163 129.927 367.253 131.054 367.258 132.207M333.944 112.618L367.258 132.207M367.258 132.207C367.252 132.237 367.249 132.269 367.249 132.302L367.258 132.207ZM353.586 143.679L353.582 143.682L353.576 143.687C353.46 143.778 353.327 143.882 353.183 143.979C352.961 144.139 352.738 144.291 352.515 144.433C352.334 144.55 352.143 144.669 351.951 144.779L351.945 144.782C351.767 144.884 351.574 144.994 351.371 145.096C351.128 145.222 350.887 145.338 350.639 145.453L350.629 145.457L350.629 145.457C350.557 145.489 350.483 145.52 350.412 145.55L350.41 145.551C350.338 145.582 350.268 145.611 350.202 145.64L350.194 145.644L350.187 145.646C349.883 145.768 349.553 145.897 349.209 145.999C349.134 146.025 349.051 146.052 348.959 146.08L353.586 143.679ZM353.586 143.679L353.592 143.674C353.848 143.47 354.12 143.252 354.376 143.015M353.586 143.679L354.32 142.962C354.293 142.966 354.265 142.969 354.238 142.969C354.265 142.969 354.293 142.967 354.32 142.962L354.37 143.02C354.372 143.018 354.374 143.016 354.376 143.015M331.491 126.805L331.491 126.805C331.501 126.782 331.51 126.76 331.523 126.728C331.526 126.721 331.528 126.714 331.532 126.706C331.546 126.671 331.565 126.623 331.589 126.573C331.718 126.271 331.863 125.982 332.012 125.701L332.016 125.694L332.016 125.694C332.042 125.647 332.069 125.596 332.099 125.541C332.162 125.421 332.234 125.287 332.308 125.162C332.411 124.977 332.52 124.803 332.622 124.643L332.625 124.639L332.625 124.638C332.795 124.37 332.975 124.099 333.166 123.836L333.171 123.829L333.171 123.829C333.195 123.797 333.218 123.766 333.242 123.733C333.266 123.701 333.291 123.666 333.319 123.628L333.323 123.623L333.323 123.623C334.443 122.169 335.854 120.903 337.536 119.935C344.424 115.959 353.219 118.318 357.197 125.205L357.197 125.206C357.919 126.461 358.435 127.78 358.751 129.128L358.753 129.133L358.753 129.133C358.762 129.176 358.771 129.22 358.78 129.261C358.789 129.303 358.797 129.342 358.805 129.378L358.806 129.383L358.806 129.383C358.879 129.728 358.933 130.062 358.985 130.394L358.987 130.405L358.988 130.417C358.995 130.479 359.002 130.54 359.009 130.602L359.014 130.647C359.023 130.723 359.032 130.8 359.041 130.879L359.041 130.885L359.041 130.885C359.067 131.14 359.084 131.402 359.1 131.647L359.104 131.695L359.104 131.708L359.104 131.708L359.104 131.712C359.113 131.918 359.122 132.137 359.122 132.357V132.366C359.122 132.566 359.122 132.796 359.104 133.023C359.094 133.299 359.067 133.581 359.041 133.837L359.041 133.843L359.041 133.843L359.04 133.844C359.023 134.001 359.005 134.159 358.988 134.308L358.987 134.315L358.987 134.315C358.941 134.664 358.877 135 358.807 135.336C358.798 135.382 358.788 135.425 358.78 135.465L358.78 135.465C358.771 135.507 358.763 135.546 358.755 135.587L358.753 135.595L358.751 135.603C358.435 136.948 357.929 138.268 357.206 139.525C356.482 140.781 355.589 141.883 354.589 142.829M331.491 126.805L354.245 142.466M331.491 126.805L331.486 126.817M331.491 126.805L331.486 126.817M354.589 142.829L354.245 142.466M354.589 142.829C354.589 142.829 354.589 142.829 354.589 142.829L354.245 142.466M354.589 142.829C354.571 142.846 354.552 142.862 354.532 142.876M354.245 142.466C354.243 142.468 354.24 142.469 354.238 142.469C354.235 142.469 354.232 142.47 354.23 142.472C354.177 142.525 354.123 142.571 354.064 142.623C354.057 142.63 354.049 142.637 354.041 142.643L354.238 142.855L354.334 142.959C354.427 142.94 354.513 142.895 354.58 142.829M354.532 142.876C354.548 142.86 354.564 142.845 354.58 142.829M354.532 142.876C354.472 142.917 354.405 142.946 354.335 142.959L354.381 143.01C354.38 143.011 354.378 143.013 354.376 143.015M354.532 142.876C354.483 142.921 354.436 142.963 354.393 143C354.387 143.005 354.381 143.01 354.376 143.015M354.58 142.829C354.581 142.828 354.582 142.827 354.583 142.827M354.58 142.829C354.581 142.828 354.582 142.827 354.583 142.827M354.583 142.827C354.583 142.826 354.583 142.826 354.583 142.826L354.238 142.48L354.583 142.827ZM331.486 126.817C330.781 128.516 330.392 130.37 330.392 132.313C330.392 140.258 336.837 146.703 344.783 146.703C346.24 146.703 347.641 146.477 348.958 146.08L331.486 126.817Z" stroke="#222222"/>
<path opacity="0.1" d="M27.7897 241.741C27.721 241.576 27.6578 241.406 27.5957 241.239C27.5789 241.194 27.5621 241.149 27.5454 241.104C27.521 241.04 27.4966 240.978 27.4723 240.915C27.41 240.755 27.3489 240.598 27.2923 240.441C27.1158 239.961 26.9512 239.477 26.7988 238.987C26.0288 236.516 24.0723 234.501 21.5141 234.102L19.5634 233.799C16.2899 233.289 14.0488 230.223 14.5573 226.949L15.7957 218.975C16.3044 215.7 19.3724 213.458 22.6474 213.968L24.5866 214.27C27.1484 214.668 29.631 213.341 31.1154 211.215C31.4082 210.796 31.7104 210.385 32.0216 209.982L27.7897 241.741ZM27.7897 241.741C27.9863 242.217 28.1945 242.689 28.4144 243.157C29.5143 245.496 29.4178 248.3 27.7964 250.313L26.5549 251.854C24.4758 254.436 24.8841 258.214 27.4666 260.292L33.7536 265.351C36.3346 267.428 40.1101 267.02 42.188 264.44L43.4314 262.896C45.0535 260.882 47.7737 260.19 50.2962 260.76C51.7466 261.087 53.2133 261.312 54.6849 261.435C57.2691 261.651 59.6602 263.138 60.5961 265.556L61.3114 267.405C62.5076 270.496 65.9836 272.031 69.0743 270.834L76.5994 267.919C79.6892 266.722 81.2238 263.247 80.027 260.157L79.2828 258.235C78.3527 255.834 79.102 253.144 80.8472 251.251C81.3277 250.729 81.7945 250.188 82.2463 249.628L27.7897 241.741ZM33.2751 209.224L33.2766 209.222C33.6017 208.836 33.9356 208.458 34.2786 208.088C36.1409 206.077 36.9814 203.174 35.9635 200.548L35.2498 198.706C34.152 195.874 35.5586 192.687 38.3914 191.59L45.9181 188.674C48.7502 187.577 51.9356 188.983 53.0331 191.815L53.7473 193.658C54.7654 196.285 57.3432 197.862 60.0738 198.096C61.5278 198.22 62.9659 198.446 64.3779 198.769C67.0558 199.381 69.9991 198.662 71.7696 196.462L73.0108 194.92C74.9151 192.553 78.377 192.179 80.7435 194.083L87.031 199.142C89.3976 201.046 89.7725 204.508 87.8683 206.875L86.5816 208.474C84.8214 210.662 84.7365 213.672 85.8888 216.15C86.1752 216.765 86.4438 217.394 86.6941 218.035C86.6989 218.053 86.7047 218.071 86.7114 218.088C86.9798 218.784 87.2219 219.483 87.4382 220.183C88.2484 222.806 90.3446 224.993 93.1336 225.426L95.1656 225.741C98.1675 226.207 100.223 229.018 99.7572 232.02L98.5187 239.994C98.0526 242.995 95.242 245.05 92.2406 244.585L90.1961 244.267C87.4129 243.836 84.7562 245.277 83.1914 247.528C82.7703 248.134 82.3254 248.73 81.8568 249.315C81.4121 249.866 80.9526 250.398 80.4795 250.912C78.6311 252.917 77.8048 255.804 78.8165 258.416L79.5608 260.338C80.6578 263.17 79.2511 266.355 76.4188 267.453L68.8937 270.368C66.0606 271.465 62.8742 270.058 61.7777 267.224L61.0624 265.376C60.0442 262.745 57.462 261.165 54.7265 260.937C53.2778 260.816 51.8341 260.595 50.4064 260.272C47.7363 259.669 44.8067 260.391 43.042 262.582L41.7985 264.126C39.8939 266.491 36.4329 266.865 34.0671 264.962L27.7801 259.903C25.4127 257.998 25.0385 254.535 26.9444 252.168L28.1858 250.626C29.9498 248.436 30.0316 245.421 28.8669 242.944C28.6504 242.484 28.4454 242.019 28.2519 241.55L28.2512 241.548C28.1867 241.394 28.1279 241.235 28.0663 241.07C28.049 241.023 28.0315 240.976 28.0135 240.928L28.012 240.924C27.9861 240.857 27.9608 240.792 27.9361 240.728C27.8747 240.57 27.8171 240.422 27.7628 240.271L27.7615 240.268C27.5879 239.797 27.4261 239.32 27.2761 238.839C26.4615 236.223 24.3746 234.042 21.591 233.608L19.6403 233.305C16.6395 232.838 14.5853 230.027 15.0513 227.026L16.2898 219.052C16.7561 216.05 19.5684 213.994 22.5705 214.462L24.5097 214.764C27.2969 215.197 29.9546 213.751 31.5254 211.501C31.8135 211.089 32.1109 210.684 32.4173 210.288L32.4193 210.285C32.5099 210.166 32.6008 210.056 32.6992 209.936C32.7463 209.879 32.7952 209.819 32.8465 209.756L32.4579 209.441L32.8465 209.756C32.9071 209.681 32.9621 209.612 33.0147 209.545C33.1029 209.434 33.1846 209.331 33.2751 209.224ZM74.3385 239.674L74.3386 239.674L74.3446 239.664C74.5826 239.259 74.8158 238.847 75.0324 238.413L75.1079 238.263L75.1833 238.112C75.2062 238.066 75.2221 238.018 75.2311 237.968C76.0301 236.286 76.6131 234.458 76.9118 232.516C77.216 230.539 77.2162 228.587 76.9475 226.707L76.9467 226.702C76.9382 226.646 76.9297 226.589 76.921 226.53C76.9123 226.471 76.9033 226.411 76.8944 226.353C76.8218 225.881 76.7228 225.414 76.6169 224.955L76.617 224.955L76.6148 224.946L76.6138 224.942C76.5625 224.737 76.5086 224.522 76.4454 224.304C76.3463 223.936 76.2301 223.578 76.1184 223.235L76.1166 223.229L76.1166 223.229L76.1139 223.221C76.0359 222.994 75.9517 222.771 75.8694 222.553C75.8474 222.495 75.8254 222.437 75.8038 222.379L75.8038 222.379L75.8019 222.374C75.6947 222.097 75.579 221.821 75.4665 221.553L75.4652 221.55L75.4652 221.55L75.4624 221.543C75.3088 221.191 75.1381 220.85 74.9742 220.522L74.9734 220.52C74.891 220.349 74.8014 220.186 74.7186 220.036C74.6978 219.998 74.6774 219.961 74.6577 219.925L74.6578 219.925L74.654 219.918C74.4236 219.51 74.1762 219.104 73.9207 218.707C73.8562 218.597 73.7889 218.491 73.7111 218.384C72.6384 216.821 71.3241 215.373 69.768 214.121C61.2373 207.256 48.7591 208.607 41.8935 217.137C40.2126 219.22 39.0316 221.545 38.3241 223.967C38.2887 224.074 38.2506 224.198 38.2205 224.326C38.1047 224.754 38.0071 225.181 37.9189 225.613L37.9179 225.618L37.9172 225.622C37.8653 225.89 37.8117 226.167 37.7668 226.445C37.7366 226.632 37.713 226.834 37.6912 227.021C37.6805 227.112 37.6703 227.2 37.6598 227.281L37.6593 227.285C37.6058 227.731 37.5698 228.17 37.5517 228.617C37.5423 228.754 37.5423 228.88 37.5423 228.988V228.988C37.4893 231.51 37.9101 234.086 38.8761 236.582L38.8762 236.582C42.8326 246.794 54.3171 251.869 64.5307 247.913L64.5308 247.913C66.3979 247.189 68.0876 246.216 69.5814 245.045L69.5819 245.045C69.6699 244.981 69.7793 244.901 69.8829 244.809C70.2506 244.513 70.6061 244.193 70.9455 243.879L70.9455 243.879L70.9497 243.875L70.9538 243.872C71.1064 243.727 71.2705 243.572 71.4273 243.407C71.695 243.139 71.9538 242.862 72.2038 242.577C72.3986 242.355 72.5937 242.125 72.7805 241.894C72.9814 241.656 73.1627 241.411 73.3333 241.181L73.3379 241.175L73.3379 241.175L73.343 241.168C73.5605 240.863 73.7756 240.559 73.9831 240.234C74.1089 240.045 74.2251 239.857 74.3365 239.678L74.3385 239.674ZM75.1901 238.054L75.1901 238.054L75.1901 238.054Z" stroke="#222222"/>
<path d="M184.72 45.0204H10.2338C9.00345 45.0204 8 44.017 8 42.7868C8 41.5566 9.00345 40.5532 10.2338 40.5532H184.72C185.951 40.5532 186.954 41.5566 186.954 42.7868C186.954 44.017 185.951 45.0204 184.72 45.0204Z" fill="#C1C6CE"/>
<path d="M184.72 61.0218H10.2338C9.00345 61.0218 8 60.0185 8 58.7883C8 57.558 9.00345 56.5547 10.2338 56.5547H184.72C185.951 56.5547 186.954 57.558 186.954 58.7883C186.954 60.0185 185.951 61.0218 184.72 61.0218Z" fill="#C1C6CE"/>
<path d="M184.72 77.0145H10.2338C9.00345 77.0145 8 76.0111 8 74.7809C8 73.5507 9.00345 72.5474 10.2338 72.5474H184.72C185.951 72.5474 186.954 73.5507 186.954 74.7809C186.954 76.0111 185.951 77.0145 184.72 77.0145Z" fill="#C1C6CE"/>
<path d="M184.72 88.5488H10.2338C9.00009 88.5488 8 89.5488 8 90.7824C8 92.016 9.00009 93.016 10.2338 93.016H184.72C185.954 93.016 186.954 92.016 186.954 90.7824C186.954 89.5488 185.954 88.5488 184.72 88.5488Z" fill="#C1C6CE"/>
<path d="M184.72 109.017H10.2338C9.00345 109.017 8 108.014 8 106.784C8 105.554 9.00345 104.55 10.2338 104.55H184.72C185.951 104.55 186.954 105.554 186.954 106.784C186.954 108.014 185.951 109.017 184.72 109.017Z" fill="#C1C6CE"/>
<path d="M184.72 125.01H10.2338C9.00345 125.01 8 124.007 8 122.777C8 121.546 9.00345 120.543 10.2338 120.543H184.72C185.951 120.543 186.954 121.546 186.954 122.777C186.954 124.007 185.951 125.01 184.72 125.01Z" fill="#C1C6CE"/>
<path d="M184.72 141.012H10.2338C9.00345 141.012 8 140.008 8 138.778C8 137.548 9.00345 136.544 10.2338 136.544H184.72C185.951 136.544 186.954 137.548 186.954 138.778C186.954 140.008 185.951 141.012 184.72 141.012Z" fill="#C1C6CE"/>
<path d="M184.72 157.013H10.2338C9.00345 157.013 8 156.01 8 154.779C8 153.549 9.00345 152.546 10.2338 152.546H184.72C185.951 152.546 186.954 153.549 186.954 154.779C186.954 156.01 185.951 157.013 184.72 157.013Z" fill="#C1C6CE"/>
<path d="M184.72 173.006H10.2338C9.00345 173.006 8 172.003 8 170.772C8 169.542 9.00345 168.539 10.2338 168.539H184.72C185.951 168.539 186.954 169.542 186.954 170.772C186.954 172.003 185.951 173.006 184.72 173.006Z" fill="#C1C6CE"/>
<path d="M60.8687 119.374H309.706V242.587C309.706 249.96 303.72 255.936 296.356 255.936H74.2189C66.8457 255.936 60.8687 249.951 60.8687 242.587V119.374Z" fill="#E3E8EB"/>
<path d="M74.2189 81.5979H296.347C303.444 81.5979 309.197 87.3592 309.197 94.447V223.843H61.3687V94.447C61.3687 87.3509 67.1303 81.5979 74.2189 81.5979Z" fill="#E7ECEF" stroke="url(#paint0_linear_744_427)"/>
<path d="M300.125 94.5779H70.8682V210.593H300.125V94.5779Z" fill="#E7ECEF"/>
<g filter="url(#filter0_b_744_427)">
<path d="M245.773 68.9614H108.458C104.174 68.9614 100.701 72.4341 100.701 76.7179V159.735C100.701 164.019 104.174 167.492 108.458 167.492H245.773C250.058 167.492 253.531 164.019 253.531 159.735V76.7179C253.531 72.4341 250.058 68.9614 245.773 68.9614Z" fill="url(#paint1_radial_744_427)" fill-opacity="0.7"/>
<path d="M108.458 69.4614H245.773C249.782 69.4614 253.031 72.7103 253.031 76.7179V159.735C253.031 163.743 249.782 166.992 245.773 166.992H108.458C104.45 166.992 101.201 163.743 101.201 159.735V76.7179C101.201 72.7103 104.45 69.4614 108.458 69.4614Z" stroke="url(#paint2_linear_744_427)"/>
</g>
<path d="M241.773 76.7178H112.458C110.249 76.7178 108.458 78.5086 108.458 80.7178V155.735C108.458 157.944 110.249 159.735 112.458 159.735H241.773C243.982 159.735 245.773 157.944 245.773 155.735V80.7178C245.773 78.5086 243.982 76.7178 241.773 76.7178Z" fill="#E7ECEF"/>
<path d="M136.42 87.8071H124.064C123.532 87.8071 123.1 88.2388 123.1 88.7712C123.1 89.3037 123.532 89.7353 124.064 89.7353H136.42C136.952 89.7353 137.384 89.3037 137.384 88.7712C137.384 88.2388 136.952 87.8071 136.42 87.8071Z" fill="#DB504A"/>
<path d="M170.171 87.8071H142.868C142.335 87.8071 141.904 88.2388 141.904 88.7712C141.904 89.3037 142.335 89.7353 142.868 89.7353H170.171C170.703 89.7353 171.135 89.3037 171.135 88.7712C171.135 88.2388 170.703 87.8071 170.171 87.8071Z" fill="#DB504A"/>
<path d="M142.484 95.6248H130.129C129.596 95.6248 129.165 96.0564 129.165 96.5889C129.165 97.1213 129.596 97.553 130.129 97.553H142.484C143.017 97.553 143.448 97.1213 143.448 96.5889C143.448 96.0564 143.017 95.6248 142.484 95.6248Z" fill="#222222"/>
<path d="M230.526 95.6248H148.932C148.4 95.6248 147.968 96.0564 147.968 96.5889C147.968 97.1213 148.4 97.553 148.932 97.553H230.526C231.058 97.553 231.49 97.1213 231.49 96.5889C231.49 96.0564 231.058 95.6248 230.526 95.6248Z" fill="#7C43C5"/>
<path d="M142.484 102.884H130.129C129.596 102.884 129.165 103.315 129.165 103.848C129.165 104.38 129.596 104.812 130.129 104.812H142.484C143.017 104.812 143.448 104.38 143.448 103.848C143.448 103.315 143.017 102.884 142.484 102.884Z" fill="#222222"/>
<path d="M230.526 102.884H148.932C148.4 102.884 147.968 103.315 147.968 103.848C147.968 104.38 148.4 104.812 148.932 104.812H230.526C231.058 104.812 231.49 104.38 231.49 103.848C231.49 103.315 231.058 102.884 230.526 102.884Z" fill="#7C43C5"/>
<path d="M142.484 110.143H130.129C129.596 110.143 129.165 110.574 129.165 111.107C129.165 111.639 129.596 112.071 130.129 112.071H142.484C143.017 112.071 143.448 111.639 143.448 111.107C143.448 110.574 143.017 110.143 142.484 110.143Z" fill="#222222"/>
<path d="M230.526 110.143H148.932C148.4 110.143 147.968 110.574 147.968 111.107C147.968 111.639 148.4 112.071 148.932 112.071H230.526C231.058 112.071 231.49 111.639 231.49 111.107C231.49 110.574 231.058 110.143 230.526 110.143Z" fill="#7C43C5"/>
<path d="M142.484 117.393H130.129C129.596 117.393 129.165 117.825 129.165 118.357C129.165 118.89 129.596 119.322 130.129 119.322H142.484C143.017 119.322 143.448 118.89 143.448 118.357C143.448 117.825 143.017 117.393 142.484 117.393Z" fill="#222222"/>
<path d="M136.42 125.071H124.064C123.532 125.071 123.1 125.503 123.1 126.035C123.1 126.568 123.532 126.999 124.064 126.999H136.42C136.952 126.999 137.384 126.568 137.384 126.035C137.384 125.503 136.952 125.071 136.42 125.071Z" fill="#DB504A"/>
<path d="M170.171 125.071H142.868C142.335 125.071 141.904 125.503 141.904 126.035C141.904 126.568 142.335 126.999 142.868 126.999H170.171C170.703 126.999 171.135 126.568 171.135 126.035C171.135 125.503 170.703 125.071 170.171 125.071Z" fill="#DB504A"/>
<path d="M200.859 132.889H148.932C148.4 132.889 147.968 133.32 147.968 133.853C147.968 134.385 148.4 134.817 148.932 134.817H200.859C201.391 134.817 201.823 134.385 201.823 133.853C201.823 133.32 201.391 132.889 200.859 132.889Z" fill="#222222"/>
<path d="M200.859 140.148H148.932C148.4 140.148 147.968 140.579 147.968 141.112C147.968 141.644 148.4 142.076 148.932 142.076H200.859C201.391 142.076 201.823 141.644 201.823 141.112C201.823 140.579 201.391 140.148 200.859 140.148Z" fill="#222222"/>
<path d="M142.476 140.148H139.666C139.133 140.148 138.702 140.579 138.702 141.112C138.702 141.644 139.133 142.076 139.666 142.076H142.476C143.008 142.076 143.44 141.644 143.44 141.112C143.44 140.579 143.008 140.148 142.476 140.148Z" fill="#7C43C5"/>
<path d="M142.484 147.407H130.129C129.596 147.407 129.165 147.839 129.165 148.371C129.165 148.904 129.596 149.335 130.129 149.335H142.484C143.017 149.335 143.448 148.904 143.448 148.371C143.448 147.839 143.017 147.407 142.484 147.407Z" fill="#7C43C5"/>
<path d="M200.859 147.407H148.932C148.4 147.407 147.968 147.839 147.968 148.371C147.968 148.904 148.4 149.335 148.932 149.335H200.859C201.391 149.335 201.823 148.904 201.823 148.371C201.823 147.839 201.391 147.407 200.859 147.407Z" fill="#222222"/>
<path d="M231.136 132.889H206.67C206.137 132.889 205.706 133.32 205.706 133.853C205.706 134.385 206.137 134.817 206.67 134.817H231.136C231.669 134.817 232.101 134.385 232.101 133.853C232.101 133.32 231.669 132.889 231.136 132.889Z" fill="#222222"/>
<path d="M231.136 140.148H206.67C206.137 140.148 205.706 140.579 205.706 141.112C205.706 141.644 206.137 142.076 206.67 142.076H231.136C231.669 142.076 232.101 141.644 232.101 141.112C232.101 140.579 231.669 140.148 231.136 140.148Z" fill="#222222"/>
<path d="M231.136 147.407H206.67C206.137 147.407 205.706 147.839 205.706 148.371C205.706 148.904 206.137 149.335 206.67 149.335H231.136C231.669 149.335 232.101 148.904 232.101 148.371C232.101 147.839 231.669 147.407 231.136 147.407Z" fill="#222222"/>
<path d="M230.526 117.393H148.932C148.4 117.393 147.968 117.825 147.968 118.357C147.968 118.89 148.4 119.322 148.932 119.322H230.526C231.058 119.322 231.49 118.89 231.49 118.357C231.49 117.825 231.058 117.393 230.526 117.393Z" fill="#7C43C5"/>
<g filter="url(#filter1_b_744_427)">
<path d="M75.7806 107.735H31.533C27.2488 107.735 23.7759 111.208 23.7759 115.491V159.735C23.7759 164.019 27.2488 167.492 31.533 167.492H75.7806C80.0648 167.492 83.5377 164.019 83.5377 159.735V115.491C83.5377 111.208 80.0648 107.735 75.7806 107.735Z" fill="url(#paint3_radial_744_427)" fill-opacity="0.7"/>
<path d="M31.533 108.235H75.7806C79.7887 108.235 83.0377 111.484 83.0377 115.491V159.735C83.0377 163.743 79.7887 166.992 75.7806 166.992H31.533C27.5249 166.992 24.2759 163.743 24.2759 159.735V115.491C24.2759 111.484 27.5249 108.235 31.533 108.235Z" stroke="url(#paint4_linear_744_427)"/>
</g>
<g filter="url(#filter2_dddd_744_427)">
<path d="M67.4258 137.583C67.4282 137.583 67.4302 137.581 67.4302 137.578C67.43 137.036 67.3981 136.5 67.3361 135.973C67.255 135.284 67.5566 134.591 68.1577 134.243L69.0851 133.707C70.5663 132.85 71.0727 130.955 70.2163 129.474L68.9834 127.341C68.1303 125.866 66.2427 125.361 64.7668 126.213C63.6122 126.88 62.1771 126.7 61.0536 125.982C60.7175 125.767 60.3716 125.566 60.0167 125.38C58.8403 124.765 57.9716 123.617 57.9716 122.289C57.9716 120.587 56.5923 119.208 54.8908 119.208H52.4073C50.7047 119.208 49.3245 120.588 49.3245 122.291C49.3245 123.618 48.4546 124.76 47.281 125.379C47.1909 125.426 47.1013 125.475 47.0122 125.525C46.925 125.568 46.8377 125.621 46.7505 125.673C46.6632 125.725 46.5759 125.769 46.4887 125.821C46.4024 125.874 46.3166 125.928 46.2313 125.982C45.1105 126.697 43.6782 126.874 42.5265 126.209C41.0519 125.359 39.1669 125.864 38.3149 127.338L37.0699 129.491C36.2193 130.962 36.7235 132.845 38.1956 133.694C39.348 134.358 39.907 135.69 39.8494 137.019C39.8451 137.12 39.8419 137.22 39.8398 137.321C39.8398 137.426 39.8398 137.522 39.8398 137.626C39.8398 137.722 39.8398 137.818 39.8398 137.923C39.8419 138.025 39.8452 138.126 39.8496 138.228C39.9075 139.556 39.3495 140.885 38.198 141.549C36.7246 142.399 36.2199 144.283 37.0713 145.755L38.3148 147.906C39.1669 149.38 41.0519 149.885 42.5266 149.034C43.6783 148.37 45.1087 148.549 46.2312 149.262C46.5692 149.476 46.9155 149.675 47.2693 149.859C48.4513 150.472 49.3245 151.622 49.3245 152.954C49.3245 154.656 50.7043 156.036 52.4063 156.036H54.8737C56.5846 156.036 57.9716 154.649 57.9716 152.938C57.9716 151.604 58.8418 150.447 60.0217 149.826C60.1828 149.741 60.3429 149.653 60.502 149.562C60.6777 149.459 60.8502 149.354 61.0197 149.245C62.147 148.524 63.5877 148.346 64.7474 149.014C66.2345 149.871 68.1347 149.362 68.9937 147.876L70.2143 145.765C71.0714 144.282 70.5629 142.386 69.0792 141.531L68.1701 141.007C67.5518 140.65 67.2426 139.938 67.3261 139.229C67.3895 138.69 67.4213 138.143 67.4215 137.587C67.4215 137.585 67.4234 137.583 67.4258 137.583ZM59.3197 143.677C59.3221 143.679 59.322 143.683 59.3195 143.685C59.3022 143.701 59.2405 143.756 59.2107 143.786C59.0623 143.917 58.9053 144.048 58.7482 144.17C58.6784 144.231 58.5999 144.283 58.5213 144.336C58.3904 144.432 58.2596 144.519 58.1287 144.606C58.024 144.676 57.9105 144.737 57.8058 144.807C57.6924 144.868 57.5877 144.929 57.4743 144.99C57.3346 145.06 57.1863 145.13 57.0467 145.199C56.9594 145.234 56.8722 145.278 56.7937 145.313C56.6104 145.391 56.4185 145.461 56.2265 145.522C56.1741 145.54 56.1305 145.557 56.0782 145.566C55.3103 145.801 54.5075 145.924 53.6612 145.924C49.0628 145.924 45.3282 142.198 45.3282 137.591C45.3282 136.466 45.555 135.393 45.9564 134.415C45.9739 134.372 45.9913 134.328 46.0175 134.276C46.096 134.101 46.1746 133.936 46.2618 133.77C46.3142 133.665 46.3753 133.56 46.4363 133.456C46.4974 133.351 46.5585 133.255 46.6196 133.15C46.7243 132.993 46.8203 132.836 46.9337 132.688C46.9599 132.644 46.9948 132.609 47.021 132.566C47.6666 131.728 48.4869 130.995 49.4554 130.428C53.443 128.125 58.5301 129.495 60.8336 133.473C61.2525 134.197 61.5491 134.965 61.7324 135.742C61.7411 135.794 61.7498 135.838 61.7673 135.89C61.8109 136.091 61.8458 136.283 61.872 136.483C61.8807 136.579 61.8982 136.667 61.9069 136.762C61.9243 136.92 61.9331 137.077 61.9418 137.242C61.9418 137.365 61.9418 137.495 61.9418 137.618C61.9418 137.748 61.9418 137.871 61.9418 138.001C61.9418 138.158 61.9243 138.316 61.9069 138.473C61.8982 138.569 61.8894 138.656 61.872 138.752C61.8458 138.952 61.8109 139.144 61.7673 139.345C61.7585 139.397 61.7498 139.441 61.7324 139.493C61.5491 140.27 61.2525 141.038 60.8336 141.762C60.4159 142.484 59.9026 143.128 59.3198 143.668C59.3174 143.671 59.3173 143.675 59.3197 143.677Z" fill="#222222"/>
</g>
<g filter="url(#filter3_b_744_427)">
<path d="M144.791 181.103H85.0383C80.7542 181.103 77.2812 184.575 77.2812 188.859V225.346C77.2812 229.63 80.7542 233.103 85.0383 233.103H144.791C149.076 233.103 152.549 229.63 152.549 225.346V188.859C152.549 184.575 149.076 181.103 144.791 181.103Z" fill="url(#paint5_radial_744_427)" fill-opacity="0.7"/>
<path d="M85.0383 181.603H144.791C148.799 181.603 152.049 184.851 152.049 188.859V225.346C152.049 229.354 148.799 232.603 144.791 232.603H85.0383C81.0303 232.603 77.7812 229.354 77.7812 225.346V188.859C77.7812 184.851 81.0303 181.603 85.0383 181.603Z" stroke="url(#paint6_linear_744_427)"/>
</g>
<g filter="url(#filter4_dddd_744_427)">
<path d="M104.034 197.025C104.034 196.168 103.027 195.708 102.38 196.269L90.7455 206.347C90.285 206.746 90.2851 207.46 90.7457 207.859L102.38 217.929C103.027 218.49 104.034 218.03 104.034 217.173V213.17C104.034 212.88 103.908 212.604 103.688 212.414L98.4172 207.859C97.956 207.46 97.9557 206.745 98.4167 206.346L103.689 201.783C103.908 201.593 104.034 201.317 104.034 201.027V197.025Z" fill="#222222"/>
<path d="M125.805 217.174C125.805 218.031 126.811 218.491 127.459 217.93L139.101 207.859C139.562 207.46 139.562 206.745 139.101 206.347L127.459 196.268C126.812 195.707 125.805 196.167 125.805 197.024V201.027C125.805 201.317 125.931 201.593 126.15 201.783L131.422 206.346C131.883 206.745 131.883 207.46 131.422 207.859L126.151 212.414C125.931 212.604 125.805 212.88 125.805 213.17V217.174Z" fill="#222222"/>
<path d="M113.753 222.625C113.636 223.062 113.24 223.366 112.787 223.366H108.855C108.197 223.366 107.719 222.742 107.889 222.106L116.095 191.58C116.212 191.143 116.608 190.84 117.061 190.84H120.984C121.642 190.84 122.121 191.464 121.95 192.099L113.753 222.625Z" fill="#222222"/>
</g>
<g filter="url(#filter5_b_744_427)">
<path d="M346.066 38.1277H278.555C274.271 38.1277 270.798 41.6004 270.798 45.8841V113.389C270.798 117.672 274.271 121.145 278.555 121.145H346.066C350.35 121.145 353.823 117.672 353.823 113.389V45.8841C353.823 41.6004 350.35 38.1277 346.066 38.1277Z" fill="url(#paint7_radial_744_427)" fill-opacity="0.7"/>
<path d="M278.555 38.6277H346.066C350.074 38.6277 353.323 41.8765 353.323 45.8841V113.389C353.323 117.396 350.074 120.645 346.066 120.645H278.555C274.547 120.645 271.298 117.396 271.298 113.389V45.8841C271.298 41.8765 274.547 38.6277 278.555 38.6277Z" stroke="url(#paint8_linear_744_427)"/>
</g>
<g filter="url(#filter6_dddd_744_427)">
<path d="M332.881 64.3287C331.171 64.3287 329.548 64.7126 328.1 65.3931C326.11 58.291 319.601 53.0823 311.861 53.0823C304.122 53.0823 297.822 58.1253 295.719 65.0528C294.48 64.5817 293.145 64.3287 291.749 64.3287C285.536 64.3287 280.501 69.3629 280.501 75.5751H344.129C344.129 69.3629 339.094 64.3287 332.881 64.3287Z" fill="#222222"/>
<path d="M305.443 94.4993C303.661 94.4993 302.769 96.6537 304.029 97.9136L310.901 104.785C311.682 105.566 312.948 105.566 313.729 104.785L320.602 97.9136C321.862 96.6537 320.97 94.4993 319.188 94.4993H318.128C317.024 94.4993 316.128 93.6039 316.128 92.4993V82.6965C316.128 81.592 315.233 80.6965 314.128 80.6965H310.493C309.389 80.6965 308.494 81.592 308.494 82.6965V92.4993C308.494 93.6039 307.598 94.4993 306.494 94.4993H305.443Z" fill="#222222"/>
</g>
<g filter="url(#filter7_b_744_427)">
<path d="M75.7806 34.376H31.533C27.2488 34.376 23.7759 37.8486 23.7759 42.1324V86.3764C23.7759 90.6601 27.2488 94.1328 31.533 94.1328H75.7806C80.0648 94.1328 83.5377 90.6601 83.5377 86.3764V42.1324C83.5377 37.8486 80.0648 34.376 75.7806 34.376Z" fill="url(#paint9_radial_744_427)" fill-opacity="0.7"/>
<path d="M31.533 34.876H75.7806C79.7887 34.876 83.0377 38.1248 83.0377 42.1324V86.3764C83.0377 90.3839 79.7887 93.6328 75.7806 93.6328H31.533C27.5249 93.6328 24.2759 90.3839 24.2759 86.3764V42.1324C24.2759 38.1248 27.5249 34.876 31.533 34.876Z" stroke="url(#paint10_linear_744_427)"/>
</g>
<path d="M72.4787 41.4343H34.835C32.6258 41.4343 30.835 43.2252 30.835 45.4343V83.0743C30.835 85.2834 32.6258 87.0743 34.835 87.0743H72.4787C74.6879 87.0743 76.4787 85.2834 76.4787 83.0743V45.4343C76.4787 43.2252 74.6879 41.4343 72.4787 41.4343Z" fill="#E7ECEF"/>
<path d="M41.7901 50.3164H39.5212C38.9888 50.3164 38.5571 50.748 38.5571 51.2805C38.5571 51.813 38.9888 52.2446 39.5212 52.2446H41.7901C42.3225 52.2446 42.7542 51.813 42.7542 51.2805C42.7542 50.748 42.3225 50.3164 41.7901 50.3164Z" fill="#222222"/>
<path d="M65.4628 50.3164H45.9172C45.3848 50.3164 44.9531 50.748 44.9531 51.2805C44.9531 51.813 45.3848 52.2446 45.9172 52.2446H65.4628C65.9953 52.2446 66.4269 51.813 66.4269 51.2805C66.4269 50.748 65.9953 50.3164 65.4628 50.3164Z" fill="#7C43C5"/>
<path d="M44.1198 56.7991H39.5212C38.9888 56.7991 38.5571 57.2307 38.5571 57.7632C38.5571 58.2956 38.9888 58.7273 39.5212 58.7273H44.1198C44.6523 58.7273 45.0839 58.2956 45.0839 57.7632C45.0839 57.2307 44.6523 56.7991 44.1198 56.7991Z" fill="#222222"/>
<path d="M67.7924 56.7991H48.2468C47.7144 56.7991 47.2827 57.2307 47.2827 57.7632C47.2827 58.2956 47.7144 58.7273 48.2468 58.7273H67.7924C68.3248 58.7273 68.7565 58.2956 68.7565 57.7632C68.7565 57.2307 68.3248 56.7991 67.7924 56.7991Z" fill="#7C43C5"/>
<path d="M41.7901 68.9878H39.5212C38.9888 68.9878 38.5571 69.4194 38.5571 69.9519C38.5571 70.4844 38.9888 70.916 39.5212 70.916H41.7901C42.3225 70.916 42.7542 70.4844 42.7542 69.9519C42.7542 69.4194 42.3225 68.9878 41.7901 68.9878Z" fill="#222222"/>
<path d="M65.4628 68.9878H45.9172C45.3848 68.9878 44.9531 69.4194 44.9531 69.9519C44.9531 70.4844 45.3848 70.916 45.9172 70.916H65.4628C65.9953 70.916 66.4269 70.4844 66.4269 69.9519C66.4269 69.4194 65.9953 68.9878 65.4628 68.9878Z" fill="#7C43C5"/>
<path d="M44.1198 75.4617H39.5212C38.9888 75.4617 38.5571 75.8933 38.5571 76.4258C38.5571 76.9582 38.9888 77.3899 39.5212 77.3899H44.1198C44.6523 77.3899 45.0839 76.9582 45.0839 76.4258C45.0839 75.8933 44.6523 75.4617 44.1198 75.4617Z" fill="#222222"/>
<path d="M67.7924 75.4617H48.2468C47.7144 75.4617 47.2827 75.8933 47.2827 76.4258C47.2827 76.9582 47.7144 77.3899 48.2468 77.3899H67.7924C68.3248 77.3899 68.7565 76.9582 68.7565 76.4258C68.7565 75.8933 68.3248 75.4617 67.7924 75.4617Z" fill="#7C43C5"/>
<path d="M40.2458 63.2815H35.6472C35.1147 63.2815 34.6831 63.7131 34.6831 64.2456C34.6831 64.7781 35.1147 65.2097 35.6472 65.2097H40.2458C40.7782 65.2097 41.2099 64.7781 41.2099 64.2456C41.2099 63.7131 40.7782 63.2815 40.2458 63.2815Z" fill="#222222"/>
<path d="M71.6667 63.2815H44.364C43.8315 63.2815 43.3999 63.7131 43.3999 64.2456C43.3999 64.7781 43.8315 65.2097 44.364 65.2097H71.6667C72.1991 65.2097 72.6308 64.7781 72.6308 64.2456C72.6308 63.7131 72.1991 63.2815 71.6667 63.2815Z" fill="#7C43C5"/>
<path d="M201.414 179.471H189.91C188.253 179.471 186.91 180.814 186.91 182.471V193.973C186.91 195.63 188.253 196.973 189.91 196.973H201.414C203.071 196.973 204.414 195.63 204.414 193.973V182.471C204.414 180.814 203.071 179.471 201.414 179.471Z" fill="#303030"/>
<path d="M226.84 179.471H215.336C213.68 179.471 212.336 180.814 212.336 182.471V193.973C212.336 195.63 213.68 196.973 215.336 196.973H226.84C228.497 196.973 229.84 195.63 229.84 193.973V182.471C229.84 180.814 228.497 179.471 226.84 179.471Z" fill="#303030"/>
<path d="M252.276 179.471H240.772C239.115 179.471 237.772 180.814 237.772 182.471V193.973C237.772 195.63 239.115 196.973 240.772 196.973H252.276C253.932 196.973 255.276 195.63 255.276 193.973V182.471C255.276 180.814 253.932 179.471 252.276 179.471Z" fill="#303030"/>
<path d="M290.134 131.929H263.739V133.857H290.134V131.929Z" fill="#282828"/>
<path d="M290.134 139.18H263.739V141.108H290.134V139.18Z" fill="#282828"/>
<path d="M290.134 146.439H263.739V148.367H290.134V146.439Z" fill="#282828"/>
<defs>
<filter id="filter0_b_744_427" x="60.7012" y="28.9614" width="232.83" height="178.53" filterUnits="userSpaceOnUse" color-interpolation-filters="sRGB">
<feFlood flood-opacity="0" result="BackgroundImageFix"/>
<feGaussianBlur in="BackgroundImageFix" stdDeviation="20"/>
<feComposite in2="SourceAlpha" operator="in" result="effect1_backgroundBlur_744_427"/>
<feBlend mode="normal" in="SourceGraphic" in2="effect1_backgroundBlur_744_427" result="shape"/>
</filter>
<filter id="filter1_b_744_427" x="-16.2241" y="67.7349" width="139.762" height="139.757" filterUnits="userSpaceOnUse" color-interpolation-filters="sRGB">
<feFlood flood-opacity="0" result="BackgroundImageFix"/>
<feGaussianBlur in="BackgroundImageFix" stdDeviation="20"/>
<feComposite in2="SourceAlpha" operator="in" result="effect1_backgroundBlur_744_427"/>
<feBlend mode="normal" in="SourceGraphic" in2="effect1_backgroundBlur_744_427" result="shape"/>
</filter>
<filter id="filter2_dddd_744_427" x="0.65625" y="112.208" width="105.977" height="170.828" filterUnits="userSpaceOnUse" color-interpolation-filters="sRGB">
<feFlood flood-opacity="0" result="BackgroundImageFix"/>
<feColorMatrix in="SourceAlpha" type="matrix" values="0 0 0 0 0 0 0 0 0 0 0 0 0 0 0 0 0 0 127 0" result="hardAlpha"/>
<feOffset dy="6"/>
<feGaussianBlur stdDeviation="6.5"/>
<feColorMatrix type="matrix" values="0 0 0 0 1 0 0 0 0 1 0 0 0 0 1 0 0 0 0.1 0"/>
<feBlend mode="normal" in2="BackgroundImageFix" result="effect1_dropShadow_744_427"/>
<feColorMatrix in="SourceAlpha" type="matrix" values="0 0 0 0 0 0 0 0 0 0 0 0 0 0 0 0 0 0 127 0" result="hardAlpha"/>
<feOffset dy="23"/>
<feGaussianBlur stdDeviation="11.5"/>
<feColorMatrix type="matrix" values="0 0 0 0 1 0 0 0 0 1 0 0 0 0 1 0 0 0 0.09 0"/>
<feBlend mode="normal" in2="effect1_dropShadow_744_427" result="effect2_dropShadow_744_427"/>
<feColorMatrix in="SourceAlpha" type="matrix" values="0 0 0 0 0 0 0 0 0 0 0 0 0 0 0 0 0 0 127 0" result="hardAlpha"/>
<feOffset dy="51"/>
<feGaussianBlur stdDeviation="15.5"/>
<feColorMatrix type="matrix" values="0 0 0 0 1 0 0 0 0 1 0 0 0 0 1 0 0 0 0.05 0"/>
<feBlend mode="normal" in2="effect2_dropShadow_744_427" result="effect3_dropShadow_744_427"/>
<feColorMatrix in="SourceAlpha" type="matrix" values="0 0 0 0 0 0 0 0 0 0 0 0 0 0 0 0 0 0 127 0" result="hardAlpha"/>
<feOffset dy="91"/>
<feGaussianBlur stdDeviation="18"/>
<feColorMatrix type="matrix" values="0 0 0 0 1 0 0 0 0 1 0 0 0 0 1 0 0 0 0.01 0"/>
<feBlend mode="normal" in2="effect3_dropShadow_744_427" result="effect4_dropShadow_744_427"/>
<feBlend mode="normal" in="SourceGraphic" in2="effect4_dropShadow_744_427" result="shape"/>
</filter>
<filter id="filter3_b_744_427" x="37.2812" y="141.103" width="155.267" height="132" filterUnits="userSpaceOnUse" color-interpolation-filters="sRGB">
<feFlood flood-opacity="0" result="BackgroundImageFix"/>
<feGaussianBlur in="BackgroundImageFix" stdDeviation="20"/>
<feComposite in2="SourceAlpha" operator="in" result="effect1_backgroundBlur_744_427"/>
<feBlend mode="normal" in="SourceGraphic" in2="effect1_backgroundBlur_744_427" result="shape"/>
</filter>
<filter id="filter4_dddd_744_427" x="54.4004" y="183.84" width="121.046" height="166.526" filterUnits="userSpaceOnUse" color-interpolation-filters="sRGB">
<feFlood flood-opacity="0" result="BackgroundImageFix"/>
<feColorMatrix in="SourceAlpha" type="matrix" values="0 0 0 0 0 0 0 0 0 0 0 0 0 0 0 0 0 0 127 0" result="hardAlpha"/>
<feOffset dy="6"/>
<feGaussianBlur stdDeviation="6.5"/>
<feColorMatrix type="matrix" values="0 0 0 0 1 0 0 0 0 1 0 0 0 0 1 0 0 0 0.1 0"/>
<feBlend mode="normal" in2="BackgroundImageFix" result="effect1_dropShadow_744_427"/>
<feColorMatrix in="SourceAlpha" type="matrix" values="0 0 0 0 0 0 0 0 0 0 0 0 0 0 0 0 0 0 127 0" result="hardAlpha"/>
<feOffset dy="23"/>
<feGaussianBlur stdDeviation="11.5"/>
<feColorMatrix type="matrix" values="0 0 0 0 1 0 0 0 0 1 0 0 0 0 1 0 0 0 0.09 0"/>
<feBlend mode="normal" in2="effect1_dropShadow_744_427" result="effect2_dropShadow_744_427"/>
<feColorMatrix in="SourceAlpha" type="matrix" values="0 0 0 0 0 0 0 0 0 0 0 0 0 0 0 0 0 0 127 0" result="hardAlpha"/>
<feOffset dy="51"/>
<feGaussianBlur stdDeviation="15.5"/>
<feColorMatrix type="matrix" values="0 0 0 0 1 0 0 0 0 1 0 0 0 0 1 0 0 0 0.05 0"/>
<feBlend mode="normal" in2="effect2_dropShadow_744_427" result="effect3_dropShadow_744_427"/>
<feColorMatrix in="SourceAlpha" type="matrix" values="0 0 0 0 0 0 0 0 0 0 0 0 0 0 0 0 0 0 127 0" result="hardAlpha"/>
<feOffset dy="91"/>
<feGaussianBlur stdDeviation="18"/>
<feColorMatrix type="matrix" values="0 0 0 0 1 0 0 0 0 1 0 0 0 0 1 0 0 0 0.01 0"/>
<feBlend mode="normal" in2="effect3_dropShadow_744_427" result="effect4_dropShadow_744_427"/>
<feBlend mode="normal" in="SourceGraphic" in2="effect4_dropShadow_744_427" result="shape"/>
</filter>
<filter id="filter5_b_744_427" x="230.798" y="-1.87231" width="163.024" height="163.017" filterUnits="userSpaceOnUse" color-interpolation-filters="sRGB">
<feFlood flood-opacity="0" result="BackgroundImageFix"/>
<feGaussianBlur in="BackgroundImageFix" stdDeviation="20"/>
<feComposite in2="SourceAlpha" operator="in" result="effect1_backgroundBlur_744_427"/>
<feBlend mode="normal" in="SourceGraphic" in2="effect1_backgroundBlur_744_427" result="shape"/>
</filter>
<filter id="filter6_dddd_744_427" x="244.501" y="46.0823" width="135.627" height="186.289" filterUnits="userSpaceOnUse" color-interpolation-filters="sRGB">
<feFlood flood-opacity="0" result="BackgroundImageFix"/>
<feColorMatrix in="SourceAlpha" type="matrix" values="0 0 0 0 0 0 0 0 0 0 0 0 0 0 0 0 0 0 127 0" result="hardAlpha"/>
<feOffset dy="6"/>
<feGaussianBlur stdDeviation="6.5"/>
<feColorMatrix type="matrix" values="0 0 0 0 1 0 0 0 0 1 0 0 0 0 1 0 0 0 0.1 0"/>
<feBlend mode="normal" in2="BackgroundImageFix" result="effect1_dropShadow_744_427"/>
<feColorMatrix in="SourceAlpha" type="matrix" values="0 0 0 0 0 0 0 0 0 0 0 0 0 0 0 0 0 0 127 0" result="hardAlpha"/>
<feOffset dy="23"/>
<feGaussianBlur stdDeviation="11.5"/>
<feColorMatrix type="matrix" values="0 0 0 0 1 0 0 0 0 1 0 0 0 0 1 0 0 0 0.09 0"/>
<feBlend mode="normal" in2="effect1_dropShadow_744_427" result="effect2_dropShadow_744_427"/>
<feColorMatrix in="SourceAlpha" type="matrix" values="0 0 0 0 0 0 0 0 0 0 0 0 0 0 0 0 0 0 127 0" result="hardAlpha"/>
<feOffset dy="51"/>
<feGaussianBlur stdDeviation="15.5"/>
<feColorMatrix type="matrix" values="0 0 0 0 1 0 0 0 0 1 0 0 0 0 1 0 0 0 0.05 0"/>
<feBlend mode="normal" in2="effect2_dropShadow_744_427" result="effect3_dropShadow_744_427"/>
<feColorMatrix in="SourceAlpha" type="matrix" values="0 0 0 0 0 0 0 0 0 0 0 0 0 0 0 0 0 0 127 0" result="hardAlpha"/>
<feOffset dy="91"/>
<feGaussianBlur stdDeviation="18"/>
<feColorMatrix type="matrix" values="0 0 0 0 1 0 0 0 0 1 0 0 0 0 1 0 0 0 0.01 0"/>
<feBlend mode="normal" in2="effect3_dropShadow_744_427" result="effect4_dropShadow_744_427"/>
<feBlend mode="normal" in="SourceGraphic" in2="effect4_dropShadow_744_427" result="shape"/>
</filter>
<filter id="filter7_b_744_427" x="-16.2241" y="-5.62402" width="139.762" height="139.757" filterUnits="userSpaceOnUse" color-interpolation-filters="sRGB">
<feFlood flood-opacity="0" result="BackgroundImageFix"/>
<feGaussianBlur in="BackgroundImageFix" stdDeviation="20"/>
<feComposite in2="SourceAlpha" operator="in" result="effect1_backgroundBlur_744_427"/>
<feBlend mode="normal" in="SourceGraphic" in2="effect1_backgroundBlur_744_427" result="shape"/>
</filter>
<linearGradient id="paint0_linear_744_427" x1="151" y1="211" x2="93.7348" y2="66.2062" gradientUnits="userSpaceOnUse">
<stop stop-color="#303030" stop-opacity="0"/>
<stop offset="1" stop-color="#686868"/>
</linearGradient>
<radialGradient id="paint1_radial_744_427" cx="0" cy="0" r="1" gradientUnits="userSpaceOnUse" gradientTransform="translate(176.937 109.194) rotate(65.2138) scale(57.5069 66.3727)">
<stop stop-color="white" stop-opacity="0.03"/>
<stop offset="1" stop-color="white" stop-opacity="0.07"/>
</radialGradient>
<linearGradient id="paint2_linear_744_427" x1="163.376" y1="80.9185" x2="223.91" y2="232.287" gradientUnits="userSpaceOnUse">
<stop stop-color="#303030" stop-opacity="0"/>
<stop offset="1" stop-color="#303030"/>
</linearGradient>
<radialGradient id="paint3_radial_744_427" cx="0" cy="0" r="1" gradientUnits="userSpaceOnUse" gradientTransform="translate(53.5867 132.135) rotate(73.42) scale(33.0376 27.3991)">
<stop stop-color="white" stop-opacity="0.03"/>
<stop offset="1" stop-color="white" stop-opacity="0.07"/>
</radialGradient>
<linearGradient id="paint4_linear_744_427" x1="48.284" y1="114.987" x2="95.9811" y2="191.887" gradientUnits="userSpaceOnUse">
<stop stop-color="#303030" stop-opacity="0"/>
<stop offset="1" stop-color="#303030"/>
</linearGradient>
<radialGradient id="paint5_radial_744_427" cx="0" cy="0" r="1" gradientUnits="userSpaceOnUse" gradientTransform="translate(114.827 202.336) rotate(66.6881) scale(30.0033 33.0656)">
<stop stop-color="white" stop-opacity="0.03"/>
<stop offset="1" stop-color="white" stop-opacity="0.07"/>
</radialGradient>
<linearGradient id="paint6_linear_744_427" x1="108.148" y1="187.413" x2="141.697" y2="265.698" gradientUnits="userSpaceOnUse">
<stop stop-color="#303030" stop-opacity="0"/>
<stop offset="1" stop-color="#303030"/>
</linearGradient>
<radialGradient id="paint7_radial_744_427" cx="0" cy="0" r="1" gradientUnits="userSpaceOnUse" gradientTransform="translate(312.213 72.0263) rotate(73.42) scale(45.8976 38.0642)">
<stop stop-color="white" stop-opacity="0.03"/>
<stop offset="1" stop-color="white" stop-opacity="0.07"/>
</radialGradient>
<linearGradient id="paint8_linear_744_427" x1="304.846" y1="48.2022" x2="371.11" y2="155.036" gradientUnits="userSpaceOnUse">
<stop stop-color="#303030" stop-opacity="0"/>
<stop offset="1" stop-color="#303030"/>
</linearGradient>
<radialGradient id="paint9_radial_744_427" cx="0" cy="0" r="1" gradientUnits="userSpaceOnUse" gradientTransform="translate(53.5867 58.7765) rotate(73.42) scale(33.0376 27.3991)">
<stop stop-color="white" stop-opacity="0.03"/>
<stop offset="1" stop-color="white" stop-opacity="0.07"/>
</radialGradient>
<linearGradient id="paint10_linear_744_427" x1="48.284" y1="41.6277" x2="95.9811" y2="118.528" gradientUnits="userSpaceOnUse">
<stop stop-color="#303030" stop-opacity="0"/>
<stop offset="1" stop-color="#303030"/>
</linearGradient>
</defs>
</svg>
