<svg width="170" height="40" viewBox="0 0 170 40" fill="none" xmlns="http://www.w3.org/2000/svg">
<path d="M55.5911 26.1881V27.626H48.3446V32.1987H54.8311V33.6366H48.3446V39.5449H46.6582V26.1881H55.5911ZM63.6901 25.9286C67.6466 25.9286 70.3435 28.4329 70.3435 32.8664C70.3435 37.3 67.6466 39.8042 63.6901 39.8042C59.7335 39.8042 57.0366 37.3 57.0366 32.8664C57.0366 28.4329 59.7335 25.9286 63.6901 25.9286ZM63.6901 38.3389C66.6647 38.3389 68.6103 36.354 68.6103 32.8664C68.6103 29.3789 66.6641 27.394 63.6901 27.394C60.7158 27.394 58.7696 29.3789 58.7696 32.8664C58.7696 36.354 60.7158 38.3389 63.6901 38.3389ZM74.523 26.1881V34.5825C74.523 36.9757 75.7739 38.274 78.2111 38.274C80.648 38.274 81.899 36.9757 81.899 34.5825V26.1881H83.604V34.6193C83.604 37.7453 81.8342 39.7669 78.2111 39.7669C74.5878 39.7669 72.8272 37.7447 72.8272 34.6193V26.1881H74.523ZM88.8028 26.1881L95.6326 37.0681H95.7808V26.1881H97.4211V39.5449H95.3735L88.553 28.6649H88.4048V39.5449H86.7645V26.1881H88.8028ZM112.099 32.8665C112.099 37.0219 109.486 39.5449 105.557 39.5449H100.664V26.1881H105.557C109.487 26.1881 112.099 28.7111 112.099 32.8665ZM105.511 38.0795C108.421 38.0795 110.376 36.2337 110.376 32.8665C110.376 29.4993 108.42 27.6535 105.511 27.6535H102.36V38.0789H105.511V38.0795ZM120.162 26.1881L125.036 39.2662V39.5443H123.34L121.932 35.7044H116.159L114.759 39.5443H113.11V39.2662L117.975 26.1881H120.162ZM121.441 34.239L119.124 27.8948H118.976L116.65 34.239H121.441ZM136.203 26.1881V27.6629H131.384V39.5449H129.679V27.6629H124.86V26.1881H136.203ZM140.132 26.1881V39.5449H138.427V26.1881H140.132ZM149.334 25.9286C153.29 25.9286 155.988 28.4329 155.988 32.8664C155.988 37.3 153.29 39.8042 149.334 39.8042C145.377 39.8042 142.68 37.3 142.68 32.8664C142.68 28.4329 145.377 25.9286 149.334 25.9286ZM149.334 38.3389C152.308 38.3389 154.254 36.354 154.254 32.8664C154.254 29.3789 152.308 27.394 149.334 27.394C146.359 27.394 144.413 29.3789 144.413 32.8664C144.413 36.354 146.359 38.3389 149.334 38.3389ZM160.583 26.1881L167.413 37.0681H167.561V26.1881H169.202V39.5449H167.153L160.333 28.6649H160.186V39.5449H158.545V26.1881H160.583Z" fill="#222222"/>
<path d="M32.9004 2.0322C33.6764 0.769616 35.0517 0.00158691 36.533 0.00158691H36.5342C38.8872 0.00158691 40.7947 1.90913 40.7947 4.2622V35.74C40.7924 38.0931 38.8838 39.9995 36.5308 39.9984H35.6613C34.4091 39.9972 33.2195 39.4458 32.4093 38.4897L7.53671 8.7063C7.47404 8.62994 7.37949 8.58667 7.28148 8.58667C7.09689 8.58667 6.9476 8.7348 6.9476 8.91939V31.2732C6.94648 31.3564 6.9761 31.4373 7.03193 31.4999C7.15502 31.6367 7.36581 31.6492 7.50254 31.5261L15.7319 24.3882C16.0338 24.1285 16.4725 24.1011 16.8041 24.3221C17.2132 24.5945 17.3237 25.146 17.0514 25.5551L8.69101 37.9678C7.91502 39.2304 6.53967 39.9984 5.05837 39.9984C2.70534 39.9984 0.797852 38.0909 0.797852 35.7378V4.2622C0.797852 1.90913 2.70534 0.00158691 5.05837 0.00158691H5.92778C7.18009 0.00272642 8.36969 0.55425 9.17986 1.5103L34.0558 31.288C34.1185 31.3643 34.2119 31.4076 34.3111 31.4076C34.4956 31.4076 34.6449 31.2595 34.6449 31.0749V8.72683C34.6449 8.64363 34.6153 8.56272 34.5595 8.50005C34.4364 8.36332 34.2256 8.3508 34.0889 8.47385L25.8595 15.6117C25.5576 15.8716 25.1189 15.8989 24.7873 15.6778C24.3782 15.4055 24.2677 14.854 24.54 14.4449L32.9004 2.0322Z" fill="#222222"/>
<path d="M53.6508 2.07056C55.2126 0.692475 57.0509 0.0951188 59.5791 0.0951188H59.5781C65.0007 0.0951188 68.3561 3.3109 68.3561 8.45656V22.7909C68.3561 23.204 68.034 23.526 67.6209 23.526H63.9443C63.5309 23.526 63.2091 23.204 63.2091 22.7909V8.91623C63.2091 6.8952 61.8762 4.23025 58.1539 4.23025C56.4079 4.23025 51.7662 5.10306 51.7662 10.6618V22.7909C51.7662 23.204 51.4441 23.526 51.031 23.526H47.3544C46.941 23.526 46.6191 23.204 46.6191 22.7909V1.28892C46.6191 0.875781 46.941 0.553821 47.3544 0.553821H50.893C51.3071 0.553821 51.4907 0.966964 51.2608 1.28892L49.79 3.4942C49.5145 3.86175 49.5601 4.22931 49.8823 4.50474C50.2034 4.7811 50.6632 4.64339 50.893 4.45914L53.6508 2.07056Z" fill="#222222"/>
<path d="M71.6639 10.2939C71.6639 4.36752 76.2137 0.00255985 83.3366 0.00255985L83.3356 0.00349919C90.1368 0.00349919 94.8708 4.3685 94.8708 9.83514V12.729C94.8708 13.1345 94.5422 13.4641 94.1355 13.4641H79.3372C78.7396 13.4641 78.3265 13.0965 78.3265 12.6834V12.6378C78.3265 12.1791 78.6483 11.8116 79.0617 11.7194L89.3656 9.72024C89.7009 9.65566 89.9344 9.3489 89.9079 9.00889C89.5868 6.06851 86.5079 4.27634 83.3366 4.27634C79.8446 4.27634 76.6268 6.38953 76.5812 9.46759L76.5348 13.5562C76.4892 17.2317 79.798 19.8045 83.3366 19.8045C86.8756 19.8045 89.0347 17.5992 89.4948 16.129C89.5868 15.808 89.8623 15.6238 90.1844 15.6238H93.7687C94.2285 15.6238 94.5506 15.9448 94.504 16.4044C94.0443 20.815 89.6324 24.0773 83.3366 24.0773C76.2137 24.0773 71.6639 19.8045 71.6639 13.5562V10.2939Z" fill="#222222"/>
<path d="M98.2718 7.76661C98.2718 3.35602 103.235 0.00252625 108.979 0.00252625L108.977 0.00158691C115.412 0.00158691 119.226 3.53932 119.226 8.86829V22.7895C119.226 23.2026 118.904 23.5246 118.491 23.5246H115.182C114.768 23.5246 114.584 23.1114 114.814 22.7895L116.193 20.6298C116.423 20.3088 116.515 19.8947 116.239 19.6193C115.918 19.2973 115.551 19.2973 115.183 19.6193L112.931 21.5491C111.414 22.8351 108.978 23.9377 106.129 23.9377C101.672 23.9377 97.7655 21.779 97.7655 17.6438V17.0009C97.7655 12.9578 102.132 10.2017 106.452 10.2017H111.552C111.92 10.2017 112.334 10.386 112.38 10.7535C112.471 11.2122 112.287 11.6263 111.782 11.764L106.865 13.0965C103.465 13.8772 102.637 15.2097 102.637 16.772C102.637 18.5641 104.338 19.6668 107.279 19.6668C111.048 19.6668 114.081 17.5992 114.081 13.5106V9.51315C114.081 6.20525 111.966 4.27537 108.842 4.27537C106.222 4.27537 103.787 5.74558 103.419 7.76661C103.372 8.13413 103.097 8.40956 102.729 8.40956H99.0071C98.594 8.40956 98.2718 8.13413 98.2718 7.76661Z" fill="#222222"/>
<path d="M133.932 0.55476H139.079H139.08C139.493 0.55476 139.816 0.87672 139.816 1.28986V4.18462C139.816 4.59776 139.493 4.91972 139.08 4.91972H134.301C130.119 4.91972 128.189 7.03288 128.189 11.7654V22.7918C128.189 23.205 127.866 23.5269 127.453 23.5269H123.684C123.271 23.5269 122.949 23.205 122.949 22.7918V1.28986C122.949 0.87672 123.271 0.55476 123.684 0.55476H127.131C127.545 0.55476 127.729 0.967903 127.499 1.28986L126.028 3.49514C125.752 3.86269 125.89 4.32233 126.212 4.55217C126.487 4.78201 126.901 4.6443 127.131 4.46005L129.153 2.71445C130.394 1.65738 132.141 0.55476 133.932 0.55476Z" fill="#222222"/>
</svg>
