<svg width="187" height="47" viewBox="0 0 187 47" fill="none" xmlns="http://www.w3.org/2000/svg">
<path d="M0.640137 5.93701C0.640137 2.65203 2.36988 0.775635 5.53797 0.775635C8.70607 0.775635 10.4358 2.65203 10.4358 5.93701V16.6124C10.4358 19.8974 8.70607 21.7738 5.53797 21.7738C2.36988 21.7738 0.640137 19.8993 0.640137 16.6143V5.93701ZM3.86577 16.8184C3.86577 18.2846 4.51163 18.8414 5.53797 18.8414C6.56432 18.8414 7.2102 18.2846 7.2102 16.8184V5.73289C7.2102 4.26667 6.56432 3.70988 5.53797 3.70988C4.51163 3.70988 3.86577 4.26667 3.86577 5.73289V16.8203V16.8184Z" fill="#222222"/>
<path d="M14.9071 6.74626V21.3711H12.0508V1.1803H16.0318L19.2908 13.2662V1.1803H22.1174V21.3729H18.8584L14.9071 6.74811V6.74626Z" fill="#222222"/>
<path d="M26.907 9.68979H31.2629V12.5739H26.907V18.4869H32.3877V21.3711H23.7334V1.1803H32.3877V4.06444H26.907V9.68979Z" fill="#222222"/>
<path d="M39.6519 1.1803H49.4606V4.06444H46.1439V21.3729H42.9704V4.06444H39.6537V1.1803H39.6519Z" fill="#222222"/>
<path d="M57.7104 21.3729C57.5377 20.8533 57.4227 20.5359 57.4227 18.8915V15.7179C57.4227 13.8434 56.7876 13.1511 55.3458 13.1511H54.2487V21.3729H51.0752V1.1803H55.8636C59.1522 1.1803 60.5664 2.70956 60.5664 5.82386V7.4107C60.5664 9.48748 59.9019 10.8442 58.4899 11.5068C60.0766 12.1693 60.5962 13.6986 60.5962 15.8051V18.9212C60.5962 19.9012 60.6239 20.6231 60.9431 21.3729H57.712H57.7104ZM54.2487 4.06444V10.267H55.4886C56.6709 10.267 57.3928 9.74733 57.3928 8.13264V6.14306C57.3928 4.70099 56.9027 4.06629 55.7784 4.06629H54.2487V4.06444Z" fill="#222222"/>
<path d="M62.5566 1.1803H65.7302V21.3729H62.5566V1.1803Z" fill="#222222"/>
<path d="M67.3462 1.1803H70.5201V18.4888H75.7407V21.3729H67.3462V1.1803Z" fill="#222222"/>
<path d="M77.356 1.1803H80.5299V18.4888H85.7505V21.3729H77.356V1.1803Z" fill="#222222"/>
<path d="M87.3667 1.1803H90.5406V21.3729H87.3667V1.1803Z" fill="#222222"/>
<path d="M92.1553 5.93701C92.1553 2.65203 93.8848 0.775635 97.0529 0.775635C100.221 0.775635 101.951 2.65203 101.951 5.93701V16.6124C101.951 19.8974 100.221 21.7738 97.0529 21.7738C93.8848 21.7738 92.1553 19.8974 92.1553 16.6124V5.93701ZM95.3809 16.8184C95.3809 18.2846 96.0264 18.8414 97.0529 18.8414C98.0794 18.8414 98.7253 18.2846 98.7253 16.8184V5.73289C98.7253 4.26667 98.0794 3.70988 97.0529 3.70988C96.0264 3.70988 95.3809 4.26667 95.3809 5.73289V16.8203V16.8184Z" fill="#222222"/>
<path d="M106.422 6.74626V21.3711H103.566V1.1803H107.547L110.806 13.2662V1.1803H113.632V21.3729H110.373L106.422 6.74811V6.74626Z" fill="#222222"/>
<path d="M132.003 21.3729H128.802L128.254 17.7093H124.361L123.813 21.3729H120.899L124.13 1.1803H128.774L132.005 21.3729H132.003ZM124.762 14.9681H127.82L126.291 4.75668L124.762 14.9681Z" fill="#222222"/>
<path d="M137.915 10.1018H142.432V16.6124C142.432 19.8974 140.79 21.7738 137.622 21.7738C134.454 21.7738 132.811 19.8974 132.811 16.6124V5.93701C132.811 2.65203 134.454 0.775635 137.622 0.775635C140.79 0.775635 142.432 2.65203 142.432 5.93701V7.93218H139.381V5.73289C139.381 4.26667 138.736 3.70988 137.709 3.70988C136.683 3.70988 136.037 4.26667 136.037 5.73289V16.8203C136.037 18.2865 136.683 18.8154 137.709 18.8154C138.736 18.8154 139.381 18.2883 139.381 16.8203V13.036H137.915V10.1036V10.1018Z" fill="#222222"/>
<path d="M147.218 9.68979H151.574V12.5739H147.218V18.4869H152.699V21.3711H144.044V1.1803H152.699V4.06444H147.218V9.68979Z" fill="#222222"/>
<path d="M157.172 6.74626V21.3711H154.316V1.1803H158.297L161.556 13.2662V1.1803H164.382V21.3729H161.123L157.172 6.74811V6.74626Z" fill="#222222"/>
<path d="M165.999 1.1803H175.807V4.06444H172.49V21.3729H169.317V4.06444H166V1.1803H165.999Z" fill="#222222"/>
<path d="M181.454 0.775635C184.592 0.775635 186.205 2.65203 186.205 5.93701V6.58289H183.154V5.73289C183.154 4.26667 182.567 3.70988 181.541 3.70988C180.515 3.70988 179.928 4.26667 179.928 5.73289C179.928 9.957 186.235 10.7477 186.235 16.6143C186.235 19.8993 184.592 21.7756 181.424 21.7756C178.256 21.7756 176.613 19.8993 176.613 16.6143V15.3522H179.665V16.8184C179.665 18.2846 180.311 18.8136 181.337 18.8136C182.363 18.8136 183.009 18.2865 183.009 16.8184C183.009 12.5943 176.703 11.8037 176.703 5.93701C176.703 2.65203 178.316 0.775635 181.454 0.775635Z" fill="#222222"/>
<path d="M18.2172 37.6618C17.7048 37.8556 14.5816 38.1847 14.5508 38.2195C14.3796 38.44 13.4668 42.6821 13.3264 43.285C13.1639 44.0493 13.1691 44.9958 11.9348 45.0747C10.8682 45.1432 10.1619 44.6128 10.2948 43.6732C10.426 42.7198 11.2053 40.0387 11.5831 38.7801C11.0434 38.8474 10.3691 38.9396 9.94722 38.9669C9.2021 39.0151 7.84301 38.5897 7.94979 37.7813C8.03103 37.2799 8.67344 37.0124 9.14813 36.9828C9.33499 36.9718 9.53926 36.9747 9.74121 36.9596C9.79228 36.9573 9.84334 36.9532 9.89325 36.9329C10.903 36.7884 12.8337 36.2296 15.7799 36.0387C16.4229 35.9969 17.1187 35.9673 17.8685 35.9673C18.3966 35.9818 19.0494 36.2749 18.9618 36.8917C18.8933 37.3293 18.5028 37.5637 18.2213 37.6618H18.2172Z" fill="#222222"/>
<path d="M24.4951 44.1973C24.0035 44.2281 23.3136 44.0981 23.0762 43.6635C22.9352 43.3849 22.9509 42.2614 22.9509 41.8274C21.4688 42.2434 19.6582 42.5864 18.9183 42.7147C18.2086 43.642 17.6016 44.6105 16.9435 45.5675C16.8344 45.7038 15.43 46.6909 15.0917 46.713C14.6513 46.7414 14.2102 46.5302 14.3251 46.0404C14.6849 44.3169 21.2929 35.6012 21.8808 35.2577C22.4524 34.9478 23.053 34.7806 23.5422 34.7499C23.8979 34.7261 24.4637 34.7696 24.7127 35.1224C25.5129 36.2244 26.0706 41.6724 25.8542 43.0646C25.7694 43.7279 25.2744 44.1445 24.4957 44.1956L24.4951 44.1973ZM22.594 37.4588C22.1431 38.017 21.4357 38.9925 20.7196 40.0493C21.6156 39.7504 22.316 39.5769 22.8186 39.4806C22.7565 38.8921 22.67 38.0153 22.594 37.4588Z" fill="#222222"/>
<path d="M40.7464 40.8687C40.4365 41.4821 39.1778 41.9319 38.7205 41.962C38.6184 41.9684 38.059 41.9887 37.9731 41.5297C37.8582 40.9279 37.9841 39.9263 37.9267 39.3843L37.886 39.0825C36.9204 39.8033 34.9218 41.6794 34.3154 42.2C33.9167 42.5464 33.4327 42.6572 33.0602 42.6822C32.5855 42.7141 32.0173 42.6219 31.7359 42.2864C31.473 41.9667 31.8264 39.5073 31.8607 38.8301C30.6049 40.1944 29.1924 41.9533 28.5662 42.6677C28.2041 43.0588 27.5994 43.1639 27.3464 43.1789C26.9054 43.2074 26.3135 43.0211 26.3912 42.4878C26.4051 42.4541 26.4336 42.3729 26.4458 42.3236C26.7406 41.7276 31.4864 35.9854 32.1688 35.3627C32.647 34.9316 33.33 34.5335 33.9387 34.4946C34.4477 34.4627 34.8574 34.707 34.8783 35.2037C34.9119 35.8746 34.6032 38.0281 34.5649 39.729C35.6367 38.8423 36.914 37.5406 37.3301 37.193C37.8738 36.7561 38.7606 36.315 39.4204 36.2721C39.6078 36.2611 39.8452 36.2611 40.0425 36.3922C40.5961 36.7253 40.9948 39.6652 40.87 40.4909C40.8601 40.5884 40.8381 40.7341 40.7464 40.8687Z" fill="#222222"/>
<path d="M46.1507 37.0392C45.9528 38.4465 44.6715 41.8796 44.133 42.2052C43.9722 42.3114 43.772 42.3886 43.5358 42.4042C43.0101 42.4379 42.5499 41.7456 42.4506 41.3684C42.3984 41.1467 42.4222 40.777 42.4826 40.4532C42.6561 39.191 43.3414 36.597 43.7001 36.1734C43.9473 35.8525 44.4655 35.7243 44.7702 35.7028C45.1259 35.6796 46.0143 35.7185 46.1629 36.3336C46.2111 36.5233 46.1826 36.7984 46.1484 37.0392H46.1507Z" fill="#222222"/>
<path d="M58.3147 35.0001C57.7117 36.8832 57.0066 38.7564 56.6074 40.6424C56.4867 41.2924 55.2489 41.7735 54.7063 41.8083C54.5357 41.8181 54.2809 41.8193 54.0668 41.6899C53.6919 41.4728 52.8 40.4898 51.9417 39.5195C51.5331 39.0651 51.1391 38.6096 50.73 38.1552C50.34 39.7197 49.8021 41.7909 49.5926 42.3816C49.4672 42.7432 49.1045 43.1029 48.5788 43.1366C47.663 43.1964 47.0943 42.2064 47.1698 41.6411C47.2934 40.8316 48.7749 36.2309 48.9827 35.1579C49.1028 34.5085 50.0145 34.194 50.4723 34.1638C50.6424 34.154 50.9314 34.1499 51.1635 34.3124C51.3271 34.4459 52.3311 35.5514 53.3031 36.6748C53.7871 37.2197 54.2734 37.7832 54.6842 38.2376C55.0823 36.575 55.7601 33.887 56.153 33.0282C56.3573 32.5976 56.8035 32.409 57.1593 32.3857C58.0744 32.3254 58.729 33.1024 58.635 33.8609C58.6042 34.1203 58.4661 34.5451 58.3147 35.0041V35.0001Z" fill="#222222"/>
<path d="M68.9815 38.0442C66.1311 40.3608 63.0984 40.9591 61.9638 41.0317C60.3889 41.1326 59.4093 40.3463 58.952 39.2704C58.8876 39.0981 58.8719 38.8915 58.9085 38.6965C59.2648 36.269 64.584 32.4285 66.853 32.2817C67.4449 32.2423 68.826 32.7146 68.7239 33.3791C68.6589 33.8491 68.1227 34.188 67.4902 34.3563C65.6726 34.827 63.3914 35.9209 62.0753 37.1755C61.5211 37.7076 60.9547 38.3059 61.1177 38.8717C61.1659 39.0615 61.5843 39.1944 61.9737 39.17C63.8876 39.0464 65.9918 38.0918 66.4241 37.743L63.8412 38.0071C63.504 38.0454 62.4467 38.032 62.5233 37.483C62.5598 37.2881 62.8326 37.0774 62.9922 36.955C63.9433 36.2847 65.6697 35.9325 67.0578 35.8431C67.5157 35.8129 69.5004 36.3903 69.3582 37.4256C69.3245 37.6525 69.1876 37.8695 68.9798 38.0425L68.9815 38.0442Z" fill="#222222"/>
<path d="M84.572 30.7642C83.9307 31.0619 82.2345 31.3492 81.5149 31.5076C81.3652 31.5488 81.2584 31.4931 81.2276 31.5256C81.01 31.796 78.7004 39.5461 78.3713 40.5761C78.0893 41.5406 77.8276 42.3438 77.7556 42.5091C77.578 42.8568 77.1184 43.0628 76.6948 43.09C75.9155 43.1405 75.168 42.7088 75.2887 41.8667C75.3769 41.2359 76.2068 38.5688 76.9919 36.1623C77.4701 34.6407 77.9506 33.1655 78.2559 32.2637C77.7388 32.41 77.2072 32.5574 76.6797 32.5748C76.071 32.6137 74.9138 32.1773 75.0078 31.4327C75.1431 30.5414 76.3066 30.6116 76.942 30.4741C77.5438 30.3389 78.2884 30.0673 79.3898 29.7852C80.5237 29.487 82.0331 29.198 84.1495 29.0598C84.6753 29.0262 85.3443 29.3192 85.2411 29.968C85.1865 30.3719 84.8673 30.6331 84.572 30.7642Z" fill="#222222"/>
<path d="M91.8646 35.2472C91.6638 35.9505 90.6506 39.7835 90.2281 40.2587C89.9937 40.5303 89.6606 40.6324 89.4244 40.6464C88.8667 40.6829 87.8889 40.1525 87.9301 39.5879C87.9852 39.2159 88.251 38.6693 88.3746 38.2938L88.5231 37.8029L84.3757 38.5201C84.2033 39.1399 84.1215 40.5094 83.0206 40.5808C82.5628 40.611 81.9505 40.3934 81.7439 39.91C81.6592 39.6749 81.6795 39.0801 81.7799 38.4012C81.9981 36.8331 82.7032 33.8515 83.3015 33.2045C83.5551 32.9474 83.8702 32.8621 84.0913 32.8476C84.7001 32.8093 85.6245 33.2933 85.5253 34.0059C85.4806 34.3123 85.1208 35.604 84.8823 36.4838C86.1027 36.196 88.1274 35.7607 89.1714 35.6133C89.2346 35.1276 89.6112 33.8364 89.7319 33.4128C89.9612 32.6288 90.22 31.7937 90.4625 31.4101C90.7086 31.0567 91.1073 30.9505 91.3289 30.9366C91.9888 30.8937 92.847 31.4316 92.7501 32.1419C92.6956 32.5464 92.3004 33.8225 91.8663 35.2454L91.8646 35.2472Z" fill="#222222"/>
<path d="M100.308 31.076C99.3559 31.3151 98.3984 31.4874 97.4676 31.7573C97.1066 32.5987 96.4346 34.4528 96.0121 35.6024C96.5925 35.4045 97.1571 35.224 97.749 35.1852C98.8313 35.0987 100.204 35.2507 100.1 35.867C99.895 36.5059 98.8417 36.9754 98.316 37.0091C98.2649 37.0131 98.2138 37.0155 98.1459 37.0189C97.554 37.0584 96.1613 37.5314 95.4974 37.7525C95.4846 37.8018 95.4858 37.8343 95.4736 37.8819C95.4417 38.1244 95.2363 38.7796 95.1858 39.0059C95.8357 38.8202 96.5478 38.5649 97.2076 38.5219C97.8506 38.4807 99.3228 39.0262 99.2671 39.3982C99.1348 40.3354 95.8601 41.1096 94.9281 41.3945C94.6792 41.474 94.3786 41.5593 94.1598 41.5721C92.3817 41.6881 92.5494 39.6878 92.7171 38.5394C93.0752 36.1276 94.0408 33.6595 94.9989 31.2889C94.9838 31.098 94.9357 30.9083 94.9705 30.6976C95.0024 30.455 95.2009 29.9299 95.8555 29.8068C96.7277 29.6368 97.5958 29.4215 98.3456 29.2277C99.0977 29.0495 99.8167 28.8911 100.326 28.8586C100.951 28.8186 102.51 29.3751 102.371 30.0082C102.322 30.2525 101.411 30.7928 100.31 31.0725L100.308 31.076Z" fill="#222222"/>
<path d="M116.381 31.8454C115.94 31.8739 115.839 31.6725 115.264 31.7085C113.47 31.824 109.724 33.125 108.172 33.963C109.449 34.4255 111.567 34.7377 112.865 34.7807C113.224 34.7894 113.815 35.618 113.7 36.3458C113.654 36.6382 113.477 36.9702 113.105 37.2191C112.407 37.6648 109.146 39.0471 108.35 39.0993C107.485 39.155 106.344 38.4912 106.403 38.1511C106.424 37.9741 106.499 37.8406 106.64 37.7037C107.11 37.1918 108.458 37.2168 111.083 36.1804C109.72 35.9331 106.495 36.0602 105.674 35.1196C105.449 34.8619 105.45 34.4278 105.496 34.1377C105.552 33.7494 105.756 33.0943 106.303 32.6898C107.349 31.9162 112.087 29.8132 115.306 29.606C116.389 29.5358 117.277 29.7824 117.83 30.5479C117.89 30.6558 117.932 30.7817 117.909 30.9106C117.831 31.4439 116.822 31.8147 116.381 31.8437V31.8454Z" fill="#222222"/>
<path d="M126.363 33.0101C126.163 33.7128 125.149 37.5458 124.727 38.0211C124.492 38.2926 124.159 38.3954 123.923 38.4093C123.365 38.4453 122.388 37.9154 122.429 37.3508C122.485 36.9788 122.75 36.4322 122.873 36.0561L123.022 35.5652L118.874 36.2824C118.702 36.9028 118.62 38.2718 117.519 38.3431C117.062 38.3733 116.449 38.1563 116.243 37.6729C116.158 37.4378 116.179 36.8424 116.279 36.1641C116.497 34.5955 117.203 31.6138 117.8 30.9668C118.054 30.7097 118.369 30.625 118.591 30.6105C119.199 30.5716 120.123 31.0562 120.024 31.7688C119.979 32.0752 119.62 33.3664 119.381 34.2461C120.601 33.9589 122.626 33.5236 123.67 33.3757C123.734 32.8899 124.11 31.5993 124.231 31.1757C124.46 30.3917 124.719 29.5566 124.961 29.1731C125.207 28.8196 125.607 28.7134 125.828 28.6989C126.487 28.656 127.346 29.1939 127.249 29.9048C127.194 30.3087 126.8 31.5854 126.366 33.0083L126.363 33.0101Z" fill="#222222"/>
<path d="M134.508 32.4826C134.073 34.1133 131.735 36.2215 129.753 36.3486C127.907 36.4682 126.976 35.2135 127.165 33.902C127.387 32.3799 129.314 29.5787 131.973 29.4058C132.26 29.3878 132.77 29.3698 133.132 29.6524C133.951 29.6808 134.892 30.1799 134.647 31.8471C134.627 32.0404 134.575 32.2528 134.508 32.4826ZM132.299 31.4392C131.23 31.4757 129.424 33.2289 129.291 34.1341C129.279 34.1841 129.25 34.2647 129.336 34.2601C129.844 34.2276 130.855 33.6809 131.234 33.2881C131.689 32.7942 132.183 31.911 132.35 31.4369L132.299 31.4415V31.4392Z" fill="#222222"/>
<path d="M145.48 33.0872C142.629 35.4038 139.596 36.0021 138.461 36.0746C136.886 36.1756 135.907 35.3893 135.449 34.3134C135.386 34.141 135.369 33.9344 135.406 33.7394C135.762 31.312 141.081 27.4715 143.35 27.3247C143.942 27.2852 145.323 27.7576 145.222 28.4221C145.156 28.8921 144.62 29.231 143.988 29.3993C142.17 29.8699 139.889 30.9638 138.573 32.2185C138.019 32.7506 137.452 33.3489 137.615 33.9147C137.664 34.1045 138.082 34.2374 138.471 34.213C140.385 34.0894 142.489 33.1348 142.922 32.786L140.339 33.05C140.001 33.0883 138.944 33.075 139.021 32.526C139.057 32.331 139.33 32.1204 139.49 31.9979C140.441 31.3277 142.168 30.9754 143.555 30.8861C144.013 30.8559 145.998 31.4333 145.856 32.4686C145.823 32.6955 145.685 32.9125 145.477 33.0854L145.48 33.0872Z" fill="#222222"/>
<path d="M156.336 32.3828C153.486 34.6994 150.453 35.2972 149.318 35.3697C147.743 35.4707 146.764 34.6843 146.306 33.6085C146.243 33.4361 146.226 33.2295 146.263 33.0351C146.619 30.6071 151.938 26.7666 154.207 26.6203C154.799 26.5809 156.18 27.0533 156.079 27.7177C156.013 28.1872 155.477 28.5267 154.845 28.6944C153.027 29.165 150.746 30.2595 149.43 31.5135C148.876 32.0463 148.309 32.6446 148.472 33.2104C148.521 33.3995 148.939 33.5324 149.328 33.5081C151.242 33.385 153.346 32.4304 153.779 32.0811L151.196 32.3451C150.858 32.3834 149.801 32.3706 149.878 31.8211C149.914 31.6261 150.187 31.416 150.347 31.2936C151.298 30.6228 153.025 30.2711 154.412 30.1811C154.87 30.1515 156.855 30.7289 156.713 31.7636C156.679 31.9905 156.542 32.2076 156.334 32.3805L156.336 32.3828Z" fill="#222222"/>
<path d="M164.399 30.5462C163.964 32.1769 161.624 34.2857 159.644 34.4122C157.799 34.5318 156.868 33.2771 157.056 31.9656C157.279 30.4435 159.206 27.6429 161.864 27.4694C162.152 27.4514 162.662 27.4334 163.024 27.716C163.843 27.7444 164.783 28.2435 164.538 29.9107C164.518 30.1046 164.467 30.3164 164.399 30.5462ZM162.192 29.5028C161.123 29.5399 159.318 31.293 159.184 32.1983C159.172 32.2477 159.144 32.3289 159.229 32.3237C159.738 32.2912 160.749 31.7445 161.128 31.3522C161.583 30.8578 162.076 29.9752 162.244 29.501L162.192 29.5051V29.5028Z" fill="#222222"/>
<path d="M174.367 24.946C173.726 25.2436 172.029 25.5303 171.31 25.6892C171.16 25.73 171.054 25.6743 171.023 25.7072C170.805 25.9776 168.495 33.7274 168.166 34.758C167.884 35.7219 167.622 36.5251 167.551 36.6905C167.373 37.0381 166.913 37.2441 166.49 37.2714C165.711 37.3224 164.963 36.8901 165.084 36.0481C165.172 35.4173 166.002 32.7502 166.787 30.3436C167.265 28.822 167.746 27.3469 168.051 26.4457C167.534 26.5913 167.002 26.7387 166.475 26.7567C165.866 26.795 164.709 26.3586 164.803 25.614C164.938 24.7227 166.099 24.7932 166.737 24.6555C167.339 24.5205 168.083 24.2485 169.185 23.967C170.319 23.6685 171.829 23.3792 173.944 23.2411C174.47 23.2075 175.14 23.5009 175.037 24.1493C174.982 24.5534 174.663 24.8143 174.367 24.946Z" fill="#222222"/>
<path d="M181.656 29.4267C181.455 30.1295 180.442 33.9624 180.02 34.4377C179.785 34.7099 179.453 34.812 179.216 34.8259C178.659 34.8625 177.681 34.3321 177.722 33.7674C177.777 33.3955 178.043 32.8488 178.167 32.4728L178.315 31.9824L174.168 32.6991C173.995 33.3194 173.913 34.6884 172.813 34.7603C172.355 34.7899 171.742 34.5729 171.536 34.0895C171.449 33.8545 171.472 33.2591 171.572 32.5807C171.79 31.0121 172.495 28.0305 173.091 27.3834C173.345 27.1264 173.66 27.0416 173.881 27.0271C174.49 26.9882 175.414 27.4728 175.315 28.1854C175.27 28.4918 174.91 29.783 174.674 30.6628C175.895 30.3755 177.919 29.9403 178.963 29.7929C179.027 29.3072 179.403 28.016 179.524 27.5923C179.753 26.8083 180.012 25.9732 180.255 25.5896C180.501 25.2362 180.899 25.1301 181.121 25.1158C181.781 25.0729 182.639 25.6109 182.542 26.3215C182.488 26.7254 182.092 28.002 181.658 29.425L181.656 29.4267Z" fill="#222222"/>
</svg>
