<svg xmlns="http://www.w3.org/2000/svg" width="261" height="44" viewBox="0 0 161 44" fill="none">
<path d="M0.330566 2.72569C0.330566 1.77127 0.330566 1.29467 0.519225 0.929854C0.685395 0.609257 0.950268 0.348849 1.27636 0.185479C1.64743 0 2.1322 0 3.10298 0H14.7449C23.4794 0 27.8473 0 31.1832 1.67177C34.118 3.14087 36.5044 5.487 37.9987 8.37237C39.6991 11.652 39.6991 15.9463 39.6991 24.5336V40.5868C39.6991 41.5413 39.6991 42.0178 39.5104 42.3827C39.3443 42.7033 39.0794 42.9637 38.7533 43.127C38.3822 43.3125 37.8962 43.3125 36.9267 43.3125H10.0346C6.63753 43.3125 4.93959 43.3125 3.64272 42.6627C2.50077 42.0903 1.57372 41.1789 0.991498 40.0562C0.330566 38.7812 0.330566 37.1119 0.330566 33.772V2.72569Z" fill="#222222"/>
<path d="M11.0975 9.36495L11.0588 9.38337C7.91528 10.8955 5.80005 12.7036 5.80005 12.7036L5.00918 13.3448C4.98669 13.3632 4.96545 13.3841 4.94671 13.4062L3.55238 14.8667C3.29001 15.1345 3.14258 15.4931 3.14258 15.8666C3.14258 16.24 3.29001 16.5986 3.55238 16.8664L23.8151 36.8405L27.4459 40.4309C27.5146 40.4936 27.6033 40.5292 27.697 40.5316H34.5424C34.6799 40.5292 34.8136 40.4874 34.926 40.4113C35.0397 40.3351 35.1272 40.2282 35.1796 40.1029C35.2309 39.9789 35.2459 39.8413 35.2196 39.7086C35.1934 39.576 35.1284 39.4544 35.0322 39.3573L28.143 32.5511C28.143 32.5511 28.2992 32.2502 28.3679 32.1212C28.9277 31.0857 29.6123 29.7124 30.222 28.1254C30.227 28.107 30.2458 28.0173 30.1633 27.9682C30.0709 27.9129 29.9871 27.9682 29.9871 27.9682C28.654 28.8427 27.1722 29.5515 25.5793 30.0477L9.34459 13.7096C9.71816 12.2552 10.3903 10.8402 11.2862 9.53692C11.2937 9.52095 11.3349 9.43128 11.2549 9.37478C11.1999 9.3367 11.1362 9.35021 11.0975 9.36495ZM27.9469 11.1141C22.6957 5.92805 16.4087 7.02496 11.8784 9.0075C11.8484 9.01733 11.8009 9.0247 11.7659 8.99399C11.7197 8.95468 11.7422 8.91046 11.7522 8.89572C14.4784 5.34091 18.8862 2.76508 23.3541 2.76508C30.382 2.76508 36.8863 9.18684 36.8863 16.1257C36.8863 20.5453 34.4762 24.7131 30.6906 27.4805C30.6906 27.4805 30.6006 27.5432 30.5356 27.4805C30.4919 27.4388 30.4931 27.397 30.4994 27.3737L30.5056 27.3565C32.1998 22.545 32.9957 16.0938 27.9469 11.1141ZM10.6415 36.8466C10.6415 38.882 8.96227 40.5316 6.89202 40.5316C4.82177 40.5316 3.14258 38.882 3.14258 36.8466C3.14258 34.8125 4.82177 33.1628 6.89202 33.1628C8.96227 33.1628 10.6415 34.8125 10.6415 36.8466Z" fill="#E7ECEF"/>
<path d="M55.398 20.4346V36.7666H51.9497V17.8022H55.1382L55.398 20.4346ZM64.4437 24.5114V24.7768C64.4437 25.7729 64.3225 26.6979 64.0789 27.5491C63.8452 28.3942 63.4979 29.1325 63.0381 29.765C62.5783 30.3903 62.0061 30.8792 61.3202 31.2341C60.643 31.5793 59.8621 31.7525 58.9776 31.7525C58.1092 31.7525 57.3546 31.5928 56.7124 31.2722C56.0702 30.943 55.528 30.4787 55.0857 29.8793C54.6434 29.2799 54.2873 28.5834 54.0187 27.7899C53.7576 26.989 53.5627 26.1156 53.4327 25.1698V24.321C53.5627 23.3175 53.7576 22.4061 54.0187 21.5868C54.2873 20.7601 54.6434 20.0464 55.0857 19.447C55.528 18.8402 56.0665 18.371 56.6999 18.0418C57.3421 17.7126 58.0917 17.548 58.9513 17.548C59.8447 17.548 60.6305 17.7126 61.3065 18.0418C61.9924 18.371 62.5696 18.8439 63.0381 19.4605C63.5066 20.0759 63.8577 20.8104 64.0926 21.6629C64.3262 22.5154 64.4437 23.4649 64.4437 24.5114ZM60.9941 24.7768V24.5114C60.9941 23.9034 60.9379 23.3421 60.8254 22.8274C60.713 22.3041 60.5393 21.8484 60.3044 21.4602C60.0708 21.0635 59.7672 20.7552 59.3936 20.5365C59.0213 20.3167 58.569 20.2073 58.0405 20.2073C57.5108 20.2073 57.056 20.2921 56.6737 20.4604C56.2914 20.6287 55.979 20.8694 55.7366 21.1814C55.493 21.4946 55.3031 21.8656 55.1644 22.2955C55.0332 22.7181 54.947 23.1861 54.9033 23.7007V25.8024C54.982 26.4276 55.1332 26.989 55.3593 27.4865C55.5842 27.984 55.914 28.3807 56.3488 28.6767C56.7911 28.9715 57.3633 29.1202 58.0668 29.1202C58.5953 29.1202 59.0463 29.0059 59.4199 28.7775C59.7934 28.5502 60.097 28.2382 60.3307 27.8415C60.5656 27.4361 60.7342 26.9718 60.8379 26.4485C60.9429 25.9253 60.9941 25.3676 60.9941 24.7768Z" fill="#222222"/>
<path d="M70.3922 20.5992V31.4995H66.9551V17.8022H70.2098L70.3922 20.5992ZM74.6739 17.7126L74.6214 20.8276C74.4302 20.7932 74.2141 20.7687 73.9704 20.7515C73.7368 20.7343 73.5157 20.7257 73.307 20.7257C72.7773 20.7257 72.3137 20.7982 71.9139 20.9419C71.5154 21.077 71.1818 21.2748 70.9119 21.5364C70.652 21.798 70.4521 22.1186 70.3135 22.4982C70.1748 22.8704 70.0961 23.2917 70.0798 23.7646L69.3377 23.6762C69.3377 22.8065 69.4289 22.0007 69.6113 21.2576C69.7925 20.5156 70.0573 19.8646 70.4047 19.3082C70.752 18.7505 71.1855 18.3206 71.7065 18.0172C72.235 17.7052 72.8422 17.548 73.5282 17.548C73.7193 17.548 73.923 17.5652 74.1404 17.5996C74.3653 17.6241 74.5439 17.6622 74.6739 17.7126Z" fill="#222222"/>
<path d="M75.584 24.7903V24.5237C75.584 23.5202 75.7314 22.5952 76.0263 21.7514C76.3211 20.8989 76.7509 20.1607 77.3157 19.5367C77.8791 18.9114 78.5688 18.4262 79.3847 18.0798C80.2005 17.7261 81.1288 17.548 82.1696 17.548C83.2278 17.548 84.1648 17.7261 84.9807 18.0798C85.8053 18.4262 86.5 18.9114 87.0635 19.5367C87.6269 20.1607 88.0567 20.8989 88.3516 21.7514C88.6477 22.5952 88.7939 23.5202 88.7939 24.5237V24.7903C88.7939 25.7852 88.6477 26.7102 88.3516 27.5626C88.0567 28.4065 87.6269 29.1447 87.0635 29.7773C86.5 30.4026 85.8091 30.8878 84.9945 31.2341C84.1786 31.5793 83.2453 31.7525 82.1958 31.7525C81.1551 31.7525 80.2218 31.5793 79.3971 31.2341C78.5738 30.8878 77.8791 30.4026 77.3157 29.7773C76.7509 29.1447 76.3211 28.4065 76.0263 27.5626C75.7314 26.7102 75.584 25.7852 75.584 24.7903ZM79.0198 24.5237V24.7903C79.0198 25.3897 79.081 25.9511 79.2022 26.4743C79.3234 26.9976 79.5108 27.457 79.762 27.8538C80.0131 28.2505 80.3392 28.5625 80.7378 28.791C81.1463 29.0096 81.6323 29.1202 82.1958 29.1202C82.7505 29.1202 83.2278 29.0096 83.6276 28.791C84.0262 28.5625 84.3523 28.2505 84.6034 27.8538C84.8633 27.457 85.0544 26.9976 85.1756 26.4743C85.2981 25.9511 85.358 25.3897 85.358 24.7903V24.5237C85.358 23.9329 85.2981 23.3801 85.1756 22.8655C85.0544 22.3422 84.8633 21.8828 84.6034 21.486C84.3523 21.0807 84.0224 20.7638 83.6139 20.5365C83.2153 20.2995 82.7343 20.1815 82.1696 20.1815C81.6148 20.1815 81.1376 20.2995 80.7378 20.5365C80.3392 20.7638 80.0131 21.0807 79.762 21.486C79.5108 21.8828 79.3234 22.3422 79.2022 22.8655C79.081 23.3801 79.0198 23.9329 79.0198 24.5237Z" fill="#222222"/>
<path d="M93.7022 17.801L96.2135 22.1567L98.7648 17.801H102.5L98.3612 24.5114L102.669 31.4995H98.9347L96.2397 26.9301L95.5626 28.0724L94.8866 29.2148L93.5323 31.4995H89.7979L94.092 24.5114L89.9803 17.801H93.7022Z" fill="#222222"/>
<path d="M108.135 17.801V31.4995H104.687V17.801H108.135Z" fill="#222222"/>
<path d="M114.838 20.6127V31.4995H111.402V17.8022H114.643L114.838 20.6127ZM114.331 24.1564H113.276C113.276 23.2033 113.394 22.325 113.629 21.5241C113.871 20.722 114.227 20.0255 114.696 19.4347C115.164 18.8353 115.741 18.371 116.426 18.0418C117.121 17.7126 117.923 17.548 118.834 17.548C119.467 17.548 120.049 17.6413 120.578 17.8268C121.108 18.0049 121.564 18.2874 121.945 18.6756C122.336 19.0551 122.634 19.5526 122.843 20.1693C123.052 20.7773 123.155 21.5069 123.155 22.3594V31.4995H119.72V22.7009C119.72 22.0597 119.623 21.5573 119.433 21.1949C119.251 20.8313 118.986 20.5783 118.639 20.4346C118.292 20.2835 117.875 20.2073 117.389 20.2073C116.852 20.2073 116.387 20.313 115.998 20.523C115.615 20.7257 115.298 21.0094 115.047 21.3718C114.804 21.7342 114.622 22.153 114.501 22.6247C114.387 23.0976 114.331 23.6086 114.331 24.1564ZM122.896 23.5361L121.476 23.7892C121.485 22.9293 121.606 22.1235 121.841 21.3718C122.075 20.6127 122.418 19.9494 122.869 19.3843C123.329 18.8107 123.898 18.3636 124.573 18.0418C125.259 17.7126 126.049 17.548 126.942 17.548C127.637 17.548 128.262 17.645 128.816 17.8403C129.381 18.0258 129.862 18.3243 130.262 18.7382C130.661 19.1436 130.964 19.6718 131.173 20.3216C131.39 20.9714 131.498 21.7636 131.498 22.7009V31.4995H128.036V22.6886C128.036 22.0216 127.941 21.5106 127.749 21.1568C127.567 20.8018 127.303 20.5574 126.956 20.4223C126.609 20.2786 126.201 20.2073 125.733 20.2073C125.254 20.2073 124.838 20.2958 124.482 20.4727C124.136 20.6422 123.84 20.878 123.598 21.1814C123.364 21.486 123.185 21.8398 123.064 22.2451C122.952 22.6419 122.896 23.073 122.896 23.5361Z" fill="#222222"/>
<path d="M138.226 17.801V31.4995H134.777V17.801H138.226Z" fill="#222222"/>
<path d="M149.076 17.8024V20.2075H141.519L143.384 17.8024H144.967H149.076ZM141.519 15.3765H144.967V17.8024V27.5493C144.967 27.9547 145.023 28.2679 145.136 28.4865C145.249 28.7064 145.418 28.8538 145.644 28.93C145.869 29.0061 146.139 29.0442 146.451 29.0442C146.676 29.0442 146.885 29.0307 147.076 29.0061C147.266 28.9803 147.427 28.9558 147.557 28.93L147.569 31.437C147.283 31.5291 146.958 31.6053 146.594 31.6643C146.238 31.7232 145.835 31.7527 145.383 31.7527C144.611 31.7527 143.935 31.6262 143.353 31.3731C142.772 31.1115 142.321 30.6939 142 30.1202C141.678 29.538 141.519 28.7691 141.519 27.8159V15.3765Z" fill="#222222"/>
<path d="M152.794 29.9801L156.568 17.8023H160.251L154.603 33.5754C154.472 33.9132 154.303 34.2805 154.094 34.6773C153.896 35.074 153.626 35.4499 153.287 35.8036C152.95 36.1672 152.524 36.462 152.013 36.6905C151.509 36.9177 150.897 37.032 150.177 37.032C149.865 37.032 149.587 37.0111 149.344 36.9681C149.102 36.9263 148.846 36.8711 148.576 36.8035V34.2977C148.663 34.3063 148.763 34.31 148.876 34.31C148.997 34.3186 149.102 34.3223 149.188 34.3223C149.691 34.3223 150.108 34.2633 150.437 34.1454C150.767 34.0361 151.032 33.8543 151.232 33.6012C151.439 33.3568 151.613 33.0362 151.752 32.6394L152.794 29.9801ZM150.932 17.8023L154.121 27.8919L154.68 31.4234L152.311 31.841L147.223 17.8023H150.932Z" fill="#222222"/>
</svg>
