<svg width="320" height="759" viewBox="0 0 320 759" fill="none" xmlns="http://www.w3.org/2000/svg">
<mask id="mask0_1106_3820" style="mask-type:alpha" maskUnits="userSpaceOnUse" x="-406" y="-373" width="1133" height="1133">
<path opacity="0.6" d="M-404.684 -372.342L724.027 -372.342M-405.342 757.027L-405.342 -373M-406 -346.032L722.711 -346.032M-379.032 758.342L-379.032 -371.684M-406 -319.722L722.711 -319.722M-352.722 758.342L-352.722 -371.684M-406 -293.411L722.711 -293.411M-326.411 758.342L-326.412 -371.684M-406 -267.101L722.711 -267.101M-300.101 758.342L-300.101 -371.684M-406 -240.791L722.711 -240.791M-273.791 758.342L-273.791 -371.684M-406 -214.48L722.711 -214.481M-247.48 758.342L-247.481 -371.684M-406 -188.17L722.711 -188.17M-221.17 758.342L-221.17 -371.684M-406 -161.86L722.711 -161.86M-194.86 758.342L-194.86 -371.684M-406 -135.55L722.711 -135.55M-168.55 758.342L-168.55 -371.684M-406 -109.239L722.711 -109.239M-142.239 758.342L-142.24 -371.684M-406 -82.9291L722.711 -82.9292M-115.929 758.342L-115.929 -371.684M-406 -56.6188L722.711 -56.6189M-89.6188 758.342L-89.619 -371.684M-406 -30.3085L722.711 -30.3086M-63.3085 758.342L-63.3087 -371.684M-406 -3.99822L722.711 -3.99831M-36.9982 758.342L-36.9984 -371.684M-406 22.3121L722.711 22.312M-10.6879 758.342L-10.6881 -371.684M-406 48.6223L722.711 48.6223M15.6224 758.342L15.6222 -371.684M-406 74.9326L722.711 74.9325M41.9326 758.342L41.9325 -371.684M-406 101.243L722.711 101.243M68.2429 758.342L68.2428 -371.684M-406 127.553L722.711 127.553M94.5532 758.342L94.553 -371.684M-406 153.863L722.711 153.863M120.863 758.342L120.863 -371.684M-406 180.174L722.711 180.174M147.174 758.342L147.174 -371.684M-406 206.484L722.711 206.484M173.484 758.342L173.484 -371.684M-406 232.794L722.711 232.794M199.794 758.342L199.794 -371.684M-406 259.105L722.711 259.105M226.105 758.342L226.104 -371.684M-406 285.415L722.711 285.415M252.415 758.342L252.415 -371.684M-406 311.725L722.711 311.725M278.725 758.342L278.725 -371.684M-406 338.035L722.711 338.035M305.035 758.342L305.035 -371.684M-406 364.346L722.711 364.346M331.346 758.342L331.346 -371.684M-406 390.656L722.711 390.656M357.656 758.342L357.656 -371.684M-406 416.966L722.711 416.966M383.966 758.342L383.966 -371.684M-406 443.277L722.711 443.276M410.277 758.342L410.276 -371.684M-406 469.587L722.711 469.587M436.587 758.342L436.587 -371.684M-406 495.897L722.711 495.897M462.897 758.342L462.897 -371.684M-406 522.207L722.711 522.207M489.207 758.342L489.207 -371.684M-406 548.518L722.711 548.518M515.518 758.342L515.518 -371.684M-406 574.828L722.711 574.828M541.828 758.342L541.828 -371.684M-406 601.138L722.711 601.138M568.138 758.342L568.138 -371.684M-406 627.449L722.711 627.448M594.449 758.342L594.448 -371.684M-406 653.759L722.711 653.759M620.759 758.342L620.759 -371.684M-406 680.069L722.711 680.069M647.069 758.342L647.069 -371.684M-406 706.379L722.711 706.379M673.379 758.342L673.379 -371.684M-406 732.69L722.711 732.69M699.69 758.342L699.69 -371.684M-406 759L722.711 759M726 758.342L726 -371.684" stroke="#C1C6CE"/>
</mask>
<g mask="url(#mask0_1106_3820)">
<g filter="url(#filter0_f_1106_3820)">
<circle cx="160" cy="193.381" r="160" fill="#D9D9D9"/>
</g>
</g>
<defs>
<filter id="filter0_f_1106_3820" x="-160" y="-126.619" width="640" height="640" filterUnits="userSpaceOnUse" color-interpolation-filters="sRGB">
<feFlood flood-opacity="0" result="BackgroundImageFix"/>
<feBlend mode="normal" in="SourceGraphic" in2="BackgroundImageFix" result="shape"/>
<feGaussianBlur stdDeviation="80" result="effect1_foregroundBlur_1106_3820"/>
</filter>
</defs>
</svg>
