<svg width="40" height="41" viewBox="0 0 40 41" fill="none" xmlns="http://www.w3.org/2000/svg">
<path d="M32.104 2.37595C32.88 1.11337 34.2553 0.345337 35.7366 0.345337H35.7378C38.0908 0.345337 39.9983 2.25288 39.9983 4.60595V36.0838C39.996 38.4369 38.0874 40.3433 35.7344 40.3422H34.8649C33.6127 40.341 32.4231 39.7895 31.6129 38.8335L6.74032 9.05005C6.67765 8.97369 6.58311 8.93042 6.4851 8.93042C6.30051 8.93042 6.15122 9.07855 6.15122 9.26314V31.6169C6.15009 31.7001 6.17972 31.781 6.23554 31.8437C6.35863 31.9804 6.56942 31.993 6.70615 31.8699L14.9355 24.732C15.2374 24.4722 15.6761 24.4448 16.0077 24.6659C16.4168 24.9382 16.5273 25.4898 16.255 25.8988L7.89463 38.3116C7.11864 39.5741 5.74328 40.3422 4.26198 40.3422C1.90895 40.3422 0.00146484 38.4346 0.00146484 36.0815V4.60595C0.00146484 2.25288 1.90895 0.345337 4.26198 0.345337H5.13139C6.38371 0.346476 7.57331 0.898 8.38347 1.85405L33.2594 31.6317C33.3221 31.7081 33.4155 31.7514 33.5147 31.7514C33.6992 31.7514 33.8485 31.6033 33.8485 31.4187V9.07058C33.8485 8.98738 33.8189 8.90647 33.7631 8.8438C33.64 8.70707 33.4292 8.69455 33.2925 8.8176L25.0631 15.9555C24.7612 16.2153 24.3225 16.2426 23.9909 16.0216C23.5818 15.7492 23.4713 15.1977 23.7437 14.7886L32.104 2.37595Z" fill="#222222"/>
</svg>
