<svg width="40" height="44" viewBox="0 0 40 44" fill="none" xmlns="http://www.w3.org/2000/svg">
<path d="M0.315918 3.41319C0.315918 2.45877 0.315918 1.98217 0.504577 1.61735C0.670747 1.29676 0.935619 1.03635 1.26171 0.872979C1.63278 0.6875 2.11755 0.6875 3.08833 0.6875H14.7302C23.4648 0.6875 27.8327 0.6875 31.1685 2.35927C34.1034 3.82837 36.4897 6.1745 37.984 9.05987C39.6844 12.3395 39.6844 16.6338 39.6844 25.2211V41.2743C39.6844 42.2288 39.6844 42.7053 39.4958 43.0702C39.3296 43.3908 39.0647 43.6512 38.7386 43.8145C38.3676 44 37.8816 44 36.912 44H10.02C6.62288 44 4.92495 44 3.62807 43.3502C2.48612 42.7778 1.55907 41.8664 0.976849 40.7437C0.315918 39.4687 0.315918 37.7994 0.315918 34.4595V3.41319Z" fill="#222222"/>
<path d="M11.0828 10.0524L11.0441 10.0709C7.90063 11.583 5.7854 13.3911 5.7854 13.3911L4.99453 14.0323C4.97204 14.0507 4.9508 14.0716 4.93206 14.0937L3.53773 15.5542C3.27536 15.822 3.12793 16.1806 3.12793 16.5541C3.12793 16.9275 3.27536 17.2861 3.53773 17.5539L23.8005 37.528L27.4312 41.1184C27.4999 41.1811 27.5886 41.2167 27.6823 41.2191H34.5278C34.6652 41.2167 34.7989 41.1749 34.9114 41.0988C35.0251 41.0226 35.1125 40.9157 35.165 40.7904C35.2162 40.6664 35.2312 40.5288 35.205 40.3961C35.1787 40.2635 35.1138 40.1419 35.0176 40.0448L28.1284 33.2386C28.1284 33.2386 28.2846 32.9377 28.3533 32.8087C28.913 31.7732 29.5977 30.3999 30.2074 28.8129C30.2124 28.7945 30.2311 28.7048 30.1487 28.6557C30.0562 28.6004 29.9725 28.6557 29.9725 28.6557C28.6394 29.5302 27.1576 30.239 25.5646 30.7352L9.32994 14.3971C9.70351 12.9427 10.3757 11.5277 11.2715 10.2244C11.279 10.2084 11.3202 10.1188 11.2403 10.0623C11.1853 10.0242 11.1216 10.0377 11.0828 10.0524ZM27.9322 11.8016C22.681 6.61555 16.394 7.71246 11.8637 9.695C11.8337 9.70483 11.7863 9.7122 11.7513 9.68149C11.705 9.64218 11.7275 9.59796 11.7375 9.58322C14.4637 6.02841 18.8716 3.45258 23.3394 3.45258C30.3673 3.45258 36.8717 9.87434 36.8717 16.8132C36.8717 21.2328 34.4616 25.4006 30.6759 28.168C30.6759 28.168 30.5859 28.2307 30.521 28.168C30.4772 28.1263 30.4785 28.0845 30.4847 28.0612L30.491 28.044C32.1852 23.2325 32.981 16.7813 27.9322 11.8016ZM10.6268 37.5341C10.6268 39.5695 8.94762 41.2191 6.87737 41.2191C4.80712 41.2191 3.12793 39.5695 3.12793 37.5341C3.12793 35.5 4.80712 33.8503 6.87737 33.8503C8.94762 33.8503 10.6268 35.5 10.6268 37.5341Z" fill="#E7ECEF"/>
</svg>
