<svg width="38" height="45" viewBox="0 0 38 45" fill="none" xmlns="http://www.w3.org/2000/svg">
<g id="Group 292">
<g id="Group 287">
<path id="Vector" d="M0.602594 20.9053C1.26402 18.5556 2.49953 16.5733 4.37399 15.0035C4.61111 14.8035 4.78084 14.3486 5.16022 14.5411C5.49718 14.7111 5.3599 15.1435 5.35241 15.4585C5.28752 17.6182 5.51714 19.7829 5.16521 21.9401C4.96803 23.1475 5.32496 24.2623 6.20603 25.1497C8.31512 27.2795 10.4467 29.3842 12.5408 31.5239C13.0999 32.0938 13.5691 32.1588 14.0908 31.5314C14.1956 31.4039 14.3254 31.2939 14.4427 31.1765C15.2897 30.3299 15.3005 29.4908 14.4752 28.6593C12.8303 27.007 11.2004 25.3447 9.53315 23.7149C8.89168 23.09 8.58718 22.3901 8.60964 21.4952C8.69201 18.1256 8.75191 14.756 8.80682 11.3865C8.81681 10.8091 9.01399 10.3416 9.42083 9.94166C10.3693 9.00678 11.3003 8.0544 12.2513 7.12452C12.4759 6.90455 12.6831 6.5121 13.0574 6.66458C13.4318 6.81706 13.317 7.24201 13.317 7.55947C13.327 11.4315 13.3794 15.306 13.3021 19.178C13.2746 20.5053 13.6565 21.4677 14.6399 22.3426C15.8804 23.4474 17.0385 24.6523 18.1692 25.8721C18.7807 26.5296 19.195 26.4696 19.7816 25.8471C21.1269 24.4298 22.5122 23.0475 23.9249 21.6952C24.5464 21.1002 24.7885 20.4453 24.7835 19.5929C24.7585 15.6784 24.771 11.7639 24.791 7.84943C24.791 7.46698 24.5663 6.90705 25.0605 6.74457C25.4249 6.62458 25.6321 7.14952 25.9291 7.35949C28.7346 9.33924 29.7979 11.9864 29.3461 15.416C29.104 17.2582 29.2363 19.1605 29.3286 21.0303C29.3935 22.3101 28.9617 23.2275 28.0357 24.0899C26.3634 25.6497 24.8159 27.3444 23.1586 28.9217C22.4323 29.6142 22.3324 30.1016 23.1187 30.8365C25.0006 32.5913 24.444 32.5738 26.2087 30.8365C27.8984 29.1717 29.5383 27.4544 31.248 25.8121C32.5684 24.5448 33.0102 23.0725 32.7082 21.2827C32.3712 19.3005 32.6133 17.2932 32.5734 15.2985C32.5684 15.0535 32.5634 14.761 32.8355 14.6461C33.11 14.5311 33.2847 14.771 33.4744 14.9235C38.384 18.853 38.7259 24.8023 34.2881 29.2642C31.3529 32.2138 28.3926 35.1385 25.4799 38.1106C24.8359 38.768 24.444 38.803 23.7876 38.1056C22.5047 36.7458 21.0745 35.5259 19.7841 34.1736C19.1825 33.5412 18.7982 33.4912 18.1891 34.1361C16.9037 35.4984 15.5285 36.7732 14.2455 38.1356C13.6415 38.7755 13.2347 38.7505 12.6256 38.1306C9.38838 34.836 6.11618 31.5764 2.85146 28.3068C1.62594 27.0795 1.18166 25.4597 0.600098 23.9024V20.9028L0.602594 20.9053Z" fill="#222222"/>
<path id="Vector_2" d="M19.0731 0.345367C21.257 1.92017 21.5516 4.14738 21.3519 6.62207C21.2171 8.28686 21.287 8.33435 19.5473 8.33185C16.3001 8.32685 16.7943 8.58432 16.5272 5.39223C16.3375 3.12251 17.4083 1.72769 18.8235 0.347867H19.0731V0.345367Z" fill="#222222"/>
<path id="Vector_3" d="M18.8234 44.3397C18.0148 43.5099 17.2285 42.655 16.3874 41.8601C15.9057 41.4051 15.9107 41.0427 16.3824 40.6252C16.5072 40.5152 16.6145 40.3877 16.7343 40.2753C19.5622 37.6006 18.459 37.5081 21.4367 40.3353C22.0882 40.9527 22.1256 41.4601 21.4567 42.095C20.7079 42.8049 20.0315 43.5898 19.3226 44.3422H18.8234V44.3397Z" fill="#222222"/>
<path id="Vector_4" d="M21.3341 15.7833C21.3341 16.3233 21.2442 16.8832 21.3516 17.4006C21.716 19.1979 20.463 20.1278 19.4247 21.1827C19.2375 21.3726 19.0428 21.4526 18.7583 21.3376C17.9471 21.0027 16.5993 19.0979 16.5918 18.1905C16.5818 16.4858 16.6018 14.781 16.5893 13.0762C16.5818 12.2513 16.9337 11.8488 17.7774 11.8538C22.038 11.8788 21.2467 11.3964 21.3316 15.1584C21.3366 15.3659 21.3316 15.5734 21.3316 15.7833H21.3341Z" fill="#222222"/>
</g>
</g>
</svg>
