<svg width="320" height="602" viewBox="0 0 320 602" fill="none" xmlns="http://www.w3.org/2000/svg">
<g filter="url(#filter0_dddd_1106_6813)">
<path d="M153.241 127.092L293.936 208.317C296.182 209.613 296.179 211.718 293.926 213.019L173.311 282.651C171.057 283.952 167.41 283.954 165.165 282.657L24.4699 201.433C22.2245 200.137 22.2274 198.031 24.4807 196.73L145.096 127.098C147.349 125.798 150.996 125.796 153.241 127.092Z" fill="#1D1D1D" stroke="#303030"/>
<path d="M147.97 132.87C149.147 133.55 151.058 133.548 152.238 132.867C153.419 132.186 153.421 131.082 152.244 130.403C151.066 129.723 149.155 129.724 147.975 130.406C146.795 131.087 146.792 132.19 147.97 132.87Z" stroke="white"/>
<path d="M153.655 136.152C154.832 136.831 156.743 136.83 157.923 136.149C159.104 135.467 159.106 134.364 157.929 133.684C156.751 133.005 154.84 133.006 153.66 133.687C152.48 134.369 152.478 135.472 153.655 136.152Z" stroke="white"/>
<path d="M159.339 139.433C160.516 140.113 162.427 140.112 163.608 139.431C164.788 138.749 164.79 137.646 163.613 136.966C162.435 136.287 160.524 136.288 159.344 136.969C158.164 137.65 158.162 138.754 159.339 139.433Z" stroke="white"/>
<path d="M287.383 217.569L137.213 130.875L136.629 131.212L286.799 217.906L287.383 217.569Z" fill="#303030"/>
<path d="M150.762 158.606L131.813 147.667C130.636 146.987 128.725 146.988 127.545 147.67C126.365 148.351 126.362 149.454 127.54 150.134L146.488 161.073C147.666 161.753 149.577 161.752 150.757 161.07C151.937 160.389 151.94 159.286 150.762 158.606Z" stroke="#303030"/>
<path d="M143.639 162.719L124.69 151.78C123.513 151.1 121.602 151.101 120.422 151.783C119.242 152.464 119.239 153.567 120.417 154.247L139.365 165.186C140.543 165.866 142.454 165.865 143.634 165.183C144.814 164.502 144.817 163.399 143.639 162.719Z" stroke="#303030"/>
<path d="M136.517 166.83L117.568 155.891C116.391 155.211 114.48 155.213 113.299 155.894C112.119 156.575 112.117 157.679 113.294 158.358L132.243 169.298C133.42 169.977 135.332 169.976 136.512 169.295C137.692 168.613 137.694 167.51 136.517 166.83Z" stroke="#303030"/>
<path d="M129.394 170.942L110.445 160.003C109.267 159.323 107.356 159.325 106.176 160.006C104.996 160.687 104.994 161.791 106.171 162.47L125.12 173.41C126.297 174.089 128.208 174.088 129.388 173.407C130.569 172.725 130.571 171.622 129.394 170.942Z" stroke="#303030"/>
<path d="M122.271 175.055L103.322 164.115C102.145 163.436 100.234 163.437 99.0536 164.118C97.8734 164.8 97.8711 165.903 99.0484 166.583L117.997 177.522C119.175 178.202 121.086 178.2 122.266 177.519C123.446 176.838 123.448 175.734 122.271 175.055Z" stroke="#303030"/>
<path d="M115.148 179.167L96.1989 168.227C95.0216 167.548 93.1104 167.549 91.9303 168.23C90.7501 168.912 90.7478 170.015 91.9251 170.695L110.874 181.634C112.051 182.314 113.962 182.312 115.143 181.631C116.323 180.95 116.325 179.846 115.148 179.167Z" stroke="#303030"/>
<path d="M108.025 183.279L89.0766 172.34C87.8992 171.66 85.9881 171.661 84.8079 172.343C83.6278 173.024 83.6255 174.127 84.8028 174.807L103.752 185.746C104.929 186.426 106.84 186.425 108.02 185.743C109.2 185.062 109.203 183.959 108.025 183.279Z" stroke="#303030"/>
<path d="M100.902 187.391L81.9533 176.452C80.7759 175.772 78.8648 175.773 77.6847 176.455C76.5045 177.136 76.5022 178.239 77.6795 178.919L96.6284 189.858C97.8057 190.538 99.7168 190.537 100.897 189.855C102.077 189.174 102.079 188.071 100.902 187.391Z" fill="#303030" stroke="white"/>
<path d="M162.16 151.479L144.159 141.087C142.72 140.256 140.384 140.258 138.941 141.09L137.517 141.913C136.074 142.746 136.072 144.094 137.511 144.925L155.512 155.317C156.951 156.148 159.287 156.146 160.729 155.313L162.154 154.491C163.596 153.658 163.599 152.31 162.16 151.479Z" stroke="white"/>
<path d="M61.2515 209.734L43.25 199.342C41.6803 198.436 39.1321 198.438 37.5585 199.346L36.134 200.168C34.5604 201.077 34.5573 202.548 36.1271 203.454L54.1285 213.846C55.6983 214.753 58.2465 214.751 59.82 213.843L61.2446 213.02C62.8182 212.112 62.8212 210.641 61.2515 209.734Z" fill="#303030"/>
<path d="M229.638 203.867L160.948 164.212C159.379 163.306 156.83 163.308 155.257 164.216L141.961 171.892C140.387 172.801 140.384 174.272 141.954 175.178L210.643 214.833C212.213 215.739 214.761 215.738 216.335 214.829L229.631 207.153C231.205 206.245 231.208 204.774 229.638 203.867Z" fill="#303030"/>
<path d="M143.356 184.761C147.542 187.177 154.337 187.172 158.533 184.75C162.73 182.327 162.738 178.405 158.552 175.988C154.366 173.571 147.571 173.576 143.374 175.999C139.178 178.421 139.17 182.344 143.356 184.761Z" fill="#303030" stroke="#1D1D1D" stroke-width="2"/>
<path d="M139.792 188.46L127.475 181.349C127.083 181.123 126.445 181.123 126.052 181.35C125.659 181.577 125.658 181.945 126.05 182.172L138.367 189.282C138.76 189.509 139.397 189.508 139.79 189.281C140.183 189.054 140.184 188.686 139.792 188.46Z" stroke="#303030"/>
<path d="M143.574 193.933L135.995 189.557C135.602 189.331 134.965 189.331 134.572 189.558C134.178 189.785 134.178 190.153 134.57 190.38L142.15 194.755C142.542 194.982 143.179 194.981 143.573 194.754C143.966 194.527 143.967 194.159 143.574 193.933Z" stroke="#303030"/>
<path d="M188.585 216.629L181.006 212.253C180.613 212.027 179.976 212.027 179.583 212.254C179.189 212.481 179.188 212.849 179.581 213.076L187.16 217.451C187.553 217.678 188.19 217.678 188.583 217.45C188.977 217.223 188.977 216.856 188.585 216.629Z" stroke="#303030"/>
<path d="M132.205 187.37L124.626 182.994C124.233 182.768 123.596 182.768 123.203 182.995C122.81 183.222 122.809 183.59 123.201 183.817L130.781 188.192C131.173 188.419 131.81 188.418 132.204 188.191C132.597 187.964 132.598 187.596 132.205 187.37Z" stroke="#303030"/>
<path d="M177.215 210.064L143.581 190.647C143.189 190.42 142.552 190.421 142.158 190.648C141.765 190.875 141.764 191.243 142.157 191.469L175.791 210.887C176.183 211.113 176.82 211.113 177.214 210.886C177.607 210.659 177.608 210.291 177.215 210.064Z" stroke="#303030"/>
<path d="M142.64 186.814L130.324 179.704C129.931 179.477 129.294 179.478 128.901 179.705C128.507 179.932 128.507 180.3 128.899 180.526L141.216 187.637C141.608 187.863 142.245 187.863 142.639 187.636C143.032 187.409 143.033 187.041 142.64 186.814Z" stroke="white"/>
<path d="M168.221 201.583L146.43 189.002C146.037 188.776 145.4 188.776 145.007 189.003C144.614 189.231 144.613 189.598 145.005 189.825L166.796 202.405C167.189 202.632 167.826 202.631 168.219 202.404C168.613 202.177 168.613 201.809 168.221 201.583Z" stroke="white"/>
<path d="M208.505 216.614L199.031 211.144C197.853 210.465 195.942 210.466 194.762 211.147C193.582 211.829 193.58 212.932 194.757 213.612L204.231 219.081C205.409 219.761 207.32 219.76 208.5 219.078C209.68 218.397 209.682 217.294 208.505 216.614Z" fill="#303030" stroke="white"/>
<path d="M199.954 223.192L192.374 218.816C191.982 218.59 191.345 218.59 190.951 218.817C190.558 219.045 190.557 219.412 190.95 219.639L198.529 224.015C198.922 224.241 199.559 224.241 199.952 224.014C200.345 223.786 200.346 223.419 199.954 223.192Z" stroke="#303030"/>
<path d="M241.272 197.151L172.582 157.496C171.143 156.665 168.807 156.667 167.365 157.5L165.94 158.322C164.498 159.155 164.495 160.503 165.934 161.334L234.624 200.989C236.063 201.82 238.398 201.818 239.841 200.985L241.265 200.163C242.708 199.33 242.711 197.982 241.272 197.151Z" stroke="#303030"/>
<path d="M269.694 213.56L251.693 203.167C250.254 202.336 247.918 202.338 246.476 203.171L245.051 203.993C243.609 204.826 243.606 206.174 245.045 207.005L263.046 217.398C264.485 218.228 266.821 218.227 268.263 217.394L269.688 216.571C271.13 215.739 271.133 214.39 269.694 213.56Z" stroke="#303030"/>
<path d="M258.145 220.227L240.144 209.834C238.705 209.004 236.369 209.005 234.927 209.838L221.631 217.514C220.188 218.347 220.185 219.695 221.624 220.526L239.626 230.918C241.065 231.749 243.401 231.747 244.843 230.915L258.139 223.239C259.582 222.406 259.584 221.058 258.145 220.227Z" stroke="#303030"/>
<path d="M236.777 232.563L218.775 222.171C217.336 221.34 215.001 221.342 213.558 222.175L144.228 262.199C142.786 263.032 142.783 264.38 144.222 265.211L162.223 275.603C163.662 276.434 165.998 276.433 167.441 275.6L236.771 235.575C238.213 234.742 238.216 233.394 236.777 232.563Z" stroke="#303030"/>
<path d="M155.322 246.77L86.6321 207.115C85.1931 206.284 83.272 206.047 82.3412 206.584L64.5681 216.845C63.6373 217.382 64.0492 218.491 65.4882 219.322L134.178 258.977C135.617 259.807 137.538 260.045 138.469 259.508L156.242 249.247C157.173 248.71 156.761 247.601 155.322 246.77Z" stroke="#303030"/>
<path d="M190.936 226.21L122.247 186.555C120.808 185.724 118.472 185.726 117.03 186.558L89.4876 202.458C88.0452 203.291 88.0424 204.64 89.4813 205.47L158.171 245.125C159.61 245.956 161.946 245.955 163.388 245.122L190.93 229.222C192.373 228.389 192.375 227.04 190.936 226.21Z" stroke="#303030"/>
<g filter="url(#filter1_b_1106_6813)">
<path d="M294.369 191.151L153.674 109.926C151.189 108.491 147.154 108.494 144.663 109.932L24.0477 179.564C21.5562 181.003 21.5514 183.332 24.0369 184.767L164.732 265.991C167.218 267.426 171.252 267.423 173.744 265.985L294.359 196.353C296.85 194.915 296.855 192.586 294.369 191.151Z" fill="url(#paint0_radial_1106_6813)" fill-opacity="0.15"/>
<path d="M294.369 191.151L153.674 109.926C151.189 108.491 147.154 108.494 144.663 109.932L24.0477 179.564C21.5562 181.003 21.5514 183.332 24.0369 184.767L164.732 265.991C167.218 267.426 171.252 267.423 173.744 265.985L294.359 196.353C296.85 194.915 296.855 192.586 294.369 191.151Z" stroke="url(#paint1_linear_1106_6813)"/>
</g>
<g filter="url(#filter2_b_1106_6813)">
<path d="M294.369 174.235L153.674 93.0104C151.189 91.5755 147.154 91.5783 144.663 93.0166L24.0477 162.649C21.5562 164.087 21.5514 166.416 24.0369 167.851L164.732 249.075C167.218 250.51 171.252 250.508 173.744 249.069L294.359 179.437C296.85 177.999 296.855 175.67 294.369 174.235Z" fill="url(#paint2_radial_1106_6813)" fill-opacity="0.15"/>
<path d="M294.369 174.235L153.674 93.0104C151.189 91.5755 147.154 91.5783 144.663 93.0166L24.0477 162.649C21.5562 164.087 21.5514 166.416 24.0369 167.851L164.732 249.075C167.218 250.51 171.252 250.508 173.744 249.069L294.359 179.437C296.85 177.999 296.855 175.67 294.369 174.235Z" stroke="url(#paint3_linear_1106_6813)"/>
</g>
<path d="M258.949 185.271L236.228 172.154C234.412 171.106 231.09 171.323 228.808 172.641L207.775 184.784C205.493 186.101 205.115 188.019 206.931 189.067L229.652 202.184C231.468 203.232 234.79 203.014 237.072 201.697L258.105 189.554C260.387 188.237 260.765 186.319 258.949 185.271Z" fill="#DB504A" fill-opacity="0.1" stroke="#DB504A" stroke-width="2"/>
<g filter="url(#filter3_dddd_1106_6813)">
<path d="M252.706 185.726L235.439 175.758C234.059 174.961 231.534 175.126 229.8 176.128L213.814 185.356C212.08 186.357 211.793 187.815 213.173 188.612L230.441 198.58C231.821 199.377 234.346 199.212 236.08 198.21L252.066 188.982C253.8 187.981 254.087 186.523 252.706 185.726Z" fill="#DB504A"/>
</g>
<path d="M87.4561 164.801L64.736 151.684C62.9198 150.636 60.3004 150.448 58.8855 151.265L45.8423 158.795C44.4273 159.612 44.7525 161.124 46.5687 162.173L69.2888 175.289C71.105 176.338 73.7243 176.525 75.1393 175.708L88.1825 168.178C89.5975 167.362 89.2722 165.849 87.4561 164.801Z" fill="#DB504A" fill-opacity="0.1" stroke="#DB504A" stroke-width="2"/>
<g filter="url(#filter4_dddd_1106_6813)">
<path d="M81.1088 165.317L63.8415 155.349C62.4612 154.552 60.6524 154.304 59.8014 154.795L51.9571 159.324C51.1061 159.815 51.5352 160.859 52.9154 161.656L70.1828 171.625C71.563 172.422 73.3718 172.669 74.2228 172.178L82.0672 167.649C82.9182 167.158 82.4891 166.114 81.1088 165.317Z" fill="#DB504A"/>
</g>
<mask id="mask0_1106_6813" style="mask-type:alpha" maskUnits="userSpaceOnUse" x="17" y="82" width="286" height="174">
<rect x="17.906" y="82.9692" width="284.188" height="172.881" fill="#D9D9D9"/>
</mask>
<g mask="url(#mask0_1106_6813)">
<g filter="url(#filter5_ddddd_1106_6813)">
<rect y="0.499972" width="171.878" height="148.658" rx="14.5" transform="matrix(0.866041 0.499972 -0.866041 0.499972 149.641 90.6437)" stroke="#DB504A"/>
</g>
</g>
</g>
<defs>
<filter id="filter0_dddd_1106_6813" x="-69.4365" y="74.5825" width="457.279" height="527.399" filterUnits="userSpaceOnUse" color-interpolation-filters="sRGB">
<feFlood flood-opacity="0" result="BackgroundImageFix"/>
<feColorMatrix in="SourceAlpha" type="matrix" values="0 0 0 0 0 0 0 0 0 0 0 0 0 0 0 0 0 0 127 0" result="hardAlpha"/>
<feOffset dy="14"/>
<feGaussianBlur stdDeviation="15.5"/>
<feColorMatrix type="matrix" values="0 0 0 0 0 0 0 0 0 0 0 0 0 0 0 0 0 0 0.1 0"/>
<feBlend mode="normal" in2="BackgroundImageFix" result="effect1_dropShadow_1106_6813"/>
<feColorMatrix in="SourceAlpha" type="matrix" values="0 0 0 0 0 0 0 0 0 0 0 0 0 0 0 0 0 0 127 0" result="hardAlpha"/>
<feOffset dy="57"/>
<feGaussianBlur stdDeviation="28.5"/>
<feColorMatrix type="matrix" values="0 0 0 0 0 0 0 0 0 0 0 0 0 0 0 0 0 0 0.09 0"/>
<feBlend mode="normal" in2="effect1_dropShadow_1106_6813" result="effect2_dropShadow_1106_6813"/>
<feColorMatrix in="SourceAlpha" type="matrix" values="0 0 0 0 0 0 0 0 0 0 0 0 0 0 0 0 0 0 127 0" result="hardAlpha"/>
<feOffset dy="127"/>
<feGaussianBlur stdDeviation="38"/>
<feColorMatrix type="matrix" values="0 0 0 0 0 0 0 0 0 0 0 0 0 0 0 0 0 0 0.05 0"/>
<feBlend mode="normal" in2="effect2_dropShadow_1106_6813" result="effect3_dropShadow_1106_6813"/>
<feColorMatrix in="SourceAlpha" type="matrix" values="0 0 0 0 0 0 0 0 0 0 0 0 0 0 0 0 0 0 127 0" result="hardAlpha"/>
<feOffset dy="227"/>
<feGaussianBlur stdDeviation="45.5"/>
<feColorMatrix type="matrix" values="0 0 0 0 0 0 0 0 0 0 0 0 0 0 0 0 0 0 0.01 0"/>
<feBlend mode="normal" in2="effect3_dropShadow_1106_6813" result="effect4_dropShadow_1106_6813"/>
<feBlend mode="normal" in="SourceGraphic" in2="effect4_dropShadow_1106_6813" result="shape"/>
</filter>
<filter id="filter1_b_1106_6813" x="11.5635" y="98.4984" width="295.279" height="178.921" filterUnits="userSpaceOnUse" color-interpolation-filters="sRGB">
<feFlood flood-opacity="0" result="BackgroundImageFix"/>
<feGaussianBlur in="BackgroundImageFix" stdDeviation="5"/>
<feComposite in2="SourceAlpha" operator="in" result="effect1_backgroundBlur_1106_6813"/>
<feBlend mode="normal" in="SourceGraphic" in2="effect1_backgroundBlur_1106_6813" result="shape"/>
</filter>
<filter id="filter2_b_1106_6813" x="11.5635" y="81.5825" width="295.279" height="178.921" filterUnits="userSpaceOnUse" color-interpolation-filters="sRGB">
<feFlood flood-opacity="0" result="BackgroundImageFix"/>
<feGaussianBlur in="BackgroundImageFix" stdDeviation="5"/>
<feComposite in2="SourceAlpha" operator="in" result="effect1_backgroundBlur_1106_6813"/>
<feBlend mode="normal" in="SourceGraphic" in2="effect1_backgroundBlur_1106_6813" result="shape"/>
</filter>
<filter id="filter3_dddd_1106_6813" x="198.3" y="172.253" width="69.2793" height="75.8311" filterUnits="userSpaceOnUse" color-interpolation-filters="sRGB">
<feFlood flood-opacity="0" result="BackgroundImageFix"/>
<feColorMatrix in="SourceAlpha" type="matrix" values="0 0 0 0 0 0 0 0 0 0 0 0 0 0 0 0 0 0 127 0" result="hardAlpha"/>
<feOffset dy="2"/>
<feGaussianBlur stdDeviation="2.5"/>
<feColorMatrix type="matrix" values="0 0 0 0 1 0 0 0 0 1 0 0 0 0 1 0 0 0 0.1 0"/>
<feBlend mode="normal" in2="BackgroundImageFix" result="effect1_dropShadow_1106_6813"/>
<feColorMatrix in="SourceAlpha" type="matrix" values="0 0 0 0 0 0 0 0 0 0 0 0 0 0 0 0 0 0 127 0" result="hardAlpha"/>
<feOffset dy="9"/>
<feGaussianBlur stdDeviation="4.5"/>
<feColorMatrix type="matrix" values="0 0 0 0 1 0 0 0 0 1 0 0 0 0 1 0 0 0 0.09 0"/>
<feBlend mode="normal" in2="effect1_dropShadow_1106_6813" result="effect2_dropShadow_1106_6813"/>
<feColorMatrix in="SourceAlpha" type="matrix" values="0 0 0 0 0 0 0 0 0 0 0 0 0 0 0 0 0 0 127 0" result="hardAlpha"/>
<feOffset dy="20"/>
<feGaussianBlur stdDeviation="6"/>
<feColorMatrix type="matrix" values="0 0 0 0 1 0 0 0 0 1 0 0 0 0 1 0 0 0 0.05 0"/>
<feBlend mode="normal" in2="effect2_dropShadow_1106_6813" result="effect3_dropShadow_1106_6813"/>
<feColorMatrix in="SourceAlpha" type="matrix" values="0 0 0 0 0 0 0 0 0 0 0 0 0 0 0 0 0 0 127 0" result="hardAlpha"/>
<feOffset dy="35"/>
<feGaussianBlur stdDeviation="7"/>
<feColorMatrix type="matrix" values="0 0 0 0 1 0 0 0 0 1 0 0 0 0 1 0 0 0 0.01 0"/>
<feBlend mode="normal" in2="effect3_dropShadow_1106_6813" result="effect4_dropShadow_1106_6813"/>
<feBlend mode="normal" in="SourceGraphic" in2="effect4_dropShadow_1106_6813" result="shape"/>
</filter>
<filter id="filter4_dddd_1106_6813" x="37.5198" y="151.543" width="58.9846" height="69.8876" filterUnits="userSpaceOnUse" color-interpolation-filters="sRGB">
<feFlood flood-opacity="0" result="BackgroundImageFix"/>
<feColorMatrix in="SourceAlpha" type="matrix" values="0 0 0 0 0 0 0 0 0 0 0 0 0 0 0 0 0 0 127 0" result="hardAlpha"/>
<feOffset dy="2"/>
<feGaussianBlur stdDeviation="2.5"/>
<feColorMatrix type="matrix" values="0 0 0 0 1 0 0 0 0 1 0 0 0 0 1 0 0 0 0.1 0"/>
<feBlend mode="normal" in2="BackgroundImageFix" result="effect1_dropShadow_1106_6813"/>
<feColorMatrix in="SourceAlpha" type="matrix" values="0 0 0 0 0 0 0 0 0 0 0 0 0 0 0 0 0 0 127 0" result="hardAlpha"/>
<feOffset dy="9"/>
<feGaussianBlur stdDeviation="4.5"/>
<feColorMatrix type="matrix" values="0 0 0 0 1 0 0 0 0 1 0 0 0 0 1 0 0 0 0.09 0"/>
<feBlend mode="normal" in2="effect1_dropShadow_1106_6813" result="effect2_dropShadow_1106_6813"/>
<feColorMatrix in="SourceAlpha" type="matrix" values="0 0 0 0 0 0 0 0 0 0 0 0 0 0 0 0 0 0 127 0" result="hardAlpha"/>
<feOffset dy="20"/>
<feGaussianBlur stdDeviation="6"/>
<feColorMatrix type="matrix" values="0 0 0 0 1 0 0 0 0 1 0 0 0 0 1 0 0 0 0.05 0"/>
<feBlend mode="normal" in2="effect2_dropShadow_1106_6813" result="effect3_dropShadow_1106_6813"/>
<feColorMatrix in="SourceAlpha" type="matrix" values="0 0 0 0 0 0 0 0 0 0 0 0 0 0 0 0 0 0 127 0" result="hardAlpha"/>
<feOffset dy="35"/>
<feGaussianBlur stdDeviation="7"/>
<feColorMatrix type="matrix" values="0 0 0 0 1 0 0 0 0 1 0 0 0 0 1 0 0 0 0.01 0"/>
<feBlend mode="normal" in2="effect3_dropShadow_1106_6813" result="effect4_dropShadow_1106_6813"/>
<feBlend mode="normal" in="SourceGraphic" in2="effect4_dropShadow_1106_6813" result="shape"/>
</filter>
<filter id="filter5_ddddd_1106_6813" x="6.20752" y="90.7869" width="306.11" height="231.473" filterUnits="userSpaceOnUse" color-interpolation-filters="sRGB">
<feFlood flood-opacity="0" result="BackgroundImageFix"/>
<feColorMatrix in="SourceAlpha" type="matrix" values="0 0 0 0 0 0 0 0 0 0 0 0 0 0 0 0 0 0 127 0" result="hardAlpha"/>
<feOffset/>
<feColorMatrix type="matrix" values="0 0 0 0 1 0 0 0 0 0.25098 0 0 0 0 0 0 0 0 0.1 0"/>
<feBlend mode="normal" in2="BackgroundImageFix" result="effect1_dropShadow_1106_6813"/>
<feColorMatrix in="SourceAlpha" type="matrix" values="0 0 0 0 0 0 0 0 0 0 0 0 0 0 0 0 0 0 127 0" result="hardAlpha"/>
<feOffset dy="3"/>
<feGaussianBlur stdDeviation="3.5"/>
<feColorMatrix type="matrix" values="0 0 0 0 1 0 0 0 0 0.25098 0 0 0 0 0 0 0 0 0.1 0"/>
<feBlend mode="normal" in2="effect1_dropShadow_1106_6813" result="effect2_dropShadow_1106_6813"/>
<feColorMatrix in="SourceAlpha" type="matrix" values="0 0 0 0 0 0 0 0 0 0 0 0 0 0 0 0 0 0 127 0" result="hardAlpha"/>
<feOffset dy="13"/>
<feGaussianBlur stdDeviation="6.5"/>
<feColorMatrix type="matrix" values="0 0 0 0 1 0 0 0 0 0.25098 0 0 0 0 0 0 0 0 0.09 0"/>
<feBlend mode="normal" in2="effect2_dropShadow_1106_6813" result="effect3_dropShadow_1106_6813"/>
<feColorMatrix in="SourceAlpha" type="matrix" values="0 0 0 0 0 0 0 0 0 0 0 0 0 0 0 0 0 0 127 0" result="hardAlpha"/>
<feOffset dy="30"/>
<feGaussianBlur stdDeviation="9"/>
<feColorMatrix type="matrix" values="0 0 0 0 1 0 0 0 0 0.25098 0 0 0 0 0 0 0 0 0.05 0"/>
<feBlend mode="normal" in2="effect3_dropShadow_1106_6813" result="effect4_dropShadow_1106_6813"/>
<feColorMatrix in="SourceAlpha" type="matrix" values="0 0 0 0 0 0 0 0 0 0 0 0 0 0 0 0 0 0 127 0" result="hardAlpha"/>
<feOffset dy="54"/>
<feGaussianBlur stdDeviation="10.5"/>
<feColorMatrix type="matrix" values="0 0 0 0 1 0 0 0 0 0.25098 0 0 0 0 0 0 0 0 0.01 0"/>
<feBlend mode="normal" in2="effect4_dropShadow_1106_6813" result="effect5_dropShadow_1106_6813"/>
<feBlend mode="normal" in="SourceGraphic" in2="effect5_dropShadow_1106_6813" result="shape"/>
</filter>
<radialGradient id="paint0_radial_1106_6813" cx="0" cy="0" r="1" gradientUnits="userSpaceOnUse" gradientTransform="translate(170.911 180.997) rotate(130.228) scale(69.7981 81.3705)">
<stop stop-color="white" stop-opacity="0.03"/>
<stop offset="1" stop-color="#00FFE0" stop-opacity="0.05"/>
</radialGradient>
<linearGradient id="paint1_linear_1106_6813" x1="194.832" y1="151.851" x2="165.556" y2="320.279" gradientUnits="userSpaceOnUse">
<stop stop-color="#303030" stop-opacity="0"/>
<stop offset="1" stop-color="white"/>
</linearGradient>
<radialGradient id="paint2_radial_1106_6813" cx="0" cy="0" r="1" gradientUnits="userSpaceOnUse" gradientTransform="translate(170.911 164.081) rotate(130.228) scale(69.7981 81.3705)">
<stop stop-color="white" stop-opacity="0.03"/>
<stop offset="1" stop-color="white" stop-opacity="0.05"/>
</radialGradient>
<linearGradient id="paint3_linear_1106_6813" x1="194.832" y1="134.935" x2="165.556" y2="303.363" gradientUnits="userSpaceOnUse">
<stop stop-color="#303030" stop-opacity="0"/>
<stop offset="1" stop-color="#4ACADB"/>
</linearGradient>
</defs>
</svg>
