<svg width="32" height="43" viewBox="0 0 32 43" fill="none" xmlns="http://www.w3.org/2000/svg">
<path d="M26.9692 16.1335C25.9935 16.1335 25.0876 16.6368 24.5765 17.4642L19.0699 25.5984C18.8906 25.8664 18.9634 26.2279 19.2328 26.4063C19.4512 26.5512 19.7401 26.5333 19.9391 26.363L25.3593 21.6855C25.4493 21.6048 25.5882 21.613 25.6692 21.7027C25.7061 21.7438 25.7255 21.7967 25.7255 21.8512V36.4961C25.7255 36.6171 25.6272 36.7142 25.5057 36.7142C25.4403 36.7142 25.3788 36.6858 25.3375 36.6358L8.9529 17.1222C8.41929 16.4957 7.63575 16.1343 6.81095 16.1335H6.23827C4.68848 16.1335 3.43213 17.3835 3.43213 18.9256V39.5518C3.43213 41.0937 4.68848 42.3438 6.23827 42.3438C7.21395 42.3438 8.11985 41.8405 8.631 41.0131L14.1375 32.879C14.3169 32.6109 14.2441 32.2495 13.9747 32.071C13.7562 31.9261 13.4673 31.9441 13.2684 32.1143L7.84814 36.7918C7.75812 36.8725 7.61924 36.8643 7.53824 36.7747C7.50148 36.7336 7.4819 36.6806 7.48267 36.6261V21.9775C7.48267 21.8564 7.58095 21.7594 7.70255 21.7594C7.76714 21.7594 7.82943 21.7878 7.8707 21.8378L24.253 41.3551C24.7866 41.9816 25.5702 42.343 26.395 42.3438H26.9676C28.5174 42.3445 29.7746 41.0952 29.776 39.5532V18.9256C29.776 17.3835 28.5191 16.1335 26.9692 16.1335Z" fill="white"/>
<path d="M12.4268 22.0258C12.4268 22.0258 15.1884 22.2996 19.1484 22.06C21.5408 21.9165 24.7376 19.1404 26.4553 17.8229C28.1752 16.5025 31.0739 14.0463 29.7596 13.506C28.4454 12.966 24.954 12.1014 24.954 12.1014C24.954 12.1014 29.2425 15.2338 12.4268 22.0258Z" fill="white" stroke="black" stroke-width="3" stroke-linejoin="round"/>
<path d="M26.5888 12.5359C27.3267 14.304 22.6355 17.9452 16.1099 20.6687C9.58477 23.3918 3.69791 24.1654 2.95996 22.3972C3.90905 20.8426 3.36575 20.0939 3.36575 20.0939L24.7213 11.1813C24.7213 11.1813 24.8786 12.0914 26.5888 12.5359Z" fill="white" stroke="black" stroke-width="3" stroke-linejoin="round"/>
<path d="M2.02244 13.2231C2.03508 12.5101 2.1898 10.0012 3.65886 7.66739C6.32061 3.43324 11.2096 1.98869 14.626 2.43766C16.9356 2.7432 18.7973 3.60205 20.6653 5.22408C21.1213 5.62046 22.0278 6.49401 22.9805 7.88718C23.8062 9.09578 24.1808 9.91895 24.8031 11.2861C25.2862 12.4436 23.5227 14.4056 19.9493 16.494C14.9474 19.4144 8.28741 21.4703 5.07544 21.0854C4.15648 20.9755 3.61874 20.6748 3.43846 20.2386C2.74598 18.4257 1.96583 16.3701 2.02244 13.2231Z" fill="white"/>
<path d="M2.02244 13.2231C2.03508 12.5101 2.1898 10.0012 3.65886 7.66739C6.32061 3.43324 11.2096 1.98869 14.626 2.43766C16.9356 2.7432 18.7973 3.60205 20.6653 5.22408C21.1213 5.62046 22.0278 6.49401 22.9805 7.88718C23.8062 9.09578 24.1808 9.91895 24.8031 11.2861C25.2862 12.4436 23.5227 14.4056 19.9493 16.494C14.9474 19.4144 8.28741 21.4703 5.07544 21.0854C4.15648 20.9755 3.61874 20.6748 3.43846 20.2386C2.74598 18.4257 1.96583 16.3701 2.02244 13.2231Z" fill="#74FC00" stroke="black" stroke-width="3" stroke-linejoin="round"/>
<path d="M12.3184 22.0096C12.3184 22.0096 15.0797 22.2811 19.0398 22.0438C21.4307 21.8992 24.6278 19.1246 26.3451 17.8053C28.0657 16.4868 30.9649 14.0302 29.6498 13.4881C28.3357 12.9482 24.8461 12.0842 24.8461 12.0842C24.8461 12.0842 29.1333 15.2173 12.3184 22.0096Z" fill="#272727" stroke="#272727" stroke-width="3" stroke-linejoin="round"/>
<path d="M26.4769 12.5204C27.2149 14.2887 22.5248 17.928 15.9984 20.6517C9.47347 23.3748 3.58622 24.1502 2.84814 22.3817C3.79813 20.827 3.25327 20.0793 3.25327 20.0793L24.6104 11.1661C24.6104 11.1661 24.8879 12.1884 26.5971 12.6332L26.4769 12.5204Z" fill="#2C2C2C" stroke="#2C2C2C" stroke-width="3" stroke-linejoin="round"/>
<path d="M1.91097 13.207C1.92374 12.4945 2.07934 9.98625 3.54725 7.65129C6.2086 3.41743 11.0975 1.9736 14.5146 2.42206C16.8254 2.72716 18.6862 3.58618 20.5527 5.20692C21.0093 5.6031 21.9167 6.47618 22.8683 7.87078C23.6929 9.07891 24.0681 9.90265 24.6903 11.2677C25.1735 12.4254 23.4097 14.3895 19.8349 16.4763C14.8341 19.3985 8.17377 21.4523 4.96257 21.067C4.04352 20.9572 3.50579 20.6583 3.32494 20.2206C2.63601 18.4095 1.85576 16.3537 1.91097 13.207Z" fill="#FFD520"/>
<path d="M1.91097 13.207C1.92374 12.4945 2.07934 9.98625 3.54725 7.65129C6.2086 3.41743 11.0975 1.9736 14.5146 2.42206C16.8254 2.72716 18.6862 3.58618 20.5527 5.20692C21.0093 5.6031 21.9167 6.47618 22.8683 7.87078C23.6929 9.07891 24.0681 9.90265 24.6903 11.2677C25.1735 12.4254 23.4097 14.3895 19.8349 16.4763C14.8341 19.3985 8.17377 21.4523 4.96257 21.067C4.04352 20.9572 3.50579 20.6583 3.32494 20.2206C2.63601 18.4095 1.85576 16.3537 1.91097 13.207Z" stroke="black" stroke-width="3" stroke-linejoin="round"/>
<path d="M1.91097 13.207C1.92374 12.4945 2.07934 9.98625 3.54725 7.65129C6.2086 3.41743 11.0975 1.9736 14.5146 2.42206C16.8254 2.72716 18.6862 3.58618 20.5527 5.20692C21.0093 5.6031 21.9167 6.47618 22.8683 7.87078C23.6929 9.07891 24.0681 9.90265 24.6903 11.2677C25.1735 12.4254 23.4097 14.3895 19.8349 16.4763C14.8341 19.3985 8.17377 21.4523 4.96257 21.067C4.04352 20.9572 3.50579 20.6583 3.32494 20.2206C2.63601 18.4095 1.85576 16.3537 1.91097 13.207Z" fill="#303030" stroke="#272727" stroke-width="3" stroke-linejoin="round"/>
<path d="M3.87256 7.04644C9.69541 -1.32433 22.085 5.70597 24.6179 12.484L25.4802 12.4737C22.4444 5.20066 10.089 -2.23093 3.87256 7.04644Z" fill="#CCCCCC"/>
<path d="M26.3376 13.3979L25.479 12.4738L24.6167 12.484L26.3376 13.3979Z" fill="#CCCCCC"/>
<path d="M22.8287 14.8029C20.0814 8.21993 11.8728 -0.396869 5.73096 4.90047C12.2819 -0.865243 22.7215 5.86827 25.4778 12.473L26.3364 13.3974L23.685 15.726L22.8287 14.8029Z" fill="#303030"/>
<path d="M22.8298 14.8021L23.6881 15.7266L21.3496 15.2135C18.8172 8.43485 9.69685 -1.32404 3.87256 7.04505C10.0896 -2.23079 19.7938 7.52741 22.8298 14.8021Z" fill="#CCCCCC"/>
<path d="M22.8298 14.8021L23.6881 15.7266L21.3496 15.2135C18.8172 8.43485 9.69685 -1.32404 3.87256 7.04505C10.0896 -2.23079 19.7938 7.52741 22.8298 14.8021Z" fill="#272727"/>
<path d="M10.4714 15.0121L10.0137 16.1298L11.2202 19.3794L11.4748 17.0786L10.4714 15.0121Z" fill="#272727" stroke="#272727" stroke-width="3" stroke-linecap="round" stroke-linejoin="round"/>
<path d="M5.38807 16.6907L5.14746 17.2759L6.3551 20.526L6.23226 18.3817L5.38807 16.6907Z" fill="black"/>
<path d="M11.2195 19.3789C11.2195 19.3789 6.66416 20.6494 6.35627 20.523C6.04858 20.3986 5.14844 17.2739 5.14844 17.2739L10.0125 16.1272L11.2195 19.3789Z" fill="#3A3A3A" stroke="#3A3A3A" stroke-width="3" stroke-linecap="round" stroke-linejoin="round"/>
<path d="M5.14941 17.2766L5.60894 16.159L10.472 15.0126L10.0143 16.1303L5.14941 17.2766Z" fill="#272727" stroke="#272727" stroke-width="3" stroke-linecap="round" stroke-linejoin="round"/>
</svg>
