<svg width="40" height="44" viewBox="0 0 40 44" fill="none" xmlns="http://www.w3.org/2000/svg">
<path d="M0.315674 3.41319C0.315674 2.45877 0.315674 1.98217 0.504333 1.61735C0.670503 1.29676 0.935375 1.03635 1.26147 0.872979C1.63254 0.6875 2.11731 0.6875 3.08809 0.6875H14.73C23.4645 0.6875 27.8324 0.6875 31.1683 2.35927C34.1031 3.82837 36.4895 6.1745 37.9838 9.05987C39.6842 12.3395 39.6842 16.6338 39.6842 25.2211V41.2743C39.6842 42.2288 39.6842 42.7053 39.4955 43.0702C39.3294 43.3908 39.0645 43.6512 38.7384 43.8145C38.3673 44 37.8813 44 36.9118 44H10.0197C6.62263 44 4.9247 44 3.62783 43.3502C2.48588 42.7778 1.55882 41.8664 0.976605 40.7437C0.315674 39.4687 0.315674 37.7994 0.315674 34.4595V3.41319Z" fill="white"/>
<path d="M11.0826 10.0524L11.0439 10.0709C7.90039 11.583 5.78515 13.3911 5.78515 13.3911L4.99429 14.0323C4.9718 14.0507 4.95056 14.0716 4.93182 14.0937L3.53749 15.5542C3.27511 15.822 3.12769 16.1806 3.12769 16.5541C3.12769 16.9275 3.27511 17.2861 3.53749 17.5539L23.8002 37.528L27.431 41.1184C27.4997 41.1811 27.5884 41.2167 27.6821 41.2191H34.5276C34.665 41.2167 34.7987 41.1749 34.9111 41.0988C35.0248 41.0226 35.1123 40.9157 35.1647 40.7904C35.216 40.6664 35.231 40.5288 35.2047 40.3961C35.1785 40.2635 35.1135 40.1419 35.0173 40.0448L28.1281 33.2386C28.1281 33.2386 28.2843 32.9377 28.353 32.8087C28.9128 31.7732 29.5974 30.3999 30.2071 28.8129C30.2121 28.7945 30.2309 28.7048 30.1484 28.6557C30.056 28.6004 29.9722 28.6557 29.9722 28.6557C28.6391 29.5302 27.1574 30.239 25.5644 30.7352L9.3297 14.3971C9.70327 12.9427 10.3754 11.5277 11.2713 10.2244C11.2788 10.2084 11.32 10.1188 11.24 10.0623C11.1851 10.0242 11.1213 10.0377 11.0826 10.0524ZM27.932 11.8016C22.6808 6.61555 16.3938 7.71246 11.8635 9.695C11.8335 9.70483 11.786 9.7122 11.751 9.68149C11.7048 9.64218 11.7273 9.59796 11.7373 9.58322C14.4635 6.02841 18.8713 3.45258 23.3392 3.45258C30.3671 3.45258 36.8714 9.87434 36.8714 16.8132C36.8714 21.2328 34.4613 25.4006 30.6757 28.168C30.6757 28.168 30.5857 28.2307 30.5207 28.168C30.477 28.1263 30.4783 28.0845 30.4845 28.0612L30.4907 28.044C32.1849 23.2325 32.9808 16.7813 27.932 11.8016ZM10.6266 37.5341C10.6266 39.5695 8.94738 41.2191 6.87713 41.2191C4.80688 41.2191 3.12769 39.5695 3.12769 37.5341C3.12769 35.5 4.80688 33.8503 6.87713 33.8503C8.94738 33.8503 10.6266 35.5 10.6266 37.5341Z" fill="#1D1D1D"/>
</svg>
