<svg width="1920" height="5073" viewBox="0 0 1920 5073" fill="none" xmlns="http://www.w3.org/2000/svg">
<g clip-path="url(#clip0_559_2738)">
<line x1="1609.5" y1="63" x2="1609.5" y2="784" stroke="#303030" stroke-dasharray="2 2"/>
<line x1="310.5" y1="63" x2="310.5" y2="784" stroke="#303030" stroke-dasharray="2 2"/>
<line x1="737.5" y1="471" x2="737.5" y2="623" stroke="#303030" stroke-dasharray="2 2"/>
<line x1="1183.5" y1="471" x2="1183.5" y2="623" stroke="#303030" stroke-dasharray="2 2"/>
<line x1="310" y1="343.5" y2="343.5" stroke="#303030" stroke-dasharray="2 2"/>
<line x1="1920" y1="343.5" x2="1610" y2="343.5" stroke="#303030" stroke-dasharray="2 2"/>
<line x1="1610" y1="623.5" x2="310" y2="623.5" stroke="#303030" stroke-dasharray="2 2"/>
<line x1="1610" y1="784.5" x2="310" y2="784.5" stroke="#303030" stroke-dasharray="2 2"/>
<line x1="1610" y1="63.5" x2="310" y2="63.5" stroke="#303030" stroke-dasharray="2 2"/>
<line x1="1610" y1="471.5" x2="310" y2="471.5" stroke="#303030" stroke-dasharray="2 2"/>
<circle cx="-202.5" cy="1090.5" r="512" fill="#1D1D1D" stroke="#303030" stroke-dasharray="2 2"/>
<circle cx="1919.5" cy="118.5" r="73" fill="#1D1D1D" stroke="#303030" stroke-dasharray="2 2"/>
<circle cx="1816.5" cy="465.5" r="45" fill="#1D1D1D" stroke="#303030" stroke-dasharray="2 2"/>
<circle cx="1761" cy="1280" r="70.5" fill="#1D1D1D" stroke="#303030" stroke-dasharray="2 2"/>
<circle cx="1944" cy="1408" r="198.5" fill="#1D1D1D" stroke="#303030" stroke-dasharray="2 2"/>
<circle cx="310" cy="63" r="19.5" fill="#1D1D1D" stroke="#303030" stroke-dasharray="2 2"/>
<circle cx="310" cy="623" r="19.5" fill="#1D1D1D" stroke="#303030" stroke-dasharray="2 2"/>
<circle cx="310" cy="784" r="19.5" fill="#1D1D1D" stroke="#303030" stroke-dasharray="2 2"/>
<circle cx="737" cy="623" r="19.5" fill="#1D1D1D" stroke="#303030" stroke-dasharray="2 2"/>
<circle cx="737" cy="471" r="19.5" fill="#1D1D1D" stroke="#303030" stroke-dasharray="2 2"/>
<circle cx="1183" cy="623" r="19.5" fill="#1D1D1D" stroke="#303030" stroke-dasharray="2 2"/>
<circle cx="1183" cy="471" r="19.5" fill="#1D1D1D" stroke="#303030" stroke-dasharray="2 2"/>
<circle cx="1609" cy="623" r="19.5" fill="#1D1D1D" stroke="#303030" stroke-dasharray="2 2"/>
<circle cx="1609" cy="784" r="19.5" fill="#1D1D1D" stroke="#303030" stroke-dasharray="2 2"/>
<circle cx="1609" cy="63" r="19.5" fill="#1D1D1D" stroke="#303030" stroke-dasharray="2 2"/>
<circle cx="1855.5" cy="427.5" r="18" fill="#1D1D1D" stroke="#303030" stroke-dasharray="2 2"/>
</g>

</svg>
