<svg width="408" height="333" viewBox="0 0 408 333" fill="none" xmlns="http://www.w3.org/2000/svg">
<path d="M202 331L202 228.327L279 209" stroke="#C1C6CE" stroke-width="4" stroke-linecap="round" stroke-linejoin="round"/>
<path d="M83 155.5L202.5 205L202.5 113" stroke="#C1C6CE" stroke-width="4" stroke-linecap="round" stroke-linejoin="round"/>
<circle cx="203" cy="96" r="19" stroke="white" stroke-width="4"/>
<circle cx="162" cy="96" r="6" fill="#1D1D1D"/>
<circle cx="162" cy="96" r="6" fill="black" fill-opacity="0.2"/>
<circle cx="162" cy="96" r="6" stroke="white" stroke-width="4"/>
<circle cx="297" cy="151" r="6" fill="#1D1D1D" stroke="#DB504A" stroke-width="4"/>
<circle cx="203" cy="49" r="6" fill="#1D1D1D" stroke="white" stroke-width="4"/>
<circle cx="78" cy="153" r="6" stroke="#DB504A" stroke-width="4"/>
<circle cx="116" cy="170" r="19" fill="#1D1D1D" stroke="#7C43C5" stroke-width="4"/>
<circle cx="297" cy="199" r="19" fill="#1D1D1D" stroke="#7C43C5" stroke-width="4"/>
<path d="M233.5 330.5L283.605 308.88L344.642 279.181C355.571 273.863 362.544 262.814 362.64 250.661L363.21 179L362.627 105.637C362.537 94.3864 356.546 84.0094 346.848 78.3066L283.605 41.1201L219.779 4.94365C209.991 -0.604189 198.009 -0.604189 188.221 4.94365L124.395 41.1201L61.1524 78.3066C51.4538 84.0094 45.4626 94.3864 45.3732 105.637L44.79 179L45.3596 250.66C45.4562 262.814 52.4291 273.863 63.3576 279.181L124.395 308.88L173.5 330.5" stroke="url(#paint0_linear_211_28)" stroke-width="2" stroke-linecap="round" stroke-dasharray="26 26"/>
<defs>
<linearGradient id="paint0_linear_211_28" x1="204" y1="347.5" x2="94.0979" y2="-21.2443" gradientUnits="userSpaceOnUse">
<stop stop-color="#303030" stop-opacity="0"/>
<stop offset="1" stop-color="#303030"/>
</linearGradient>
</defs>
</svg>
