<svg width="523" height="740" viewBox="0 0 523 740" fill="none" xmlns="http://www.w3.org/2000/svg">
<path d="M260.5 411L260.5 241L337 209" stroke="#303030" stroke-width="4" stroke-linecap="round" stroke-linejoin="round"/>
<path d="M141 155.5L260.5 205L260.5 113" stroke="#303030" stroke-width="4" stroke-linecap="round" stroke-linejoin="round"/>
<circle cx="261" cy="96" r="19" fill="#1D1D1D" stroke="white" stroke-width="4"/>
<circle cx="220" cy="96" r="6" fill="#1D1D1D" stroke="white" stroke-width="4"/>
<circle cx="355" cy="151" r="6" fill="#1D1D1D" stroke="#DB504A" stroke-width="4"/>
<circle cx="261" cy="49" r="6" fill="#1D1D1D" stroke="white" stroke-width="4"/>
<circle cx="136" cy="153" r="6" fill="#1D1D1D" stroke="#DB504A" stroke-width="4"/>
<circle cx="174" cy="170" r="19" fill="#1D1D1D" stroke="#7C43C5" stroke-width="4"/>
<circle cx="355" cy="199" r="19" fill="#1D1D1D" stroke="#7C43C5" stroke-width="4"/>
<path d="M291.5 330.5L341.605 308.88L402.642 279.181C413.571 273.863 420.544 262.814 420.64 250.661L421.21 179L420.627 105.637C420.537 94.3864 414.546 84.0094 404.848 78.3066L341.605 41.1201L277.779 4.94365C267.991 -0.604189 256.009 -0.604189 246.221 4.94365L182.395 41.1201L119.152 78.3066C109.454 84.0094 103.463 94.3864 103.373 105.637L102.79 179L103.36 250.66C103.456 262.814 110.429 273.863 121.358 279.181L182.395 308.88L231.5 330.5" stroke="url(#paint0_linear_680_2606)" stroke-width="2" stroke-linecap="round" stroke-dasharray="26 26"/>
<g filter="url(#filter0_f_680_2606)">
<circle cx="261.5" cy="478.5" r="161.5" fill="#1D1D1D"/>
</g>
<defs>
<filter id="filter0_f_680_2606" x="0" y="217" width="523" height="523" filterUnits="userSpaceOnUse" color-interpolation-filters="sRGB">
<feFlood flood-opacity="0" result="BackgroundImageFix"/>
<feBlend mode="normal" in="SourceGraphic" in2="BackgroundImageFix" result="shape"/>
<feGaussianBlur stdDeviation="50" result="effect1_foregroundBlur_680_2606"/>
</filter>
<linearGradient id="paint0_linear_680_2606" x1="262" y1="347.5" x2="152.098" y2="-21.2443" gradientUnits="userSpaceOnUse">
<stop stop-color="#303030" stop-opacity="0"/>
<stop offset="1" stop-color="#303030"/>
</linearGradient>
</defs>
</svg>
