<svg width="408" height="398" viewBox="0 0 408 398" fill="none" xmlns="http://www.w3.org/2000/svg">
<path opacity="0.1" d="M310.978 73.0807L310.974 73.0846C310.519 73.4952 310.056 73.8775 309.588 74.2481L309.58 74.2544L309.58 74.2543L309.579 74.2556C309.362 74.4206 309.14 74.5887 308.91 74.7573L308.909 74.7579C308.517 75.0428 308.124 75.3106 307.713 75.5697C307.393 75.7745 307.064 75.9697 306.744 76.1601L306.741 76.1619C306.407 76.3605 306.066 76.5401 305.738 76.7128L305.732 76.7155L305.731 76.7165C305.3 76.9408 304.863 77.1458 304.43 77.3399L304.43 77.34C304.171 77.4563 303.912 77.5632 303.662 77.667L303.658 77.6686L303.651 77.6714C303.098 77.8909 302.536 78.1049 301.954 78.2931L301.949 78.2946C301.919 78.3038 301.889 78.3135 301.858 78.3237C301.822 78.3357 301.784 78.3483 301.744 78.3615L301.742 78.3623C301.671 78.3858 301.596 78.411 301.521 78.4342L301.517 78.4357C299.213 79.1295 296.765 79.5214 294.226 79.5214C280.338 79.5214 269.076 68.2606 269.076 54.3736C269.076 50.9729 269.762 47.7323 270.981 44.7774L270.985 44.7676L270.985 44.7677C271.014 44.7019 271.041 44.6378 271.07 44.5697C271.098 44.5029 271.127 44.4323 271.159 44.3589M310.978 73.0807L318.728 55.5863M310.978 73.0807C311.038 73.0257 311.091 72.9769 311.144 72.9277C311.194 72.8821 311.244 72.8362 311.299 72.7848C311.33 72.7565 311.357 72.7249 311.381 72.6907M310.978 73.0807L311.381 72.6907M271.159 44.3589C271.384 43.8386 271.643 43.3297 271.893 42.8374L271.897 42.8306L271.9 42.8239L271.9 42.824C272.068 42.5065 272.236 42.196 272.414 41.8844C272.594 41.5696 272.782 41.2652 272.978 40.963M271.159 44.3589C271.159 44.3593 271.159 44.3597 271.159 44.3601L271.618 44.558L271.16 44.3576C271.16 44.358 271.16 44.3585 271.159 44.3589ZM272.978 40.963C273.275 40.4994 273.587 40.027 273.928 39.5694C273.973 39.5065 274.017 39.4462 274.059 39.3897L274.061 39.3876C274.105 39.3282 274.146 39.2727 274.187 39.2157L274.192 39.2086L274.197 39.2017C276.146 36.665 278.613 34.4481 281.559 32.7478C293.587 25.8043 308.962 29.9259 315.906 41.9523L315.906 41.9531C317.17 44.1502 318.069 46.4556 318.612 48.8069C318.631 48.8862 318.647 48.9624 318.662 49.0328L318.663 49.0348C318.678 49.1076 318.692 49.1742 318.708 49.2422L318.711 49.2544L318.711 49.2545C318.835 49.8482 318.942 50.4449 319.022 51.0439L319.023 51.0464C319.058 51.3162 319.093 51.6009 319.12 51.8788C319.174 52.3602 319.209 52.8417 319.227 53.3233C319.245 53.7053 319.254 54.0873 319.254 54.4608V54.4687C319.254 54.8375 319.254 55.2261 319.227 55.6175M272.978 40.963C272.978 40.9633 272.977 40.9636 272.977 40.9639L273.398 41.2339L272.978 40.9622C272.978 40.9625 272.978 40.9628 272.978 40.963ZM319.227 55.6175C319.227 55.6187 319.226 55.6199 319.226 55.6211L318.728 55.5863M319.227 55.6175C319.227 55.6164 319.227 55.6152 319.227 55.614L318.728 55.5863M319.227 55.6175C319.201 56.0845 319.174 56.5577 319.12 57.0418M318.728 55.5863C318.701 56.0575 318.675 56.5199 318.623 56.991M319.12 57.0418C319.12 57.0405 319.121 57.0391 319.121 57.0377L318.623 56.991M319.12 57.0418C319.096 57.3001 319.065 57.5511 319.034 57.7988C319.03 57.8265 319.027 57.8542 319.023 57.8819L319.023 57.8865C318.942 58.4854 318.835 59.0825 318.711 59.6686L318.708 59.6794L318.708 59.6794C318.693 59.7456 318.679 59.8129 318.663 59.8882L318.663 59.8914C318.648 59.9635 318.631 60.0433 318.612 60.1242M319.12 57.0418C319.12 57.0433 319.12 57.0448 319.12 57.0462L318.623 56.991M318.623 56.991L318.612 60.1242M318.612 60.1242L318.126 60.0098L318.612 60.1244C318.612 60.1243 318.612 60.1242 318.612 60.1242ZM318.612 60.1242C318.061 62.4735 317.17 64.7788 315.906 66.9772C314.656 69.1522 313.118 71.0567 311.381 72.6907M318.612 60.1242L311.381 72.6907M274.794 19.1212L274.794 19.1212L274.799 19.1181C275.709 18.6179 276.64 18.1533 277.59 17.7241C280.098 16.5923 281.917 14.1767 281.917 11.3664V6C281.917 2.96243 284.379 0.5 287.417 0.5H301.009C304.047 0.5 306.509 2.96244 306.509 6.00001V11.3538C306.509 14.1661 308.33 16.5833 310.836 17.721C313.266 18.8243 315.568 20.1607 317.71 21.7025C319.95 23.3142 322.962 23.6889 325.404 22.2794L330.063 19.5906C332.694 18.0723 336.057 18.974 337.576 21.6047L344.369 33.3733C345.887 36.004 344.986 39.3677 342.355 40.8862L336.871 44.0517C334.896 45.1918 333.928 47.449 334.186 49.6656C334.362 51.1796 334.454 52.7208 334.457 54.2845C334.452 54.3148 334.449 54.3459 334.449 54.3779C334.448 56.0039 334.348 57.6102 334.158 59.1886C333.885 61.4554 334.874 63.7648 336.893 64.9304L342.347 68.0789C344.977 69.5975 345.879 72.961 344.36 75.5917L337.568 87.36C336.049 89.9909 332.685 90.8925 330.054 89.3738L325.312 86.6363C322.868 85.2252 319.853 85.6017 317.611 87.2126C316.533 87.9863 315.408 88.7137 314.237 89.3898L314.236 89.3901C313.11 90.0422 311.967 90.6315 310.809 91.1606C308.313 92.3018 306.5 94.7141 306.5 97.5193V102.974C306.5 106.012 304.038 108.474 301 108.474H287.408C284.371 108.474 281.908 106.012 281.908 102.974V97.5946C281.908 94.7774 280.081 92.3569 277.567 91.2238C275.163 90.1401 272.857 88.8178 270.689 87.2666C268.449 85.6635 265.441 85.2925 263.003 86.7009L258.363 89.3805C255.732 90.9002 252.368 89.9988 250.849 87.3675L244.056 75.5992C242.538 72.9689 243.439 69.606 246.069 68.087L250.724 65.398C253.155 63.9937 254.339 61.2139 254.068 58.4784C253.966 57.4395 253.903 56.4004 253.881 55.3629V55.3612V55.3595V55.3578V55.356V55.3543V55.3526V55.3508V55.3491V55.3473V55.3456V55.3439V55.3421V55.3404V55.3387V55.3369V55.3352V55.3335V55.3317V55.33V55.3283V55.3265V55.3248V55.3231V55.3213V55.3196V55.3179V55.3161V55.3144V55.3127V55.3109V55.3092V55.3075V55.3057V55.304V55.3023V55.3005V55.2988V55.2971V55.2954V55.2936V55.2919V55.2902V55.2884V55.2867V55.285V55.2832V55.2815V55.2798V55.2781V55.2763V55.2746V55.2729V55.2712V55.2694V55.2677V55.266V55.2642V55.2625V55.2608V55.2591V55.2573V55.2556V55.2539V55.2522V55.2504V55.2487V55.247V55.2453V55.2435V55.2418V55.2401V55.2384V55.2366V55.2349V55.2332V55.2315V55.2297V55.228V55.2263V55.2246V55.2228V55.2211V55.2194V55.2177V55.216V55.2142V55.2125V55.2108V55.2091V55.2073V55.2056V55.2039V55.2022V55.2005V55.1987V55.197V55.1953V55.1936V55.1919V55.1901V55.1884V55.1867V55.185V55.1833V55.1815V55.1798V55.1781V55.1764V55.1747V55.173V55.1712V55.1695V55.1678V55.1661V55.1644V55.1627V55.1609V55.1592V55.1575V55.1558V55.1541V55.1524V55.1506V55.1489V55.1472V55.1455V55.1438V55.1421V55.1403V55.1386V55.1369V55.1352V55.1335V55.1318V55.1301V55.1283V55.1266V55.1249V55.1232V55.1215V55.1198V55.1181V55.1163V55.1146V55.1129V55.1112V55.1095V55.1078V55.1061V55.1044V55.1026V55.1009V55.0992V55.0975V55.0958V55.0941V55.0924V55.0907V55.0889V55.0872V55.0855V55.0838V55.0821V55.0804V55.0787V55.077V55.0753V55.0736V55.0718V55.0701V55.0684V55.0667V55.065V55.0633V55.0616V55.0599V55.0582V55.0565V55.0548V55.053V55.0513V55.0496V55.0479V55.0462V55.0445V55.0428V55.0411V55.0394V55.0377V55.036V55.0343V55.0326V55.0309V55.0291V55.0274V55.0257V55.024V55.0223V55.0206V55.0189V55.0172V55.0155V55.0138V55.0121V55.0104V55.0087V55.007V55.0053V55.0036V55.0019V55.0002V54.9985V54.9967V54.995V54.9933V54.9916V54.9899V54.9882V54.9865V54.9848V54.9831V54.9814V54.9797V54.978V54.9763V54.9746V54.9729V54.9712V54.9695V54.9678V54.9661V54.9644V54.9627V54.961V54.9593V54.9576V54.9559V54.9542V54.9525V54.9508V54.9491V54.9474V54.9457V54.944V54.9423V54.9406V54.9389V54.9372V54.9355V54.9338V54.9321V54.9304V54.9287V54.927V54.9253V54.9236V54.9219V54.9202V54.9185V54.9168V54.9151V54.9134V54.9117V54.91V54.9083V54.9066V54.9049V54.9032V54.9015V54.8998V54.8981V54.8964V54.8947V54.893V54.8913V54.8896V54.8879V54.8862V54.8845V54.8828V54.8811V54.8794V54.8777V54.876V54.8743V54.8726V54.8709V54.8692V54.8675V54.8658V54.8641V54.8624V54.8608V54.8591V54.8574V54.8557V54.854V54.8523V54.8506V54.8489V54.8472V54.8455V54.8438V54.8421V54.8404V54.8387V54.837V54.8353V54.8336V54.8319V54.8302V54.8285V54.8268V54.8252V54.8235V54.8218V54.8201V54.8184V54.8167V54.815V54.8133V54.8116V54.8099V54.8082V54.8065V54.8048V54.8031V54.8014V54.7997V54.798V54.7964V54.7947V54.793V54.7913V54.7896V54.7879V54.7862V54.7845V54.7828V54.7811V54.7794V54.7777V54.776V54.7743V54.7727V54.771V54.7693V54.7676V54.7659V54.7642V54.7625V54.7608V54.7591V54.7574V54.7557V54.754V54.7524V54.7507V54.749V54.7473V54.7456V54.7439V54.7422V54.7405V54.7388V54.7371V54.7354V54.7338V54.7321V54.7304V54.7287V54.727V54.7253V54.7236V54.7219V54.7202V54.7185V54.7168V54.7152V54.7135V54.7118V54.7101V54.7084V54.7067V54.705V54.7033V54.7016V54.6999V54.6983V54.6966V54.6949V54.6932V54.6915V54.6898V54.6881V54.6864V54.6847V54.683V54.6814V54.6797V54.678V54.6763V54.6746V54.6729V54.6712V54.6695V54.6678V54.6662V54.6645V54.6628V54.6611V54.6594V54.6577V54.656V54.6543V54.6526V54.651V54.6493V54.6476V54.6459V54.6442V54.6425V54.6408V54.6391V54.6374V54.6358V54.6341V54.6324V54.6307V54.629V54.6273V54.6256V54.6239V54.6223V54.6206V54.6189V54.6172V54.6155V54.6138V54.6121V54.6104V54.6087V54.6071V54.6054V54.6037V54.602V54.6003V54.5986V54.5969V54.5952V54.5936V54.5919V54.5902V54.5885V54.5868V54.5851V54.5834V54.5817V54.5801V54.5784V54.5767V54.575V54.5733V54.5716V54.5699V54.5682V54.5666V54.5649V54.5632V54.5615V54.5598V54.5581V54.5564V54.5547V54.5531V54.5514V54.5497V54.548V54.5463V54.5446V54.5429V54.5412V54.5396V54.5379V54.5362V54.5345V54.5328V54.5311V54.5294V54.5278V54.5261V54.5244V54.5227V54.521V54.5193V54.5176V54.5159V54.5143V54.5126V54.5109V54.5092V54.5075V54.5058V54.5041V54.5024V54.5008V54.4991V54.4974V54.4957V54.494V54.4922V54.4905V54.4887V54.487V54.4853V54.4835V54.4818V54.48V54.4783V54.4766V54.4748V54.4731V54.4713V54.4696V54.4679V54.4661V54.4644V54.4626V54.4609V54.4592V54.4574V54.4557V54.4539V54.4522V54.4504V54.4487V54.447V54.4452V54.4435V54.4417V54.44V54.4382V54.4365V54.4347V54.433V54.4313V54.4295V54.4278V54.426V54.4243V54.4225V54.4208V54.419V54.4173V54.4155V54.4138V54.412V54.4103V54.4086V54.4068V54.4051V54.4033V54.4016V54.3998V54.3981V54.3963V54.3946V54.3928V54.3911V54.3893V54.3876V54.3858V54.3841V54.3823V54.3806V54.3788V54.3771V54.3753V54.3736V54.3718V54.3701V54.3683V54.3666V54.3648V54.3631V54.3613V54.3596V54.3578V54.3561V54.3543V54.3526V54.3508V54.3491V54.3473V54.3456V54.3438V54.3421V54.3403V54.3385V54.3368V54.335V54.3333V54.3315V54.3298V54.328V54.3263V54.3245V54.3228V54.321V54.3193V54.3175V54.3158V54.314V54.3122V54.3105V54.3087V54.307V54.3052V54.3035V54.3017V54.3V54.2982V54.2964V54.2947V54.2929V54.2912V54.2894V54.2877V54.2859V54.2841V54.2824V54.2806V54.2789V54.2771V54.2754V54.2736V54.2719V54.2701V54.2683V54.2666V54.2648V54.2631V54.2613V54.2595V54.2578V54.256V54.2543V54.2525V54.2508V54.249V54.2472V54.2455V54.2437V54.242V54.2402V54.2384V54.2367V54.2349V54.2332V54.2314V54.2296V54.2279V54.2261V54.2244V54.2226V54.2208V54.2191V54.2173V54.2156V54.2138V54.212V54.2103V54.2085V54.2068V54.205V54.2032V54.2015V54.1997V54.198V54.1962V54.1944V54.1927V54.1909V54.1892V54.1874V54.1856V54.1839V54.1821V54.1804V54.1786V54.1768V54.1751V54.1733V54.1715V54.1698V54.168V54.1663V54.1645V54.1627V54.161V54.1592V54.1574V54.1557V54.1539V54.1522V54.1504V54.1486V54.1469V54.1451V54.1433V54.1416V54.1398V54.1381V54.1363V54.1345V54.1328V54.131V54.1292V54.1275V54.1257V54.124V54.1222V54.1204V54.1187V54.1169V54.1151V54.1134V54.1116V54.1099V54.1081V54.1063V54.1046V54.1028V54.101V54.0993V54.0975V54.0957V54.094V54.0922V54.0905V54.0887V54.0869V54.0852V54.0834V54.0816V54.0799V54.0781V54.0763V54.0746V54.0728V54.0711V54.0693V54.0675V54.0658V54.064V54.0622V54.0605V54.0587V54.0569V54.0552V54.0534V54.0517V54.0499V54.0481V54.0464V54.0446V54.0428V54.0411V54.0393V54.0375V54.0358V54.034V54.0323V54.0305V54.0287V54.027V54.0252V54.0234V54.0217V54.0199V54.0181V54.0164V54.0146V54.0129V54.0111V54.0093V54.0076V54.0058V54.004V54.0023V54.0005V53.9987V53.997V53.9952V53.9935V53.9917V53.9899V53.9882V53.9864V53.9846V53.9829V53.9811V53.9794V53.9776V53.9758V53.9741V53.9723V53.9705V53.9688V53.967V53.9652V53.9635V53.9617V53.96V53.9582V53.9564V53.9547V53.9529V53.9511V53.9494V53.9476V53.9459V53.9441V53.9423V53.9406V53.9388V53.937V53.9353V53.9335V53.9318V53.93V53.9282V53.9265V53.9247V53.923V53.9212V53.9194V53.9177V53.9159V53.9141V53.9124V53.9106V53.9089V53.9071V53.9053V53.9036V53.9018V53.9001V53.8983V53.8965V53.8948V53.893V53.8912V53.8895V53.8877V53.886V53.8842V53.8824V53.8807V53.8789V53.8772V53.8754V53.8736V53.8719V53.8701V53.8684V53.8666V53.8648V53.8631V53.8613V53.8596V53.8578V53.856V53.8543V53.8525V53.8508V53.849V53.8473V53.8455V53.8437V53.842V53.8402V53.8385V53.8367V53.8349V53.8332V53.8314V53.8297V53.8279V53.8262V53.8244V53.8226V53.8209V53.8191V53.8174V53.8156V53.8139V53.8121V53.8103V53.8086V53.8068V53.8051V53.8033V53.8016V53.7998V53.798V53.7963V53.7945V53.7928V53.791V53.7893V53.7875V53.7858V53.784V53.7822V53.7805V53.7787V53.777V53.7752V53.7735V53.7717V53.77V53.7682V53.7665V53.7647V53.763V53.7612V53.7594V53.7577V53.7559V53.7542V53.7524V53.7507V53.7489V53.7472V53.7454V53.7437V53.7419V53.7402V53.7384V53.7367V53.7349V53.7332V53.7314V53.7297V53.7279V53.7262V53.7244V53.7227V53.7209V53.7192V53.7174V53.7156V53.7139V53.7122V53.7104V53.7087V53.7069V53.7052V53.7034V53.7017V53.6999V53.6982V53.6964V53.6947V53.6929V53.6912V53.6894V53.6877V53.6859V53.6842V53.6824V53.6807V53.6789V53.6772V53.6754V53.6737V53.672V53.6702V53.6685V53.6667V53.665V53.6632V53.6615V53.6597V53.658V53.6562V53.6545V53.6528V53.651V53.6493V53.6475V53.6458V53.644V53.6423V53.6405V53.6388V53.6371V53.6353V53.6336V53.6318V53.6301V53.6284V53.6266V53.6249V53.6231V53.6214V53.6196V53.6179V53.6162V53.6144V53.6127V53.6109V53.6092V53.6075V53.6057V53.604V53.6022V53.6015C253.9 52.5725 253.959 51.542 254.06 50.5124C254.327 47.7693 253.148 44.976 250.708 43.5665L246.069 40.8869C243.439 39.3679 242.538 36.005 244.056 33.3748L250.849 21.6065C252.368 18.9752 255.732 18.0738 258.363 19.5934L263.002 22.2725C265.44 23.6812 268.449 23.3099 270.689 21.7058C271.533 21.1017 272.398 20.5321 273.282 19.9978L273.282 19.9978L273.286 19.9948C273.438 19.9009 273.58 19.8203 273.731 19.735C273.83 19.6792 273.933 19.6213 274.043 19.5563C274.121 19.511 274.195 19.4667 274.268 19.4234C274.447 19.3167 274.616 19.216 274.794 19.1212Z" stroke="white"/>
<path opacity="0.1" d="M361.944 112.618L361.944 112.618C361.879 112.652 361.815 112.689 361.742 112.731L361.739 112.733C361.673 112.771 361.6 112.813 361.524 112.854C361.451 112.899 361.379 112.941 361.313 112.978L361.31 112.98C361.237 113.022 361.172 113.059 361.112 113.097L361.106 113.101L361.106 113.101C360.961 113.189 360.817 113.278 360.674 113.369C358.69 114.634 356.109 114.979 353.995 113.758C351.774 112.476 348.935 113.237 347.652 115.457L345.576 119.051C344.296 121.268 345.055 124.103 347.272 125.383C349.389 126.605 350.378 129.02 350.28 131.371C350.273 131.536 350.268 131.7 350.265 131.864V131.864V131.865V131.866V131.867V131.868V131.869V131.87V131.871V131.872V131.873V131.874V131.875V131.876V131.877V131.878V131.879V131.88V131.881V131.882V131.883V131.884V131.885V131.886V131.887V131.888V131.889V131.89V131.891V131.891V131.892V131.893V131.894V131.895V131.896V131.897V131.898V131.899V131.9V131.901V131.902V131.903V131.904V131.905V131.906V131.907V131.908V131.909V131.91V131.911V131.912V131.913V131.914V131.915V131.916V131.917V131.918V131.919V131.92V131.921V131.922V131.923V131.924V131.925V131.926V131.927V131.928V131.929V131.93V131.931V131.932V131.933V131.934V131.935V131.936V131.937V131.938V131.939V131.94V131.941V131.942V131.943V131.944V131.945V131.946V131.946V131.947V131.948V131.949V131.95V131.951V131.952V131.953V131.954V131.955V131.956V131.957V131.958V131.959V131.96V131.961V131.962V131.963V131.964V131.965V131.966V131.967V131.968V131.969V131.97V131.971V131.972V131.973V131.974V131.975V131.976V131.977V131.978V131.979V131.98V131.981V131.982V131.983V131.984V131.985V131.986V131.987V131.988V131.989V131.99V131.991V131.992V131.993V131.994V131.995V131.996V131.997V131.998V131.999V132V132.001V132.002V132.003V132.004V132.005V132.006V132.007V132.008V132.009V132.01V132.011V132.012V132.013V132.014V132.015V132.016V132.017V132.018V132.019V132.02V132.021V132.022V132.023V132.024V132.025V132.026V132.027V132.028V132.029V132.03V132.031V132.032V132.033V132.034V132.035V132.036V132.037V132.038V132.039V132.04V132.041V132.042V132.043V132.044V132.045V132.046V132.047V132.048V132.049V132.05V132.051V132.052V132.053V132.054V132.055V132.056V132.057V132.058V132.059V132.06V132.061V132.062V132.063V132.064V132.065V132.066V132.067V132.068V132.069V132.07V132.071V132.071V132.072V132.073V132.074V132.075V132.076V132.077V132.078V132.079V132.08V132.081V132.082V132.083V132.084V132.085V132.086V132.087V132.088V132.089V132.09V132.091V132.092V132.093V132.094V132.095V132.096V132.097V132.098V132.099V132.1V132.101V132.102V132.103V132.104V132.105V132.106V132.107V132.108V132.109V132.11V132.111V132.112V132.113V132.114V132.115V132.116V132.117V132.118V132.119V132.12V132.121V132.122V132.123V132.124V132.125V132.126V132.127V132.128V132.129V132.13V132.131V132.132V132.133V132.134V132.135V132.136V132.137V132.138V132.139V132.14V132.141V132.142V132.143V132.144V132.145V132.146V132.147V132.148V132.149V132.15V132.151V132.152V132.153V132.154V132.155V132.156V132.157V132.158V132.159V132.16V132.161V132.162V132.163V132.164V132.165V132.166V132.167V132.168V132.169V132.17V132.171V132.172V132.173V132.174V132.175V132.176V132.177V132.178V132.179V132.18V132.181V132.182V132.183V132.184V132.185V132.186V132.187V132.188V132.189V132.19V132.191V132.192V132.193V132.194V132.195V132.196V132.197V132.198V132.199V132.2V132.201V132.202V132.203V132.204V132.205V132.206V132.207V132.208V132.209V132.21V132.211V132.212V132.213V132.214V132.215V132.216V132.217V132.218V132.219V132.22V132.221V132.222V132.223V132.224V132.225V132.226V132.227V132.228V132.229V132.23V132.231V132.232V132.233V132.234V132.235V132.236V132.237V132.238V132.239V132.24V132.241V132.242V132.243V132.244V132.245V132.246V132.247V132.248V132.249V132.25V132.251V132.252V132.253V132.254V132.255V132.256V132.257V132.258V132.258V132.259V132.26V132.261V132.262V132.263V132.264V132.265V132.266V132.267V132.268V132.269V132.27V132.271V132.272V132.273V132.274V132.275V132.276V132.277V132.278V132.279V132.28V132.281V132.282V132.283V132.284V132.285V132.286V132.287V132.288V132.289V132.29V132.291V132.292V132.293V132.294V132.295V132.296V132.297V132.298V132.299V132.3V132.301V132.302V132.303V132.304V132.305V132.306V132.307V132.308V132.309V132.31V132.311V132.312V132.313V132.314V132.315V132.316V132.317V132.318V132.319V132.32V132.321V132.321V132.322V132.323V132.324V132.325V132.326V132.327V132.328V132.329V132.33V132.331V132.332V132.333V132.334V132.335V132.336V132.337V132.338V132.339V132.34V132.341V132.342V132.343V132.344V132.345V132.346V132.347V132.348V132.349V132.35V132.351V132.352V132.353V132.354V132.355V132.356V132.357V132.358V132.359V132.36V132.361V132.361V132.362V132.363V132.364V132.365V132.366V132.367V132.368V132.369V132.37V132.371V132.372V132.373V132.374V132.375V132.376V132.377V132.378V132.379V132.38V132.381V132.382V132.383V132.384V132.385V132.386V132.387V132.388V132.389V132.39V132.391V132.392V132.393V132.393V132.394V132.395V132.396V132.397V132.398V132.399V132.4V132.401V132.402V132.403V132.404V132.405V132.406V132.407V132.408V132.409V132.41V132.411V132.412V132.413V132.414V132.415V132.416V132.417V132.418V132.419V132.419V132.42V132.421V132.422V132.423V132.424V132.425V132.426V132.427V132.428V132.429V132.43V132.431V132.432V132.433V132.434V132.435V132.436V132.437V132.438V132.439V132.44V132.441V132.442V132.443V132.443V132.444V132.445V132.446V132.447V132.448V132.449V132.45V132.451V132.452V132.453V132.454V132.455V132.456V132.457V132.458V132.459V132.46V132.461V132.462V132.463V132.464V132.465V132.465V132.466V132.467V132.468V132.469V132.47V132.471V132.472V132.473V132.474V132.475V132.476V132.477V132.478V132.479V132.48V132.481V132.482V132.483V132.484V132.485V132.485V132.486V132.487V132.488V132.489V132.49V132.491V132.492V132.493V132.494V132.495V132.496V132.497V132.498V132.499V132.5V132.501V132.502V132.503V132.504V132.505V132.505V132.506V132.507V132.508V132.509V132.51V132.511V132.512V132.513V132.514V132.515V132.516V132.517V132.518V132.519V132.52V132.521V132.522V132.523V132.524V132.524V132.525V132.526V132.527V132.528V132.529V132.53V132.531V132.532V132.533V132.534V132.535V132.536V132.537V132.538V132.539V132.54V132.541V132.542V132.542V132.543V132.544V132.545V132.546V132.547V132.548V132.549V132.55V132.551V132.552V132.553V132.554V132.555V132.556V132.557V132.558V132.559V132.56V132.56V132.561V132.562V132.563V132.564V132.565V132.566V132.567V132.568V132.569V132.57V132.571V132.572V132.573V132.574V132.575V132.576V132.577V132.578V132.578V132.579V132.58V132.581V132.582V132.583V132.584V132.585V132.586V132.587V132.588V132.589V132.59V132.591V132.592V132.593V132.594V132.595V132.595V132.596V132.597V132.598V132.599V132.6V132.601V132.602V132.603V132.604V132.605V132.606V132.607V132.608V132.609V132.61V132.611V132.612V132.613V132.613V132.614V132.615V132.616V132.617V132.618V132.619V132.62V132.621V132.622V132.623V132.624V132.625V132.626V132.627V132.628V132.629V132.63V132.63V132.631V132.632V132.633V132.634V132.635V132.636V132.637V132.638V132.639V132.64V132.641V132.642V132.643V132.644V132.645V132.646V132.647V132.648V132.648V132.649V132.65V132.651V132.652V132.653V132.654V132.655V132.656V132.657V132.658V132.659V132.66V132.661V132.662V132.663V132.664V132.665V132.666V132.666V132.667V132.668V132.669V132.67V132.671V132.672V132.673V132.674V132.675V132.676V132.677V132.678V132.679V132.68V132.681V132.682V132.683V132.684V132.684V132.685V132.686V132.687V132.688V132.689V132.69V132.691V132.692V132.693V132.694V132.695V132.696V132.697V132.698V132.699V132.7V132.701V132.702V132.702V132.703V132.704V132.705V132.706V132.707V132.708V132.709V132.71V132.711V132.712V132.713V132.714V132.715V132.716V132.717V132.718V132.719V132.72V132.721V132.721V132.722V132.723V132.724V132.725V132.726V132.727V132.728V132.729V132.73V132.731V132.732V132.733V132.734V132.735V132.736V132.737V132.738V132.739V132.74V132.741V132.741V132.742V132.743V132.744V132.745V132.746V132.747V132.748V132.749V132.75V132.751V132.752V132.753V132.754V132.755V132.756V132.757V132.758V132.759V132.76V132.761V132.762V132.762V132.763V132.764V132.765V132.766V132.767V132.768V132.769V132.77V132.771V132.772V132.773V132.774V132.775V132.776V132.777V132.778V132.779V132.78V132.781V132.782V132.783V132.784V132.785V132.785V132.786V132.787V132.788V132.789V132.79V132.791V132.792V132.793V132.794V132.795V132.796V132.797V132.798V132.799V132.8V132.801V132.802V132.803V132.804V132.805V132.806V132.807V132.808V132.809V132.809V132.81V132.811V132.812V132.813V132.814V132.815V132.816V132.817V132.818V132.819V132.82V132.821V132.822V132.823V132.824V132.825V132.826V132.827V132.828V132.829V132.83V132.831V132.832V132.833V132.834V132.835V132.836V132.837V132.837V132.838V132.839V132.84V132.841V132.842V132.843V132.844V132.845V132.846V132.847V132.848V132.849V132.849C350.268 133.013 350.273 133.178 350.28 133.342C350.378 135.694 349.389 138.108 347.272 139.331C345.055 140.611 344.296 143.445 345.576 145.662L347.655 149.261C348.936 151.479 351.772 152.239 353.99 150.958C356.106 149.736 358.691 150.085 360.679 151.346C361.228 151.695 361.792 152.02 362.367 152.318C364.463 153.407 366.067 155.477 366.067 157.929C366.067 160.491 368.144 162.568 370.707 162.568H374.824C377.401 162.568 379.491 160.479 379.491 157.902C379.491 155.449 381.087 153.373 383.177 152.272C383.438 152.134 383.698 151.991 383.955 151.843C384.241 151.677 384.521 151.505 384.797 151.329C386.796 150.052 389.4 149.706 391.53 150.936C393.769 152.229 396.632 151.462 397.925 149.223L399.96 145.699C401.252 143.462 400.486 140.601 398.249 139.31L395.956 137.986C395.201 137.55 394.83 136.689 394.964 135.854C395.149 134.697 395.249 133.509 395.249 132.302L361.944 112.618ZM361.944 112.618L361.951 112.614C362.097 112.534 362.245 112.455 362.393 112.378C364.481 111.29 366.076 109.226 366.076 106.782C366.076 104.221 368.152 102.145 370.713 102.145H374.862C377.423 102.145 379.499 104.221 379.499 106.782C379.499 109.226 381.094 111.291 383.181 112.379C383.76 112.68 384.323 113.006 384.871 113.355C386.863 114.625 389.46 114.982 391.585 113.755C393.803 112.475 396.639 113.234 397.92 115.452L399.981 119.02C401.271 121.254 400.506 124.111 398.272 125.401L395.968 126.732C395.227 127.16 394.863 128.004 394.99 128.823C395.163 129.927 395.253 131.054 395.258 132.207M361.944 112.618L395.258 132.207M395.258 132.207C395.252 132.237 395.249 132.269 395.249 132.302L395.258 132.207ZM381.586 143.679L381.582 143.682L381.576 143.687C381.46 143.778 381.327 143.882 381.183 143.979C380.961 144.139 380.738 144.291 380.515 144.433C380.334 144.55 380.143 144.669 379.951 144.779L379.945 144.782C379.767 144.884 379.574 144.994 379.371 145.096C379.128 145.222 378.887 145.338 378.639 145.453L378.629 145.457L378.629 145.457C378.557 145.489 378.483 145.52 378.412 145.55L378.41 145.551C378.338 145.582 378.268 145.611 378.202 145.64L378.194 145.644L378.187 145.646C377.883 145.768 377.553 145.897 377.209 145.999C377.134 146.025 377.051 146.052 376.959 146.08L381.586 143.679ZM381.586 143.679L381.592 143.674C381.848 143.47 382.12 143.252 382.376 143.015M381.586 143.679L382.32 142.962C382.293 142.966 382.265 142.969 382.238 142.969C382.265 142.969 382.293 142.967 382.32 142.962L382.37 143.02C382.372 143.018 382.374 143.016 382.376 143.015M359.491 126.805L359.491 126.805C359.501 126.782 359.51 126.76 359.523 126.728C359.526 126.721 359.528 126.714 359.532 126.706C359.546 126.671 359.565 126.623 359.589 126.573C359.718 126.271 359.863 125.982 360.012 125.701L360.016 125.694L360.016 125.694C360.042 125.647 360.069 125.596 360.099 125.541C360.162 125.421 360.234 125.287 360.308 125.162C360.411 124.977 360.52 124.803 360.622 124.643L360.625 124.639L360.625 124.638C360.795 124.37 360.975 124.099 361.166 123.836L361.171 123.829L361.171 123.829C361.195 123.797 361.218 123.766 361.242 123.733C361.266 123.701 361.291 123.666 361.319 123.628L361.323 123.623L361.323 123.623C362.443 122.169 363.854 120.903 365.536 119.935C372.424 115.959 381.219 118.318 385.197 125.205L385.197 125.206C385.919 126.461 386.435 127.78 386.751 129.128L386.753 129.133L386.753 129.133C386.762 129.176 386.771 129.22 386.78 129.261C386.789 129.303 386.797 129.342 386.805 129.378L386.806 129.383L386.806 129.383C386.879 129.728 386.933 130.062 386.985 130.394L386.987 130.405L386.988 130.417C386.995 130.479 387.002 130.54 387.009 130.602L387.014 130.647C387.023 130.723 387.032 130.8 387.041 130.879L387.041 130.885L387.041 130.885C387.067 131.14 387.084 131.402 387.1 131.647L387.104 131.695L387.104 131.708L387.104 131.708L387.104 131.712C387.113 131.918 387.122 132.137 387.122 132.357V132.366C387.122 132.566 387.122 132.796 387.104 133.023C387.094 133.299 387.067 133.581 387.041 133.837L387.041 133.843L387.041 133.843L387.04 133.844C387.023 134.001 387.005 134.159 386.988 134.308L386.987 134.315L386.987 134.315C386.941 134.664 386.877 135 386.807 135.336C386.798 135.382 386.788 135.425 386.78 135.465L386.78 135.465C386.771 135.507 386.763 135.546 386.755 135.587L386.753 135.595L386.751 135.603C386.435 136.948 385.929 138.268 385.206 139.525C384.482 140.781 383.589 141.883 382.589 142.829M359.491 126.805L382.245 142.466M359.491 126.805L359.486 126.817M359.491 126.805L359.486 126.817M382.589 142.829L382.245 142.466M382.589 142.829C382.589 142.829 382.589 142.829 382.589 142.829L382.245 142.466M382.589 142.829C382.571 142.846 382.552 142.862 382.532 142.876M382.245 142.466C382.243 142.468 382.24 142.469 382.238 142.469C382.235 142.469 382.232 142.47 382.23 142.472C382.177 142.525 382.123 142.571 382.064 142.623C382.057 142.63 382.049 142.637 382.041 142.643L382.238 142.855L382.334 142.959C382.427 142.94 382.513 142.895 382.58 142.829M382.532 142.876C382.548 142.86 382.564 142.845 382.58 142.829M382.532 142.876C382.472 142.917 382.405 142.946 382.335 142.959L382.381 143.01C382.38 143.011 382.378 143.013 382.376 143.015M382.532 142.876C382.483 142.921 382.436 142.963 382.393 143C382.387 143.005 382.381 143.01 382.376 143.015M382.58 142.829C382.581 142.828 382.582 142.827 382.583 142.827M382.58 142.829C382.581 142.828 382.582 142.827 382.583 142.827M382.583 142.827C382.583 142.826 382.583 142.826 382.583 142.826L382.238 142.48L382.583 142.827ZM359.486 126.817C358.781 128.516 358.392 130.37 358.392 132.313C358.392 140.258 364.837 146.703 372.783 146.703C374.24 146.703 375.641 146.477 376.958 146.08L359.486 126.817Z" stroke="white"/>
<path opacity="0.1" d="M55.7897 241.741C55.721 241.576 55.6578 241.406 55.5957 241.239C55.5789 241.194 55.5621 241.149 55.5454 241.104C55.521 241.04 55.4966 240.978 55.4723 240.915C55.41 240.755 55.3489 240.598 55.2923 240.441C55.1158 239.961 54.9512 239.477 54.7988 238.987C54.0288 236.516 52.0723 234.501 49.5141 234.102L47.5634 233.799C44.2899 233.289 42.0488 230.223 42.5573 226.949L43.7957 218.975C44.3044 215.7 47.3724 213.458 50.6474 213.968L52.5866 214.27C55.1484 214.668 57.631 213.341 59.1154 211.215C59.4082 210.796 59.7104 210.385 60.0216 209.982L55.7897 241.741ZM55.7897 241.741C55.9863 242.217 56.1945 242.689 56.4144 243.157C57.5143 245.496 57.4178 248.3 55.7964 250.313L54.5549 251.854C52.4758 254.436 52.8841 258.214 55.4666 260.292L61.7536 265.351C64.3346 267.428 68.1101 267.02 70.188 264.44L71.4314 262.896C73.0535 260.882 75.7737 260.19 78.2962 260.76C79.7466 261.087 81.2133 261.312 82.6849 261.435C85.2691 261.651 87.6602 263.138 88.5961 265.556L89.3114 267.405C90.5076 270.496 93.9836 272.031 97.0743 270.834L104.599 267.919C107.689 266.722 109.224 263.247 108.027 260.157L107.283 258.235C106.353 255.834 107.102 253.144 108.847 251.251C109.328 250.729 109.795 250.188 110.246 249.628L55.7897 241.741ZM61.2751 209.224L61.2766 209.222C61.6017 208.836 61.9356 208.458 62.2786 208.088C64.1409 206.077 64.9814 203.174 63.9635 200.548L63.2498 198.706C62.152 195.874 63.5586 192.687 66.3914 191.59L73.9181 188.674C76.7502 187.577 79.9356 188.983 81.0331 191.815L81.7473 193.658C82.7654 196.285 85.3432 197.862 88.0738 198.096C89.5278 198.22 90.9659 198.446 92.3779 198.769C95.0558 199.381 97.9991 198.662 99.7696 196.462L101.011 194.92C102.915 192.553 106.377 192.179 108.743 194.083L115.031 199.142C117.398 201.046 117.772 204.508 115.868 206.875L114.582 208.474C112.821 210.662 112.737 213.672 113.889 216.15C114.175 216.765 114.444 217.394 114.694 218.035C114.699 218.053 114.705 218.071 114.711 218.088C114.98 218.784 115.222 219.483 115.438 220.183C116.248 222.806 118.345 224.993 121.134 225.426L123.166 225.741C126.168 226.207 128.223 229.018 127.757 232.02L126.519 239.994C126.053 242.995 123.242 245.05 120.241 244.585L118.196 244.267C115.413 243.836 112.756 245.277 111.191 247.528C110.77 248.134 110.325 248.73 109.857 249.315C109.412 249.866 108.953 250.398 108.48 250.912C106.631 252.917 105.805 255.804 106.817 258.416L107.561 260.338C108.658 263.17 107.251 266.355 104.419 267.453L96.8937 270.368C94.0606 271.465 90.8742 270.058 89.7777 267.224L89.0624 265.376C88.0442 262.745 85.462 261.165 82.7265 260.937C81.2778 260.816 79.8341 260.595 78.4064 260.272C75.7363 259.669 72.8067 260.391 71.042 262.582L69.7985 264.126C67.8939 266.491 64.4329 266.865 62.0671 264.962L55.7801 259.903C53.4127 257.998 53.0385 254.535 54.9444 252.168L56.1858 250.626C57.9498 248.436 58.0316 245.421 56.8669 242.944C56.6504 242.484 56.4454 242.019 56.2519 241.55L56.2512 241.548C56.1867 241.394 56.1279 241.235 56.0663 241.07C56.049 241.023 56.0315 240.976 56.0135 240.928L56.012 240.924C55.9861 240.857 55.9608 240.792 55.9361 240.728C55.8747 240.57 55.8171 240.422 55.7628 240.271L55.7615 240.268C55.5879 239.797 55.4261 239.32 55.2761 238.839C54.4615 236.223 52.3746 234.042 49.591 233.608L47.6403 233.305C44.6395 232.838 42.5853 230.027 43.0513 227.026L44.2898 219.052C44.7561 216.05 47.5684 213.994 50.5705 214.462L52.5097 214.764C55.2969 215.197 57.9546 213.751 59.5254 211.501C59.8135 211.089 60.1109 210.684 60.4173 210.288L60.4193 210.285C60.5099 210.166 60.6008 210.056 60.6992 209.936C60.7463 209.879 60.7952 209.819 60.8465 209.756L60.4579 209.441L60.8465 209.756C60.9071 209.681 60.9621 209.612 61.0147 209.545C61.1029 209.434 61.1846 209.331 61.2751 209.224ZM102.338 239.674L102.339 239.674L102.345 239.664C102.583 239.259 102.816 238.847 103.032 238.413L103.108 238.263L103.183 238.112C103.206 238.066 103.222 238.018 103.231 237.968C104.03 236.286 104.613 234.458 104.912 232.516C105.216 230.539 105.216 228.587 104.948 226.707L104.947 226.702C104.938 226.646 104.93 226.589 104.921 226.53C104.912 226.471 104.903 226.411 104.894 226.353C104.822 225.881 104.723 225.414 104.617 224.955L104.617 224.955L104.615 224.946L104.614 224.942C104.563 224.737 104.509 224.522 104.445 224.304C104.346 223.936 104.23 223.578 104.118 223.235L104.117 223.229L104.117 223.229L104.114 223.221C104.036 222.994 103.952 222.771 103.869 222.553C103.847 222.495 103.825 222.437 103.804 222.379L103.804 222.379L103.802 222.374C103.695 222.097 103.579 221.821 103.466 221.553L103.465 221.55L103.465 221.55L103.462 221.543C103.309 221.191 103.138 220.85 102.974 220.522L102.973 220.52C102.891 220.349 102.801 220.186 102.719 220.036C102.698 219.998 102.677 219.961 102.658 219.925L102.658 219.925L102.654 219.918C102.424 219.51 102.176 219.104 101.921 218.707C101.856 218.597 101.789 218.491 101.711 218.384C100.638 216.821 99.3241 215.373 97.768 214.121C89.2373 207.256 76.7591 208.607 69.8935 217.137C68.2126 219.22 67.0316 221.545 66.3241 223.967C66.2887 224.074 66.2506 224.198 66.2205 224.326C66.1047 224.754 66.0071 225.181 65.9189 225.613L65.9179 225.618L65.9172 225.622C65.8653 225.89 65.8117 226.167 65.7668 226.445C65.7366 226.632 65.713 226.834 65.6912 227.021C65.6805 227.112 65.6703 227.2 65.6598 227.281L65.6593 227.285C65.6058 227.731 65.5698 228.17 65.5517 228.617C65.5423 228.754 65.5423 228.88 65.5423 228.988V228.988C65.4893 231.51 65.9101 234.086 66.8761 236.582L66.8762 236.582C70.8326 246.794 82.3171 251.869 92.5307 247.913L92.5308 247.913C94.3979 247.189 96.0876 246.216 97.5814 245.045L97.5819 245.045C97.6699 244.981 97.7793 244.901 97.8829 244.809C98.2506 244.513 98.6061 244.193 98.9455 243.879L98.9455 243.879L98.9497 243.875L98.9538 243.872C99.1064 243.727 99.2705 243.572 99.4273 243.407C99.695 243.139 99.9538 242.862 100.204 242.577C100.399 242.355 100.594 242.125 100.78 241.894C100.981 241.656 101.163 241.411 101.333 241.181L101.338 241.175L101.338 241.175L101.343 241.168C101.561 240.863 101.776 240.559 101.983 240.234C102.109 240.045 102.225 239.857 102.337 239.678L102.338 239.674ZM103.19 238.054L103.19 238.054L103.19 238.054Z" stroke="white"/>
<path d="M212.72 45.0204H38.2338C37.0034 45.0204 36 44.017 36 42.7868C36 41.5566 37.0034 40.5532 38.2338 40.5532H212.72C213.951 40.5532 214.954 41.5566 214.954 42.7868C214.954 44.017 213.951 45.0204 212.72 45.0204Z" fill="#303030"/>
<path d="M212.72 61.0218H38.2338C37.0034 61.0218 36 60.0185 36 58.7883C36 57.558 37.0034 56.5547 38.2338 56.5547H212.72C213.951 56.5547 214.954 57.558 214.954 58.7883C214.954 60.0185 213.951 61.0218 212.72 61.0218Z" fill="#303030"/>
<path d="M212.72 77.0145H38.2338C37.0034 77.0145 36 76.0111 36 74.7809C36 73.5507 37.0034 72.5474 38.2338 72.5474H212.72C213.951 72.5474 214.954 73.5507 214.954 74.7809C214.954 76.0111 213.951 77.0145 212.72 77.0145Z" fill="#303030"/>
<path d="M212.72 88.5488H38.2338C37.0001 88.5488 36 89.5488 36 90.7824C36 92.016 37.0001 93.016 38.2338 93.016H212.72C213.954 93.016 214.954 92.016 214.954 90.7824C214.954 89.5488 213.954 88.5488 212.72 88.5488Z" fill="#303030"/>
<path d="M212.72 109.017H38.2338C37.0034 109.017 36 108.014 36 106.784C36 105.554 37.0034 104.55 38.2338 104.55H212.72C213.951 104.55 214.954 105.554 214.954 106.784C214.954 108.014 213.951 109.017 212.72 109.017Z" fill="#303030"/>
<path d="M212.72 125.01H38.2338C37.0034 125.01 36 124.007 36 122.777C36 121.546 37.0034 120.543 38.2338 120.543H212.72C213.951 120.543 214.954 121.546 214.954 122.777C214.954 124.007 213.951 125.01 212.72 125.01Z" fill="#303030"/>
<path d="M212.72 141.012H38.2338C37.0034 141.012 36 140.008 36 138.778C36 137.548 37.0034 136.544 38.2338 136.544H212.72C213.951 136.544 214.954 137.548 214.954 138.778C214.954 140.008 213.951 141.012 212.72 141.012Z" fill="#303030"/>
<path d="M212.72 157.013H38.2338C37.0034 157.013 36 156.01 36 154.779C36 153.549 37.0034 152.546 38.2338 152.546H212.72C213.951 152.546 214.954 153.549 214.954 154.779C214.954 156.01 213.951 157.013 212.72 157.013Z" fill="#303030"/>
<path d="M212.72 173.006H38.2338C37.0034 173.006 36 172.003 36 170.772C36 169.542 37.0034 168.539 38.2338 168.539H212.72C213.951 168.539 214.954 169.542 214.954 170.772C214.954 172.003 213.951 173.006 212.72 173.006Z" fill="#303030"/>
<path d="M88.8687 119.374H337.706V242.587C337.706 249.96 331.72 255.936 324.356 255.936H102.219C94.8457 255.936 88.8687 249.951 88.8687 242.587V119.374Z" fill="#1B1B1B"/>
<path d="M102.219 81.5979H324.347C331.444 81.5979 337.197 87.3592 337.197 94.447V223.843H89.3687V94.447C89.3687 87.3509 95.1303 81.5979 102.219 81.5979Z" fill="#1D1D1D" stroke="url(#paint0_linear_680_2648)"/>
<path d="M328.125 94.5779H98.8682V210.593H328.125V94.5779Z" fill="#1D1D1D"/>
<g filter="url(#filter0_b_680_2648)">
<path d="M273.773 68.9614H136.458C132.174 68.9614 128.701 72.4341 128.701 76.7179V159.735C128.701 164.019 132.174 167.492 136.458 167.492H273.773C278.058 167.492 281.531 164.019 281.531 159.735V76.7179C281.531 72.4341 278.058 68.9614 273.773 68.9614Z" fill="url(#paint1_radial_680_2648)" fill-opacity="0.7"/>
<path d="M136.458 69.4614H273.773C277.782 69.4614 281.031 72.7103 281.031 76.7179V159.735C281.031 163.743 277.782 166.992 273.773 166.992H136.458C132.45 166.992 129.201 163.743 129.201 159.735V76.7179C129.201 72.7103 132.45 69.4614 136.458 69.4614Z" stroke="url(#paint2_linear_680_2648)"/>
</g>
<path d="M269.773 76.7178H140.458C138.249 76.7178 136.458 78.5086 136.458 80.7178V155.735C136.458 157.944 138.249 159.735 140.458 159.735H269.773C271.982 159.735 273.773 157.944 273.773 155.735V80.7178C273.773 78.5086 271.982 76.7178 269.773 76.7178Z" fill="#1D1D1D"/>
<path d="M164.42 87.8071H152.064C151.532 87.8071 151.1 88.2388 151.1 88.7712C151.1 89.3037 151.532 89.7353 152.064 89.7353H164.42C164.952 89.7353 165.384 89.3037 165.384 88.7712C165.384 88.2388 164.952 87.8071 164.42 87.8071Z" fill="#DB504A"/>
<path d="M198.171 87.8071H170.868C170.335 87.8071 169.904 88.2388 169.904 88.7712C169.904 89.3037 170.335 89.7353 170.868 89.7353H198.171C198.703 89.7353 199.135 89.3037 199.135 88.7712C199.135 88.2388 198.703 87.8071 198.171 87.8071Z" fill="#DB504A"/>
<path d="M170.484 95.6248H158.129C157.596 95.6248 157.165 96.0564 157.165 96.5889C157.165 97.1213 157.596 97.553 158.129 97.553H170.484C171.017 97.553 171.448 97.1213 171.448 96.5889C171.448 96.0564 171.017 95.6248 170.484 95.6248Z" fill="white"/>
<path d="M258.526 95.6248H176.932C176.4 95.6248 175.968 96.0564 175.968 96.5889C175.968 97.1213 176.4 97.553 176.932 97.553H258.526C259.058 97.553 259.49 97.1213 259.49 96.5889C259.49 96.0564 259.058 95.6248 258.526 95.6248Z" fill="#7C43C5"/>
<path d="M170.484 102.884H158.129C157.596 102.884 157.165 103.315 157.165 103.848C157.165 104.38 157.596 104.812 158.129 104.812H170.484C171.017 104.812 171.448 104.38 171.448 103.848C171.448 103.315 171.017 102.884 170.484 102.884Z" fill="white"/>
<path d="M258.526 102.884H176.932C176.4 102.884 175.968 103.315 175.968 103.848C175.968 104.38 176.4 104.812 176.932 104.812H258.526C259.058 104.812 259.49 104.38 259.49 103.848C259.49 103.315 259.058 102.884 258.526 102.884Z" fill="#7C43C5"/>
<path d="M170.484 110.143H158.129C157.596 110.143 157.165 110.574 157.165 111.107C157.165 111.639 157.596 112.071 158.129 112.071H170.484C171.017 112.071 171.448 111.639 171.448 111.107C171.448 110.574 171.017 110.143 170.484 110.143Z" fill="white"/>
<path d="M258.526 110.143H176.932C176.4 110.143 175.968 110.574 175.968 111.107C175.968 111.639 176.4 112.071 176.932 112.071H258.526C259.058 112.071 259.49 111.639 259.49 111.107C259.49 110.574 259.058 110.143 258.526 110.143Z" fill="#7C43C5"/>
<path d="M170.484 117.393H158.129C157.596 117.393 157.165 117.825 157.165 118.357C157.165 118.89 157.596 119.322 158.129 119.322H170.484C171.017 119.322 171.448 118.89 171.448 118.357C171.448 117.825 171.017 117.393 170.484 117.393Z" fill="white"/>
<path d="M164.42 125.071H152.064C151.532 125.071 151.1 125.503 151.1 126.035C151.1 126.568 151.532 126.999 152.064 126.999H164.42C164.952 126.999 165.384 126.568 165.384 126.035C165.384 125.503 164.952 125.071 164.42 125.071Z" fill="#DB504A"/>
<path d="M198.171 125.071H170.868C170.335 125.071 169.904 125.503 169.904 126.035C169.904 126.568 170.335 126.999 170.868 126.999H198.171C198.703 126.999 199.135 126.568 199.135 126.035C199.135 125.503 198.703 125.071 198.171 125.071Z" fill="#DB504A"/>
<path d="M228.859 132.889H176.932C176.4 132.889 175.968 133.32 175.968 133.853C175.968 134.385 176.4 134.817 176.932 134.817H228.859C229.391 134.817 229.823 134.385 229.823 133.853C229.823 133.32 229.391 132.889 228.859 132.889Z" fill="white"/>
<path d="M228.859 140.148H176.932C176.4 140.148 175.968 140.579 175.968 141.112C175.968 141.644 176.4 142.076 176.932 142.076H228.859C229.391 142.076 229.823 141.644 229.823 141.112C229.823 140.579 229.391 140.148 228.859 140.148Z" fill="white"/>
<path d="M170.476 140.148H167.666C167.133 140.148 166.702 140.579 166.702 141.112C166.702 141.644 167.133 142.076 167.666 142.076H170.476C171.008 142.076 171.44 141.644 171.44 141.112C171.44 140.579 171.008 140.148 170.476 140.148Z" fill="#7C43C5"/>
<path d="M170.484 147.407H158.129C157.596 147.407 157.165 147.839 157.165 148.371C157.165 148.904 157.596 149.335 158.129 149.335H170.484C171.017 149.335 171.448 148.904 171.448 148.371C171.448 147.839 171.017 147.407 170.484 147.407Z" fill="#7C43C5"/>
<path d="M228.859 147.407H176.932C176.4 147.407 175.968 147.839 175.968 148.371C175.968 148.904 176.4 149.335 176.932 149.335H228.859C229.391 149.335 229.823 148.904 229.823 148.371C229.823 147.839 229.391 147.407 228.859 147.407Z" fill="white"/>
<path d="M259.136 132.889H234.67C234.137 132.889 233.706 133.32 233.706 133.853C233.706 134.385 234.137 134.817 234.67 134.817H259.136C259.669 134.817 260.101 134.385 260.101 133.853C260.101 133.32 259.669 132.889 259.136 132.889Z" fill="white"/>
<path d="M259.136 140.148H234.67C234.137 140.148 233.706 140.579 233.706 141.112C233.706 141.644 234.137 142.076 234.67 142.076H259.136C259.669 142.076 260.101 141.644 260.101 141.112C260.101 140.579 259.669 140.148 259.136 140.148Z" fill="white"/>
<path d="M259.136 147.407H234.67C234.137 147.407 233.706 147.839 233.706 148.371C233.706 148.904 234.137 149.335 234.67 149.335H259.136C259.669 149.335 260.101 148.904 260.101 148.371C260.101 147.839 259.669 147.407 259.136 147.407Z" fill="white"/>
<path d="M258.526 117.393H176.932C176.4 117.393 175.968 117.825 175.968 118.357C175.968 118.89 176.4 119.322 176.932 119.322H258.526C259.058 119.322 259.49 118.89 259.49 118.357C259.49 117.825 259.058 117.393 258.526 117.393Z" fill="#7C43C5"/>
<g filter="url(#filter1_b_680_2648)">
<path d="M103.781 107.735H59.533C55.2488 107.735 51.7759 111.208 51.7759 115.491V159.735C51.7759 164.019 55.2488 167.492 59.533 167.492H103.781C108.065 167.492 111.538 164.019 111.538 159.735V115.491C111.538 111.208 108.065 107.735 103.781 107.735Z" fill="url(#paint3_radial_680_2648)" fill-opacity="0.7"/>
<path d="M59.533 108.235H103.781C107.789 108.235 111.038 111.484 111.038 115.491V159.735C111.038 163.743 107.789 166.992 103.781 166.992H59.533C55.5249 166.992 52.2759 163.743 52.2759 159.735V115.491C52.2759 111.484 55.5249 108.235 59.533 108.235Z" stroke="url(#paint4_linear_680_2648)"/>
</g>
<g filter="url(#filter2_dddd_680_2648)">
<path d="M95.4258 137.583C95.4282 137.583 95.4302 137.581 95.4302 137.578C95.43 137.036 95.3981 136.5 95.3361 135.973C95.255 135.284 95.5566 134.591 96.1577 134.243L97.0851 133.707C98.5663 132.85 99.0727 130.955 98.2163 129.474L96.9834 127.341C96.1303 125.866 94.2427 125.361 92.7668 126.213C91.6122 126.88 90.1771 126.7 89.0536 125.982C88.7175 125.767 88.3716 125.566 88.0167 125.38C86.8403 124.765 85.9716 123.617 85.9716 122.289C85.9716 120.587 84.5923 119.208 82.8908 119.208H80.4073C78.7047 119.208 77.3245 120.588 77.3245 122.291C77.3245 123.618 76.4546 124.76 75.281 125.379C75.1909 125.426 75.1013 125.475 75.0122 125.525C74.925 125.568 74.8377 125.621 74.7505 125.673C74.6632 125.725 74.5759 125.769 74.4887 125.821C74.4024 125.874 74.3166 125.928 74.2313 125.982C73.1105 126.697 71.6782 126.874 70.5265 126.209C69.0519 125.359 67.1669 125.864 66.3149 127.338L65.0699 129.491C64.2193 130.962 64.7235 132.845 66.1956 133.694C67.348 134.358 67.907 135.69 67.8494 137.019C67.8451 137.12 67.8419 137.22 67.8398 137.321C67.8398 137.426 67.8398 137.522 67.8398 137.626C67.8398 137.722 67.8398 137.818 67.8398 137.923C67.8419 138.025 67.8452 138.126 67.8496 138.228C67.9075 139.556 67.3495 140.885 66.198 141.549C64.7246 142.399 64.2199 144.283 65.0713 145.755L66.3148 147.906C67.1669 149.38 69.0519 149.885 70.5266 149.034C71.6783 148.37 73.1087 148.549 74.2312 149.262C74.5692 149.476 74.9155 149.675 75.2693 149.859C76.4513 150.472 77.3245 151.622 77.3245 152.954C77.3245 154.656 78.7043 156.036 80.4063 156.036H82.8737C84.5846 156.036 85.9716 154.649 85.9716 152.938C85.9716 151.604 86.8418 150.447 88.0217 149.826C88.1828 149.741 88.3429 149.653 88.502 149.562C88.6777 149.459 88.8502 149.354 89.0197 149.245C90.147 148.524 91.5877 148.346 92.7474 149.014C94.2345 149.871 96.1347 149.362 96.9937 147.876L98.2143 145.765C99.0714 144.282 98.5629 142.386 97.0792 141.531L96.1701 141.007C95.5518 140.65 95.2426 139.938 95.3261 139.229C95.3895 138.69 95.4213 138.143 95.4215 137.587C95.4215 137.585 95.4234 137.583 95.4258 137.583ZM87.3197 143.677C87.3221 143.679 87.322 143.683 87.3195 143.685C87.3022 143.701 87.2405 143.756 87.2107 143.786C87.0623 143.917 86.9053 144.048 86.7482 144.17C86.6784 144.231 86.5999 144.283 86.5213 144.336C86.3904 144.432 86.2596 144.519 86.1287 144.606C86.024 144.676 85.9105 144.737 85.8058 144.807C85.6924 144.868 85.5877 144.929 85.4743 144.99C85.3346 145.06 85.1863 145.13 85.0467 145.199C84.9594 145.234 84.8722 145.278 84.7937 145.313C84.6104 145.391 84.4185 145.461 84.2265 145.522C84.1741 145.54 84.1305 145.557 84.0782 145.566C83.3103 145.801 82.5075 145.924 81.6612 145.924C77.0628 145.924 73.3282 142.198 73.3282 137.591C73.3282 136.466 73.555 135.393 73.9564 134.415C73.9739 134.372 73.9913 134.328 74.0175 134.276C74.096 134.101 74.1746 133.936 74.2618 133.77C74.3142 133.665 74.3753 133.56 74.4363 133.456C74.4974 133.351 74.5585 133.255 74.6196 133.15C74.7243 132.993 74.8203 132.836 74.9337 132.688C74.9599 132.644 74.9948 132.609 75.021 132.566C75.6666 131.728 76.4869 130.995 77.4554 130.428C81.443 128.125 86.5301 129.495 88.8336 133.473C89.2525 134.197 89.5491 134.965 89.7324 135.742C89.7411 135.794 89.7498 135.838 89.7673 135.89C89.8109 136.091 89.8458 136.283 89.872 136.483C89.8807 136.579 89.8982 136.667 89.9069 136.762C89.9243 136.92 89.9331 137.077 89.9418 137.242C89.9418 137.365 89.9418 137.495 89.9418 137.618C89.9418 137.748 89.9418 137.871 89.9418 138.001C89.9418 138.158 89.9243 138.316 89.9069 138.473C89.8982 138.569 89.8894 138.656 89.872 138.752C89.8458 138.952 89.8109 139.144 89.7673 139.345C89.7585 139.397 89.7498 139.441 89.7324 139.493C89.5491 140.27 89.2525 141.038 88.8336 141.762C88.4159 142.484 87.9026 143.128 87.3198 143.668C87.3174 143.671 87.3173 143.675 87.3197 143.677Z" fill="white"/>
</g>
<g filter="url(#filter3_b_680_2648)">
<path d="M172.791 181.103H113.038C108.754 181.103 105.281 184.575 105.281 188.859V225.346C105.281 229.63 108.754 233.103 113.038 233.103H172.791C177.076 233.103 180.549 229.63 180.549 225.346V188.859C180.549 184.575 177.076 181.103 172.791 181.103Z" fill="url(#paint5_radial_680_2648)" fill-opacity="0.7"/>
<path d="M113.038 181.603H172.791C176.799 181.603 180.049 184.851 180.049 188.859V225.346C180.049 229.354 176.799 232.603 172.791 232.603H113.038C109.03 232.603 105.781 229.354 105.781 225.346V188.859C105.781 184.851 109.03 181.603 113.038 181.603Z" stroke="url(#paint6_linear_680_2648)"/>
</g>
<g filter="url(#filter4_dddd_680_2648)">
<path d="M132.034 197.025C132.034 196.168 131.027 195.708 130.38 196.269L118.745 206.347C118.285 206.746 118.285 207.46 118.746 207.859L130.38 217.929C131.027 218.49 132.034 218.03 132.034 217.173V213.17C132.034 212.88 131.908 212.604 131.688 212.414L126.417 207.859C125.956 207.46 125.956 206.745 126.417 206.346L131.689 201.783C131.908 201.593 132.034 201.317 132.034 201.027V197.025Z" fill="white"/>
<path d="M153.805 217.174C153.805 218.031 154.811 218.491 155.459 217.93L167.101 207.859C167.562 207.46 167.562 206.745 167.101 206.347L155.459 196.268C154.812 195.707 153.805 196.167 153.805 197.024V201.027C153.805 201.317 153.931 201.593 154.15 201.783L159.422 206.346C159.883 206.745 159.883 207.46 159.422 207.859L154.151 212.414C153.931 212.604 153.805 212.88 153.805 213.17V217.174Z" fill="white"/>
<path d="M141.753 222.625C141.636 223.062 141.24 223.366 140.787 223.366H136.855C136.197 223.366 135.719 222.742 135.889 222.106L144.095 191.58C144.212 191.143 144.608 190.84 145.061 190.84H148.984C149.642 190.84 150.121 191.464 149.95 192.099L141.753 222.625Z" fill="white"/>
</g>
<g filter="url(#filter5_b_680_2648)">
<path d="M374.066 38.1277H306.555C302.271 38.1277 298.798 41.6004 298.798 45.8841V113.389C298.798 117.672 302.271 121.145 306.555 121.145H374.066C378.35 121.145 381.823 117.672 381.823 113.389V45.8841C381.823 41.6004 378.35 38.1277 374.066 38.1277Z" fill="url(#paint7_radial_680_2648)" fill-opacity="0.7"/>
<path d="M306.555 38.6277H374.066C378.074 38.6277 381.323 41.8765 381.323 45.8841V113.389C381.323 117.396 378.074 120.645 374.066 120.645H306.555C302.547 120.645 299.298 117.396 299.298 113.389V45.8841C299.298 41.8765 302.547 38.6277 306.555 38.6277Z" stroke="url(#paint8_linear_680_2648)"/>
</g>
<g filter="url(#filter6_dddd_680_2648)">
<path d="M360.881 64.3287C359.171 64.3287 357.548 64.7126 356.1 65.3931C354.11 58.291 347.601 53.0823 339.861 53.0823C332.122 53.0823 325.822 58.1253 323.719 65.0528C322.48 64.5817 321.145 64.3287 319.749 64.3287C313.536 64.3287 308.501 69.3629 308.501 75.5751H372.129C372.129 69.3629 367.094 64.3287 360.881 64.3287Z" fill="white"/>
<path d="M333.443 94.4993C331.661 94.4993 330.769 96.6537 332.029 97.9136L338.901 104.785C339.682 105.566 340.948 105.566 341.729 104.785L348.602 97.9136C349.862 96.6537 348.97 94.4993 347.188 94.4993H346.128C345.024 94.4993 344.128 93.6039 344.128 92.4993V82.6965C344.128 81.592 343.233 80.6965 342.128 80.6965H338.493C337.389 80.6965 336.494 81.592 336.494 82.6965V92.4993C336.494 93.6039 335.598 94.4993 334.494 94.4993H333.443Z" fill="white"/>
</g>
<g filter="url(#filter7_b_680_2648)">
<path d="M103.781 34.376H59.533C55.2488 34.376 51.7759 37.8486 51.7759 42.1324V86.3764C51.7759 90.6601 55.2488 94.1328 59.533 94.1328H103.781C108.065 94.1328 111.538 90.6601 111.538 86.3764V42.1324C111.538 37.8486 108.065 34.376 103.781 34.376Z" fill="url(#paint9_radial_680_2648)" fill-opacity="0.7"/>
<path d="M59.533 34.876H103.781C107.789 34.876 111.038 38.1248 111.038 42.1324V86.3764C111.038 90.3839 107.789 93.6328 103.781 93.6328H59.533C55.5249 93.6328 52.2759 90.3839 52.2759 86.3764V42.1324C52.2759 38.1248 55.5249 34.876 59.533 34.876Z" stroke="url(#paint10_linear_680_2648)"/>
</g>
<path d="M100.479 41.4343H62.835C60.6258 41.4343 58.835 43.2252 58.835 45.4343V83.0743C58.835 85.2834 60.6258 87.0743 62.835 87.0743H100.479C102.688 87.0743 104.479 85.2834 104.479 83.0743V45.4343C104.479 43.2252 102.688 41.4343 100.479 41.4343Z" fill="#1D1D1D"/>
<path d="M69.7901 50.3164H67.5212C66.9888 50.3164 66.5571 50.748 66.5571 51.2805C66.5571 51.813 66.9888 52.2446 67.5212 52.2446H69.7901C70.3225 52.2446 70.7542 51.813 70.7542 51.2805C70.7542 50.748 70.3225 50.3164 69.7901 50.3164Z" fill="white"/>
<path d="M93.4628 50.3164H73.9172C73.3848 50.3164 72.9531 50.748 72.9531 51.2805C72.9531 51.813 73.3848 52.2446 73.9172 52.2446H93.4628C93.9953 52.2446 94.4269 51.813 94.4269 51.2805C94.4269 50.748 93.9953 50.3164 93.4628 50.3164Z" fill="#7C43C5"/>
<path d="M72.1198 56.7991H67.5212C66.9888 56.7991 66.5571 57.2307 66.5571 57.7632C66.5571 58.2956 66.9888 58.7273 67.5212 58.7273H72.1198C72.6523 58.7273 73.0839 58.2956 73.0839 57.7632C73.0839 57.2307 72.6523 56.7991 72.1198 56.7991Z" fill="white"/>
<path d="M95.7924 56.7991H76.2468C75.7144 56.7991 75.2827 57.2307 75.2827 57.7632C75.2827 58.2956 75.7144 58.7273 76.2468 58.7273H95.7924C96.3248 58.7273 96.7565 58.2956 96.7565 57.7632C96.7565 57.2307 96.3248 56.7991 95.7924 56.7991Z" fill="#7C43C5"/>
<path d="M69.7901 68.9878H67.5212C66.9888 68.9878 66.5571 69.4194 66.5571 69.9519C66.5571 70.4844 66.9888 70.916 67.5212 70.916H69.7901C70.3225 70.916 70.7542 70.4844 70.7542 69.9519C70.7542 69.4194 70.3225 68.9878 69.7901 68.9878Z" fill="white"/>
<path d="M93.4628 68.9878H73.9172C73.3848 68.9878 72.9531 69.4194 72.9531 69.9519C72.9531 70.4844 73.3848 70.916 73.9172 70.916H93.4628C93.9953 70.916 94.4269 70.4844 94.4269 69.9519C94.4269 69.4194 93.9953 68.9878 93.4628 68.9878Z" fill="#7C43C5"/>
<path d="M72.1198 75.4617H67.5212C66.9888 75.4617 66.5571 75.8933 66.5571 76.4258C66.5571 76.9582 66.9888 77.3899 67.5212 77.3899H72.1198C72.6523 77.3899 73.0839 76.9582 73.0839 76.4258C73.0839 75.8933 72.6523 75.4617 72.1198 75.4617Z" fill="white"/>
<path d="M95.7924 75.4617H76.2468C75.7144 75.4617 75.2827 75.8933 75.2827 76.4258C75.2827 76.9582 75.7144 77.3899 76.2468 77.3899H95.7924C96.3248 77.3899 96.7565 76.9582 96.7565 76.4258C96.7565 75.8933 96.3248 75.4617 95.7924 75.4617Z" fill="#7C43C5"/>
<path d="M68.2458 63.2815H63.6472C63.1147 63.2815 62.6831 63.7131 62.6831 64.2456C62.6831 64.7781 63.1147 65.2097 63.6472 65.2097H68.2458C68.7782 65.2097 69.2099 64.7781 69.2099 64.2456C69.2099 63.7131 68.7782 63.2815 68.2458 63.2815Z" fill="white"/>
<path d="M99.6667 63.2815H72.364C71.8315 63.2815 71.3999 63.7131 71.3999 64.2456C71.3999 64.7781 71.8315 65.2097 72.364 65.2097H99.6667C100.199 65.2097 100.631 64.7781 100.631 64.2456C100.631 63.7131 100.199 63.2815 99.6667 63.2815Z" fill="#7C43C5"/>
<path d="M229.414 179.471H217.91C216.253 179.471 214.91 180.814 214.91 182.471V193.973C214.91 195.63 216.253 196.973 217.91 196.973H229.414C231.071 196.973 232.414 195.63 232.414 193.973V182.471C232.414 180.814 231.071 179.471 229.414 179.471Z" fill="#303030"/>
<path d="M254.84 179.471H243.336C241.68 179.471 240.336 180.814 240.336 182.471V193.973C240.336 195.63 241.68 196.973 243.336 196.973H254.84C256.497 196.973 257.84 195.63 257.84 193.973V182.471C257.84 180.814 256.497 179.471 254.84 179.471Z" fill="#303030"/>
<path d="M280.276 179.471H268.772C267.115 179.471 265.772 180.814 265.772 182.471V193.973C265.772 195.63 267.115 196.973 268.772 196.973H280.276C281.932 196.973 283.276 195.63 283.276 193.973V182.471C283.276 180.814 281.932 179.471 280.276 179.471Z" fill="#303030"/>
<path d="M318.134 131.929H291.739V133.857H318.134V131.929Z" fill="#282828"/>
<path d="M318.134 139.18H291.739V141.108H318.134V139.18Z" fill="#282828"/>
<path d="M318.134 146.439H291.739V148.367H318.134V146.439Z" fill="#282828"/>
<g filter="url(#filter8_f_680_2648)">
<circle cx="218.5" cy="323.5" r="161.5" fill="#1D1D1D"/>
</g>
<defs>
<filter id="filter0_b_680_2648" x="88.7012" y="28.9614" width="232.83" height="178.53" filterUnits="userSpaceOnUse" color-interpolation-filters="sRGB">
<feFlood flood-opacity="0" result="BackgroundImageFix"/>
<feGaussianBlur in="BackgroundImageFix" stdDeviation="20"/>
<feComposite in2="SourceAlpha" operator="in" result="effect1_backgroundBlur_680_2648"/>
<feBlend mode="normal" in="SourceGraphic" in2="effect1_backgroundBlur_680_2648" result="shape"/>
</filter>
<filter id="filter1_b_680_2648" x="11.7759" y="67.7349" width="139.762" height="139.757" filterUnits="userSpaceOnUse" color-interpolation-filters="sRGB">
<feFlood flood-opacity="0" result="BackgroundImageFix"/>
<feGaussianBlur in="BackgroundImageFix" stdDeviation="20"/>
<feComposite in2="SourceAlpha" operator="in" result="effect1_backgroundBlur_680_2648"/>
<feBlend mode="normal" in="SourceGraphic" in2="effect1_backgroundBlur_680_2648" result="shape"/>
</filter>
<filter id="filter2_dddd_680_2648" x="28.6562" y="112.208" width="105.977" height="170.828" filterUnits="userSpaceOnUse" color-interpolation-filters="sRGB">
<feFlood flood-opacity="0" result="BackgroundImageFix"/>
<feColorMatrix in="SourceAlpha" type="matrix" values="0 0 0 0 0 0 0 0 0 0 0 0 0 0 0 0 0 0 127 0" result="hardAlpha"/>
<feOffset dy="6"/>
<feGaussianBlur stdDeviation="6.5"/>
<feColorMatrix type="matrix" values="0 0 0 0 1 0 0 0 0 1 0 0 0 0 1 0 0 0 0.1 0"/>
<feBlend mode="normal" in2="BackgroundImageFix" result="effect1_dropShadow_680_2648"/>
<feColorMatrix in="SourceAlpha" type="matrix" values="0 0 0 0 0 0 0 0 0 0 0 0 0 0 0 0 0 0 127 0" result="hardAlpha"/>
<feOffset dy="23"/>
<feGaussianBlur stdDeviation="11.5"/>
<feColorMatrix type="matrix" values="0 0 0 0 1 0 0 0 0 1 0 0 0 0 1 0 0 0 0.09 0"/>
<feBlend mode="normal" in2="effect1_dropShadow_680_2648" result="effect2_dropShadow_680_2648"/>
<feColorMatrix in="SourceAlpha" type="matrix" values="0 0 0 0 0 0 0 0 0 0 0 0 0 0 0 0 0 0 127 0" result="hardAlpha"/>
<feOffset dy="51"/>
<feGaussianBlur stdDeviation="15.5"/>
<feColorMatrix type="matrix" values="0 0 0 0 1 0 0 0 0 1 0 0 0 0 1 0 0 0 0.05 0"/>
<feBlend mode="normal" in2="effect2_dropShadow_680_2648" result="effect3_dropShadow_680_2648"/>
<feColorMatrix in="SourceAlpha" type="matrix" values="0 0 0 0 0 0 0 0 0 0 0 0 0 0 0 0 0 0 127 0" result="hardAlpha"/>
<feOffset dy="91"/>
<feGaussianBlur stdDeviation="18"/>
<feColorMatrix type="matrix" values="0 0 0 0 1 0 0 0 0 1 0 0 0 0 1 0 0 0 0.01 0"/>
<feBlend mode="normal" in2="effect3_dropShadow_680_2648" result="effect4_dropShadow_680_2648"/>
<feBlend mode="normal" in="SourceGraphic" in2="effect4_dropShadow_680_2648" result="shape"/>
</filter>
<filter id="filter3_b_680_2648" x="65.2812" y="141.103" width="155.267" height="132" filterUnits="userSpaceOnUse" color-interpolation-filters="sRGB">
<feFlood flood-opacity="0" result="BackgroundImageFix"/>
<feGaussianBlur in="BackgroundImageFix" stdDeviation="20"/>
<feComposite in2="SourceAlpha" operator="in" result="effect1_backgroundBlur_680_2648"/>
<feBlend mode="normal" in="SourceGraphic" in2="effect1_backgroundBlur_680_2648" result="shape"/>
</filter>
<filter id="filter4_dddd_680_2648" x="82.4004" y="183.84" width="121.046" height="166.526" filterUnits="userSpaceOnUse" color-interpolation-filters="sRGB">
<feFlood flood-opacity="0" result="BackgroundImageFix"/>
<feColorMatrix in="SourceAlpha" type="matrix" values="0 0 0 0 0 0 0 0 0 0 0 0 0 0 0 0 0 0 127 0" result="hardAlpha"/>
<feOffset dy="6"/>
<feGaussianBlur stdDeviation="6.5"/>
<feColorMatrix type="matrix" values="0 0 0 0 1 0 0 0 0 1 0 0 0 0 1 0 0 0 0.1 0"/>
<feBlend mode="normal" in2="BackgroundImageFix" result="effect1_dropShadow_680_2648"/>
<feColorMatrix in="SourceAlpha" type="matrix" values="0 0 0 0 0 0 0 0 0 0 0 0 0 0 0 0 0 0 127 0" result="hardAlpha"/>
<feOffset dy="23"/>
<feGaussianBlur stdDeviation="11.5"/>
<feColorMatrix type="matrix" values="0 0 0 0 1 0 0 0 0 1 0 0 0 0 1 0 0 0 0.09 0"/>
<feBlend mode="normal" in2="effect1_dropShadow_680_2648" result="effect2_dropShadow_680_2648"/>
<feColorMatrix in="SourceAlpha" type="matrix" values="0 0 0 0 0 0 0 0 0 0 0 0 0 0 0 0 0 0 127 0" result="hardAlpha"/>
<feOffset dy="51"/>
<feGaussianBlur stdDeviation="15.5"/>
<feColorMatrix type="matrix" values="0 0 0 0 1 0 0 0 0 1 0 0 0 0 1 0 0 0 0.05 0"/>
<feBlend mode="normal" in2="effect2_dropShadow_680_2648" result="effect3_dropShadow_680_2648"/>
<feColorMatrix in="SourceAlpha" type="matrix" values="0 0 0 0 0 0 0 0 0 0 0 0 0 0 0 0 0 0 127 0" result="hardAlpha"/>
<feOffset dy="91"/>
<feGaussianBlur stdDeviation="18"/>
<feColorMatrix type="matrix" values="0 0 0 0 1 0 0 0 0 1 0 0 0 0 1 0 0 0 0.01 0"/>
<feBlend mode="normal" in2="effect3_dropShadow_680_2648" result="effect4_dropShadow_680_2648"/>
<feBlend mode="normal" in="SourceGraphic" in2="effect4_dropShadow_680_2648" result="shape"/>
</filter>
<filter id="filter5_b_680_2648" x="258.798" y="-1.87231" width="163.024" height="163.017" filterUnits="userSpaceOnUse" color-interpolation-filters="sRGB">
<feFlood flood-opacity="0" result="BackgroundImageFix"/>
<feGaussianBlur in="BackgroundImageFix" stdDeviation="20"/>
<feComposite in2="SourceAlpha" operator="in" result="effect1_backgroundBlur_680_2648"/>
<feBlend mode="normal" in="SourceGraphic" in2="effect1_backgroundBlur_680_2648" result="shape"/>
</filter>
<filter id="filter6_dddd_680_2648" x="272.501" y="46.0823" width="135.627" height="186.289" filterUnits="userSpaceOnUse" color-interpolation-filters="sRGB">
<feFlood flood-opacity="0" result="BackgroundImageFix"/>
<feColorMatrix in="SourceAlpha" type="matrix" values="0 0 0 0 0 0 0 0 0 0 0 0 0 0 0 0 0 0 127 0" result="hardAlpha"/>
<feOffset dy="6"/>
<feGaussianBlur stdDeviation="6.5"/>
<feColorMatrix type="matrix" values="0 0 0 0 1 0 0 0 0 1 0 0 0 0 1 0 0 0 0.1 0"/>
<feBlend mode="normal" in2="BackgroundImageFix" result="effect1_dropShadow_680_2648"/>
<feColorMatrix in="SourceAlpha" type="matrix" values="0 0 0 0 0 0 0 0 0 0 0 0 0 0 0 0 0 0 127 0" result="hardAlpha"/>
<feOffset dy="23"/>
<feGaussianBlur stdDeviation="11.5"/>
<feColorMatrix type="matrix" values="0 0 0 0 1 0 0 0 0 1 0 0 0 0 1 0 0 0 0.09 0"/>
<feBlend mode="normal" in2="effect1_dropShadow_680_2648" result="effect2_dropShadow_680_2648"/>
<feColorMatrix in="SourceAlpha" type="matrix" values="0 0 0 0 0 0 0 0 0 0 0 0 0 0 0 0 0 0 127 0" result="hardAlpha"/>
<feOffset dy="51"/>
<feGaussianBlur stdDeviation="15.5"/>
<feColorMatrix type="matrix" values="0 0 0 0 1 0 0 0 0 1 0 0 0 0 1 0 0 0 0.05 0"/>
<feBlend mode="normal" in2="effect2_dropShadow_680_2648" result="effect3_dropShadow_680_2648"/>
<feColorMatrix in="SourceAlpha" type="matrix" values="0 0 0 0 0 0 0 0 0 0 0 0 0 0 0 0 0 0 127 0" result="hardAlpha"/>
<feOffset dy="91"/>
<feGaussianBlur stdDeviation="18"/>
<feColorMatrix type="matrix" values="0 0 0 0 1 0 0 0 0 1 0 0 0 0 1 0 0 0 0.01 0"/>
<feBlend mode="normal" in2="effect3_dropShadow_680_2648" result="effect4_dropShadow_680_2648"/>
<feBlend mode="normal" in="SourceGraphic" in2="effect4_dropShadow_680_2648" result="shape"/>
</filter>
<filter id="filter7_b_680_2648" x="11.7759" y="-5.62402" width="139.762" height="139.757" filterUnits="userSpaceOnUse" color-interpolation-filters="sRGB">
<feFlood flood-opacity="0" result="BackgroundImageFix"/>
<feGaussianBlur in="BackgroundImageFix" stdDeviation="20"/>
<feComposite in2="SourceAlpha" operator="in" result="effect1_backgroundBlur_680_2648"/>
<feBlend mode="normal" in="SourceGraphic" in2="effect1_backgroundBlur_680_2648" result="shape"/>
</filter>
<filter id="filter8_f_680_2648" x="-43" y="62" width="523" height="523" filterUnits="userSpaceOnUse" color-interpolation-filters="sRGB">
<feFlood flood-opacity="0" result="BackgroundImageFix"/>
<feBlend mode="normal" in="SourceGraphic" in2="BackgroundImageFix" result="shape"/>
<feGaussianBlur stdDeviation="50" result="effect1_foregroundBlur_680_2648"/>
</filter>
<linearGradient id="paint0_linear_680_2648" x1="179" y1="211" x2="121.735" y2="66.2062" gradientUnits="userSpaceOnUse">
<stop stop-color="#303030" stop-opacity="0"/>
<stop offset="1" stop-color="#686868"/>
</linearGradient>
<radialGradient id="paint1_radial_680_2648" cx="0" cy="0" r="1" gradientUnits="userSpaceOnUse" gradientTransform="translate(204.937 109.194) rotate(65.2138) scale(57.5069 66.3727)">
<stop stop-color="white" stop-opacity="0.03"/>
<stop offset="1" stop-color="white" stop-opacity="0.07"/>
</radialGradient>
<linearGradient id="paint2_linear_680_2648" x1="191.376" y1="80.9185" x2="251.91" y2="232.287" gradientUnits="userSpaceOnUse">
<stop stop-color="#303030" stop-opacity="0"/>
<stop offset="1" stop-color="#303030"/>
</linearGradient>
<radialGradient id="paint3_radial_680_2648" cx="0" cy="0" r="1" gradientUnits="userSpaceOnUse" gradientTransform="translate(81.5867 132.135) rotate(73.42) scale(33.0376 27.3991)">
<stop stop-color="white" stop-opacity="0.03"/>
<stop offset="1" stop-color="white" stop-opacity="0.07"/>
</radialGradient>
<linearGradient id="paint4_linear_680_2648" x1="76.284" y1="114.987" x2="123.981" y2="191.887" gradientUnits="userSpaceOnUse">
<stop stop-color="#303030" stop-opacity="0"/>
<stop offset="1" stop-color="#303030"/>
</linearGradient>
<radialGradient id="paint5_radial_680_2648" cx="0" cy="0" r="1" gradientUnits="userSpaceOnUse" gradientTransform="translate(142.827 202.336) rotate(66.6881) scale(30.0033 33.0656)">
<stop stop-color="white" stop-opacity="0.03"/>
<stop offset="1" stop-color="white" stop-opacity="0.07"/>
</radialGradient>
<linearGradient id="paint6_linear_680_2648" x1="136.148" y1="187.413" x2="169.697" y2="265.698" gradientUnits="userSpaceOnUse">
<stop stop-color="#303030" stop-opacity="0"/>
<stop offset="1" stop-color="#303030"/>
</linearGradient>
<radialGradient id="paint7_radial_680_2648" cx="0" cy="0" r="1" gradientUnits="userSpaceOnUse" gradientTransform="translate(340.213 72.0263) rotate(73.42) scale(45.8976 38.0642)">
<stop stop-color="white" stop-opacity="0.03"/>
<stop offset="1" stop-color="white" stop-opacity="0.07"/>
</radialGradient>
<linearGradient id="paint8_linear_680_2648" x1="332.846" y1="48.2022" x2="399.11" y2="155.036" gradientUnits="userSpaceOnUse">
<stop stop-color="#303030" stop-opacity="0"/>
<stop offset="1" stop-color="#303030"/>
</linearGradient>
<radialGradient id="paint9_radial_680_2648" cx="0" cy="0" r="1" gradientUnits="userSpaceOnUse" gradientTransform="translate(81.5867 58.7765) rotate(73.42) scale(33.0376 27.3991)">
<stop stop-color="white" stop-opacity="0.03"/>
<stop offset="1" stop-color="white" stop-opacity="0.07"/>
</radialGradient>
<linearGradient id="paint10_linear_680_2648" x1="76.284" y1="41.6277" x2="123.981" y2="118.528" gradientUnits="userSpaceOnUse">
<stop stop-color="#303030" stop-opacity="0"/>
<stop offset="1" stop-color="#303030"/>
</linearGradient>
</defs>
</svg>
