<svg width="396" height="520" viewBox="0 0 593 566" fill="none" xmlns="http://www.w3.org/2000/svg">
<path d="M330.5 437L330.5 267L407 235" stroke="#303030" stroke-width="4" stroke-linecap="round" stroke-linejoin="round"/>
<path d="M211 181.5L330.5 231L330.5 139" stroke="#303030" stroke-width="4" stroke-linecap="round" stroke-linejoin="round"/>
<circle cx="331" cy="122" r="19" fill="#1D1D1D" stroke="white" stroke-width="4"/>
<circle cx="290" cy="122" r="6" fill="#1D1D1D" stroke="white" stroke-width="4"/>
<circle cx="425" cy="177" r="6" fill="#1D1D1D" stroke="#DB504A" stroke-width="4"/>
<circle cx="331" cy="75" r="6" fill="#1D1D1D" stroke="white" stroke-width="4"/>
<circle cx="206" cy="179" r="6" fill="#1D1D1D" stroke="#DB504A" stroke-width="4"/>
<circle cx="244" cy="196" r="19" fill="#1D1D1D" stroke="#7C43C5" stroke-width="4"/>
<circle cx="425" cy="225" r="19" fill="#1D1D1D" stroke="#7C43C5" stroke-width="4"/>
<path d="M361.5 356.5L411.605 334.88L472.642 305.181C483.571 299.863 490.544 288.814 490.64 276.661L491.21 205L490.627 131.637C490.537 120.386 484.546 110.009 474.848 104.307L411.605 67.1201L347.779 30.9437C337.991 25.3958 326.009 25.3958 316.221 30.9437L252.395 67.1201L189.152 104.307C179.454 110.009 173.463 120.386 173.373 131.637L172.79 205L173.36 276.66C173.456 288.814 180.429 299.863 191.358 305.181L252.395 334.88L301.5 356.5" stroke="url(#paint0_linear_680_2616)" stroke-width="2" stroke-linecap="round" stroke-dasharray="26 26"/>
<g filter="url(#filter0_f_680_2616)">
<circle cx="331.5" cy="504.5" r="161.5" fill="#1D1D1D"/>
</g>
<g filter="url(#filter1_b_680_2616)">
<circle cx="122" cy="276" r="122" fill="url(#paint1_radial_680_2616)" fill-opacity="0.15"/>
<circle cx="122" cy="276" r="121.5" stroke="url(#paint2_linear_680_2616)" stroke-dasharray="2 2"/>
</g>
<g filter="url(#filter2_b_680_2616)">
<circle cx="494" cy="83" r="50" fill="url(#paint3_radial_680_2616)" fill-opacity="0.15"/>
<circle cx="494" cy="83" r="49.5" stroke="url(#paint4_linear_680_2616)" stroke-dasharray="2 2"/>
</g>
<defs>
<filter id="filter0_f_680_2616" x="70" y="243" width="523" height="523" filterUnits="userSpaceOnUse" color-interpolation-filters="sRGB">
<feFlood flood-opacity="0" result="BackgroundImageFix"/>
<feBlend mode="normal" in="SourceGraphic" in2="BackgroundImageFix" result="shape"/>
<feGaussianBlur stdDeviation="50" result="effect1_foregroundBlur_680_2616"/>
</filter>
<filter id="filter1_b_680_2616" x="-40" y="114" width="324" height="324" filterUnits="userSpaceOnUse" color-interpolation-filters="sRGB">
<feFlood flood-opacity="0" result="BackgroundImageFix"/>
<feGaussianBlur in="BackgroundImageFix" stdDeviation="20"/>
<feComposite in2="SourceAlpha" operator="in" result="effect1_backgroundBlur_680_2616"/>
<feBlend mode="normal" in="SourceGraphic" in2="effect1_backgroundBlur_680_2616" result="shape"/>
</filter>
<filter id="filter2_b_680_2616" x="404" y="-7" width="180" height="180" filterUnits="userSpaceOnUse" color-interpolation-filters="sRGB">
<feFlood flood-opacity="0" result="BackgroundImageFix"/>
<feGaussianBlur in="BackgroundImageFix" stdDeviation="20"/>
<feComposite in2="SourceAlpha" operator="in" result="effect1_backgroundBlur_680_2616"/>
<feBlend mode="normal" in="SourceGraphic" in2="effect1_backgroundBlur_680_2616" result="shape"/>
</filter>
<linearGradient id="paint0_linear_680_2616" x1="332" y1="373.5" x2="222.098" y2="4.75566" gradientUnits="userSpaceOnUse">
<stop stop-color="#303030" stop-opacity="0"/>
<stop offset="1" stop-color="#303030"/>
</linearGradient>
<radialGradient id="paint1_radial_680_2616" cx="0" cy="0" r="1" gradientUnits="userSpaceOnUse" gradientTransform="translate(121.714 253.633) rotate(73.4213) scale(134.899 111.868)">
<stop stop-color="white" stop-opacity="0.03"/>
<stop offset="1" stop-color="white" stop-opacity="0.05"/>
</radialGradient>
<linearGradient id="paint2_linear_680_2616" x1="100.064" y1="183.611" x2="294.828" y2="497.596" gradientUnits="userSpaceOnUse">
<stop stop-color="#303030" stop-opacity="0"/>
<stop offset="1" stop-color="#303030"/>
</linearGradient>
<radialGradient id="paint3_radial_680_2616" cx="0" cy="0" r="1" gradientUnits="userSpaceOnUse" gradientTransform="translate(493.883 73.8331) rotate(73.4213) scale(55.2864 45.8474)">
<stop stop-color="white" stop-opacity="0.03"/>
<stop offset="1" stop-color="white" stop-opacity="0.05"/>
</radialGradient>
<linearGradient id="paint4_linear_680_2616" x1="485.01" y1="45.1355" x2="564.831" y2="173.818" gradientUnits="userSpaceOnUse">
<stop stop-color="#303030" stop-opacity="0"/>
<stop offset="1" stop-color="#303030"/>
</linearGradient>
</defs>
</svg>
