<svg width="225" height="64" viewBox="0 0 225 64" fill="none" xmlns="http://www.w3.org/2000/svg">
<g clip-path="url(#clip0_629_2630)">
<path d="M45.7393 18.2989H49.0273L51.0673 29.9417H51.1634L54.4994 18.2989H56.9474L60.2115 29.9417H60.3075L62.3475 18.2989H65.6356L62.1555 34.7968H59.1075L55.7714 23.2011H55.6754L52.2674 34.7968H49.2193L45.7393 18.2989Z" fill="white"/>
<path d="M67.7934 18.2989H79.9376V21.0093H71.0574V25.1809H79.2416V27.8441H71.0574V32.0864H79.9376V34.7968H67.7934V18.2989Z" fill="white"/>
<path d="M82.3483 18.2989H92.8845L95.2845 20.6557V25.2751L94.3245 26.2415L96.0285 27.9384V32.2514L93.4365 34.7968H82.3483V18.2989ZM91.2045 25.2044L92.0685 24.356V21.8106L91.2285 20.9857H85.5404V25.2044H91.2045ZM91.7805 32.11L92.8125 31.0965V28.7868L91.7805 27.7734H85.5404V32.11H91.7805Z" fill="white"/>
<path d="M97.7067 32.2514V29.6589H100.971V31.2851L101.763 32.0629H106.083L106.875 31.2851V28.6219L106.107 27.8677H101.307V25.1337H106.107L106.875 24.3795V21.8106L106.083 21.0328H101.907L101.115 21.8106V23.4368H97.8507V20.8443L100.443 18.2989H107.547L110.139 20.8443V25.3223L108.915 26.5007L110.139 27.7027V32.2514L107.547 34.7968H100.299L97.7067 32.2514Z" fill="white"/>
<path d="M113.368 18.2989H114.76V25.9586H123.88V18.2989H125.272V34.7968H123.88V27.1842H114.76V34.7968H113.368V18.2989Z" fill="white"/>
<path d="M133.745 18.2989H135.401L141.233 34.7968H139.793L138.161 30.0831H130.985L129.353 34.7968H127.913L133.745 18.2989ZM137.753 28.8811L134.609 19.7837H134.537L131.417 28.8811H137.753Z" fill="white"/>
<path d="M143.292 32.3221V20.7736L145.813 18.2989H152.821L155.245 20.6793V21.9284H153.853V21.1035L152.221 19.5244H146.437L144.685 21.2214V31.8507L146.437 33.5712H152.221L153.853 31.9921V31.1673H155.245V32.4164L152.821 34.7968H145.813L143.292 32.3221Z" fill="white"/>
<path d="M158.486 18.2989H159.878V25.9351H164.174L168.47 18.2989H169.958L165.326 26.5243L170.318 34.7968H168.806L164.174 27.1606H159.878V34.7968H158.486V18.2989Z" fill="white"/>
<path d="M172.947 18.2989H183.123V19.5244H174.339V25.9351H181.971V27.1606H174.339V34.7968H172.947V18.2989Z" fill="white"/>
<path d="M186.002 18.2989H196.418V19.5244H187.394V25.8879H195.722V27.1135H187.394V33.5712H196.418V34.7968H186.002V18.2989Z" fill="white"/>
<path d="M199.423 32.7463V31.4972H200.791V32.275L202.087 33.5712H208.016L209.336 32.2278V28.2212L208.016 26.9249H201.559L199.471 24.8981V20.3493L201.559 18.2989H208.424L210.512 20.3493V21.622H209.144V20.7971L207.824 19.5244H202.159L200.839 20.7971V24.4267L202.159 25.6994H208.616L210.704 27.7498V32.6992L208.568 34.7968H201.511L199.423 32.7463Z" fill="white"/>
<path d="M217.594 19.5009H212.506V18.2989H224.074V19.5009H218.986V34.7968H217.594V19.5009Z" fill="white"/>
<path d="M0.958551 24.7177C1.61998 22.368 2.85548 20.3858 4.72995 18.816C4.96707 18.616 5.13679 18.1611 5.51618 18.3535C5.85313 18.5235 5.71586 18.956 5.70837 19.2709C5.64347 21.4307 5.8731 23.5954 5.52117 25.7526C5.32399 26.96 5.68091 28.0748 6.56199 28.9622C8.67108 31.0919 10.8026 33.1967 12.8967 35.3364C13.4558 35.9063 13.9251 35.9713 14.4467 35.3439C14.5516 35.2164 14.6814 35.1064 14.7987 34.9889C15.6456 34.1424 15.6564 33.3033 14.8311 32.4717C13.1863 30.8195 11.5564 29.1572 9.8891 27.5274C9.24764 26.9025 8.94314 26.2025 8.9656 25.3077C9.04797 21.9381 9.10787 18.5685 9.16278 15.1989C9.17276 14.6215 9.36994 14.1541 9.77679 13.7541C10.7253 12.8193 11.6562 11.8669 12.6072 10.937C12.8318 10.717 13.039 10.3246 13.4134 10.477C13.7878 10.6295 13.673 11.0545 13.673 11.3719C13.683 15.2439 13.7354 19.1184 13.658 22.9905C13.6306 24.3178 14.0124 25.2802 14.9958 26.1551C16.2363 27.2599 17.3945 28.4648 18.5251 29.6846C19.1366 30.342 19.551 30.282 20.1375 29.6596C21.4829 28.2423 22.8681 26.86 24.2808 25.5076C24.9023 24.9127 25.1444 24.2578 25.1394 23.4054C25.1145 19.4909 25.127 15.5764 25.1469 11.6619C25.1469 11.2794 24.9223 10.7195 25.4165 10.557C25.7809 10.4371 25.9881 10.962 26.2851 11.172C29.0905 13.1517 30.1538 15.7989 29.7021 19.2284C29.4599 21.0707 29.5922 22.973 29.6846 24.8427C29.7495 26.1226 29.3177 27.0399 28.3917 27.9023C26.7194 29.4621 25.1719 31.1569 23.5146 32.7342C22.7882 33.4266 22.6884 33.9141 23.4746 34.649C25.3566 36.4037 24.8 36.3863 26.5646 34.649C28.2544 32.9842 29.8942 31.2669 31.604 29.6246C32.9243 28.3573 33.3661 26.885 33.0641 25.0952C32.7272 23.1129 32.9693 21.1057 32.9293 19.1109C32.9243 18.866 32.9194 18.5735 33.1914 18.4585C33.466 18.3435 33.6407 18.5835 33.8304 18.736C38.7399 22.6655 39.0819 28.6147 34.6441 33.0767C31.7088 36.0263 28.7486 38.9509 25.8358 41.923C25.1919 42.5805 24.8 42.6155 24.1435 41.918C22.8606 40.5582 21.4304 39.3384 20.14 37.986C19.5385 37.3536 19.1541 37.3036 18.5451 37.9486C17.2597 39.3109 15.8844 40.5857 14.6015 41.948C13.9975 42.588 13.5906 42.563 12.9816 41.943C9.74434 38.6485 6.47213 35.3889 3.20741 32.1193C1.9819 30.892 1.53761 29.2722 0.956055 27.7149V24.7152L0.958551 24.7177Z" fill="white"/>
<path d="M19.429 4.15784C21.613 5.73264 21.9075 7.95985 21.7078 10.4345C21.5731 12.0993 21.6429 12.1468 19.9033 12.1443C16.656 12.1393 17.1502 12.3968 16.8831 9.2047C16.6935 6.93498 17.7642 5.54016 19.1794 4.16034H19.429V4.15784Z" fill="white"/>
<path d="M19.1794 48.1522C18.3707 47.3224 17.5845 46.4675 16.7433 45.6726C16.2616 45.2176 16.2666 44.8552 16.7384 44.4377C16.8631 44.3277 16.9705 44.2002 17.0903 44.0878C19.9182 41.4131 18.815 41.3206 21.7927 44.1478C22.4441 44.7652 22.4816 45.2726 21.8126 45.9075C21.0639 46.6174 20.3874 47.4023 19.6786 48.1547H19.1794V48.1522Z" fill="white"/>
<path d="M21.6901 19.5958C21.6901 20.1358 21.6002 20.6957 21.7075 21.2131C22.0719 23.0104 20.819 23.9403 19.7806 24.9952C19.5935 25.1851 19.3988 25.2651 19.1142 25.1501C18.303 24.8152 16.9552 22.9104 16.9477 22.003C16.9377 20.2983 16.9577 18.5935 16.9452 16.8887C16.9377 16.0638 17.2897 15.6613 18.1333 15.6663C22.3939 15.6913 21.6027 15.2089 21.6876 18.9709C21.6926 19.1784 21.6876 19.3859 21.6876 19.5958H21.6901Z" fill="white"/>
<path d="M72.7432 46.6722L70.9736 47.2582L70.7627 46.4203L73.083 45.5648H73.7568L73.7627 54.1605H72.7432V46.6722ZM78.415 54.3011C77.7979 54.2972 77.1553 54.1449 76.4873 53.8441L76.8037 52.9828C77.4326 53.264 77.9697 53.4086 78.415 53.4164C79.2275 53.4047 79.6357 53.1371 79.6396 52.6136C79.6396 52.4301 79.5869 52.2797 79.4814 52.1625C79.3799 52.0453 79.251 51.9515 79.0947 51.8812C78.9424 51.8109 78.7314 51.7328 78.4619 51.6469C78.1064 51.5336 77.8174 51.4222 77.5947 51.3129C77.3721 51.1996 77.1807 51.0316 77.0205 50.809C76.8643 50.5863 76.7861 50.2914 76.7861 49.9242C76.7979 48.8304 77.4639 48.2836 78.7842 48.2836C79.3896 48.2836 79.917 48.3871 80.3662 48.5941L80.0322 49.4672C79.583 49.2679 79.167 49.1683 78.7842 49.1683C78.085 49.1761 77.7217 49.4281 77.6943 49.9242C77.6943 50.0726 77.7412 50.1957 77.835 50.2933C77.9287 50.391 78.0439 50.4711 78.1807 50.5336C78.3213 50.5922 78.5166 50.6625 78.7666 50.7445C79.1377 50.8617 79.4404 50.9808 79.6748 51.1019C79.9131 51.2191 80.1182 51.4008 80.29 51.6469C80.4619 51.889 80.5479 52.2113 80.5479 52.6136C80.5479 53.7386 79.8369 54.3011 78.415 54.3011ZM83.2666 49.3031V52.3851C83.2666 52.557 83.3037 52.725 83.3779 52.889C83.4561 53.0492 83.5732 53.182 83.7295 53.2875C83.8857 53.389 84.0752 53.4398 84.2979 53.4398C84.4541 53.4398 84.6318 53.4261 84.8311 53.3988V54.2601C84.5771 54.2836 84.3193 54.2953 84.0576 54.2953C83.6943 54.2953 83.3857 54.2172 83.1318 54.0609C82.8779 53.9047 82.6865 53.6957 82.5576 53.434C82.4287 53.1683 82.3643 52.8754 82.3643 52.5551V49.3031H81.333V48.4535H82.3643V46.4027H83.2666V48.4535H84.8369V49.3031H83.2666ZM92.3721 48.2953C92.9111 48.2953 93.3721 48.4086 93.7549 48.6351C94.1416 48.8578 94.4346 49.1859 94.6338 49.6195C94.8369 50.0492 94.9385 50.5668 94.9385 51.1722C94.9385 51.809 94.833 52.3617 94.6221 52.8304C94.4111 53.2953 94.0967 53.6547 93.6787 53.9086C93.2646 54.1625 92.7588 54.2894 92.1611 54.2894C91.2354 54.2894 90.6436 53.9496 90.3857 53.2699V56.9086H89.4189V48.4476H90.1338L90.3623 49.1742C90.624 48.8929 90.9268 48.6761 91.2705 48.5238C91.6182 48.3715 91.9854 48.2953 92.3721 48.2953ZM92.2314 53.3929C92.5518 53.3929 92.8369 53.3148 93.0869 53.1586C93.3408 53.0023 93.54 52.7582 93.6846 52.4261C93.833 52.0902 93.9072 51.6683 93.9072 51.1605C93.9072 50.5551 93.7627 50.0863 93.4736 49.7543C93.1885 49.4222 92.7822 49.2562 92.2549 49.2562C91.9541 49.2562 91.6416 49.309 91.3174 49.4144C90.9971 49.516 90.6865 49.6605 90.3857 49.848V51.7054C90.3857 52.1351 90.4873 52.4769 90.6904 52.7308C90.8936 52.9808 91.1338 53.1547 91.4111 53.2523C91.6924 53.3461 91.9658 53.3929 92.2314 53.3929ZM96.4678 45.2719H97.4287V54.1547H96.4678V45.2719ZM103.335 54.3832C103.12 54.0082 102.958 53.6215 102.849 53.223C102.782 53.4183 102.653 53.598 102.462 53.7621C102.271 53.9261 102.042 54.0551 101.776 54.1488C101.511 54.2426 101.241 54.2894 100.968 54.2894C100.581 54.2894 100.233 54.2289 99.9248 54.1078C99.6201 53.9867 99.3779 53.7992 99.1982 53.5453C99.0225 53.2914 98.9346 52.975 98.9346 52.5961C98.9346 52.2289 99.0264 51.9105 99.21 51.641C99.3936 51.3676 99.6533 51.1586 99.9893 51.014C100.329 50.8695 100.724 50.7972 101.173 50.7972C101.712 50.7972 102.226 50.9359 102.714 51.2133V50.6156C102.714 50.1469 102.604 49.8051 102.386 49.5902C102.167 49.3754 101.843 49.2679 101.413 49.2679C101.249 49.2679 101.013 49.2816 100.704 49.309C100.399 49.3324 100.114 49.3656 99.8486 49.4086L99.6846 48.4476C100.161 48.3929 100.534 48.3539 100.804 48.3304C101.077 48.307 101.306 48.2953 101.489 48.2953C102.2 48.2953 102.739 48.4828 103.106 48.8578C103.474 49.2328 103.659 49.7914 103.663 50.5336L103.675 52.2211C103.679 52.7953 103.849 53.3851 104.185 53.9906L103.335 54.3832ZM101.185 53.3929C101.489 53.3929 101.757 53.3402 101.987 53.2347C102.218 53.1293 102.396 52.9789 102.521 52.7836C102.649 52.5883 102.714 52.3636 102.714 52.1097V52.057C102.519 51.9476 102.302 51.8636 102.063 51.8051C101.825 51.7426 101.577 51.7113 101.319 51.7113C100.901 51.7113 100.567 51.7855 100.317 51.934C100.067 52.0785 99.9424 52.2797 99.9424 52.5375C99.9424 52.7054 99.9932 52.8539 100.095 52.9828C100.2 53.1117 100.347 53.2133 100.534 53.2875C100.722 53.3578 100.938 53.3929 101.185 53.3929ZM107.894 54.2894C107.304 54.2894 106.796 54.1703 106.37 53.932C105.944 53.6937 105.62 53.3519 105.397 52.9066C105.175 52.4574 105.063 51.9261 105.063 51.3129C105.063 50.7035 105.177 50.1722 105.403 49.7191C105.63 49.266 105.962 48.9164 106.399 48.6703C106.837 48.4242 107.362 48.3031 107.976 48.307C108.296 48.3031 108.61 48.3324 108.919 48.3949C109.228 48.4535 109.489 48.5336 109.704 48.6351L109.47 49.6078C108.993 49.3929 108.497 49.2855 107.981 49.2855C107.329 49.2855 106.856 49.4535 106.563 49.7894C106.271 50.1215 106.124 50.6195 106.124 51.2836C106.124 51.9789 106.29 52.4965 106.622 52.8363C106.958 53.1761 107.446 53.3461 108.087 53.3461C108.349 53.3461 108.581 53.3207 108.784 53.2699C108.991 53.2152 109.263 53.1254 109.599 53.0004L109.897 53.891C109.569 54.016 109.231 54.1136 108.884 54.184C108.536 54.2543 108.206 54.2894 107.894 54.2894ZM113.724 53.4047C113.985 53.4047 114.263 53.3754 114.556 53.3168C114.849 53.2582 115.142 53.1722 115.435 53.059L115.733 53.8793C115.456 53.9965 115.104 54.0941 114.679 54.1722C114.253 54.2504 113.866 54.2894 113.519 54.2894C112.597 54.2894 111.882 54.0433 111.374 53.5511C110.866 53.0551 110.612 52.2933 110.612 51.266C110.612 50.6254 110.724 50.0824 110.946 49.6371C111.173 49.1879 111.499 48.848 111.925 48.6176C112.351 48.3871 112.862 48.2719 113.46 48.2719C113.987 48.2719 114.429 48.3949 114.784 48.641C115.14 48.8832 115.403 49.2015 115.575 49.5961C115.747 49.9867 115.833 50.4066 115.833 50.8558C115.833 51.1644 115.79 51.473 115.704 51.7816L111.626 51.8109C111.712 52.3383 111.931 52.7367 112.282 53.0062C112.634 53.2719 113.114 53.4047 113.724 53.4047ZM113.331 49.1918C112.776 49.1918 112.358 49.3519 112.077 49.6722C111.796 49.9926 111.636 50.4242 111.597 50.9672L114.767 50.9379C114.774 50.8441 114.778 50.7738 114.778 50.7269C114.778 50.4613 114.729 50.2133 114.632 49.9828C114.534 49.7484 114.376 49.559 114.157 49.4144C113.942 49.266 113.667 49.1918 113.331 49.1918ZM119.765 48.4476H120.743L121.985 52.5258C122.001 52.5883 122.017 52.6781 122.032 52.7953C122.048 52.9125 122.058 52.9984 122.062 53.0531H122.108C122.112 53.0062 122.126 52.9144 122.149 52.7777C122.177 52.6371 122.198 52.5433 122.214 52.4965L123.573 48.4418H124.452L125.718 52.5199C125.729 52.5551 125.745 52.641 125.765 52.7777C125.788 52.9105 125.802 53.0043 125.806 53.059H125.853C125.856 53.0199 125.87 52.9418 125.894 52.8246C125.917 52.7035 125.938 52.6058 125.958 52.5316L127.177 48.4476H128.161L126.362 54.184H125.366L124.124 50.3285C124.101 50.2465 124.075 50.1449 124.048 50.0238C124.024 49.8988 124.011 49.8187 124.007 49.7836H123.983C123.979 49.8187 123.962 49.8988 123.931 50.0238C123.903 50.1449 123.878 50.2445 123.854 50.3226L122.542 54.184H121.581L119.765 48.4476ZM129.767 46.6605C129.579 46.6605 129.423 46.598 129.298 46.473C129.173 46.348 129.11 46.1918 129.11 46.0043C129.11 45.8207 129.173 45.6664 129.298 45.5414C129.423 45.4164 129.579 45.3539 129.767 45.3539C129.95 45.3539 130.104 45.4164 130.229 45.5414C130.354 45.6664 130.417 45.8207 130.417 46.0043C130.417 46.1918 130.354 46.348 130.229 46.473C130.104 46.598 129.95 46.6605 129.767 46.6605ZM129.269 48.4476H130.229V54.1547H129.269V48.4476ZM134.876 48.2953C135.376 48.2953 135.796 48.3929 136.136 48.5883C136.476 48.7836 136.729 49.0531 136.897 49.3969C137.069 49.7406 137.155 50.1351 137.155 50.5804V54.1547H136.194V50.85C136.194 50.3695 136.091 49.9769 135.884 49.6722C135.681 49.3676 135.343 49.2133 134.87 49.2094C134.534 49.2133 134.218 49.2758 133.921 49.3969C133.628 49.514 133.368 49.6801 133.142 49.8949L133.13 54.1547H132.169L132.181 48.4476H132.89L133.071 49.016C133.524 48.5355 134.126 48.2953 134.876 48.2953ZM141.673 48.2953C142.173 48.2953 142.593 48.3929 142.933 48.5883C143.272 48.7836 143.526 49.0531 143.694 49.3969C143.866 49.7406 143.952 50.1351 143.952 50.5804V54.1547H142.991V50.85C142.991 50.3695 142.888 49.9769 142.681 49.6722C142.478 49.3676 142.14 49.2133 141.667 49.2094C141.331 49.2133 141.015 49.2758 140.718 49.3969C140.425 49.514 140.165 49.6801 139.938 49.8949L139.927 54.1547H138.966L138.978 48.4476H139.687L139.868 49.016C140.321 48.5355 140.923 48.2953 141.673 48.2953ZM148.47 53.4047C148.731 53.4047 149.009 53.3754 149.302 53.3168C149.595 53.2582 149.888 53.1722 150.181 53.059L150.479 53.8793C150.202 53.9965 149.851 54.0941 149.425 54.1722C148.999 54.2504 148.612 54.2894 148.265 54.2894C147.343 54.2894 146.628 54.0433 146.12 53.5511C145.612 53.0551 145.358 52.2933 145.358 51.266C145.358 50.6254 145.47 50.0824 145.692 49.6371C145.919 49.1879 146.245 48.848 146.671 48.6176C147.097 48.3871 147.608 48.2719 148.206 48.2719C148.733 48.2719 149.175 48.3949 149.53 48.641C149.886 48.8832 150.149 49.2015 150.321 49.5961C150.493 49.9867 150.579 50.4066 150.579 50.8558C150.579 51.1644 150.536 51.473 150.45 51.7816L146.372 51.8109C146.458 52.3383 146.677 52.7367 147.028 53.0062C147.38 53.2719 147.86 53.4047 148.47 53.4047ZM148.077 49.1918C147.522 49.1918 147.104 49.3519 146.823 49.6722C146.542 49.9926 146.382 50.4242 146.343 50.9672L149.513 50.9379C149.521 50.8441 149.524 50.7738 149.524 50.7269C149.524 50.4613 149.476 50.2133 149.378 49.9828C149.28 49.7484 149.122 49.559 148.903 49.4144C148.688 49.266 148.413 49.1918 148.077 49.1918ZM152.911 48.9984C153.313 48.5336 153.829 48.3011 154.458 48.3011C154.634 48.3011 154.817 48.3187 155.009 48.3539L154.845 49.2679C154.735 49.2562 154.628 49.2504 154.522 49.2504C153.917 49.2504 153.415 49.4379 153.017 49.8129V54.1547H152.056V48.4476H152.782L152.911 48.9984Z" fill="white"/>
</g>
<defs>
<clipPath id="clip0_629_2630">
<rect width="223.118" height="63.3125" fill="white" transform="translate(0.956055)"/>
</clipPath>
</defs>
</svg>
