<svg width="703" height="464" viewBox="0 0 703 464" fill="none" xmlns="http://www.w3.org/2000/svg">
<g clip-path="url(#clip0_228_308)">
<g clip-path="url(#clip1_228_308)">
<mask id="mask0_228_308" style="mask-type:alpha" maskUnits="userSpaceOnUse" x="-214" y="-426" width="1133" height="1133">
<path opacity="0.6" d="M-212.684 -425.342L916.027 -425.342M-213.342 704.027L-213.342 -426M-214 -399.032L914.711 -399.032M-187.032 705.342L-187.032 -424.684M-214 -372.722L914.711 -372.722M-160.722 705.342L-160.722 -424.684M-214 -346.411L914.711 -346.411M-134.411 705.342L-134.412 -424.684M-214 -320.101L914.711 -320.101M-108.101 705.342L-108.101 -424.684M-214 -293.791L914.711 -293.791M-81.7908 705.342L-81.7909 -424.684M-214 -267.481L914.711 -267.481M-55.4805 705.342L-55.4806 -424.684M-214 -241.17L914.711 -241.17M-29.1702 705.342L-29.1704 -424.684M-214 -214.86L914.711 -214.86M-2.85992 705.342L-2.86009 -424.684M-214 -188.55L914.711 -188.55M23.4504 705.342L23.4502 -424.684M-214 -162.239L914.711 -162.24M49.7606 705.342L49.7605 -424.684M-214 -135.929L914.711 -135.929M76.0709 705.342L76.0708 -424.684M-214 -109.619L914.711 -109.619M102.381 705.342L102.381 -424.684M-214 -83.3085L914.711 -83.3086M128.692 705.342L128.691 -424.685M-214 -56.9983L914.711 -56.9984M155.002 705.342L155.002 -424.685M-214 -30.688L914.711 -30.6881M181.312 705.342L181.312 -424.685M-214 -4.3777L914.711 -4.37779M207.622 705.342L207.622 -424.685M-214 21.9326L914.711 21.9325M233.933 705.342L233.932 -424.685M-214 48.2429L914.711 48.2428M260.243 705.342L260.243 -424.685M-214 74.5532L914.711 74.5531M286.553 705.342L286.553 -424.685M-214 100.863L914.711 100.863M312.863 705.342L312.863 -424.685M-214 127.174L914.711 127.174M339.174 705.342L339.174 -424.685M-214 153.484L914.711 153.484M365.484 705.342L365.484 -424.685M-214 179.794L914.711 179.794M391.794 705.342L391.794 -424.685M-214 206.105L914.711 206.104M418.105 705.342L418.104 -424.685M-214 232.415L914.711 232.415M444.415 705.342L444.415 -424.685M-214 258.725L914.711 258.725M470.725 705.342L470.725 -424.685M-214 285.035L914.711 285.035M497.035 705.342L497.035 -424.685M-214 311.346L914.711 311.346M523.346 705.342L523.346 -424.685M-214 337.656L914.711 337.656M549.656 705.342L549.656 -424.685M-214 363.966L914.711 363.966M575.966 705.342L575.966 -424.685M-214 390.277L914.711 390.276M602.277 705.342L602.276 -424.685M-214 416.587L914.711 416.587M628.587 705.342L628.587 -424.685M-214 442.897L914.711 442.897M654.897 705.342L654.897 -424.685M-214 469.207L914.711 469.207M681.207 705.342L681.207 -424.685M-214 495.518L914.711 495.518M707.518 705.342L707.518 -424.685M-214 521.828L914.711 521.828M733.828 705.342L733.828 -424.685M-214 548.138L914.711 548.138M760.138 705.342L760.138 -424.685M-214 574.449L914.711 574.448M786.449 705.342L786.448 -424.685M-214 600.759L914.711 600.759M812.759 705.342L812.759 -424.685M-214 627.069L914.711 627.069M839.069 705.342L839.069 -424.685M-214 653.379L914.711 653.379M865.379 705.342L865.379 -424.685M-214 679.69L914.711 679.69M891.69 705.342L891.69 -424.685M-214 706L914.711 706M918 705.342L918 -424.685" stroke="#C1C6CE"/>
</mask>
<g mask="url(#mask0_228_308)">
<g filter="url(#filter0_f_228_308)">
<circle cx="352" cy="140" r="242" fill="#D9D9D9"/>
</g>
</g>
<g filter="url(#filter1_d_228_308)">
<rect y="0.499972" width="423.801" height="352.589" rx="9.5" transform="matrix(0.866041 0.499972 -0.866041 0.499972 322.861 44.4971)" fill="#E7ECEF" stroke="#222222" stroke-dasharray="3 3"/>
<path d="M319.471 65.6069C322.362 67.2759 327.055 67.2727 329.953 65.5997C332.851 63.9266 332.856 61.2174 329.965 59.5484C327.074 57.8794 322.381 57.8826 319.483 59.5556C316.585 61.2287 316.58 63.9379 319.471 65.6069Z" stroke="#222222"/>
<path d="M333.43 73.6655C336.321 75.3345 341.014 75.3313 343.912 73.6582C346.81 71.9852 346.815 69.276 343.924 67.607C341.033 65.938 336.34 65.9412 333.442 67.6142C330.544 69.2873 330.539 71.9965 333.43 73.6655Z" stroke="#222222"/>
<path d="M347.389 81.7241C350.28 83.3931 354.973 83.3899 357.871 81.7168C360.769 80.0438 360.774 77.3346 357.883 75.6656C354.992 73.9966 350.299 73.9998 347.401 75.6728C344.503 77.3459 344.498 80.0551 347.389 81.7241Z" stroke="#222222"/>
<path d="M661.808 273.592L293.056 60.709L291.624 61.5361L660.375 274.419L661.808 273.592Z" fill="#C1C6CE"/>
<path d="M326.326 128.803L279.796 101.941C276.905 100.272 272.212 100.275 269.314 101.948C266.416 103.621 266.411 106.33 269.302 108L315.832 134.862C318.723 136.531 323.416 136.527 326.314 134.854C329.212 133.181 329.217 130.472 326.326 128.803Z" stroke="#C1C6CE"/>
<path d="M308.837 138.901L262.307 112.039C259.416 110.37 254.723 110.373 251.825 112.046C248.927 113.719 248.922 116.428 251.813 118.097L298.343 144.959C301.234 146.628 305.927 146.625 308.825 144.952C311.723 143.279 311.728 140.57 308.837 138.901Z" stroke="#C1C6CE"/>
<path d="M291.346 148.999L244.816 122.136C241.925 120.467 237.232 120.471 234.334 122.144C231.436 123.817 231.431 126.526 234.322 128.195L280.852 155.057C283.743 156.726 288.436 156.723 291.334 155.05C294.232 153.377 294.238 150.668 291.346 148.999Z" stroke="#C1C6CE"/>
<path d="M273.853 159.096L227.323 132.234C224.432 130.565 219.739 130.568 216.841 132.241C213.943 133.914 213.937 136.623 216.828 138.292L263.358 165.155C266.249 166.824 270.942 166.82 273.84 165.147C276.738 163.474 276.744 160.765 273.853 159.096Z" stroke="#C1C6CE"/>
<path d="M256.364 169.193L209.833 142.331C206.942 140.662 202.249 140.665 199.352 142.338C196.454 144.011 196.448 146.72 199.339 148.389L245.869 175.251C248.76 176.92 253.453 176.917 256.351 175.244C259.249 173.571 259.255 170.862 256.364 169.193Z" stroke="#C1C6CE"/>
<path d="M238.874 179.291L192.344 152.429C189.453 150.76 184.76 150.763 181.862 152.437C178.964 154.11 178.959 156.819 181.85 158.488L228.38 185.35C231.271 187.019 235.964 187.016 238.862 185.343C241.76 183.67 241.765 180.96 238.874 179.291Z" stroke="#C1C6CE"/>
<path d="M221.383 189.389L174.853 162.527C171.962 160.858 167.269 160.861 164.371 162.534C161.473 164.207 161.468 166.916 164.359 168.585L210.889 195.448C213.78 197.117 218.473 197.113 221.371 195.44C224.269 193.767 224.275 191.058 221.383 189.389Z" stroke="#C1C6CE"/>
<path d="M203.891 199.487L157.361 172.625C154.47 170.956 149.777 170.959 146.879 172.632C143.981 174.305 143.976 177.014 146.867 178.683L193.397 205.545C196.288 207.214 200.981 207.211 203.879 205.538C206.777 203.865 206.782 201.156 203.891 199.487Z" fill="#C1C6CE" stroke="#222222"/>
<path d="M354.315 111.303L310.112 85.7834C306.578 83.7435 300.843 83.7475 297.301 85.7923L293.802 87.8118C290.26 89.8566 290.254 93.1679 293.787 95.2078L337.991 120.727C341.524 122.767 347.26 122.763 350.802 120.718L354.3 118.699C357.842 116.654 357.849 113.342 354.315 111.303Z" stroke="#222222"/>
<path d="M115.066 249.422L70.8628 223.903C67.0081 221.678 60.7509 221.682 56.8869 223.913L53.3887 225.933C49.5248 228.163 49.5172 231.776 53.3719 234.001L97.5756 259.52C101.43 261.745 107.688 261.741 111.551 259.51L115.05 257.491C118.914 255.26 118.921 251.648 115.066 249.422Z" fill="#C1C6CE"/>
<path opacity="0.4" d="M519.887 239.874L351.215 142.498C347.361 140.273 341.104 140.277 337.24 142.508L304.59 161.357C300.726 163.587 300.719 167.2 304.573 169.425L473.245 266.801C477.1 269.026 483.357 269.022 487.221 266.791L519.871 247.942C523.735 245.711 523.742 242.099 519.887 239.874Z" fill="#C1C6CE"/>
<g filter="url(#filter2_dddd_228_308)">
<path d="M333.564 161.938C339.477 165.352 349.065 165.352 354.978 161.938C360.892 158.525 360.892 152.99 354.978 149.576C349.065 146.162 339.477 146.162 333.564 149.576C327.651 152.99 327.651 158.525 333.564 161.938Z" fill="#C1C6CE"/>
<path d="M333.564 161.938C339.477 165.352 349.065 165.352 354.978 161.938C360.892 158.525 360.892 152.99 354.978 149.576C349.065 146.162 339.477 146.162 333.564 149.576C327.651 152.99 327.651 158.525 333.564 161.938Z" stroke="#DB504A" stroke-dasharray="2 2"/>
</g>
<g filter="url(#filter3_dddd_228_308)">
<path d="M484.185 258.784L466.463 248.553C464.26 247.282 460.654 247.303 458.407 248.6C456.159 249.897 456.123 251.979 458.325 253.251L476.047 263.482C478.25 264.753 481.856 264.732 484.104 263.435C486.351 262.138 486.387 260.055 484.185 258.784Z" fill="#C1C6CE"/>
<path d="M484.185 258.784L466.463 248.553C464.26 247.282 460.654 247.303 458.407 248.6C456.159 249.897 456.123 251.979 458.325 253.251L476.047 263.482C478.25 264.753 481.856 264.732 484.104 263.435C486.351 262.138 486.387 260.055 484.185 258.784Z" stroke="#DB504A" stroke-dasharray="2 2"/>
</g>
<path d="M411.516 236.117L358.007 205.225C357.043 204.669 355.479 204.67 354.513 205.228C353.547 205.785 353.545 206.688 354.509 207.245L408.018 238.136C408.982 238.693 410.546 238.691 411.512 238.134C412.478 237.576 412.48 236.673 411.516 236.117Z" fill="#C1C6CE" stroke="#222222"/>
<path d="M548.577 223.452L379.905 126.076C376.372 124.036 370.636 124.04 367.094 126.085L363.596 128.105C360.054 130.15 360.047 133.461 363.581 135.501L532.253 232.876C535.786 234.916 541.522 234.912 545.064 232.868L548.562 230.848C552.104 228.803 552.111 225.492 548.577 223.452Z" stroke="#C1C6CE"/>
<path d="M618.372 263.746L574.169 238.227C570.635 236.187 564.899 236.191 561.357 238.236L557.859 240.255C554.317 242.3 554.31 245.611 557.844 247.651L602.048 273.17C605.581 275.21 611.317 275.206 614.859 273.161L618.357 271.142C621.899 269.097 621.906 265.786 618.372 263.746Z" stroke="#C1C6CE"/>
<path d="M537.458 310.307L493.283 284.804C489.752 282.766 484.129 282.707 480.723 284.673L317.032 379.174C313.626 381.14 313.728 384.386 317.259 386.425L361.433 411.927C364.964 413.965 370.588 414.024 373.993 412.058L537.685 317.558C541.09 315.592 540.989 312.345 537.458 310.307Z" stroke="#C1C6CE"/>
<rect y="0.499972" width="208.186" height="39.5514" rx="9.5" transform="matrix(0.866041 0.499972 -0.866041 0.499972 282.173 175.787)" fill="#E7ECEF" stroke="#C1C6CE" stroke-dasharray="2 2"/>
<path opacity="0.3" d="M274.888 192.351C278.436 194.399 284.188 194.399 287.736 192.351C291.284 190.303 291.284 186.982 287.736 184.933C284.188 182.885 278.436 182.885 274.888 184.933C271.34 186.982 271.34 190.303 274.888 192.351Z" fill="#222222" stroke="#C1C6CE" stroke-width="2"/>
<rect width="19.5456" height="3.95624" rx="1.97812" transform="matrix(0.866041 0.499972 -0.866041 0.499972 429.276 275.05)" fill="#C1C6CE"/>
<rect width="91.0646" height="3.95624" rx="1.97812" transform="matrix(0.866041 0.499972 -0.866041 0.499972 346.561 227.3)" fill="#C1C6CE"/>
<rect width="37.3143" height="3.95624" rx="1.97812" transform="matrix(0.866041 0.499972 -0.866041 0.499972 310.4 206.422)" fill="#C1C6CE"/>
<rect width="17.7687" height="3.95624" rx="1.97812" transform="matrix(0.866041 0.499972 -0.866041 0.499972 291.163 195.317)" fill="#C1C6CE"/>
<rect opacity="0.4" width="29.3184" height="3.95624" rx="1.97812" transform="matrix(0.866041 0.499972 -0.866041 0.499972 298.445 191.114)" fill="#222222"/>
<rect width="17.7687" height="3.95624" rx="1.97812" transform="matrix(0.866041 0.499972 -0.866041 0.499972 327.997 208.175)" fill="#C1C6CE"/>
<rect width="25.3204" height="3.95624" rx="1.97812" transform="matrix(0.866041 0.499972 -0.866041 0.499972 347.233 219.278)" fill="#C1C6CE"/>
<rect width="51.9735" height="3.95624" rx="1.97812" transform="matrix(0.866041 0.499972 -0.866041 0.499972 284.311 199.273)" fill="#C1C6CE"/>
<rect width="28.8741" height="3.95624" rx="1.97812" transform="matrix(0.866041 0.499972 -0.866041 0.499972 333.17 227.479)" fill="#C1C6CE"/>
<rect width="89.2878" height="3.95624" rx="1.97812" transform="matrix(0.866041 0.499972 -0.866041 0.499972 362.022 244.137)" fill="#C1C6CE"/>
<rect width="39.0912" height="3.95624" rx="1.97812" transform="matrix(0.866041 0.499972 -0.866041 0.499972 277.46 203.229)" fill="#C1C6CE"/>
<rect width="15.9918" height="3.95624" rx="1.97812" transform="matrix(0.866041 0.499972 -0.866041 0.499972 315.16 224.995)" fill="#C1C6CE"/>
<rect y="0.499972" width="208.186" height="39.5514" rx="9.5" transform="matrix(0.866041 0.499972 -0.866041 0.499972 162.253 245.018)" fill="#E7ECEF" stroke="#C1C6CE" stroke-dasharray="2 2"/>
<path opacity="0.3" d="M154.967 261.581C158.515 263.63 164.268 263.63 167.816 261.581C171.364 259.533 171.364 256.212 167.816 254.164C164.268 252.116 158.515 252.116 154.967 254.164C151.419 256.212 151.419 259.533 154.967 261.581Z" fill="#222222" stroke="#C1C6CE" stroke-width="2"/>
<rect width="19.5456" height="3.95624" rx="1.97812" transform="matrix(0.866041 0.499972 -0.866041 0.499972 309.353 344.28)" fill="#C1C6CE"/>
<rect width="91.0646" height="3.95624" rx="1.97812" transform="matrix(0.866041 0.499972 -0.866041 0.499972 226.639 296.529)" fill="#C1C6CE"/>
<rect width="37.3143" height="3.95624" rx="1.97812" transform="matrix(0.866041 0.499972 -0.866041 0.499972 190.478 275.652)" fill="#C1C6CE"/>
<rect width="17.7687" height="3.95624" rx="1.97812" transform="matrix(0.866041 0.499972 -0.866041 0.499972 171.242 264.548)" fill="#C1C6CE"/>
<rect opacity="0.4" width="29.3184" height="3.95624" rx="1.97812" transform="matrix(0.866041 0.499972 -0.866041 0.499972 178.524 260.345)" fill="#222222"/>
<rect width="17.7687" height="3.95624" rx="1.97812" transform="matrix(0.866041 0.499972 -0.866041 0.499972 208.075 277.405)" fill="#C1C6CE"/>
<rect width="25.3204" height="3.95624" rx="1.97812" transform="matrix(0.866041 0.499972 -0.866041 0.499972 227.311 288.509)" fill="#C1C6CE"/>
<rect width="51.9735" height="3.95624" rx="1.97812" transform="matrix(0.866041 0.499972 -0.866041 0.499972 164.39 268.503)" fill="#C1C6CE"/>
<rect width="28.8741" height="3.95624" rx="1.97812" transform="matrix(0.866041 0.499972 -0.866041 0.499972 213.249 296.71)" fill="#C1C6CE"/>
<rect width="89.2878" height="3.95624" rx="1.97812" transform="matrix(0.866041 0.499972 -0.866041 0.499972 242.101 313.367)" fill="#C1C6CE"/>
<rect width="39.0912" height="3.95624" rx="1.97812" transform="matrix(0.866041 0.499972 -0.866041 0.499972 157.538 272.46)" fill="#C1C6CE"/>
<rect width="15.9918" height="3.95624" rx="1.97812" transform="matrix(0.866041 0.499972 -0.866041 0.499972 195.238 294.226)" fill="#C1C6CE"/>
<g filter="url(#filter4_dddd_228_308)">
<path d="M233.678 203.285C238.461 200.524 246.216 200.524 250.999 203.285L414.841 297.873C419.624 300.634 419.624 305.111 414.841 307.872L355.928 341.883C351.145 344.645 343.39 344.645 338.607 341.883L174.764 247.296C169.981 244.534 169.981 240.057 174.764 237.296L233.678 203.285Z" fill="#E7ECEF"/>
<path d="M175.197 247.046C174.081 246.401 173.24 245.659 172.672 244.867L172.106 245.002C170.867 243.273 170.867 241.318 172.106 239.589L172.672 239.725C173.24 238.933 174.081 238.191 175.197 237.546L177.652 236.129L177.219 235.879L182.128 233.045L182.561 233.295L187.471 230.46L187.038 230.21L191.947 227.376L192.38 227.626L197.29 224.792L196.857 224.542L201.766 221.708L202.199 221.958L207.109 219.123L206.676 218.873L211.585 216.039L212.018 216.289L216.928 213.455L216.495 213.205L221.404 210.371L221.837 210.621L226.747 207.786L226.314 207.536L231.223 204.702L231.656 204.952L234.111 203.535C235.227 202.89 236.513 202.405 237.884 202.077L237.65 201.75C240.645 201.035 244.031 201.035 247.026 201.75L246.792 202.077C248.164 202.405 249.449 202.89 250.566 203.535L253.126 205.013L253.559 204.763L258.679 207.719L258.246 207.969L263.366 210.925L263.799 210.675L268.919 213.63L268.486 213.88L273.606 216.836L274.039 216.586L279.159 219.542L278.726 219.792L283.846 222.748L284.279 222.498L289.399 225.454L288.966 225.704L294.086 228.66L294.519 228.41L299.639 231.366L299.206 231.616L304.326 234.571L304.76 234.322L309.88 237.277L309.447 237.527L314.567 240.483L315 240.233L320.12 243.189L319.687 243.439L324.807 246.395L325.24 246.145L330.36 249.101L329.927 249.351L335.047 252.307L335.48 252.057L340.6 255.013L340.167 255.263L345.287 258.218L345.72 257.968L350.84 260.924L350.407 261.174L355.527 264.13L355.96 263.88L361.081 266.836L360.647 267.086L365.768 270.042L366.201 269.792L371.321 272.748L370.888 272.998L376.008 275.954L376.441 275.704L381.561 278.66L381.128 278.91L386.248 281.865L386.681 281.615L391.801 284.571L391.368 284.821L396.488 287.777L396.921 287.527L402.041 290.483L401.608 290.733L406.728 293.689L407.161 293.439L412.281 296.395L411.848 296.645L414.408 298.123C415.525 298.767 416.366 299.509 416.934 300.301L417.499 300.166C418.738 301.895 418.738 303.85 417.499 305.579L416.934 305.444C416.366 306.236 415.525 306.978 414.408 307.622L411.954 309.039L412.387 309.289L407.477 312.124L407.044 311.874L402.135 314.708L402.568 314.958L397.658 317.792L397.225 317.542L392.316 320.376L392.749 320.626L387.839 323.461L387.406 323.211L382.497 326.045L382.93 326.295L378.02 329.129L377.587 328.879L372.678 331.713L373.111 331.963L368.202 334.798L367.769 334.548L362.859 337.382L363.292 337.632L358.383 340.466L357.95 340.216L355.495 341.633C354.379 342.278 353.093 342.764 351.722 343.091L351.956 343.418C348.961 344.133 345.574 344.133 342.579 343.418L342.813 343.091C341.442 342.764 340.156 342.278 339.04 341.633L336.48 340.155L336.047 340.405L330.927 337.45L331.36 337.2L326.24 334.244L325.807 334.494L320.687 331.538L321.12 331.288L316 328.332L315.567 328.582L310.447 325.626L310.88 325.376L305.76 322.42L305.326 322.67L300.206 319.714L300.639 319.464L295.519 316.509L295.086 316.759L289.966 313.803L290.399 313.553L285.279 310.597L284.846 310.847L279.726 307.891L280.159 307.641L275.039 304.685L274.606 304.935L269.486 301.979L269.919 301.729L264.799 298.773L264.366 299.023L259.246 296.067L259.679 295.817L254.559 292.862L254.126 293.112L249.005 290.156L249.439 289.906L244.318 286.95L243.885 287.2L238.765 284.244L239.198 283.994L234.078 281.038L233.645 281.288L228.525 278.332L228.958 278.082L223.838 275.126L223.405 275.376L218.285 272.42L218.718 272.17L213.598 269.215L213.165 269.465L208.045 266.509L208.478 266.259L203.358 263.303L202.925 263.553L197.805 260.597L198.238 260.347L193.117 257.391L192.684 257.641L187.564 254.685L187.997 254.435L182.877 251.479L182.444 251.729L177.324 248.774L177.757 248.524L175.197 247.046Z" stroke="#DB504A" stroke-dasharray="6 6"/>
</g>
<path d="M235.486 215.098C239.034 217.146 244.786 217.146 248.334 215.098C251.882 213.05 251.882 209.729 248.334 207.68C244.786 205.632 239.034 205.632 235.486 207.68C231.938 209.729 231.938 213.05 235.486 215.098Z" fill="#C1C6CE" stroke="#C1C6CE" stroke-width="2"/>
<rect width="19.5456" height="3.95624" rx="1.97812" transform="matrix(0.866041 0.499972 -0.866041 0.499972 389.874 297.798)" fill="#C1C6CE"/>
<rect width="91.0646" height="3.95624" rx="1.97812" transform="matrix(0.866041 0.499972 -0.866041 0.499972 307.16 250.047)" fill="#C1C6CE"/>
<rect width="37.3143" height="3.95624" rx="1.97812" transform="matrix(0.866041 0.499972 -0.866041 0.499972 270.998 229.17)" fill="#C1C6CE"/>
<rect width="17.7687" height="3.95624" rx="1.97812" transform="matrix(0.866041 0.499972 -0.866041 0.499972 251.762 218.065)" fill="#C1C6CE"/>
<rect opacity="0.4" width="29.3184" height="3.95624" rx="1.97812" transform="matrix(0.866041 0.499972 -0.866041 0.499972 259.044 213.862)" fill="#222222"/>
<rect width="17.7687" height="3.95624" rx="1.97812" transform="matrix(0.866041 0.499972 -0.866041 0.499972 288.595 230.923)" fill="#C1C6CE"/>
<rect width="25.3204" height="3.95624" rx="1.97812" transform="matrix(0.866041 0.499972 -0.866041 0.499972 307.831 242.026)" fill="#C1C6CE"/>
<rect width="51.9735" height="3.95624" rx="1.97812" transform="matrix(0.866041 0.499972 -0.866041 0.499972 244.91 222.021)" fill="#C1C6CE"/>
<rect y="0.499972" width="178.02" height="48.453" rx="9.5" transform="matrix(0.866041 0.499972 -0.866041 0.499972 237.632 226.722)" fill="#E3E8EB" stroke="#C1C6CE"/>
<rect y="0.499972" width="65.267" height="43.5077" rx="9.5" transform="matrix(0.866041 0.499972 -0.866041 0.499972 116.854 190.623)" fill="#E7ECEF" stroke="#DB504A" stroke-dasharray="6 6"/>
<rect y="0.499972" width="77.6302" height="60.8162" rx="9.5" transform="matrix(0.866041 0.499972 -0.866041 0.499972 538.285 245.513)" fill="#E7ECEF" stroke="#DB504A" stroke-dasharray="6 6"/>
<g filter="url(#filter5_dddd_228_308)">
<path d="M590.013 280.118L545.809 254.599C542.276 252.559 536.54 252.563 532.998 254.608L500.348 273.457C496.806 275.501 496.799 278.813 500.333 280.853L544.537 306.372C548.07 308.412 553.806 308.408 557.348 306.363L589.997 287.514C593.539 285.469 593.546 282.158 590.013 280.118Z" fill="#E3E8EB"/>
<path d="M590.013 280.118L545.809 254.599C542.276 252.559 536.54 252.563 532.998 254.608L500.348 273.457C496.806 275.501 496.799 278.813 500.333 280.853L544.537 306.372C548.07 308.412 553.806 308.408 557.348 306.363L589.997 287.514C593.539 285.469 593.546 282.158 590.013 280.118Z" stroke="#C1C6CE"/>
</g>
<g filter="url(#filter6_dddd_228_308)">
<rect width="55.3873" height="34.6171" rx="10" transform="matrix(0.866041 0.499972 -0.866041 0.499972 116.849 195.564)" fill="#E3E8EB"/>
</g>
</g>
</g>
</g>
<defs>
<filter id="filter0_f_228_308" x="-50" y="-262" width="804" height="804" filterUnits="userSpaceOnUse" color-interpolation-filters="sRGB">
<feFlood flood-opacity="0" result="BackgroundImageFix"/>
<feBlend mode="normal" in="SourceGraphic" in2="BackgroundImageFix" result="shape"/>
<feGaussianBlur stdDeviation="80" result="effect1_foregroundBlur_228_308"/>
</filter>
<filter id="filter1_d_228_308" x="-9.72089" y="30.1758" width="725.971" height="445.315" filterUnits="userSpaceOnUse" color-interpolation-filters="sRGB">
<feFlood flood-opacity="0" result="BackgroundImageFix"/>
<feColorMatrix in="SourceAlpha" type="matrix" values="0 0 0 0 0 0 0 0 0 0 0 0 0 0 0 0 0 0 127 0" result="hardAlpha"/>
<feOffset dy="14"/>
<feGaussianBlur stdDeviation="15.5"/>
<feColorMatrix type="matrix" values="0 0 0 0 0 0 0 0 0 0 0 0 0 0 0 0 0 0 0.15 0"/>
<feBlend mode="normal" in2="BackgroundImageFix" result="effect1_dropShadow_228_308"/>
<feBlend mode="normal" in="SourceGraphic" in2="effect1_dropShadow_228_308" result="shape"/>
</filter>
<filter id="filter2_dddd_228_308" x="314.565" y="143.689" width="59.4124" height="70.1348" filterUnits="userSpaceOnUse" color-interpolation-filters="sRGB">
<feFlood flood-opacity="0" result="BackgroundImageFix"/>
<feColorMatrix in="SourceAlpha" type="matrix" values="0 0 0 0 0 0 0 0 0 0 0 0 0 0 0 0 0 0 127 0" result="hardAlpha"/>
<feOffset dy="2"/>
<feGaussianBlur stdDeviation="2.5"/>
<feColorMatrix type="matrix" values="0 0 0 0 0.858824 0 0 0 0 0.313726 0 0 0 0 0.290196 0 0 0 0.1 0"/>
<feBlend mode="normal" in2="BackgroundImageFix" result="effect1_dropShadow_228_308"/>
<feColorMatrix in="SourceAlpha" type="matrix" values="0 0 0 0 0 0 0 0 0 0 0 0 0 0 0 0 0 0 127 0" result="hardAlpha"/>
<feOffset dy="9"/>
<feGaussianBlur stdDeviation="4.5"/>
<feColorMatrix type="matrix" values="0 0 0 0 0.858824 0 0 0 0 0.313726 0 0 0 0 0.290196 0 0 0 0.09 0"/>
<feBlend mode="normal" in2="effect1_dropShadow_228_308" result="effect2_dropShadow_228_308"/>
<feColorMatrix in="SourceAlpha" type="matrix" values="0 0 0 0 0 0 0 0 0 0 0 0 0 0 0 0 0 0 127 0" result="hardAlpha"/>
<feOffset dy="20"/>
<feGaussianBlur stdDeviation="6"/>
<feColorMatrix type="matrix" values="0 0 0 0 0.858824 0 0 0 0 0.313726 0 0 0 0 0.290196 0 0 0 0.05 0"/>
<feBlend mode="normal" in2="effect2_dropShadow_228_308" result="effect3_dropShadow_228_308"/>
<feColorMatrix in="SourceAlpha" type="matrix" values="0 0 0 0 0 0 0 0 0 0 0 0 0 0 0 0 0 0 127 0" result="hardAlpha"/>
<feOffset dy="35"/>
<feGaussianBlur stdDeviation="7"/>
<feColorMatrix type="matrix" values="0 0 0 0 0.858824 0 0 0 0 0.313726 0 0 0 0 0.290196 0 0 0 0.01 0"/>
<feBlend mode="normal" in2="effect3_dropShadow_228_308" result="effect4_dropShadow_228_308"/>
<feBlend mode="normal" in="SourceGraphic" in2="effect4_dropShadow_228_308" result="shape"/>
</filter>
<filter id="filter3_dddd_228_308" x="442.085" y="244.26" width="58.3406" height="69.5156" filterUnits="userSpaceOnUse" color-interpolation-filters="sRGB">
<feFlood flood-opacity="0" result="BackgroundImageFix"/>
<feColorMatrix in="SourceAlpha" type="matrix" values="0 0 0 0 0 0 0 0 0 0 0 0 0 0 0 0 0 0 127 0" result="hardAlpha"/>
<feOffset dy="2"/>
<feGaussianBlur stdDeviation="2.5"/>
<feColorMatrix type="matrix" values="0 0 0 0 0.858824 0 0 0 0 0.313726 0 0 0 0 0.290196 0 0 0 0.1 0"/>
<feBlend mode="normal" in2="BackgroundImageFix" result="effect1_dropShadow_228_308"/>
<feColorMatrix in="SourceAlpha" type="matrix" values="0 0 0 0 0 0 0 0 0 0 0 0 0 0 0 0 0 0 127 0" result="hardAlpha"/>
<feOffset dy="9"/>
<feGaussianBlur stdDeviation="4.5"/>
<feColorMatrix type="matrix" values="0 0 0 0 0.858824 0 0 0 0 0.313726 0 0 0 0 0.290196 0 0 0 0.09 0"/>
<feBlend mode="normal" in2="effect1_dropShadow_228_308" result="effect2_dropShadow_228_308"/>
<feColorMatrix in="SourceAlpha" type="matrix" values="0 0 0 0 0 0 0 0 0 0 0 0 0 0 0 0 0 0 127 0" result="hardAlpha"/>
<feOffset dy="20"/>
<feGaussianBlur stdDeviation="6"/>
<feColorMatrix type="matrix" values="0 0 0 0 0.858824 0 0 0 0 0.313726 0 0 0 0 0.290196 0 0 0 0.05 0"/>
<feBlend mode="normal" in2="effect2_dropShadow_228_308" result="effect3_dropShadow_228_308"/>
<feColorMatrix in="SourceAlpha" type="matrix" values="0 0 0 0 0 0 0 0 0 0 0 0 0 0 0 0 0 0 127 0" result="hardAlpha"/>
<feOffset dy="35"/>
<feGaussianBlur stdDeviation="7"/>
<feColorMatrix type="matrix" values="0 0 0 0 0.858824 0 0 0 0 0.313726 0 0 0 0 0.290196 0 0 0 0.01 0"/>
<feBlend mode="normal" in2="effect3_dropShadow_228_308" result="effect4_dropShadow_228_308"/>
<feBlend mode="normal" in="SourceGraphic" in2="effect4_dropShadow_228_308" result="shape"/>
</filter>
<filter id="filter4_dddd_228_308" x="157.177" y="198.214" width="275.252" height="194.74" filterUnits="userSpaceOnUse" color-interpolation-filters="sRGB">
<feFlood flood-opacity="0" result="BackgroundImageFix"/>
<feColorMatrix in="SourceAlpha" type="matrix" values="0 0 0 0 0 0 0 0 0 0 0 0 0 0 0 0 0 0 127 0" result="hardAlpha"/>
<feOffset dy="2"/>
<feGaussianBlur stdDeviation="2.5"/>
<feColorMatrix type="matrix" values="0 0 0 0 0.858824 0 0 0 0 0.313726 0 0 0 0 0.290196 0 0 0 0.1 0"/>
<feBlend mode="normal" in2="BackgroundImageFix" result="effect1_dropShadow_228_308"/>
<feColorMatrix in="SourceAlpha" type="matrix" values="0 0 0 0 0 0 0 0 0 0 0 0 0 0 0 0 0 0 127 0" result="hardAlpha"/>
<feOffset dy="9"/>
<feGaussianBlur stdDeviation="4.5"/>
<feColorMatrix type="matrix" values="0 0 0 0 0.858824 0 0 0 0 0.313726 0 0 0 0 0.290196 0 0 0 0.09 0"/>
<feBlend mode="normal" in2="effect1_dropShadow_228_308" result="effect2_dropShadow_228_308"/>
<feColorMatrix in="SourceAlpha" type="matrix" values="0 0 0 0 0 0 0 0 0 0 0 0 0 0 0 0 0 0 127 0" result="hardAlpha"/>
<feOffset dy="20"/>
<feGaussianBlur stdDeviation="6"/>
<feColorMatrix type="matrix" values="0 0 0 0 0.858824 0 0 0 0 0.313726 0 0 0 0 0.290196 0 0 0 0.05 0"/>
<feBlend mode="normal" in2="effect2_dropShadow_228_308" result="effect3_dropShadow_228_308"/>
<feColorMatrix in="SourceAlpha" type="matrix" values="0 0 0 0 0 0 0 0 0 0 0 0 0 0 0 0 0 0 127 0" result="hardAlpha"/>
<feOffset dy="35"/>
<feGaussianBlur stdDeviation="7"/>
<feColorMatrix type="matrix" values="0 0 0 0 0.858824 0 0 0 0 0.313726 0 0 0 0 0.290196 0 0 0 0.01 0"/>
<feBlend mode="normal" in2="effect3_dropShadow_228_308" result="effect4_dropShadow_228_308"/>
<feBlend mode="normal" in="SourceGraphic" in2="effect4_dropShadow_228_308" result="shape"/>
</filter>
<filter id="filter5_dddd_228_308" x="483.075" y="249.718" width="124.196" height="107.535" filterUnits="userSpaceOnUse" color-interpolation-filters="sRGB">
<feFlood flood-opacity="0" result="BackgroundImageFix"/>
<feColorMatrix in="SourceAlpha" type="matrix" values="0 0 0 0 0 0 0 0 0 0 0 0 0 0 0 0 0 0 127 0" result="hardAlpha"/>
<feOffset dy="2"/>
<feGaussianBlur stdDeviation="2.5"/>
<feColorMatrix type="matrix" values="0 0 0 0 0.858824 0 0 0 0 0.313726 0 0 0 0 0.290196 0 0 0 0.1 0"/>
<feBlend mode="normal" in2="BackgroundImageFix" result="effect1_dropShadow_228_308"/>
<feColorMatrix in="SourceAlpha" type="matrix" values="0 0 0 0 0 0 0 0 0 0 0 0 0 0 0 0 0 0 127 0" result="hardAlpha"/>
<feOffset dy="9"/>
<feGaussianBlur stdDeviation="4.5"/>
<feColorMatrix type="matrix" values="0 0 0 0 0.858824 0 0 0 0 0.313726 0 0 0 0 0.290196 0 0 0 0.09 0"/>
<feBlend mode="normal" in2="effect1_dropShadow_228_308" result="effect2_dropShadow_228_308"/>
<feColorMatrix in="SourceAlpha" type="matrix" values="0 0 0 0 0 0 0 0 0 0 0 0 0 0 0 0 0 0 127 0" result="hardAlpha"/>
<feOffset dy="20"/>
<feGaussianBlur stdDeviation="6"/>
<feColorMatrix type="matrix" values="0 0 0 0 0.858824 0 0 0 0 0.313726 0 0 0 0 0.290196 0 0 0 0.05 0"/>
<feBlend mode="normal" in2="effect2_dropShadow_228_308" result="effect3_dropShadow_228_308"/>
<feColorMatrix in="SourceAlpha" type="matrix" values="0 0 0 0 0 0 0 0 0 0 0 0 0 0 0 0 0 0 127 0" result="hardAlpha"/>
<feOffset dy="35"/>
<feGaussianBlur stdDeviation="7"/>
<feColorMatrix type="matrix" values="0 0 0 0 0.858824 0 0 0 0 0.313726 0 0 0 0 0.290196 0 0 0 0.01 0"/>
<feBlend mode="normal" in2="effect3_dropShadow_228_308" result="effect4_dropShadow_228_308"/>
<feBlend mode="normal" in="SourceGraphic" in2="effect4_dropShadow_228_308" result="shape"/>
</filter>
<filter id="filter6_dddd_228_308" x="77.9426" y="195.493" width="95.8013" height="91.1426" filterUnits="userSpaceOnUse" color-interpolation-filters="sRGB">
<feFlood flood-opacity="0" result="BackgroundImageFix"/>
<feColorMatrix in="SourceAlpha" type="matrix" values="0 0 0 0 0 0 0 0 0 0 0 0 0 0 0 0 0 0 127 0" result="hardAlpha"/>
<feOffset dy="2"/>
<feGaussianBlur stdDeviation="2.5"/>
<feColorMatrix type="matrix" values="0 0 0 0 0.858824 0 0 0 0 0.313726 0 0 0 0 0.290196 0 0 0 0.1 0"/>
<feBlend mode="normal" in2="BackgroundImageFix" result="effect1_dropShadow_228_308"/>
<feColorMatrix in="SourceAlpha" type="matrix" values="0 0 0 0 0 0 0 0 0 0 0 0 0 0 0 0 0 0 127 0" result="hardAlpha"/>
<feOffset dy="9"/>
<feGaussianBlur stdDeviation="4.5"/>
<feColorMatrix type="matrix" values="0 0 0 0 0.858824 0 0 0 0 0.313726 0 0 0 0 0.290196 0 0 0 0.09 0"/>
<feBlend mode="normal" in2="effect1_dropShadow_228_308" result="effect2_dropShadow_228_308"/>
<feColorMatrix in="SourceAlpha" type="matrix" values="0 0 0 0 0 0 0 0 0 0 0 0 0 0 0 0 0 0 127 0" result="hardAlpha"/>
<feOffset dy="20"/>
<feGaussianBlur stdDeviation="6"/>
<feColorMatrix type="matrix" values="0 0 0 0 0.858824 0 0 0 0 0.313726 0 0 0 0 0.290196 0 0 0 0.05 0"/>
<feBlend mode="normal" in2="effect2_dropShadow_228_308" result="effect3_dropShadow_228_308"/>
<feColorMatrix in="SourceAlpha" type="matrix" values="0 0 0 0 0 0 0 0 0 0 0 0 0 0 0 0 0 0 127 0" result="hardAlpha"/>
<feOffset dy="35"/>
<feGaussianBlur stdDeviation="7"/>
<feColorMatrix type="matrix" values="0 0 0 0 0.858824 0 0 0 0 0.313726 0 0 0 0 0.290196 0 0 0 0.01 0"/>
<feBlend mode="normal" in2="effect3_dropShadow_228_308" result="effect4_dropShadow_228_308"/>
<feBlend mode="normal" in="SourceGraphic" in2="effect4_dropShadow_228_308" result="shape"/>
</filter>
<clipPath id="clip0_228_308">
<rect width="703" height="464" fill="white"/>
</clipPath>
<clipPath id="clip1_228_308">
<rect width="768" height="809" fill="white" transform="translate(-32)"/>
</clipPath>
</defs>
</svg>
