<svg width="34" height="34" viewBox="0 0 71 33" fill="none" xmlns="http://www.w3.org/2000/svg">
<g filter="url(#filter0_ddddd_24_6244)">
<g clip-path="url(#clip0_24_6244)">
<circle cx="45" cy="6" r="1" transform="rotate(180 45 6)" fill="#FFDC82"/>
<circle cx="22" cy="22" r="1" transform="rotate(180 22 22)" fill="#FFDC82"/>
<circle cx="49" cy="16" r="1" transform="rotate(180 49 16)" fill="#FFDC82"/>
<path d="M44.9809 17.8091C44.8236 19.5113 44.1848 21.1335 43.1392 22.4859C42.0935 23.8383 40.6844 24.8649 39.0766 25.4456C37.4688 26.0264 35.7289 26.1372 34.0604 25.7652C32.3919 25.3932 30.8639 24.5536 29.6551 23.3449C28.4464 22.1361 27.6068 20.6081 27.2348 18.9396C26.8628 17.2711 26.9736 15.5312 27.5544 13.9234C28.1351 12.3156 29.1617 10.9065 30.5141 9.86085C31.8665 8.81523 33.4887 8.1764 35.1909 8.01909C34.1943 9.36736 33.7148 11.0285 33.8394 12.7005C33.9641 14.3725 34.6848 15.9442 35.8703 17.1297C37.0558 18.3152 38.6275 19.0359 40.2995 19.1606C41.9715 19.2852 43.6326 18.8057 44.9809 17.8091Z" fill="#7C43C5"/>
</g>
</g>

</svg>

