<svg width="71" height="108" viewBox="0 0 71 108" fill="none" xmlns="http://www.w3.org/2000/svg">
<g filter="url(#filter0_ddddd_562_2455)">
<g clip-path="url(#clip0_562_2455)">
<circle cx="45" cy="6" r="1" transform="rotate(180 45 6)" fill="#FFDC82"/>
<circle cx="22" cy="22" r="1" transform="rotate(180 22 22)" fill="#FFDC82"/>
<circle cx="49" cy="16" r="1" transform="rotate(180 49 16)" fill="#FFDC82"/>
<path d="M44.9809 17.8091C44.8236 19.5113 44.1847 21.1335 43.1391 22.4859C42.0935 23.8383 40.6843 24.8649 39.0766 25.4456C37.4688 26.0264 35.7288 26.1372 34.0604 25.7652C32.3919 25.3931 30.8639 24.5536 29.6551 23.3449C28.4463 22.1361 27.6068 20.6081 27.2348 18.9396C26.8627 17.2711 26.9736 15.5312 27.5543 13.9234C28.1351 12.3156 29.1617 10.9065 30.5141 9.86084C31.8665 8.81523 33.4887 8.17639 35.1909 8.01909C34.1943 9.36736 33.7147 11.0285 33.8394 12.7005C33.9641 14.3725 34.6847 15.9441 35.8703 17.1297C37.0558 18.3152 38.6275 19.0359 40.2994 19.1606C41.9714 19.2852 43.6326 18.8057 44.9809 17.8091Z" fill="#7C43C5"/>
</g>
</g>
<defs>
<filter id="filter0_ddddd_562_2455" x="-2" y="-4" width="76" height="112" filterUnits="userSpaceOnUse" color-interpolation-filters="sRGB">
<feFlood flood-opacity="0" result="BackgroundImageFix"/>
<feColorMatrix in="SourceAlpha" type="matrix" values="0 0 0 0 0 0 0 0 0 0 0 0 0 0 0 0 0 0 127 0" result="hardAlpha"/>
<feOffset/>
<feColorMatrix type="matrix" values="0 0 0 0 0.462745 0 0 0 0 0.25098 0 0 0 0 0.764706 0 0 0 0.1 0"/>
<feBlend mode="normal" in2="BackgroundImageFix" result="effect1_dropShadow_562_2455"/>
<feColorMatrix in="SourceAlpha" type="matrix" values="0 0 0 0 0 0 0 0 0 0 0 0 0 0 0 0 0 0 127 0" result="hardAlpha"/>
<feOffset dy="3"/>
<feGaussianBlur stdDeviation="3.5"/>
<feColorMatrix type="matrix" values="0 0 0 0 0.462745 0 0 0 0 0.25098 0 0 0 0 0.764706 0 0 0 0.1 0"/>
<feBlend mode="normal" in2="effect1_dropShadow_562_2455" result="effect2_dropShadow_562_2455"/>
<feColorMatrix in="SourceAlpha" type="matrix" values="0 0 0 0 0 0 0 0 0 0 0 0 0 0 0 0 0 0 127 0" result="hardAlpha"/>
<feOffset dy="13"/>
<feGaussianBlur stdDeviation="6.5"/>
<feColorMatrix type="matrix" values="0 0 0 0 0.462745 0 0 0 0 0.25098 0 0 0 0 0.764706 0 0 0 0.09 0"/>
<feBlend mode="normal" in2="effect2_dropShadow_562_2455" result="effect3_dropShadow_562_2455"/>
<feColorMatrix in="SourceAlpha" type="matrix" values="0 0 0 0 0 0 0 0 0 0 0 0 0 0 0 0 0 0 127 0" result="hardAlpha"/>
<feOffset dy="30"/>
<feGaussianBlur stdDeviation="9"/>
<feColorMatrix type="matrix" values="0 0 0 0 0.462745 0 0 0 0 0.25098 0 0 0 0 0.764706 0 0 0 0.05 0"/>
<feBlend mode="normal" in2="effect3_dropShadow_562_2455" result="effect4_dropShadow_562_2455"/>
<feColorMatrix in="SourceAlpha" type="matrix" values="0 0 0 0 0 0 0 0 0 0 0 0 0 0 0 0 0 0 127 0" result="hardAlpha"/>
<feOffset dy="53"/>
<feGaussianBlur stdDeviation="10.5"/>
<feColorMatrix type="matrix" values="0 0 0 0 0.462745 0 0 0 0 0.25098 0 0 0 0 0.764706 0 0 0 0.01 0"/>
<feBlend mode="normal" in2="effect4_dropShadow_562_2455" result="effect5_dropShadow_562_2455"/>
<feBlend mode="normal" in="SourceGraphic" in2="effect5_dropShadow_562_2455" result="shape"/>
</filter>
<clipPath id="clip0_562_2455">
<rect x="19" width="34" height="34" rx="10" fill="white"/>
</clipPath>
</defs>
</svg>
