<svg width="225" height="64" viewBox="0 0 225 64" fill="none" xmlns="http://www.w3.org/2000/svg">
<g clip-path="url(#clip0_924_296)">
<path d="M45.7393 18.2989H49.0273L51.0673 29.9417H51.1634L54.4994 18.2989H56.9474L60.2115 29.9417H60.3075L62.3475 18.2989H65.6356L62.1555 34.7968H59.1075L55.7714 23.2011H55.6754L52.2674 34.7968H49.2193L45.7393 18.2989Z" fill="#222222"/>
<path d="M67.7934 18.2989H79.9376V21.0093H71.0574V25.1809H79.2416V27.8441H71.0574V32.0864H79.9376V34.7968H67.7934V18.2989Z" fill="#222222"/>
<path d="M82.3483 18.2989H92.8845L95.2845 20.6557V25.2751L94.3245 26.2415L96.0285 27.9384V32.2514L93.4365 34.7968H82.3483V18.2989ZM91.2045 25.2044L92.0685 24.356V21.8106L91.2285 20.9857H85.5404V25.2044H91.2045ZM91.7805 32.11L92.8125 31.0965V28.7868L91.7805 27.7734H85.5404V32.11H91.7805Z" fill="#222222"/>
<path d="M97.7067 32.2514V29.6589H100.971V31.2851L101.763 32.0629H106.083L106.875 31.2851V28.6219L106.107 27.8677H101.307V25.1337H106.107L106.875 24.3795V21.8106L106.083 21.0328H101.907L101.115 21.8106V23.4368H97.8507V20.8443L100.443 18.2989H107.547L110.139 20.8443V25.3223L108.915 26.5007L110.139 27.7027V32.2514L107.547 34.7968H100.299L97.7067 32.2514Z" fill="#222222"/>
<path d="M113.368 18.2989H114.76V25.9586H123.88V18.2989H125.272V34.7968H123.88V27.1842H114.76V34.7968H113.368V18.2989Z" fill="#222222"/>
<path d="M133.745 18.2989H135.401L141.233 34.7968H139.793L138.161 30.0831H130.985L129.353 34.7968H127.913L133.745 18.2989ZM137.753 28.8811L134.609 19.7837H134.537L131.417 28.8811H137.753Z" fill="#222222"/>
<path d="M143.292 32.3221V20.7736L145.813 18.2989H152.821L155.245 20.6793V21.9284H153.853V21.1035L152.221 19.5244H146.437L144.685 21.2214V31.8507L146.437 33.5712H152.221L153.853 31.9921V31.1673H155.245V32.4164L152.821 34.7968H145.813L143.292 32.3221Z" fill="#222222"/>
<path d="M158.486 18.2989H159.878V25.9351H164.174L168.47 18.2989H169.958L165.326 26.5243L170.318 34.7968H168.806L164.174 27.1606H159.878V34.7968H158.486V18.2989Z" fill="#222222"/>
<path d="M172.947 18.2989H183.123V19.5244H174.339V25.9351H181.971V27.1606H174.339V34.7968H172.947V18.2989Z" fill="#222222"/>
<path d="M186.002 18.2989H196.418V19.5244H187.394V25.8879H195.722V27.1135H187.394V33.5712H196.418V34.7968H186.002V18.2989Z" fill="#222222"/>
<path d="M199.423 32.7463V31.4972H200.791V32.275L202.087 33.5712H208.016L209.336 32.2278V28.2212L208.016 26.9249H201.559L199.471 24.8981V20.3493L201.559 18.2989H208.424L210.512 20.3493V21.622H209.144V20.7971L207.824 19.5244H202.159L200.839 20.7971V24.4267L202.159 25.6994H208.616L210.704 27.7498V32.6992L208.568 34.7968H201.511L199.423 32.7463Z" fill="#222222"/>
<path d="M217.594 19.5009H212.506V18.2989H224.074V19.5009H218.986V34.7968H217.594V19.5009Z" fill="#222222"/>
<path d="M0.958551 24.7177C1.61998 22.368 2.85548 20.3858 4.72995 18.816C4.96707 18.616 5.13679 18.1611 5.51618 18.3535C5.85313 18.5235 5.71586 18.956 5.70837 19.2709C5.64347 21.4307 5.8731 23.5954 5.52117 25.7526C5.32399 26.96 5.68091 28.0748 6.56199 28.9622C8.67108 31.0919 10.8026 33.1967 12.8967 35.3364C13.4558 35.9063 13.9251 35.9713 14.4467 35.3439C14.5516 35.2164 14.6814 35.1064 14.7987 34.9889C15.6456 34.1424 15.6564 33.3033 14.8311 32.4717C13.1863 30.8195 11.5564 29.1572 9.8891 27.5274C9.24764 26.9025 8.94314 26.2025 8.9656 25.3077C9.04797 21.9381 9.10787 18.5685 9.16278 15.1989C9.17276 14.6215 9.36994 14.1541 9.77679 13.7541C10.7253 12.8193 11.6562 11.8669 12.6072 10.937C12.8318 10.717 13.039 10.3246 13.4134 10.477C13.7878 10.6295 13.673 11.0545 13.673 11.3719C13.683 15.2439 13.7354 19.1184 13.658 22.9905C13.6306 24.3178 14.0124 25.2802 14.9958 26.1551C16.2363 27.2599 17.3945 28.4648 18.5251 29.6846C19.1366 30.342 19.551 30.282 20.1375 29.6596C21.4829 28.2423 22.8681 26.86 24.2808 25.5076C24.9023 24.9127 25.1444 24.2578 25.1394 23.4054C25.1145 19.4909 25.127 15.5764 25.1469 11.6619C25.1469 11.2794 24.9223 10.7195 25.4165 10.557C25.7809 10.4371 25.9881 10.962 26.2851 11.172C29.0905 13.1517 30.1538 15.7989 29.7021 19.2284C29.4599 21.0707 29.5922 22.973 29.6846 24.8427C29.7495 26.1226 29.3177 27.0399 28.3917 27.9023C26.7194 29.4621 25.1719 31.1569 23.5146 32.7342C22.7882 33.4266 22.6884 33.9141 23.4746 34.649C25.3566 36.4037 24.8 36.3863 26.5646 34.649C28.2544 32.9842 29.8942 31.2669 31.604 29.6246C32.9243 28.3573 33.3661 26.885 33.0641 25.0952C32.7272 23.1129 32.9693 21.1057 32.9293 19.1109C32.9243 18.866 32.9194 18.5735 33.1914 18.4585C33.466 18.3435 33.6407 18.5835 33.8304 18.736C38.7399 22.6655 39.0819 28.6147 34.6441 33.0767C31.7088 36.0263 28.7486 38.9509 25.8358 41.923C25.1919 42.5805 24.8 42.6155 24.1435 41.918C22.8606 40.5582 21.4304 39.3384 20.14 37.986C19.5385 37.3536 19.1541 37.3036 18.5451 37.9486C17.2597 39.3109 15.8844 40.5857 14.6015 41.948C13.9975 42.588 13.5906 42.563 12.9816 41.943C9.74434 38.6485 6.47213 35.3889 3.20741 32.1193C1.9819 30.892 1.53761 29.2722 0.956055 27.7149V24.7152L0.958551 24.7177Z" fill="#222222"/>
<path d="M19.429 4.15784C21.613 5.73264 21.9075 7.95985 21.7078 10.4345C21.5731 12.0993 21.6429 12.1468 19.9033 12.1443C16.656 12.1393 17.1502 12.3968 16.8831 9.2047C16.6935 6.93498 17.7642 5.54016 19.1794 4.16034H19.429V4.15784Z" fill="#222222"/>
<path d="M19.1794 48.1522C18.3707 47.3224 17.5845 46.4675 16.7433 45.6726C16.2616 45.2176 16.2666 44.8552 16.7384 44.4377C16.8631 44.3277 16.9705 44.2002 17.0903 44.0878C19.9182 41.4131 18.815 41.3206 21.7927 44.1478C22.4441 44.7652 22.4816 45.2726 21.8126 45.9075C21.0639 46.6174 20.3874 47.4023 19.6786 48.1547H19.1794V48.1522Z" fill="#222222"/>
<path d="M21.6901 19.5958C21.6901 20.1358 21.6002 20.6957 21.7075 21.2131C22.0719 23.0104 20.819 23.9403 19.7806 24.9952C19.5935 25.1851 19.3988 25.2651 19.1142 25.1501C18.303 24.8152 16.9552 22.9104 16.9477 22.003C16.9377 20.2983 16.9577 18.5935 16.9452 16.8887C16.9377 16.0638 17.2897 15.6613 18.1333 15.6663C22.3939 15.6913 21.6027 15.2089 21.6876 18.9709C21.6926 19.1784 21.6876 19.3859 21.6876 19.5958H21.6901Z" fill="#222222"/>
<path d="M73.7568 54.1547H72.7959V46.8949C72.7217 46.9691 72.6123 47.0551 72.4678 47.1527C72.3271 47.2465 72.167 47.3402 71.9873 47.434C71.8115 47.5277 71.624 47.6156 71.4248 47.6976C71.2295 47.7797 71.0381 47.8441 70.8506 47.891V46.9183C71.0615 46.8597 71.2842 46.7816 71.5186 46.684C71.7568 46.5824 71.9893 46.4711 72.2158 46.35C72.4463 46.225 72.6631 46.0961 72.8662 45.9633C73.0693 45.8265 73.2451 45.6937 73.3936 45.5648H73.7568V54.1547ZM76.5928 53.9379V52.9066C77.1162 53.2933 77.6924 53.4867 78.3213 53.4867C79.165 53.4867 79.5869 53.2054 79.5869 52.6429C79.5869 52.4828 79.5498 52.348 79.4756 52.2386C79.4053 52.1254 79.3076 52.0258 79.1826 51.9398C79.0615 51.8539 78.917 51.7777 78.749 51.7113C78.585 51.641 78.4072 51.5687 78.2158 51.4945C77.9502 51.389 77.7158 51.2836 77.5127 51.1781C77.3135 51.0687 77.1455 50.9476 77.0088 50.8148C76.876 50.6781 76.7744 50.5238 76.7041 50.3519C76.6377 50.1801 76.6045 49.9789 76.6045 49.7484C76.6045 49.4672 76.6689 49.2191 76.7979 49.0043C76.9268 48.7855 77.0986 48.6039 77.3135 48.4594C77.5283 48.3109 77.7725 48.1996 78.0459 48.1254C78.3232 48.0511 78.6084 48.014 78.9014 48.014C79.4209 48.014 79.8857 48.1039 80.2959 48.2836V49.2562C79.8545 48.9672 79.3467 48.8226 78.7725 48.8226C78.5928 48.8226 78.4307 48.8441 78.2861 48.8871C78.1416 48.9261 78.0166 48.9828 77.9111 49.057C77.8096 49.1312 77.7295 49.2211 77.6709 49.3265C77.6162 49.4281 77.5889 49.5414 77.5889 49.6664C77.5889 49.8226 77.6162 49.9535 77.6709 50.059C77.7295 50.1644 77.8135 50.2582 77.9229 50.3402C78.0322 50.4222 78.165 50.4965 78.3213 50.5629C78.4775 50.6293 78.6553 50.7015 78.8545 50.7797C79.1201 50.8812 79.3584 50.9867 79.5693 51.0961C79.7803 51.2015 79.96 51.3226 80.1084 51.4594C80.2568 51.5922 80.3701 51.7465 80.4482 51.9222C80.5303 52.098 80.5713 52.307 80.5713 52.5492C80.5713 52.8461 80.5049 53.1039 80.3721 53.3226C80.2432 53.5414 80.0693 53.723 79.8506 53.8676C79.6318 54.0121 79.3799 54.1195 79.0947 54.1898C78.8096 54.2601 78.5107 54.2953 78.1982 54.2953C77.5811 54.2953 77.0459 54.1761 76.5928 53.9379ZM84.8369 54.0961C84.6104 54.2211 84.3115 54.2836 83.9404 54.2836C82.8896 54.2836 82.3643 53.6976 82.3643 52.5258V48.975H81.333V48.1547H82.3643V46.6898L83.3252 46.3793V48.1547H84.8369V48.975H83.3252V52.3558C83.3252 52.7582 83.3936 53.0453 83.5303 53.2172C83.667 53.389 83.8936 53.475 84.21 53.475C84.4521 53.475 84.6611 53.4086 84.8369 53.2758V54.0961ZM90.3975 53.2875H90.374V56.9144H89.4131V48.1547H90.374V49.2094H90.3975C90.8701 48.4125 91.5615 48.014 92.4717 48.014C93.2451 48.014 93.8486 48.2836 94.2822 48.8226C94.7158 49.3578 94.9326 50.0765 94.9326 50.9789C94.9326 51.9828 94.6885 52.7875 94.2002 53.3929C93.7119 53.9945 93.0439 54.2953 92.1963 54.2953C91.4189 54.2953 90.8193 53.9594 90.3975 53.2875ZM90.374 50.8676V51.7054C90.374 52.2015 90.5342 52.6234 90.8545 52.9711C91.1787 53.3148 91.5889 53.4867 92.085 53.4867C92.667 53.4867 93.1221 53.264 93.4502 52.8187C93.7822 52.3734 93.9482 51.7543 93.9482 50.9613C93.9482 50.2933 93.7939 49.7699 93.4854 49.391C93.1768 49.0121 92.7588 48.8226 92.2314 48.8226C91.6729 48.8226 91.2236 49.0179 90.8838 49.4086C90.5439 49.7953 90.374 50.2816 90.374 50.8676ZM97.4287 54.1547H96.4678V45.2719H97.4287V54.1547ZM103.669 54.1547H102.708V53.2172H102.685C102.267 53.9359 101.651 54.2953 100.839 54.2953C100.241 54.2953 99.7725 54.1371 99.4326 53.8207C99.0967 53.5043 98.9287 53.0844 98.9287 52.5609C98.9287 51.4398 99.5889 50.7875 100.909 50.6039L102.708 50.3519C102.708 49.3324 102.296 48.8226 101.472 48.8226C100.749 48.8226 100.097 49.0687 99.5146 49.5609V48.5765C100.104 48.2015 100.784 48.014 101.554 48.014C102.964 48.014 103.669 48.7601 103.669 50.2523V54.1547ZM102.708 51.1195L101.261 51.3187C100.815 51.3812 100.479 51.4926 100.253 51.6527C100.026 51.809 99.9131 52.0883 99.9131 52.4906C99.9131 52.7836 100.017 53.0238 100.224 53.2113C100.435 53.3949 100.714 53.4867 101.062 53.4867C101.538 53.4867 101.931 53.3207 102.239 52.9886C102.552 52.6527 102.708 52.2289 102.708 51.7172V51.1195ZM109.569 53.8793C109.108 54.1566 108.562 54.2953 107.929 54.2953C107.073 54.2953 106.382 54.0179 105.854 53.4633C105.331 52.9047 105.069 52.182 105.069 51.2953C105.069 50.307 105.353 49.514 105.919 48.9164C106.485 48.3148 107.241 48.014 108.187 48.014C108.714 48.014 109.179 48.1117 109.581 48.307V49.2914C109.136 48.9789 108.659 48.8226 108.151 48.8226C107.538 48.8226 107.034 49.0433 106.64 49.4847C106.249 49.9222 106.054 50.4984 106.054 51.2133C106.054 51.9164 106.237 52.4711 106.604 52.8773C106.976 53.2836 107.472 53.4867 108.093 53.4867C108.616 53.4867 109.108 53.3129 109.569 52.9652V53.8793ZM115.845 51.3949H111.608C111.624 52.0629 111.804 52.5785 112.147 52.9418C112.491 53.3051 112.964 53.4867 113.565 53.4867C114.241 53.4867 114.862 53.264 115.429 52.8187V53.7211C114.901 54.1039 114.204 54.2953 113.337 54.2953C112.489 54.2953 111.823 54.0238 111.339 53.4808C110.854 52.934 110.612 52.1664 110.612 51.1781C110.612 50.2445 110.876 49.4847 111.403 48.8988C111.935 48.309 112.593 48.014 113.378 48.014C114.163 48.014 114.771 48.2679 115.2 48.7758C115.63 49.2836 115.845 49.9886 115.845 50.891V51.3949ZM114.86 50.5804C114.856 50.0258 114.722 49.5941 114.456 49.2855C114.194 48.9769 113.829 48.8226 113.36 48.8226C112.907 48.8226 112.522 48.9847 112.206 49.309C111.89 49.6332 111.694 50.057 111.62 50.5804H114.86ZM128.155 48.1547L126.356 54.1547H125.36L124.124 49.8597C124.077 49.6957 124.046 49.5101 124.03 49.3031H124.007C123.995 49.4437 123.954 49.6254 123.884 49.848L122.542 54.1547H121.581L119.765 48.1547H120.772L122.015 52.6664C122.054 52.8031 122.081 52.9828 122.097 53.2054H122.144C122.155 53.0336 122.19 52.85 122.249 52.6547L123.632 48.1547H124.511L125.753 52.6781C125.792 52.8226 125.821 53.0023 125.841 53.2172H125.888C125.896 53.0648 125.929 52.8851 125.987 52.6781L127.206 48.1547H128.155ZM129.761 46.6312C129.589 46.6312 129.442 46.5726 129.321 46.4554C129.2 46.3383 129.14 46.1898 129.14 46.0101C129.14 45.8304 129.2 45.682 129.321 45.5648C129.442 45.4437 129.589 45.3832 129.761 45.3832C129.937 45.3832 130.085 45.4437 130.206 45.5648C130.331 45.682 130.394 45.8304 130.394 46.0101C130.394 46.182 130.331 46.3285 130.206 46.4496C130.085 46.5707 129.937 46.6312 129.761 46.6312ZM130.229 54.1547H129.269V48.1547H130.229V54.1547ZM137.155 54.1547H136.194V50.7328C136.194 49.4594 135.729 48.8226 134.8 48.8226C134.319 48.8226 133.921 49.0043 133.604 49.3676C133.292 49.7269 133.136 50.182 133.136 50.7328V54.1547H132.175V48.1547H133.136V49.1508H133.159C133.612 48.3929 134.269 48.014 135.128 48.014C135.784 48.014 136.286 48.2269 136.634 48.6527C136.981 49.0746 137.155 49.6859 137.155 50.4867V54.1547ZM143.952 54.1547H142.991V50.7328C142.991 49.4594 142.526 48.8226 141.597 48.8226C141.116 48.8226 140.718 49.0043 140.401 49.3676C140.089 49.7269 139.933 50.182 139.933 50.7328V54.1547H138.972V48.1547H139.933V49.1508H139.956C140.409 48.3929 141.065 48.014 141.925 48.014C142.581 48.014 143.083 48.2269 143.431 48.6527C143.778 49.0746 143.952 49.6859 143.952 50.4867V54.1547ZM150.591 51.3949H146.354C146.37 52.0629 146.55 52.5785 146.894 52.9418C147.237 53.3051 147.71 53.4867 148.312 53.4867C148.987 53.4867 149.608 53.264 150.175 52.8187V53.7211C149.647 54.1039 148.95 54.2953 148.083 54.2953C147.235 54.2953 146.569 54.0238 146.085 53.4808C145.601 52.934 145.358 52.1664 145.358 51.1781C145.358 50.2445 145.622 49.4847 146.149 48.8988C146.681 48.309 147.339 48.014 148.124 48.014C148.909 48.014 149.517 48.2679 149.946 48.7758C150.376 49.2836 150.591 49.9886 150.591 50.891V51.3949ZM149.606 50.5804C149.603 50.0258 149.468 49.5941 149.202 49.2855C148.94 48.9769 148.575 48.8226 148.106 48.8226C147.653 48.8226 147.269 48.9847 146.952 49.309C146.636 49.6332 146.44 50.057 146.366 50.5804H149.606ZM155.179 49.1273C155.011 48.9984 154.769 48.934 154.452 48.934C154.042 48.934 153.698 49.1273 153.421 49.514C153.147 49.9008 153.011 50.4281 153.011 51.0961V54.1547H152.05V48.1547H153.011V49.391H153.034C153.171 48.9691 153.38 48.641 153.661 48.4066C153.942 48.1683 154.257 48.0492 154.604 48.0492C154.854 48.0492 155.046 48.0765 155.179 48.1312V49.1273Z" fill="#222222"/>
</g>
<defs>
<clipPath id="clip0_924_296">
<rect width="223.118" height="63.3125" fill="white" transform="translate(0.956055)"/>
</clipPath>
</defs>
</svg>
