<svg xmlns="http://www.w3.org/2000/svg" width="34" height="34" viewBox="0 0 34 34" fill="none">
<circle cx="27" cy="7" r="1" transform="rotate(180 27 7)" fill="#FFDC82"/>
<circle cx="4" cy="23" r="1" transform="rotate(180 4 23)" fill="#FFDC82"/>
<circle cx="31" cy="17" r="1" transform="rotate(180 31 17)" fill="#FFDC82"/>
<path d="M26.9809 18.8091C26.8236 20.5113 26.1848 22.1335 25.1392 23.4859C24.0935 24.8383 22.6844 25.8649 21.0766 26.4456C19.4688 27.0264 17.7289 27.1372 16.0604 26.7652C14.3919 26.3932 12.8639 25.5536 11.6551 24.3449C10.4464 23.1361 9.60684 21.6081 9.23481 19.9396C8.86278 18.2711 8.97362 16.5312 9.55436 14.9234C10.1351 13.3156 11.1617 11.9065 12.5141 10.8608C13.8665 9.81523 15.4887 9.1764 17.1909 9.01909C16.1943 10.3674 15.7148 12.0285 15.8394 13.7005C15.9641 15.3725 16.6848 16.9442 17.8703 18.1297C19.0558 19.3152 20.6275 20.0359 22.2995 20.1606C23.9715 20.2852 25.6326 19.8057 26.9809 18.8091Z" fill="#7C43C5"/>
</svg>

