<svg width="36" height="36" viewBox="0 0 36 36" fill="none" xmlns="http://www.w3.org/2000/svg">
<g id="Group 100">
<path id="Subtract" fill-rule="evenodd" clip-rule="evenodd" d="M18 36.0024C27.9411 36.0024 36 27.9436 36 18.0024C36 8.06132 27.9411 0.00244141 18 0.00244141C8.05887 0.00244141 0 8.06132 0 18.0024C0 27.9436 8.05887 36.0024 18 36.0024ZM30 23.7024V13.932L18.4176 19.9992C18.2887 20.0667 18.1455 20.102 18 20.102C17.8545 20.102 17.7113 20.0667 17.5824 19.9992L6 13.932V23.7024L6.006 23.9232C6.0624 24.9178 6.49724 25.8531 7.22132 26.5372C7.94541 27.2214 8.90384 27.6025 9.9 27.6024H26.1L26.3208 27.5964C27.3154 27.54 28.2507 27.1052 28.9348 26.3811C29.6189 25.657 30.0001 24.6986 30 23.7024ZM28.716 9.40956C27.999 8.76124 27.0667 8.40232 26.1 8.40244H9.9L9.6768 8.40844C8.75002 8.46147 7.87254 8.84333 7.2021 9.4854C6.53166 10.1275 6.11223 10.9876 6.0192 11.9112L18 18.1872L29.9808 11.9112C29.8838 10.9494 29.4331 10.0579 28.716 9.40956Z" fill="#222222"/>
</g>
</svg>
