<svg width="36" height="36" viewBox="0 0 36 36" fill="none" xmlns="http://www.w3.org/2000/svg">
<g id="twitter-x-seeklogo.com-4 1" clip-path="url(#clip0_879_218)">
<path id="Subtract" fill-rule="evenodd" clip-rule="evenodd" d="M35.9856 18.0063C35.9856 27.944 27.9379 36 18.0106 36C8.08332 36 0.0356445 27.944 0.0356445 18.0063C0.0356445 8.06872 8.08332 0.0126953 18.0106 0.0126953C27.9379 0.0126953 35.9856 8.06872 35.9856 18.0063ZM15.5298 19.0812L6.93801 7.58134H13.5599L19.1926 15.1204L26.1637 7.58134H28.1097L20.062 16.2845L29.1374 28.4311H22.5155L16.3996 20.2449L8.82988 28.4311H6.88386L15.5298 19.0812ZM12.8418 9.01611H9.79971L23.2332 26.9963H26.2753L12.8418 9.01611Z" fill="#222222"/>
</g>
<defs>
<clipPath id="clip0_879_218">
<rect width="36" height="36" fill="white" transform="translate(0 0.00244141)"/>
</clipPath>
</defs>
</svg>
