<svg width="768" height="722" viewBox="0 0 768 722" fill="none" xmlns="http://www.w3.org/2000/svg">
<g filter="url(#filter0_dddd_1106_2759)">
<path d="M370.894 88.4772L652.751 251.195C657.49 253.931 657.482 258.374 652.729 261.118L411.1 400.612C406.347 403.356 398.652 403.361 393.913 400.625L112.056 237.907C107.317 235.171 107.325 230.728 112.078 227.984L353.707 88.4898C358.46 85.7458 366.155 85.7413 370.894 88.4772Z" fill="#1D1D1D" stroke="#303030"/>
<path d="M359.9 100.303C362.259 101.664 366.087 101.662 368.452 100.297C370.816 98.932 370.82 96.7217 368.462 95.3601C366.103 93.9985 362.275 94.0011 359.911 95.366C357.546 96.7309 357.542 98.9412 359.9 100.303Z" stroke="white"/>
<path d="M371.288 106.877C373.647 108.239 377.476 108.236 379.84 106.871C382.204 105.506 382.209 103.296 379.85 101.935C377.492 100.573 373.663 100.576 371.299 101.94C368.934 103.305 368.93 105.516 371.288 106.877Z" stroke="white"/>
<path d="M382.675 113.451C385.034 114.813 388.862 114.81 391.227 113.445C393.591 112.081 393.596 109.87 391.237 108.509C388.878 107.147 385.05 107.15 382.686 108.515C380.321 109.879 380.317 112.09 382.675 113.451Z" stroke="white"/>
<path d="M639.188 269.982L338.35 96.3066L337.182 96.9814L638.019 270.657L639.188 269.982Z" fill="#303030"/>
<path d="M365.495 151.86L327.534 129.945C325.176 128.584 321.347 128.586 318.983 129.951C316.619 131.316 316.614 133.527 318.973 134.888L356.933 156.803C359.292 158.165 363.12 158.162 365.485 156.797C367.849 155.432 367.853 153.222 365.495 151.86Z" stroke="#303030"/>
<path d="M351.225 160.1L313.264 138.185C310.906 136.823 307.077 136.826 304.713 138.191C302.349 139.556 302.344 141.766 304.703 143.128L342.663 165.042C345.022 166.404 348.85 166.401 351.215 165.036C353.579 163.672 353.583 161.461 351.225 160.1Z" stroke="#303030"/>
<path d="M336.956 168.336L298.996 146.421C296.637 145.059 292.808 145.062 290.444 146.427C288.08 147.792 288.075 150.002 290.434 151.364L328.394 173.279C330.753 174.64 334.582 174.638 336.946 173.273C339.31 171.908 339.315 169.698 336.956 168.336Z" stroke="#303030"/>
<path d="M322.686 176.574L284.726 154.659C282.367 153.298 278.538 153.3 276.174 154.665C273.81 156.03 273.805 158.24 276.164 159.602L314.124 181.517C316.483 182.878 320.312 182.876 322.676 181.511C325.04 180.146 325.045 177.936 322.686 176.574Z" stroke="#303030"/>
<path d="M308.417 184.812L270.457 162.897C268.098 161.535 264.27 161.538 261.905 162.903C259.541 164.268 259.537 166.478 261.895 167.84L299.856 189.754C302.214 191.116 306.043 191.113 308.407 189.749C310.771 188.384 310.776 186.173 308.417 184.812Z" stroke="#303030"/>
<path d="M294.147 193.05L256.187 171.135C253.828 169.773 250 169.776 247.635 171.141C245.271 172.506 245.267 174.716 247.625 176.078L285.586 197.992C287.944 199.354 291.773 199.351 294.137 197.987C296.501 196.622 296.506 194.411 294.147 193.05Z" stroke="#303030"/>
<path d="M279.879 201.288L241.918 179.373C239.56 178.011 235.731 178.014 233.367 179.379C231.003 180.744 230.998 182.954 233.356 184.316L271.317 206.231C273.676 207.592 277.504 207.589 279.868 206.225C282.233 204.86 282.237 202.649 279.879 201.288Z" stroke="#303030"/>
<path d="M265.609 209.525L227.648 187.611C225.29 186.249 221.461 186.252 219.097 187.617C216.733 188.981 216.728 191.192 219.086 192.553L257.047 214.468C259.406 215.83 263.234 215.827 265.598 214.462C267.963 213.097 267.967 210.887 265.609 209.525Z" fill="#303030" stroke="white"/>
<path d="M388.328 137.583L352.266 116.764C349.383 115.099 344.704 115.103 341.814 116.771L338.96 118.418C336.071 120.087 336.065 122.788 338.948 124.452L375.01 145.272C377.893 146.936 382.572 146.932 385.462 145.264L388.316 143.617C391.205 141.948 391.211 139.247 388.328 137.583Z" stroke="white"/>
<path d="M186.177 254.286L150.114 233.467C146.969 231.652 141.864 231.655 138.712 233.475L135.858 235.123C132.706 236.942 132.7 239.889 135.845 241.705L171.907 262.524C175.052 264.34 180.157 264.336 183.309 262.516L186.163 260.869C189.315 259.049 189.321 256.102 186.177 254.286Z" fill="#303030"/>
<path d="M523.507 242.533L385.9 163.092C382.756 161.276 377.651 161.28 374.498 163.099L347.862 178.477C344.71 180.297 344.704 183.244 347.848 185.059L485.455 264.501C488.6 266.316 493.705 266.313 496.857 264.493L523.494 249.115C526.646 247.296 526.652 244.349 523.507 242.533Z" fill="#303030"/>
<path d="M350.658 204.256C359.044 209.097 372.657 209.088 381.063 204.235C389.469 199.382 389.485 191.523 381.099 186.682C372.713 181.84 359.1 181.85 350.694 186.703C342.288 191.556 342.272 199.415 350.658 204.256Z" fill="#303030" stroke="#1D1D1D" stroke-width="2"/>
<path d="M343.517 211.667L318.843 197.422C318.057 196.968 316.78 196.969 315.992 197.424C315.204 197.879 315.203 198.616 315.989 199.07L340.663 213.314C341.45 213.768 342.726 213.767 343.514 213.312C344.302 212.857 344.303 212.121 343.517 211.667Z" stroke="#303030"/>
<path d="M351.094 222.631L335.91 213.865C335.124 213.411 333.848 213.412 333.06 213.867C332.271 214.322 332.27 215.059 333.056 215.513L348.24 224.279C349.026 224.732 350.303 224.732 351.091 224.277C351.879 223.822 351.88 223.085 351.094 222.631Z" stroke="#303030"/>
<path d="M441.265 268.098L426.081 259.332C425.295 258.879 424.019 258.879 423.231 259.334C422.443 259.789 422.441 260.526 423.227 260.98L438.411 269.746C439.198 270.2 440.474 270.199 441.262 269.744C442.05 269.289 442.052 268.552 441.265 268.098Z" stroke="#303030"/>
<path d="M328.319 209.483L313.135 200.717C312.349 200.264 311.072 200.264 310.284 200.719C309.496 201.174 309.495 201.911 310.281 202.365L325.465 211.131C326.251 211.585 327.528 211.584 328.316 211.129C329.104 210.674 329.105 209.937 328.319 209.483Z" stroke="#303030"/>
<path d="M418.488 254.947L351.108 216.048C350.322 215.595 349.046 215.596 348.257 216.05C347.469 216.505 347.468 217.242 348.254 217.696L415.634 256.595C416.42 257.049 417.696 257.048 418.484 256.593C419.273 256.138 419.274 255.401 418.488 254.947Z" stroke="#303030"/>
<path d="M349.224 208.371L324.55 194.126C323.763 193.672 322.487 193.673 321.699 194.128C320.911 194.583 320.909 195.32 321.696 195.773L346.37 210.018C347.156 210.472 348.432 210.471 349.22 210.016C350.009 209.561 350.01 208.824 349.224 208.371Z" stroke="white"/>
<path d="M400.471 237.956L356.816 212.754C356.03 212.3 354.754 212.301 353.965 212.756C353.177 213.211 353.176 213.947 353.962 214.401L397.617 239.603C398.403 240.057 399.679 240.056 400.467 239.601C401.255 239.146 401.257 238.41 400.471 237.956Z" stroke="white"/>
<path d="M481.172 268.069L462.191 257.111C459.833 255.75 456.004 255.752 453.64 257.117C451.276 258.482 451.271 260.693 453.63 262.054L472.61 273.012C474.968 274.373 478.797 274.371 481.161 273.006C483.526 271.641 483.53 269.43 481.172 268.069Z" fill="#303030" stroke="white"/>
<path d="M464.04 281.247L448.856 272.481C448.07 272.027 446.794 272.028 446.006 272.483C445.218 272.938 445.216 273.674 446.002 274.128L461.187 282.894C461.973 283.348 463.249 283.347 464.037 282.892C464.825 282.437 464.827 281.7 464.04 281.247Z" stroke="#303030"/>
<path d="M546.813 229.078L409.206 149.637C406.323 147.973 401.644 147.976 398.754 149.644L395.9 151.292C393.01 152.96 393.005 155.661 395.888 157.325L533.494 236.767C536.377 238.431 541.057 238.428 543.946 236.76L546.8 235.112C549.69 233.444 549.695 230.742 546.813 229.078Z" stroke="#303030"/>
<path d="M603.753 261.949L567.69 241.13C564.808 239.466 560.128 239.469 557.239 241.137L554.385 242.785C551.495 244.453 551.489 247.155 554.372 248.819L590.435 269.638C593.317 271.302 597.997 271.299 600.886 269.631L603.74 267.983C606.63 266.315 606.635 263.614 603.753 261.949Z" stroke="#303030"/>
<path d="M580.616 275.306L544.554 254.487C541.671 252.823 536.992 252.826 534.102 254.494L507.466 269.872C504.576 271.54 504.57 274.241 507.453 275.905L543.515 296.725C546.398 298.389 551.078 298.386 553.967 296.717L580.604 281.34C583.493 279.672 583.499 276.97 580.616 275.306Z" stroke="#303030"/>
<path d="M537.809 300.02L501.746 279.201C498.864 277.536 494.184 277.54 491.295 279.208L352.405 359.39C349.515 361.058 349.51 363.76 352.392 365.424L388.455 386.243C391.338 387.907 396.017 387.904 398.907 386.236L537.796 306.054C540.686 304.385 540.691 301.684 537.809 300.02Z" stroke="#303030"/>
<path d="M374.628 328.481L237.021 249.039C234.139 247.375 230.29 246.898 228.426 247.975L192.82 268.53C190.956 269.607 191.781 271.828 194.664 273.493L332.271 352.934C335.153 354.598 339.002 355.075 340.866 353.998L376.472 333.443C378.336 332.367 377.511 330.145 374.628 328.481Z" stroke="#303030"/>
<path d="M445.976 287.292L308.369 207.85C305.486 206.186 300.807 206.189 297.917 207.857L242.742 239.71C239.852 241.379 239.847 244.08 242.73 245.744L380.336 325.186C383.219 326.85 387.899 326.847 390.788 325.178L445.963 293.325C448.853 291.657 448.859 288.956 445.976 287.292Z" stroke="#303030"/>
<g filter="url(#filter1_b_1106_2759)">
<path d="M653.184 217.057L371.327 54.3393C366.348 51.4648 358.266 51.4704 353.274 54.3518L111.645 193.847C106.653 196.728 106.644 201.394 111.623 204.269L393.48 366.987C398.459 369.861 406.542 369.856 411.533 366.974L653.162 227.48C658.154 224.598 658.163 219.932 653.184 217.057Z" fill="url(#paint0_radial_1106_2759)" fill-opacity="0.15"/>
<path d="M653.184 217.057L371.327 54.3393C366.348 51.4648 358.266 51.4704 353.274 54.3518L111.645 193.847C106.653 196.728 106.644 201.394 111.623 204.269L393.48 366.987C398.459 369.861 406.542 369.856 411.533 366.974L653.162 227.48C658.154 224.598 658.163 219.932 653.184 217.057Z" stroke="url(#paint1_linear_1106_2759)"/>
</g>
<g filter="url(#filter2_b_1106_2759)">
<path d="M653.184 183.17L371.327 20.4514C366.348 17.5768 358.266 17.5825 353.274 20.4639L111.645 159.959C106.653 162.84 106.644 167.506 111.623 170.381L393.48 333.099C398.459 335.973 406.542 335.968 411.533 333.086L653.163 193.592C658.154 190.71 658.163 186.044 653.184 183.17Z" fill="url(#paint2_radial_1106_2759)" fill-opacity="0.15"/>
<path d="M653.184 183.17L371.327 20.4514C366.348 17.5768 358.266 17.5825 353.274 20.4639L111.645 159.959C106.653 162.84 106.644 167.506 111.623 170.381L393.48 333.099C398.459 335.973 406.542 335.968 411.533 333.086L653.163 193.592C658.154 190.71 658.163 186.044 653.184 183.17Z" stroke="url(#paint3_linear_1106_2759)"/>
</g>
<path d="M582.225 205.278L536.71 179.001C533.072 176.901 526.416 177.337 521.845 179.976L479.708 204.302C475.137 206.941 474.38 210.783 478.019 212.884L523.534 239.16C527.173 241.261 533.828 240.824 538.399 238.185L580.536 213.859C585.108 211.22 585.864 207.378 582.225 205.278Z" fill="#DB504A" fill-opacity="0.1" stroke="#DB504A" stroke-width="2"/>
<g filter="url(#filter3_dddd_1106_2759)">
<path d="M569.721 206.19L535.129 186.22C532.364 184.624 527.306 184.956 523.832 186.961L491.807 205.449C488.333 207.455 487.758 210.375 490.524 211.971L525.115 231.941C527.88 233.538 532.938 233.206 536.413 231.2L568.437 212.712C571.911 210.707 572.486 207.787 569.721 206.19Z" fill="#DB504A"/>
</g>
<path d="M238.671 164.27L193.156 137.994C189.518 135.893 184.27 135.517 181.436 137.154L155.306 152.239C152.471 153.875 153.123 156.904 156.761 159.005L202.277 185.281C205.915 187.382 211.162 187.758 213.997 186.121L240.127 171.037C242.961 169.4 242.31 166.371 238.671 164.27Z" fill="#DB504A" fill-opacity="0.1" stroke="#DB504A" stroke-width="2"/>
<g filter="url(#filter4_dddd_1106_2759)">
<path d="M225.956 165.305L191.364 145.334C188.599 143.738 184.976 143.242 183.271 144.226L167.556 153.298C165.851 154.282 166.711 156.374 169.476 157.971L204.068 177.941C206.833 179.537 210.457 180.033 212.161 179.049L227.876 169.977C229.581 168.993 228.721 166.901 225.956 165.305Z" fill="#DB504A"/>
</g>
<mask id="mask0_1106_2759" style="mask-type:alpha" maskUnits="userSpaceOnUse" x="99" y="0" width="570" height="347">
<rect x="99.341" y="0.335815" width="569.318" height="346.335" fill="#D9D9D9"/>
</mask>
<g mask="url(#mask0_1106_2759)">
<g filter="url(#filter5_ddddd_1106_2759)">
<rect y="0.499972" width="345.328" height="298.813" rx="14.5" transform="matrix(0.866041 0.499972 -0.866041 0.499972 362.814 15.4595)" stroke="#DB504A"/>
</g>
</g>
</g>
<defs>
<filter id="filter0_dddd_1106_2759" x="16.2825" y="0.945557" width="732.242" height="720.081" filterUnits="userSpaceOnUse" color-interpolation-filters="sRGB">
<feFlood flood-opacity="0" result="BackgroundImageFix"/>
<feColorMatrix in="SourceAlpha" type="matrix" values="0 0 0 0 0 0 0 0 0 0 0 0 0 0 0 0 0 0 127 0" result="hardAlpha"/>
<feOffset dy="14"/>
<feGaussianBlur stdDeviation="15.5"/>
<feColorMatrix type="matrix" values="0 0 0 0 0 0 0 0 0 0 0 0 0 0 0 0 0 0 0.1 0"/>
<feBlend mode="normal" in2="BackgroundImageFix" result="effect1_dropShadow_1106_2759"/>
<feColorMatrix in="SourceAlpha" type="matrix" values="0 0 0 0 0 0 0 0 0 0 0 0 0 0 0 0 0 0 127 0" result="hardAlpha"/>
<feOffset dy="57"/>
<feGaussianBlur stdDeviation="28.5"/>
<feColorMatrix type="matrix" values="0 0 0 0 0 0 0 0 0 0 0 0 0 0 0 0 0 0 0.09 0"/>
<feBlend mode="normal" in2="effect1_dropShadow_1106_2759" result="effect2_dropShadow_1106_2759"/>
<feColorMatrix in="SourceAlpha" type="matrix" values="0 0 0 0 0 0 0 0 0 0 0 0 0 0 0 0 0 0 127 0" result="hardAlpha"/>
<feOffset dy="127"/>
<feGaussianBlur stdDeviation="38"/>
<feColorMatrix type="matrix" values="0 0 0 0 0 0 0 0 0 0 0 0 0 0 0 0 0 0 0.05 0"/>
<feBlend mode="normal" in2="effect2_dropShadow_1106_2759" result="effect3_dropShadow_1106_2759"/>
<feColorMatrix in="SourceAlpha" type="matrix" values="0 0 0 0 0 0 0 0 0 0 0 0 0 0 0 0 0 0 127 0" result="hardAlpha"/>
<feOffset dy="227"/>
<feGaussianBlur stdDeviation="45.5"/>
<feColorMatrix type="matrix" values="0 0 0 0 0 0 0 0 0 0 0 0 0 0 0 0 0 0 0.01 0"/>
<feBlend mode="normal" in2="effect3_dropShadow_1106_2759" result="effect4_dropShadow_1106_2759"/>
<feBlend mode="normal" in="SourceGraphic" in2="effect4_dropShadow_1106_2759" result="shape"/>
</filter>
<filter id="filter1_b_1106_2759" x="97.2825" y="41.8335" width="570.242" height="337.659" filterUnits="userSpaceOnUse" color-interpolation-filters="sRGB">
<feFlood flood-opacity="0" result="BackgroundImageFix"/>
<feGaussianBlur in="BackgroundImageFix" stdDeviation="5"/>
<feComposite in2="SourceAlpha" operator="in" result="effect1_backgroundBlur_1106_2759"/>
<feBlend mode="normal" in="SourceGraphic" in2="effect1_backgroundBlur_1106_2759" result="shape"/>
</filter>
<filter id="filter2_b_1106_2759" x="97.2825" y="7.94556" width="570.242" height="337.659" filterUnits="userSpaceOnUse" color-interpolation-filters="sRGB">
<feFlood flood-opacity="0" result="BackgroundImageFix"/>
<feGaussianBlur in="BackgroundImageFix" stdDeviation="5"/>
<feComposite in2="SourceAlpha" operator="in" result="effect1_backgroundBlur_1106_2759"/>
<feBlend mode="normal" in="SourceGraphic" in2="effect1_backgroundBlur_1106_2759" result="shape"/>
</filter>
<filter id="filter3_dddd_1106_2759" x="474.774" y="182.21" width="110.696" height="99.7412" filterUnits="userSpaceOnUse" color-interpolation-filters="sRGB">
<feFlood flood-opacity="0" result="BackgroundImageFix"/>
<feColorMatrix in="SourceAlpha" type="matrix" values="0 0 0 0 0 0 0 0 0 0 0 0 0 0 0 0 0 0 127 0" result="hardAlpha"/>
<feOffset dy="2"/>
<feGaussianBlur stdDeviation="2.5"/>
<feColorMatrix type="matrix" values="0 0 0 0 1 0 0 0 0 1 0 0 0 0 1 0 0 0 0.1 0"/>
<feBlend mode="normal" in2="BackgroundImageFix" result="effect1_dropShadow_1106_2759"/>
<feColorMatrix in="SourceAlpha" type="matrix" values="0 0 0 0 0 0 0 0 0 0 0 0 0 0 0 0 0 0 127 0" result="hardAlpha"/>
<feOffset dy="9"/>
<feGaussianBlur stdDeviation="4.5"/>
<feColorMatrix type="matrix" values="0 0 0 0 1 0 0 0 0 1 0 0 0 0 1 0 0 0 0.09 0"/>
<feBlend mode="normal" in2="effect1_dropShadow_1106_2759" result="effect2_dropShadow_1106_2759"/>
<feColorMatrix in="SourceAlpha" type="matrix" values="0 0 0 0 0 0 0 0 0 0 0 0 0 0 0 0 0 0 127 0" result="hardAlpha"/>
<feOffset dy="20"/>
<feGaussianBlur stdDeviation="6"/>
<feColorMatrix type="matrix" values="0 0 0 0 1 0 0 0 0 1 0 0 0 0 1 0 0 0 0.05 0"/>
<feBlend mode="normal" in2="effect2_dropShadow_1106_2759" result="effect3_dropShadow_1106_2759"/>
<feColorMatrix in="SourceAlpha" type="matrix" values="0 0 0 0 0 0 0 0 0 0 0 0 0 0 0 0 0 0 127 0" result="hardAlpha"/>
<feOffset dy="35"/>
<feGaussianBlur stdDeviation="7"/>
<feColorMatrix type="matrix" values="0 0 0 0 1 0 0 0 0 1 0 0 0 0 1 0 0 0 0.01 0"/>
<feBlend mode="normal" in2="effect3_dropShadow_1106_2759" result="effect4_dropShadow_1106_2759"/>
<feBlend mode="normal" in="SourceGraphic" in2="effect4_dropShadow_1106_2759" result="shape"/>
</filter>
<filter id="filter4_dddd_1106_2759" x="152.68" y="140.72" width="90.0718" height="87.8346" filterUnits="userSpaceOnUse" color-interpolation-filters="sRGB">
<feFlood flood-opacity="0" result="BackgroundImageFix"/>
<feColorMatrix in="SourceAlpha" type="matrix" values="0 0 0 0 0 0 0 0 0 0 0 0 0 0 0 0 0 0 127 0" result="hardAlpha"/>
<feOffset dy="2"/>
<feGaussianBlur stdDeviation="2.5"/>
<feColorMatrix type="matrix" values="0 0 0 0 1 0 0 0 0 1 0 0 0 0 1 0 0 0 0.1 0"/>
<feBlend mode="normal" in2="BackgroundImageFix" result="effect1_dropShadow_1106_2759"/>
<feColorMatrix in="SourceAlpha" type="matrix" values="0 0 0 0 0 0 0 0 0 0 0 0 0 0 0 0 0 0 127 0" result="hardAlpha"/>
<feOffset dy="9"/>
<feGaussianBlur stdDeviation="4.5"/>
<feColorMatrix type="matrix" values="0 0 0 0 1 0 0 0 0 1 0 0 0 0 1 0 0 0 0.09 0"/>
<feBlend mode="normal" in2="effect1_dropShadow_1106_2759" result="effect2_dropShadow_1106_2759"/>
<feColorMatrix in="SourceAlpha" type="matrix" values="0 0 0 0 0 0 0 0 0 0 0 0 0 0 0 0 0 0 127 0" result="hardAlpha"/>
<feOffset dy="20"/>
<feGaussianBlur stdDeviation="6"/>
<feColorMatrix type="matrix" values="0 0 0 0 1 0 0 0 0 1 0 0 0 0 1 0 0 0 0.05 0"/>
<feBlend mode="normal" in2="effect2_dropShadow_1106_2759" result="effect3_dropShadow_1106_2759"/>
<feColorMatrix in="SourceAlpha" type="matrix" values="0 0 0 0 0 0 0 0 0 0 0 0 0 0 0 0 0 0 127 0" result="hardAlpha"/>
<feOffset dy="35"/>
<feGaussianBlur stdDeviation="7"/>
<feColorMatrix type="matrix" values="0 0 0 0 1 0 0 0 0 1 0 0 0 0 1 0 0 0 0.01 0"/>
<feBlend mode="normal" in2="effect3_dropShadow_1106_2759" result="effect4_dropShadow_1106_2759"/>
<feBlend mode="normal" in="SourceGraphic" in2="effect4_dropShadow_1106_2759" result="shape"/>
</filter>
<filter id="filter5_ddddd_1106_2759" x="89.3399" y="15.6027" width="586.365" height="393.266" filterUnits="userSpaceOnUse" color-interpolation-filters="sRGB">
<feFlood flood-opacity="0" result="BackgroundImageFix"/>
<feColorMatrix in="SourceAlpha" type="matrix" values="0 0 0 0 0 0 0 0 0 0 0 0 0 0 0 0 0 0 127 0" result="hardAlpha"/>
<feOffset/>
<feColorMatrix type="matrix" values="0 0 0 0 1 0 0 0 0 0.25098 0 0 0 0 0 0 0 0 0.1 0"/>
<feBlend mode="normal" in2="BackgroundImageFix" result="effect1_dropShadow_1106_2759"/>
<feColorMatrix in="SourceAlpha" type="matrix" values="0 0 0 0 0 0 0 0 0 0 0 0 0 0 0 0 0 0 127 0" result="hardAlpha"/>
<feOffset dy="3"/>
<feGaussianBlur stdDeviation="3.5"/>
<feColorMatrix type="matrix" values="0 0 0 0 1 0 0 0 0 0.25098 0 0 0 0 0 0 0 0 0.1 0"/>
<feBlend mode="normal" in2="effect1_dropShadow_1106_2759" result="effect2_dropShadow_1106_2759"/>
<feColorMatrix in="SourceAlpha" type="matrix" values="0 0 0 0 0 0 0 0 0 0 0 0 0 0 0 0 0 0 127 0" result="hardAlpha"/>
<feOffset dy="13"/>
<feGaussianBlur stdDeviation="6.5"/>
<feColorMatrix type="matrix" values="0 0 0 0 1 0 0 0 0 0.25098 0 0 0 0 0 0 0 0 0.09 0"/>
<feBlend mode="normal" in2="effect2_dropShadow_1106_2759" result="effect3_dropShadow_1106_2759"/>
<feColorMatrix in="SourceAlpha" type="matrix" values="0 0 0 0 0 0 0 0 0 0 0 0 0 0 0 0 0 0 127 0" result="hardAlpha"/>
<feOffset dy="30"/>
<feGaussianBlur stdDeviation="9"/>
<feColorMatrix type="matrix" values="0 0 0 0 1 0 0 0 0 0.25098 0 0 0 0 0 0 0 0 0.05 0"/>
<feBlend mode="normal" in2="effect3_dropShadow_1106_2759" result="effect4_dropShadow_1106_2759"/>
<feColorMatrix in="SourceAlpha" type="matrix" values="0 0 0 0 0 0 0 0 0 0 0 0 0 0 0 0 0 0 127 0" result="hardAlpha"/>
<feOffset dy="54"/>
<feGaussianBlur stdDeviation="10.5"/>
<feColorMatrix type="matrix" values="0 0 0 0 1 0 0 0 0 0.25098 0 0 0 0 0 0 0 0 0.01 0"/>
<feBlend mode="normal" in2="effect4_dropShadow_1106_2759" result="effect5_dropShadow_1106_2759"/>
<feBlend mode="normal" in="SourceGraphic" in2="effect5_dropShadow_1106_2759" result="shape"/>
</filter>
<radialGradient id="paint0_radial_1106_2759" cx="0" cy="0" r="1" gradientUnits="userSpaceOnUse" gradientTransform="translate(405.859 196.716) rotate(130.228) scale(139.828 163.011)">
<stop stop-color="white" stop-opacity="0.03"/>
<stop offset="1" stop-color="#00FFE0" stop-opacity="0.05"/>
</radialGradient>
<linearGradient id="paint1_linear_1106_2759" x1="453.779" y1="138.328" x2="395.13" y2="475.742" gradientUnits="userSpaceOnUse">
<stop stop-color="#303030" stop-opacity="0"/>
<stop offset="1" stop-color="white"/>
</linearGradient>
<radialGradient id="paint2_radial_1106_2759" cx="0" cy="0" r="1" gradientUnits="userSpaceOnUse" gradientTransform="translate(405.859 162.828) rotate(130.228) scale(139.828 163.011)">
<stop stop-color="white" stop-opacity="0.03"/>
<stop offset="1" stop-color="white" stop-opacity="0.05"/>
</radialGradient>
<linearGradient id="paint3_linear_1106_2759" x1="453.779" y1="104.44" x2="395.13" y2="441.854" gradientUnits="userSpaceOnUse">
<stop stop-color="#303030" stop-opacity="0"/>
<stop offset="1" stop-color="#4ACADB"/>
</linearGradient>
</defs>
</svg>
