<svg width="703" height="464" viewBox="0 0 703 464" fill="none" xmlns="http://www.w3.org/2000/svg">
<g clip-path="url(#clip0_228_309)">
<g clip-path="url(#clip1_228_309)">
<mask id="mask0_228_309" style="mask-type:alpha" maskUnits="userSpaceOnUse" x="-214" y="-426" width="1133" height="1133">
<path opacity="0.2" d="M-212.684 -425.342L916.027 -425.342M-213.342 704.027L-213.342 -426M-214 -399.032L914.711 -399.032M-187.032 705.342L-187.032 -424.684M-214 -372.722L914.711 -372.722M-160.722 705.342L-160.722 -424.684M-214 -346.411L914.711 -346.411M-134.411 705.342L-134.412 -424.684M-214 -320.101L914.711 -320.101M-108.101 705.342L-108.101 -424.684M-214 -293.791L914.711 -293.791M-81.7908 705.342L-81.7909 -424.684M-214 -267.481L914.711 -267.481M-55.4805 705.342L-55.4806 -424.684M-214 -241.17L914.711 -241.17M-29.1702 705.342L-29.1704 -424.684M-214 -214.86L914.711 -214.86M-2.85992 705.342L-2.86009 -424.684M-214 -188.55L914.711 -188.55M23.4504 705.342L23.4502 -424.684M-214 -162.239L914.711 -162.24M49.7606 705.342L49.7605 -424.684M-214 -135.929L914.711 -135.929M76.0709 705.342L76.0708 -424.684M-214 -109.619L914.711 -109.619M102.381 705.342L102.381 -424.684M-214 -83.3085L914.711 -83.3086M128.692 705.342L128.691 -424.685M-214 -56.9983L914.711 -56.9984M155.002 705.342L155.002 -424.685M-214 -30.688L914.711 -30.6881M181.312 705.342L181.312 -424.685M-214 -4.3777L914.711 -4.37779M207.622 705.342L207.622 -424.685M-214 21.9326L914.711 21.9325M233.933 705.342L233.932 -424.685M-214 48.2429L914.711 48.2428M260.243 705.342L260.243 -424.685M-214 74.5532L914.711 74.5531M286.553 705.342L286.553 -424.685M-214 100.863L914.711 100.863M312.863 705.342L312.863 -424.685M-214 127.174L914.711 127.174M339.174 705.342L339.174 -424.685M-214 153.484L914.711 153.484M365.484 705.342L365.484 -424.685M-214 179.794L914.711 179.794M391.794 705.342L391.794 -424.685M-214 206.105L914.711 206.104M418.105 705.342L418.104 -424.685M-214 232.415L914.711 232.415M444.415 705.342L444.415 -424.685M-214 258.725L914.711 258.725M470.725 705.342L470.725 -424.685M-214 285.035L914.711 285.035M497.035 705.342L497.035 -424.685M-214 311.346L914.711 311.346M523.346 705.342L523.346 -424.685M-214 337.656L914.711 337.656M549.656 705.342L549.656 -424.685M-214 363.966L914.711 363.966M575.966 705.342L575.966 -424.685M-214 390.277L914.711 390.276M602.277 705.342L602.276 -424.685M-214 416.587L914.711 416.587M628.587 705.342L628.587 -424.685M-214 442.897L914.711 442.897M654.897 705.342L654.897 -424.685M-214 469.207L914.711 469.207M681.207 705.342L681.207 -424.685M-214 495.518L914.711 495.518M707.518 705.342L707.518 -424.685M-214 521.828L914.711 521.828M733.828 705.342L733.828 -424.685M-214 548.138L914.711 548.138M760.138 705.342L760.138 -424.685M-214 574.449L914.711 574.448M786.449 705.342L786.448 -424.685M-214 600.759L914.711 600.759M812.759 705.342L812.759 -424.685M-214 627.069L914.711 627.069M839.069 705.342L839.069 -424.685M-214 653.379L914.711 653.379M865.379 705.342L865.379 -424.685M-214 679.69L914.711 679.69M891.69 705.342L891.69 -424.685M-214 706L914.711 706M918 705.342L918 -424.685" stroke="#C1C6CE"/>
</mask>
<g mask="url(#mask0_228_309)">
<g filter="url(#filter0_f_228_309)">
<circle cx="352" cy="140" r="242" fill="#D9D9D9"/>
</g>
</g>
<g filter="url(#filter1_d_228_309)">
<rect y="0.499972" width="423.797" height="352.586" rx="9.5" transform="matrix(0.866041 0.499972 -0.866041 0.499972 322.861 44.4971)" fill="#1D1D1D" stroke="white" stroke-dasharray="3 3"/>
<path d="M319.471 65.6068C322.362 67.2758 327.055 67.2726 329.952 65.5996C332.85 63.9266 332.856 61.2173 329.965 59.5483C327.074 57.8794 322.381 57.8826 319.483 59.5556C316.585 61.2286 316.58 63.9379 319.471 65.6068Z" stroke="white"/>
<path d="M333.43 73.6654C336.321 75.3344 341.013 75.3312 343.911 73.6582C346.809 71.9852 346.815 69.2759 343.924 67.6069C341.033 65.9379 336.34 65.9412 333.442 67.6142C330.544 69.2872 330.539 71.9964 333.43 73.6654Z" stroke="white"/>
<path d="M347.389 81.724C350.28 83.393 354.972 83.3898 357.87 81.7168C360.768 80.0437 360.774 77.3345 357.883 75.6655C354.992 73.9965 350.299 73.9998 347.401 75.6728C344.503 77.3458 344.498 80.055 347.389 81.724Z" stroke="white"/>
<path d="M661.805 273.59L293.056 60.709L291.624 61.5361L660.372 274.418L661.805 273.59Z" fill="#303030"/>
<path d="M326.326 128.803L279.797 101.941C276.906 100.272 272.213 100.275 269.315 101.948C266.417 103.621 266.411 106.33 269.302 107.999L315.832 134.861C318.723 136.53 323.416 136.527 326.314 134.854C329.212 133.181 329.217 130.472 326.326 128.803Z" stroke="#303030"/>
<path d="M308.837 138.901L262.308 112.039C259.417 110.37 254.724 110.373 251.826 112.046C248.928 113.719 248.922 116.428 251.813 118.097L298.343 144.959C301.234 146.628 305.927 146.625 308.825 144.952C311.723 143.279 311.728 140.57 308.837 138.901Z" stroke="#303030"/>
<path d="M291.347 148.998L244.817 122.136C241.926 120.467 237.233 120.471 234.335 122.144C231.437 123.817 231.432 126.526 234.323 128.195L280.852 155.057C283.743 156.726 288.436 156.722 291.334 155.049C294.232 153.376 294.238 150.667 291.347 148.998Z" stroke="#303030"/>
<path d="M273.853 159.095L227.323 132.233C224.432 130.564 219.74 130.567 216.842 132.24C213.944 133.913 213.938 136.622 216.829 138.291L263.359 165.153C266.25 166.822 270.943 166.819 273.841 165.146C276.739 163.473 276.744 160.764 273.853 159.095Z" stroke="#303030"/>
<path d="M256.364 169.193L209.834 142.331C206.943 140.662 202.251 140.665 199.353 142.338C196.455 144.011 196.449 146.72 199.34 148.389L245.87 175.251C248.761 176.92 253.454 176.917 256.352 175.244C259.25 173.571 259.255 170.862 256.364 169.193Z" stroke="#303030"/>
<path d="M238.875 179.29L192.345 152.428C189.454 150.759 184.761 150.762 181.864 152.436C178.966 154.109 178.96 156.818 181.851 158.487L228.381 185.349C231.272 187.018 235.965 187.014 238.862 185.341C241.76 183.668 241.766 180.959 238.875 179.29Z" stroke="#303030"/>
<path d="M221.384 189.388L174.855 162.526C171.964 160.857 167.271 160.86 164.373 162.533C161.475 164.206 161.469 166.915 164.36 168.584L210.89 195.446C213.781 197.115 218.474 197.112 221.372 195.439C224.27 193.766 224.275 191.057 221.384 189.388Z" stroke="#303030"/>
<path d="M203.892 199.486L157.363 172.624C154.472 170.955 149.779 170.958 146.881 172.631C143.983 174.304 143.977 177.013 146.868 178.682L193.398 205.544C196.289 207.213 200.982 207.21 203.88 205.537C206.778 203.864 206.783 201.155 203.892 199.486Z" fill="#303030" stroke="white"/>
<path d="M354.315 111.302L310.112 85.7834C306.579 83.7435 300.843 83.7475 297.301 85.7923L293.803 87.8118C290.261 89.8566 290.254 93.1678 293.787 95.2077L337.991 120.727C341.524 122.766 347.26 122.763 350.802 120.718L354.3 118.698C357.842 116.653 357.849 113.342 354.315 111.302Z" stroke="white"/>
<path d="M115.068 249.421L70.865 223.902C67.0103 221.677 60.7532 221.681 56.8892 223.912L53.3911 225.932C49.5272 228.162 49.5196 231.775 53.3743 234L97.5776 259.519C101.432 261.744 107.689 261.74 111.553 259.509L115.051 257.49C118.915 255.259 118.923 251.647 115.068 249.421Z" fill="#303030"/>
<path opacity="0.4" d="M519.886 239.873L351.215 142.498C347.361 140.273 341.104 140.277 337.24 142.508L304.59 161.356C300.726 163.587 300.719 167.199 304.573 169.425L473.244 266.8C477.099 269.025 483.356 269.02 487.22 266.79L519.869 247.941C523.733 245.71 523.74 242.098 519.886 239.873Z" fill="#303030"/>
<g filter="url(#filter2_dddd_228_309)">
<path d="M333.564 161.937C339.477 165.351 349.064 165.351 354.978 161.937C360.891 158.523 360.891 152.989 354.978 149.575C349.064 146.161 339.477 146.161 333.564 149.575C327.65 152.989 327.65 158.523 333.564 161.937Z" fill="#303030"/>
<path d="M333.564 161.937C339.477 165.351 349.064 165.351 354.978 161.937C360.891 158.523 360.891 152.989 354.978 149.575C349.064 146.161 339.477 146.161 333.564 149.575C327.65 152.989 327.65 158.523 333.564 161.937Z" stroke="#DB504A" stroke-dasharray="2 2"/>
</g>
<g filter="url(#filter3_dddd_228_309)">
<path d="M484.183 258.783L466.461 248.552C464.259 247.281 460.652 247.302 458.405 248.599C456.158 249.896 456.122 251.978 458.324 253.25L476.046 263.481C478.248 264.752 481.855 264.731 484.102 263.434C486.349 262.137 486.385 260.054 484.183 258.783Z" fill="#303030"/>
<path d="M484.183 258.783L466.461 248.552C464.259 247.281 460.652 247.302 458.405 248.599C456.158 249.896 456.122 251.978 458.324 253.25L476.046 263.481C478.248 264.752 481.855 264.731 484.102 263.434C486.349 262.137 486.385 260.054 484.183 258.783Z" stroke="#DB504A" stroke-dasharray="2 2"/>
</g>
<path d="M411.516 236.115L358.006 205.224C357.043 204.668 355.478 204.669 354.512 205.227C353.546 205.784 353.545 206.687 354.508 207.244L408.017 238.135C408.981 238.691 410.545 238.69 411.511 238.133C412.477 237.575 412.479 236.672 411.516 236.115Z" fill="#303030" stroke="white"/>
<path d="M548.576 223.451L379.905 126.076C376.372 124.036 370.636 124.04 367.094 126.085L363.596 128.105C360.054 130.15 360.047 133.461 363.581 135.501L532.251 232.875C535.784 234.915 541.52 234.911 545.062 232.867L548.56 230.847C552.102 228.802 552.109 225.491 548.576 223.451Z" stroke="#303030"/>
<path d="M618.37 263.744L574.167 238.225C570.633 236.185 564.897 236.189 561.356 238.234L557.857 240.253C554.315 242.298 554.309 245.609 557.842 247.649L602.045 273.168C605.579 275.208 611.314 275.204 614.856 273.159L618.355 271.14C621.896 269.095 621.903 265.784 618.37 263.744Z" stroke="#303030"/>
<path d="M537.456 310.304L493.282 284.802C489.751 282.764 484.127 282.705 480.722 284.671L317.032 379.171C313.626 381.137 313.728 384.383 317.259 386.422L361.433 411.924C364.964 413.962 370.587 414.021 373.993 412.055L537.683 317.555C541.089 315.589 540.987 312.343 537.456 310.304Z" stroke="#303030"/>
<rect y="0.499972" width="208.184" height="39.5511" rx="9.5" transform="matrix(0.866041 0.499972 -0.866041 0.499972 282.173 175.786)" fill="#1D1D1D" stroke="#303030" stroke-dasharray="2 2"/>
<path opacity="0.3" d="M274.888 192.35C278.436 194.398 284.189 194.398 287.737 192.35C291.285 190.302 291.285 186.981 287.737 184.932C284.189 182.884 278.436 182.884 274.888 184.932C271.34 186.981 271.34 190.302 274.888 192.35Z" fill="white" stroke="#303030" stroke-width="2"/>
<rect width="19.5454" height="3.9562" rx="1.9781" transform="matrix(0.866041 0.499972 -0.866041 0.499972 429.275 275.047)" fill="#303030"/>
<rect width="91.0638" height="3.9562" rx="1.9781" transform="matrix(0.866041 0.499972 -0.866041 0.499972 346.561 227.297)" fill="#303030"/>
<rect width="37.314" height="3.9562" rx="1.9781" transform="matrix(0.866041 0.499972 -0.866041 0.499972 310.4 206.42)" fill="#303030"/>
<rect width="17.7686" height="3.9562" rx="1.9781" transform="matrix(0.866041 0.499972 -0.866041 0.499972 291.164 195.315)" fill="#303030"/>
<rect opacity="0.4" width="29.3181" height="3.9562" rx="1.9781" transform="matrix(0.866041 0.499972 -0.866041 0.499972 298.446 191.111)" fill="white"/>
<rect width="17.7686" height="3.9562" rx="1.9781" transform="matrix(0.866041 0.499972 -0.866041 0.499972 327.997 208.173)" fill="#303030"/>
<rect width="25.3202" height="3.9562" rx="1.9781" transform="matrix(0.866041 0.499972 -0.866041 0.499972 347.233 219.276)" fill="#303030"/>
<rect width="51.973" height="3.9562" rx="1.9781" transform="matrix(0.866041 0.499972 -0.866041 0.499972 284.312 199.271)" fill="#303030"/>
<rect width="28.8739" height="3.9562" rx="1.9781" transform="matrix(0.866041 0.499972 -0.866041 0.499972 333.17 227.478)" fill="#303030"/>
<rect width="89.287" height="3.9562" rx="1.9781" transform="matrix(0.866041 0.499972 -0.866041 0.499972 362.022 244.134)" fill="#303030"/>
<rect width="39.0908" height="3.9562" rx="1.9781" transform="matrix(0.866041 0.499972 -0.866041 0.499972 277.46 203.228)" fill="#303030"/>
<rect width="15.9917" height="3.9562" rx="1.9781" transform="matrix(0.866041 0.499972 -0.866041 0.499972 315.16 224.992)" fill="#303030"/>
<rect y="0.499972" width="208.184" height="39.5511" rx="9.5" transform="matrix(0.866041 0.499972 -0.866041 0.499972 162.254 245.016)" fill="#1D1D1D" stroke="#303030" stroke-dasharray="2 2"/>
<path opacity="0.3" d="M154.969 261.579C158.517 263.628 164.269 263.628 167.817 261.579C171.365 259.531 171.365 256.21 167.817 254.162C164.269 252.114 158.517 252.114 154.969 254.162C151.421 256.21 151.421 259.531 154.969 261.579Z" fill="white" stroke="#303030" stroke-width="2"/>
<rect width="19.5454" height="3.9562" rx="1.9781" transform="matrix(0.866041 0.499972 -0.866041 0.499972 309.354 344.277)" fill="#303030"/>
<rect width="91.0638" height="3.9562" rx="1.9781" transform="matrix(0.866041 0.499972 -0.866041 0.499972 226.64 296.527)" fill="#303030"/>
<rect width="37.314" height="3.9562" rx="1.9781" transform="matrix(0.866041 0.499972 -0.866041 0.499972 190.479 275.65)" fill="#303030"/>
<rect width="17.7686" height="3.9562" rx="1.9781" transform="matrix(0.866041 0.499972 -0.866041 0.499972 171.243 264.546)" fill="#303030"/>
<rect opacity="0.4" width="29.3181" height="3.9562" rx="1.9781" transform="matrix(0.866041 0.499972 -0.866041 0.499972 178.525 260.343)" fill="white"/>
<rect width="17.7686" height="3.9562" rx="1.9781" transform="matrix(0.866041 0.499972 -0.866041 0.499972 208.076 277.403)" fill="#303030"/>
<rect width="25.3202" height="3.9562" rx="1.9781" transform="matrix(0.866041 0.499972 -0.866041 0.499972 227.312 288.507)" fill="#303030"/>
<rect width="51.973" height="3.9562" rx="1.9781" transform="matrix(0.866041 0.499972 -0.866041 0.499972 164.391 268.501)" fill="#303030"/>
<rect width="28.8739" height="3.9562" rx="1.9781" transform="matrix(0.866041 0.499972 -0.866041 0.499972 213.25 296.708)" fill="#303030"/>
<rect width="89.287" height="3.9562" rx="1.9781" transform="matrix(0.866041 0.499972 -0.866041 0.499972 242.101 313.364)" fill="#303030"/>
<rect width="39.0908" height="3.9562" rx="1.9781" transform="matrix(0.866041 0.499972 -0.866041 0.499972 157.539 272.458)" fill="#303030"/>
<rect width="15.9917" height="3.9562" rx="1.9781" transform="matrix(0.866041 0.499972 -0.866041 0.499972 195.239 294.223)" fill="#303030"/>
<g filter="url(#filter4_dddd_228_309)">
<path d="M233.678 203.284C238.461 200.523 246.216 200.523 250.999 203.284L414.841 297.871C419.624 300.632 419.624 305.109 414.841 307.87L355.928 341.881C351.145 344.642 343.39 344.642 338.607 341.881L174.766 247.294C169.983 244.533 169.983 240.056 174.766 237.295L233.678 203.284Z" fill="#1D1D1D"/>
<path d="M175.199 247.044C174.082 246.4 173.241 245.658 172.673 244.866L172.108 245.001C170.869 243.272 170.869 241.317 172.108 239.588L172.673 239.723C173.241 238.931 174.082 238.189 175.199 237.545L177.653 236.128L177.22 235.878L182.13 233.043L182.563 233.293L187.472 230.459L187.039 230.209L191.948 227.375L192.382 227.625L197.291 224.791L196.858 224.541L201.767 221.706L202.2 221.956L207.11 219.122L206.677 218.872L211.586 216.038L212.019 216.288L216.929 213.454L216.496 213.204L221.405 210.37L221.838 210.619L226.747 207.785L226.314 207.535L231.224 204.701L231.657 204.951L234.111 203.534C235.228 202.889 236.513 202.404 237.885 202.076L237.651 201.749C240.646 201.034 244.032 201.034 247.027 201.749L246.793 202.076C248.164 202.404 249.45 202.889 250.566 203.534L253.126 205.012L253.559 204.762L258.679 207.718L258.246 207.968L263.366 210.923L263.799 210.674L268.919 213.629L268.486 213.879L273.606 216.835L274.039 216.585L279.16 219.541L278.726 219.791L283.847 222.747L284.28 222.497L289.4 225.453L288.967 225.703L294.087 228.659L294.52 228.409L299.64 231.364L299.207 231.614L304.327 234.57L304.76 234.32L309.88 237.276L309.447 237.526L314.567 240.482L315 240.232L320.12 243.188L319.687 243.438L324.807 246.394L325.24 246.144L330.36 249.099L329.927 249.349L335.047 252.305L335.48 252.055L340.6 255.011L340.167 255.261L345.287 258.217L345.72 257.967L350.84 260.923L350.407 261.173L355.527 264.129L355.96 263.879L361.08 266.834L360.647 267.084L365.767 270.04L366.2 269.79L371.32 272.746L370.887 272.996L376.007 275.952L376.44 275.702L381.56 278.658L381.127 278.908L386.247 281.864L386.68 281.614L391.8 284.569L391.367 284.819L396.487 287.775L396.92 287.525L402.04 290.481L401.607 290.731L406.727 293.687L407.16 293.437L412.281 296.393L411.848 296.643L414.408 298.121C415.524 298.765 416.365 299.507 416.933 300.299L417.499 300.164C418.738 301.893 418.738 303.848 417.499 305.577L416.933 305.442C416.365 306.234 415.524 306.976 414.408 307.62L411.953 309.037L412.386 309.287L407.477 312.122L407.043 311.872L402.134 314.706L402.567 314.956L397.658 317.79L397.225 317.54L392.315 320.374L392.748 320.624L387.839 323.459L387.406 323.209L382.496 326.043L382.929 326.293L378.02 329.127L377.587 328.877L372.678 331.711L373.111 331.961L368.201 334.796L367.768 334.546L362.859 337.38L363.292 337.63L358.382 340.464L357.949 340.214L355.495 341.631C354.378 342.276 353.093 342.761 351.721 343.089L351.955 343.416C348.961 344.131 345.574 344.131 342.579 343.416L342.813 343.089C341.442 342.761 340.156 342.276 339.04 341.631L336.48 340.153L336.047 340.403L330.927 337.447L331.36 337.197L326.24 334.242L325.807 334.492L320.687 331.536L321.12 331.286L316 328.33L315.567 328.58L310.447 325.624L310.88 325.374L305.76 322.418L305.327 322.668L300.207 319.712L300.64 319.462L295.52 316.506L295.087 316.756L289.967 313.801L290.4 313.551L285.279 310.595L284.846 310.845L279.726 307.889L280.159 307.639L275.039 304.683L274.606 304.933L269.486 301.977L269.919 301.727L264.799 298.771L264.366 299.021L259.246 296.066L259.679 295.816L254.559 292.86L254.126 293.11L249.006 290.154L249.439 289.904L244.319 286.948L243.886 287.198L238.766 284.242L239.199 283.992L234.079 281.036L233.646 281.286L228.526 278.331L228.959 278.081L223.839 275.125L223.406 275.375L218.286 272.419L218.719 272.169L213.599 269.213L213.166 269.463L208.046 266.507L208.479 266.257L203.359 263.301L202.926 263.551L197.806 260.596L198.239 260.346L193.119 257.39L192.686 257.64L187.566 254.684L187.999 254.434L182.879 251.478L182.446 251.728L177.326 248.772L177.759 248.522L175.199 247.044Z" stroke="#DB504A" stroke-dasharray="6 6"/>
</g>
<path d="M235.486 215.097C239.034 217.145 244.787 217.145 248.335 215.097C251.883 213.049 251.883 209.728 248.335 207.679C244.787 205.631 239.034 205.631 235.486 207.679C231.938 209.728 231.938 213.049 235.486 215.097Z" fill="#303030" stroke="#303030" stroke-width="2"/>
<rect width="19.5454" height="3.9562" rx="1.9781" transform="matrix(0.866041 0.499972 -0.866041 0.499972 389.873 297.796)" fill="#303030"/>
<rect width="91.0638" height="3.9562" rx="1.9781" transform="matrix(0.866041 0.499972 -0.866041 0.499972 307.16 250.046)" fill="#303030"/>
<rect width="37.314" height="3.9562" rx="1.9781" transform="matrix(0.866041 0.499972 -0.866041 0.499972 270.998 229.169)" fill="#303030"/>
<rect width="17.7686" height="3.9562" rx="1.9781" transform="matrix(0.866041 0.499972 -0.866041 0.499972 251.762 218.064)" fill="#303030"/>
<rect opacity="0.4" width="29.3181" height="3.9562" rx="1.9781" transform="matrix(0.866041 0.499972 -0.866041 0.499972 259.044 213.861)" fill="white"/>
<rect width="17.7686" height="3.9562" rx="1.9781" transform="matrix(0.866041 0.499972 -0.866041 0.499972 288.595 230.922)" fill="#303030"/>
<rect width="25.3202" height="3.9562" rx="1.9781" transform="matrix(0.866041 0.499972 -0.866041 0.499972 307.831 242.025)" fill="#303030"/>
<rect width="51.973" height="3.9562" rx="1.9781" transform="matrix(0.866041 0.499972 -0.866041 0.499972 244.91 222.02)" fill="#303030"/>
<rect y="0.499972" width="178.018" height="48.4525" rx="9.5" transform="matrix(0.866041 0.499972 -0.866041 0.499972 237.633 226.721)" fill="#1B1B1B" stroke="#303030"/>
<rect y="0.499972" width="65.2664" height="43.5073" rx="9.5" transform="matrix(0.866041 0.499972 -0.866041 0.499972 116.856 190.621)" fill="#1D1D1D" stroke="#DB504A" stroke-dasharray="6 6"/>
<rect y="0.499972" width="77.6295" height="60.8157" rx="9.5" transform="matrix(0.866041 0.499972 -0.866041 0.499972 538.283 245.511)" fill="#1D1D1D" stroke="#DB504A" stroke-dasharray="6 6"/>
<g filter="url(#filter5_dddd_228_309)">
<path d="M590.01 280.116L545.807 254.597C542.274 252.557 536.538 252.561 532.996 254.606L500.347 273.454C496.805 275.499 496.798 278.81 500.331 280.85L544.535 306.369C548.068 308.409 553.804 308.405 557.346 306.36L589.995 287.512C593.537 285.467 593.544 282.156 590.01 280.116Z" fill="#1B1B1B"/>
<path d="M590.01 280.116L545.807 254.597C542.274 252.557 536.538 252.561 532.996 254.606L500.347 273.454C496.805 275.499 496.798 278.81 500.331 280.85L544.535 306.369C548.068 308.409 553.804 308.405 557.346 306.36L589.995 287.512C593.537 285.467 593.544 282.156 590.01 280.116Z" stroke="#303030"/>
</g>
<g filter="url(#filter6_dddd_228_309)">
<rect width="55.3868" height="34.6168" rx="10" transform="matrix(0.866041 0.499972 -0.866041 0.499972 116.851 195.562)" fill="#1B1B1B"/>
</g>
</g>
</g>
</g>
<defs>
<filter id="filter0_f_228_309" x="-50" y="-262" width="804" height="804" filterUnits="userSpaceOnUse" color-interpolation-filters="sRGB">
<feFlood flood-opacity="0" result="BackgroundImageFix"/>
<feBlend mode="normal" in="SourceGraphic" in2="BackgroundImageFix" result="shape"/>
<feGaussianBlur stdDeviation="80" result="effect1_foregroundBlur_228_309"/>
</filter>
<filter id="filter1_d_228_309" x="-9.71814" y="30.1758" width="725.965" height="445.312" filterUnits="userSpaceOnUse" color-interpolation-filters="sRGB">
<feFlood flood-opacity="0" result="BackgroundImageFix"/>
<feColorMatrix in="SourceAlpha" type="matrix" values="0 0 0 0 0 0 0 0 0 0 0 0 0 0 0 0 0 0 127 0" result="hardAlpha"/>
<feOffset dy="14"/>
<feGaussianBlur stdDeviation="15.5"/>
<feColorMatrix type="matrix" values="0 0 0 0 0 0 0 0 0 0 0 0 0 0 0 0 0 0 0.15 0"/>
<feBlend mode="normal" in2="BackgroundImageFix" result="effect1_dropShadow_228_309"/>
<feBlend mode="normal" in="SourceGraphic" in2="effect1_dropShadow_228_309" result="shape"/>
</filter>
<filter id="filter2_dddd_228_309" x="314.565" y="143.688" width="59.4121" height="70.1348" filterUnits="userSpaceOnUse" color-interpolation-filters="sRGB">
<feFlood flood-opacity="0" result="BackgroundImageFix"/>
<feColorMatrix in="SourceAlpha" type="matrix" values="0 0 0 0 0 0 0 0 0 0 0 0 0 0 0 0 0 0 127 0" result="hardAlpha"/>
<feOffset dy="2"/>
<feGaussianBlur stdDeviation="2.5"/>
<feColorMatrix type="matrix" values="0 0 0 0 0.858824 0 0 0 0 0.313726 0 0 0 0 0.290196 0 0 0 0.1 0"/>
<feBlend mode="normal" in2="BackgroundImageFix" result="effect1_dropShadow_228_309"/>
<feColorMatrix in="SourceAlpha" type="matrix" values="0 0 0 0 0 0 0 0 0 0 0 0 0 0 0 0 0 0 127 0" result="hardAlpha"/>
<feOffset dy="9"/>
<feGaussianBlur stdDeviation="4.5"/>
<feColorMatrix type="matrix" values="0 0 0 0 0.858824 0 0 0 0 0.313726 0 0 0 0 0.290196 0 0 0 0.09 0"/>
<feBlend mode="normal" in2="effect1_dropShadow_228_309" result="effect2_dropShadow_228_309"/>
<feColorMatrix in="SourceAlpha" type="matrix" values="0 0 0 0 0 0 0 0 0 0 0 0 0 0 0 0 0 0 127 0" result="hardAlpha"/>
<feOffset dy="20"/>
<feGaussianBlur stdDeviation="6"/>
<feColorMatrix type="matrix" values="0 0 0 0 0.858824 0 0 0 0 0.313726 0 0 0 0 0.290196 0 0 0 0.05 0"/>
<feBlend mode="normal" in2="effect2_dropShadow_228_309" result="effect3_dropShadow_228_309"/>
<feColorMatrix in="SourceAlpha" type="matrix" values="0 0 0 0 0 0 0 0 0 0 0 0 0 0 0 0 0 0 127 0" result="hardAlpha"/>
<feOffset dy="35"/>
<feGaussianBlur stdDeviation="7"/>
<feColorMatrix type="matrix" values="0 0 0 0 0.858824 0 0 0 0 0.313726 0 0 0 0 0.290196 0 0 0 0.01 0"/>
<feBlend mode="normal" in2="effect3_dropShadow_228_309" result="effect4_dropShadow_228_309"/>
<feBlend mode="normal" in="SourceGraphic" in2="effect4_dropShadow_228_309" result="shape"/>
</filter>
<filter id="filter3_dddd_228_309" x="442.083" y="244.259" width="58.3403" height="69.5156" filterUnits="userSpaceOnUse" color-interpolation-filters="sRGB">
<feFlood flood-opacity="0" result="BackgroundImageFix"/>
<feColorMatrix in="SourceAlpha" type="matrix" values="0 0 0 0 0 0 0 0 0 0 0 0 0 0 0 0 0 0 127 0" result="hardAlpha"/>
<feOffset dy="2"/>
<feGaussianBlur stdDeviation="2.5"/>
<feColorMatrix type="matrix" values="0 0 0 0 0.858824 0 0 0 0 0.313726 0 0 0 0 0.290196 0 0 0 0.1 0"/>
<feBlend mode="normal" in2="BackgroundImageFix" result="effect1_dropShadow_228_309"/>
<feColorMatrix in="SourceAlpha" type="matrix" values="0 0 0 0 0 0 0 0 0 0 0 0 0 0 0 0 0 0 127 0" result="hardAlpha"/>
<feOffset dy="9"/>
<feGaussianBlur stdDeviation="4.5"/>
<feColorMatrix type="matrix" values="0 0 0 0 0.858824 0 0 0 0 0.313726 0 0 0 0 0.290196 0 0 0 0.09 0"/>
<feBlend mode="normal" in2="effect1_dropShadow_228_309" result="effect2_dropShadow_228_309"/>
<feColorMatrix in="SourceAlpha" type="matrix" values="0 0 0 0 0 0 0 0 0 0 0 0 0 0 0 0 0 0 127 0" result="hardAlpha"/>
<feOffset dy="20"/>
<feGaussianBlur stdDeviation="6"/>
<feColorMatrix type="matrix" values="0 0 0 0 0.858824 0 0 0 0 0.313726 0 0 0 0 0.290196 0 0 0 0.05 0"/>
<feBlend mode="normal" in2="effect2_dropShadow_228_309" result="effect3_dropShadow_228_309"/>
<feColorMatrix in="SourceAlpha" type="matrix" values="0 0 0 0 0 0 0 0 0 0 0 0 0 0 0 0 0 0 127 0" result="hardAlpha"/>
<feOffset dy="35"/>
<feGaussianBlur stdDeviation="7"/>
<feColorMatrix type="matrix" values="0 0 0 0 0.858824 0 0 0 0 0.313726 0 0 0 0 0.290196 0 0 0 0.01 0"/>
<feBlend mode="normal" in2="effect3_dropShadow_228_309" result="effect4_dropShadow_228_309"/>
<feBlend mode="normal" in="SourceGraphic" in2="effect4_dropShadow_228_309" result="shape"/>
</filter>
<filter id="filter4_dddd_228_309" x="157.178" y="198.213" width="275.25" height="194.739" filterUnits="userSpaceOnUse" color-interpolation-filters="sRGB">
<feFlood flood-opacity="0" result="BackgroundImageFix"/>
<feColorMatrix in="SourceAlpha" type="matrix" values="0 0 0 0 0 0 0 0 0 0 0 0 0 0 0 0 0 0 127 0" result="hardAlpha"/>
<feOffset dy="2"/>
<feGaussianBlur stdDeviation="2.5"/>
<feColorMatrix type="matrix" values="0 0 0 0 0.858824 0 0 0 0 0.313726 0 0 0 0 0.290196 0 0 0 0.1 0"/>
<feBlend mode="normal" in2="BackgroundImageFix" result="effect1_dropShadow_228_309"/>
<feColorMatrix in="SourceAlpha" type="matrix" values="0 0 0 0 0 0 0 0 0 0 0 0 0 0 0 0 0 0 127 0" result="hardAlpha"/>
<feOffset dy="9"/>
<feGaussianBlur stdDeviation="4.5"/>
<feColorMatrix type="matrix" values="0 0 0 0 0.858824 0 0 0 0 0.313726 0 0 0 0 0.290196 0 0 0 0.09 0"/>
<feBlend mode="normal" in2="effect1_dropShadow_228_309" result="effect2_dropShadow_228_309"/>
<feColorMatrix in="SourceAlpha" type="matrix" values="0 0 0 0 0 0 0 0 0 0 0 0 0 0 0 0 0 0 127 0" result="hardAlpha"/>
<feOffset dy="20"/>
<feGaussianBlur stdDeviation="6"/>
<feColorMatrix type="matrix" values="0 0 0 0 0.858824 0 0 0 0 0.313726 0 0 0 0 0.290196 0 0 0 0.05 0"/>
<feBlend mode="normal" in2="effect2_dropShadow_228_309" result="effect3_dropShadow_228_309"/>
<feColorMatrix in="SourceAlpha" type="matrix" values="0 0 0 0 0 0 0 0 0 0 0 0 0 0 0 0 0 0 127 0" result="hardAlpha"/>
<feOffset dy="35"/>
<feGaussianBlur stdDeviation="7"/>
<feColorMatrix type="matrix" values="0 0 0 0 0.858824 0 0 0 0 0.313726 0 0 0 0 0.290196 0 0 0 0.01 0"/>
<feBlend mode="normal" in2="effect3_dropShadow_228_309" result="effect4_dropShadow_228_309"/>
<feBlend mode="normal" in="SourceGraphic" in2="effect4_dropShadow_228_309" result="shape"/>
</filter>
<filter id="filter5_dddd_228_309" x="483.073" y="249.716" width="124.195" height="107.534" filterUnits="userSpaceOnUse" color-interpolation-filters="sRGB">
<feFlood flood-opacity="0" result="BackgroundImageFix"/>
<feColorMatrix in="SourceAlpha" type="matrix" values="0 0 0 0 0 0 0 0 0 0 0 0 0 0 0 0 0 0 127 0" result="hardAlpha"/>
<feOffset dy="2"/>
<feGaussianBlur stdDeviation="2.5"/>
<feColorMatrix type="matrix" values="0 0 0 0 0.858824 0 0 0 0 0.313726 0 0 0 0 0.290196 0 0 0 0.1 0"/>
<feBlend mode="normal" in2="BackgroundImageFix" result="effect1_dropShadow_228_309"/>
<feColorMatrix in="SourceAlpha" type="matrix" values="0 0 0 0 0 0 0 0 0 0 0 0 0 0 0 0 0 0 127 0" result="hardAlpha"/>
<feOffset dy="9"/>
<feGaussianBlur stdDeviation="4.5"/>
<feColorMatrix type="matrix" values="0 0 0 0 0.858824 0 0 0 0 0.313726 0 0 0 0 0.290196 0 0 0 0.09 0"/>
<feBlend mode="normal" in2="effect1_dropShadow_228_309" result="effect2_dropShadow_228_309"/>
<feColorMatrix in="SourceAlpha" type="matrix" values="0 0 0 0 0 0 0 0 0 0 0 0 0 0 0 0 0 0 127 0" result="hardAlpha"/>
<feOffset dy="20"/>
<feGaussianBlur stdDeviation="6"/>
<feColorMatrix type="matrix" values="0 0 0 0 0.858824 0 0 0 0 0.313726 0 0 0 0 0.290196 0 0 0 0.05 0"/>
<feBlend mode="normal" in2="effect2_dropShadow_228_309" result="effect3_dropShadow_228_309"/>
<feColorMatrix in="SourceAlpha" type="matrix" values="0 0 0 0 0 0 0 0 0 0 0 0 0 0 0 0 0 0 127 0" result="hardAlpha"/>
<feOffset dy="35"/>
<feGaussianBlur stdDeviation="7"/>
<feColorMatrix type="matrix" values="0 0 0 0 0.858824 0 0 0 0 0.313726 0 0 0 0 0.290196 0 0 0 0.01 0"/>
<feBlend mode="normal" in2="effect3_dropShadow_228_309" result="effect4_dropShadow_228_309"/>
<feBlend mode="normal" in="SourceGraphic" in2="effect4_dropShadow_228_309" result="shape"/>
</filter>
<filter id="filter6_dddd_228_309" x="77.9447" y="195.491" width="95.8005" height="91.1416" filterUnits="userSpaceOnUse" color-interpolation-filters="sRGB">
<feFlood flood-opacity="0" result="BackgroundImageFix"/>
<feColorMatrix in="SourceAlpha" type="matrix" values="0 0 0 0 0 0 0 0 0 0 0 0 0 0 0 0 0 0 127 0" result="hardAlpha"/>
<feOffset dy="2"/>
<feGaussianBlur stdDeviation="2.5"/>
<feColorMatrix type="matrix" values="0 0 0 0 0.858824 0 0 0 0 0.313726 0 0 0 0 0.290196 0 0 0 0.1 0"/>
<feBlend mode="normal" in2="BackgroundImageFix" result="effect1_dropShadow_228_309"/>
<feColorMatrix in="SourceAlpha" type="matrix" values="0 0 0 0 0 0 0 0 0 0 0 0 0 0 0 0 0 0 127 0" result="hardAlpha"/>
<feOffset dy="9"/>
<feGaussianBlur stdDeviation="4.5"/>
<feColorMatrix type="matrix" values="0 0 0 0 0.858824 0 0 0 0 0.313726 0 0 0 0 0.290196 0 0 0 0.09 0"/>
<feBlend mode="normal" in2="effect1_dropShadow_228_309" result="effect2_dropShadow_228_309"/>
<feColorMatrix in="SourceAlpha" type="matrix" values="0 0 0 0 0 0 0 0 0 0 0 0 0 0 0 0 0 0 127 0" result="hardAlpha"/>
<feOffset dy="20"/>
<feGaussianBlur stdDeviation="6"/>
<feColorMatrix type="matrix" values="0 0 0 0 0.858824 0 0 0 0 0.313726 0 0 0 0 0.290196 0 0 0 0.05 0"/>
<feBlend mode="normal" in2="effect2_dropShadow_228_309" result="effect3_dropShadow_228_309"/>
<feColorMatrix in="SourceAlpha" type="matrix" values="0 0 0 0 0 0 0 0 0 0 0 0 0 0 0 0 0 0 127 0" result="hardAlpha"/>
<feOffset dy="35"/>
<feGaussianBlur stdDeviation="7"/>
<feColorMatrix type="matrix" values="0 0 0 0 0.858824 0 0 0 0 0.313726 0 0 0 0 0.290196 0 0 0 0.01 0"/>
<feBlend mode="normal" in2="effect3_dropShadow_228_309" result="effect4_dropShadow_228_309"/>
<feBlend mode="normal" in="SourceGraphic" in2="effect4_dropShadow_228_309" result="shape"/>
</filter>
<clipPath id="clip0_228_309">
<rect width="703" height="464" fill="white"/>
</clipPath>
<clipPath id="clip1_228_309">
<rect width="768" height="809" fill="white" transform="translate(-32)"/>
</clipPath>
</defs>
</svg>
