<svg width="36" height="36" viewBox="0 0 36 36" fill="none" xmlns="http://www.w3.org/2000/svg">
<g id="Group">
<path id="Vector" fill-rule="evenodd" clip-rule="evenodd" d="M36 18.0024C36 27.9429 27.9405 36.0024 18 36.0024C8.0595 36.0024 0 27.9429 0 18.0024C0 8.06194 8.0595 0.00244141 18 0.00244141C27.9405 0.00244141 36 8.06194 36 18.0024ZM18.645 13.2909C16.8945 14.0184 13.395 15.5259 8.148 17.8119C7.296 18.1509 6.849 18.4824 6.8085 18.8064C6.7395 19.3554 7.4265 19.5714 8.3595 19.8639C8.487 19.9044 8.619 19.9449 8.754 19.9899C9.6735 20.2884 10.9095 20.6379 11.5515 20.6514C12.135 20.6634 12.786 20.4234 13.5045 19.9314C18.4065 16.6209 20.937 14.9484 21.096 14.9124C21.2085 14.8869 21.3645 14.8539 21.4695 14.9484C21.5745 15.0414 21.564 15.2184 21.5535 15.2664C21.4845 15.5559 18.7935 18.0594 17.3985 19.3554C16.9635 19.7589 16.656 20.0454 16.593 20.1114C16.452 20.2569 16.308 20.3964 16.17 20.5299C15.315 21.3519 14.676 21.9699 16.206 22.9779C16.941 23.4624 17.529 23.8629 18.1155 24.2619C18.756 24.6984 19.395 25.1334 20.223 25.6764C20.433 25.8144 20.634 25.9569 20.8305 26.0964C21.576 26.6289 22.2465 27.1059 23.0745 27.0309C23.5545 26.9859 24.0525 26.5344 24.3045 25.1859C24.9 21.9969 26.073 15.0909 26.3445 12.2439C26.361 12.0076 26.351 11.7701 26.3145 11.5359C26.2927 11.3468 26.2006 11.1728 26.0565 11.0484C25.842 10.8729 25.509 10.8354 25.359 10.8384C24.6825 10.8504 23.6445 11.2119 18.645 13.2909Z" fill="#222222"/>
</g>
</svg>
