<svg width="36" height="36" viewBox="0 0 36 36" fill="none" xmlns="http://www.w3.org/2000/svg">
<g id="Group 99">
<path id="Subtract" fill-rule="evenodd" clip-rule="evenodd" d="M18 36.0024C27.9411 36.0024 36 27.9436 36 18.0024C36 8.06132 27.9411 0.00244141 18 0.00244141C8.05887 0.00244141 0 8.06132 0 18.0024C0 27.9436 8.05887 36.0024 18 36.0024ZM21.7751 8.10461C23.6616 8.42361 25.4656 8.98461 27.1486 9.74361C27.1633 9.74946 27.1754 9.76039 27.1827 9.77441C30.1648 14.0886 31.6366 18.9572 31.0866 24.5606C31.0853 24.5724 31.0815 24.5839 31.0754 24.5941C31.0694 24.6044 31.0612 24.6132 31.0514 24.62C29.0512 26.0773 26.819 27.1859 24.4492 27.8991C24.4325 27.9041 24.4147 27.9038 24.3981 27.8983C24.3816 27.8928 24.3672 27.8823 24.3568 27.8683C23.8585 27.1852 23.4053 26.4658 23.0093 25.7101C23.0039 25.6997 23.0008 25.6882 23.0002 25.6765C22.9996 25.6648 23.0014 25.6531 23.0057 25.6421C23.01 25.6312 23.0165 25.6213 23.0249 25.6131C23.0333 25.6049 23.0434 25.5986 23.0544 25.5946C23.7727 25.3284 24.4569 25.0083 25.1147 24.6299C25.1264 24.6229 25.1363 24.6132 25.1433 24.6015C25.1503 24.5898 25.1543 24.5766 25.155 24.5629C25.1556 24.5493 25.1529 24.5357 25.147 24.5234C25.1412 24.5111 25.1323 24.5005 25.1213 24.4924C24.9816 24.3901 24.8441 24.2834 24.7121 24.1756C24.7 24.166 24.6855 24.1599 24.6701 24.1582C24.6547 24.1564 24.6392 24.159 24.6252 24.1657C20.3561 26.1061 15.6778 26.1061 11.3581 24.1657C11.3442 24.1594 11.3288 24.1571 11.3137 24.1591C11.2985 24.161 11.2842 24.1671 11.2723 24.1767C11.1403 24.2834 11.0017 24.3901 10.8631 24.4924C10.8522 24.5006 10.8435 24.5114 10.8378 24.5239C10.8321 24.5363 10.8296 24.5499 10.8305 24.5635C10.8314 24.5772 10.8356 24.5904 10.8428 24.6019C10.8501 24.6135 10.8601 24.6231 10.8719 24.6299C11.532 25.0052 12.2205 25.3281 12.9311 25.5957C12.9773 25.6133 12.9993 25.6661 12.9762 25.7101C12.589 26.4669 12.1358 27.1874 11.6276 27.8694C11.6169 27.8829 11.6023 27.8929 11.5858 27.898C11.5693 27.9031 11.5517 27.9031 11.5352 27.898C9.16948 27.1828 6.94095 26.0747 4.94291 24.62C4.93342 24.6128 4.9255 24.6037 4.91964 24.5933C4.91378 24.5829 4.9101 24.5714 4.90881 24.5595C4.44791 19.7129 5.38621 14.8047 8.80941 9.77221C8.81784 9.75895 8.83012 9.74858 8.84461 9.74251C10.5287 8.98241 12.3327 8.42141 14.2181 8.10241C14.2351 8.09971 14.2526 8.10227 14.2681 8.10973C14.2836 8.1172 14.2965 8.12923 14.305 8.14421C14.5562 8.58225 14.7828 9.03395 14.9837 9.49721C16.9845 9.19827 19.0186 9.19827 21.0194 9.49721C21.1998 9.07921 21.4572 8.55011 21.6882 8.14421C21.6968 8.12941 21.7098 8.11765 21.7254 8.11056C21.7409 8.10346 21.7583 8.10138 21.7751 8.10461ZM11.2492 18.9902C11.2492 20.4323 12.3217 21.6082 13.6219 21.6082C14.943 21.6082 15.9946 20.4334 15.9946 18.9902C16.0155 17.5569 14.9529 16.3722 13.6219 16.3722C12.3008 16.3722 11.2492 17.547 11.2492 18.9902ZM20.0217 18.9902C20.0217 20.4323 21.0931 21.6082 22.3944 21.6082C23.7265 21.6082 24.7671 20.4334 24.7671 18.9902C24.788 17.5569 23.7254 16.3722 22.3944 16.3722C21.0722 16.3722 20.0217 17.547 20.0217 18.9902Z" fill="#222222"/>
</g>
</svg>
