<svg width="178" height="50" viewBox="0 0 178 50" fill="none" xmlns="http://www.w3.org/2000/svg">
<path d="M145.877 17.5772H142.162C141.837 17.5674 141.529 17.4306 141.303 17.1958C141.077 16.961 140.951 16.6469 140.952 16.3204V13.8561C140.952 13.6902 140.985 13.526 141.048 13.3728C141.111 13.2196 141.204 13.0804 141.321 12.9633C141.438 12.8461 141.577 12.7532 141.73 12.69C141.882 12.6267 142.046 12.5943 142.211 12.5946H145.877V1.23195C145.876 1.09537 145.903 0.960079 145.955 0.833892C146.007 0.707705 146.084 0.593122 146.18 0.496762C146.276 0.400402 146.391 0.324173 146.517 0.272477C146.643 0.220781 146.778 0.194643 146.914 0.195573H149.808C150.073 0.195573 150.327 0.301057 150.514 0.48882C150.701 0.676583 150.806 0.931244 150.806 1.19678V12.5946H154.448C154.79 12.5933 155.119 12.7275 155.363 12.968C155.608 13.2085 155.748 13.536 155.754 13.8795V16.3087C155.754 16.6451 155.62 16.9678 155.383 17.2057C155.146 17.4436 154.825 17.5772 154.49 17.5772H150.799V27.4955C150.796 28.1487 150.922 28.7959 151.169 29.4003C151.416 30.0046 151.779 30.5542 152.238 31.0176C152.696 31.481 153.241 31.8491 153.842 32.1009C154.442 32.3527 155.086 32.4833 155.737 32.4851V37.4091C154.325 37.4298 152.926 37.1426 151.635 36.5673C151.233 36.3868 148.208 34.9823 146.711 31.6082C146.138 30.3155 145.848 28.9147 145.86 27.5002C145.888 24.2363 145.856 20.8341 145.877 17.5772Z" fill="white"/>
<path d="M78.8706 22.534C78.3021 19.7316 76.786 17.2126 74.5789 15.4037C72.3719 13.5949 69.6097 12.6074 66.7604 12.6087C65.9263 12.6083 65.0944 12.6923 64.2771 12.8596C61.907 13.35 59.732 14.5268 58.0211 16.2445C56.3101 17.9623 55.1382 20.1456 54.6502 22.5246C54.4838 23.3512 54.4016 24.1926 54.4049 25.0359V49.0133C54.4049 49.2228 54.4878 49.4238 54.6355 49.572C54.7831 49.7202 54.9833 49.8034 55.1921 49.8034H58.5631C58.769 49.8028 58.9663 49.7203 59.1117 49.5739C59.257 49.4276 59.3387 49.2293 59.3387 49.0226V34.9541C60.7982 36.0593 62.4856 36.8228 64.2771 37.1887C64.8401 37.3076 65.4107 37.386 65.9848 37.4232H67.5336C68.0996 37.3905 68.6625 37.3168 69.2179 37.2028C72.0145 36.6346 74.529 35.1123 76.3342 32.8944C78.1393 30.6765 79.1239 27.8998 79.1206 25.0359C79.1216 24.1956 79.0379 23.3573 78.8706 22.534ZM73.764 27.4908C73.3948 28.5444 72.7946 29.5013 72.0078 30.2911C71.221 31.0808 70.2676 31.6831 69.2179 32.0537C68.6196 32.2662 67.9959 32.3986 67.3631 32.4476C67.1622 32.4664 66.9613 32.4734 66.7604 32.4734C66.5595 32.4734 66.3562 32.4734 66.1577 32.4476C64.6165 32.3199 63.1538 31.7115 61.9743 30.7078C60.7948 29.704 59.9575 28.3552 59.5799 26.85C59.2022 25.3449 59.3029 23.7589 59.868 22.3141C60.4332 20.8694 61.4343 19.6381 62.7313 18.7929C64.0283 17.9477 65.5562 17.5308 67.101 17.6006C68.6459 17.6704 70.1303 18.2234 71.3464 19.1821C72.5625 20.1409 73.4494 21.4574 73.8829 22.9473C74.3164 24.4371 74.2748 26.0258 73.764 27.4908Z" fill="white"/>
<path d="M106.055 22.534C105.442 19.5202 103.735 16.8425 101.266 15.0206C98.797 13.1986 95.7415 12.3624 92.6926 12.6741C89.6438 12.9858 86.819 14.4233 84.7665 16.7075C82.714 18.9917 81.5801 21.9598 81.585 25.0358V49.0133C81.585 49.2228 81.6679 49.4238 81.8156 49.572C81.9632 49.7202 82.1634 49.8034 82.3722 49.8034H85.7455C85.8477 49.8034 85.9488 49.7832 86.0432 49.744C86.1376 49.7048 86.2234 49.6473 86.2956 49.5747C86.3678 49.5022 86.4251 49.4162 86.4642 49.3214C86.5033 49.2267 86.5234 49.1252 86.5234 49.0226V34.9541C87.983 36.0593 89.6704 36.8228 91.4619 37.1887C92.0248 37.3076 92.5955 37.386 93.1696 37.4232H94.7184C95.2844 37.3903 95.8473 37.3167 96.4027 37.2028C99.2003 36.637 101.716 35.1153 103.521 32.8968C105.326 30.6783 106.31 27.9002 106.303 25.0358C106.304 24.1957 106.221 23.3576 106.055 22.534ZM100.949 27.4908C100.579 28.5441 99.9788 29.5008 99.1921 30.2905C98.4053 31.0802 97.4522 31.6827 96.4027 32.0537C95.8036 32.2664 95.1792 32.3989 94.5455 32.4476C94.347 32.4664 94.1461 32.4734 93.9428 32.4734C93.7396 32.4734 93.541 32.4734 93.3401 32.4476C91.7991 32.3194 90.3367 31.7107 89.1575 30.7067C87.9783 29.7027 87.1415 28.3537 86.7642 26.8486C86.3868 25.3435 86.4879 23.7576 87.0533 22.3131C87.6186 20.8685 88.6199 19.6375 89.9169 18.7925C91.2139 17.9476 92.7418 17.5309 94.2865 17.6008C95.8312 17.6707 97.3154 18.2238 98.5314 19.1826C99.7474 20.1413 100.634 21.4577 101.068 22.9475C101.501 24.4373 101.46 26.0259 100.949 27.4908Z" fill="white"/>
<path d="M140.536 22.527C140.349 21.6594 140.092 20.8388 139.742 20.0415C139.368 19.1505 138.877 18.3299 138.293 17.5795C138.293 17.5795 138.293 17.5795 138.27 17.5561C137.569 16.6182 136.751 15.7975 135.817 15.0941C135.794 15.0941 135.794 15.0707 135.77 15.0707C134.392 13.9921 132.71 13.2183 130.888 12.8432C130.094 12.7025 129.276 12.6087 128.435 12.6087C127.594 12.6087 126.753 12.7025 125.959 12.8666C124.16 13.2418 122.478 14.0155 121.053 15.0707C121.03 15.0707 121.03 15.0941 121.006 15.0941C120.072 15.7975 119.254 16.6182 118.553 17.5561C118.553 17.5561 118.553 17.5561 118.53 17.5795C117.969 18.3299 117.479 19.174 117.082 20.0415C116.778 20.8153 116.498 21.6594 116.334 22.527C116.171 23.3242 116.077 24.1448 116.077 25.0124V25.0359C116.077 25.88 116.171 26.7006 116.311 27.4978C116.474 28.3654 116.755 29.1861 117.082 29.9833C117.455 30.8743 117.946 31.6949 118.507 32.4453C118.507 32.4453 118.507 32.4453 118.507 32.4687C119.207 33.4066 120.048 34.2507 120.983 34.9541C122.408 36.0327 124.09 36.8065 125.912 37.1817C126.473 37.2989 127.033 37.3692 127.617 37.4161H129.159C129.743 37.3927 130.304 37.2989 130.841 37.2051C132.663 36.8299 134.369 36.0562 135.794 34.9776C136.728 34.2742 137.569 33.4301 138.27 32.4922C138.27 32.4922 138.27 32.4922 138.27 32.4687C138.597 32.0232 138.924 31.5308 139.181 31.0384C139.438 30.5695 139.088 30.0067 138.574 30.0067H134.556C134.205 30.0067 133.878 30.1474 133.621 30.3819C132.85 31.1322 131.916 31.7184 130.888 32.0935C130.304 32.3046 129.673 32.4453 129.042 32.4922C128.972 32.4922 128.902 32.4922 128.832 32.5156C128.692 32.5156 128.575 32.5156 128.435 32.5156C128.295 32.5156 128.178 32.5156 128.038 32.5156C127.968 32.5156 127.898 32.5156 127.828 32.4922C127.174 32.4453 126.543 32.3046 125.959 32.0935C124.767 31.6715 123.716 30.9446 122.898 30.0302C122.268 29.3033 121.754 28.4826 121.427 27.5447H139.344C140.069 27.5447 140.676 26.982 140.746 26.2551C140.793 25.8565 140.793 25.4814 140.793 25.0827V25.0593C140.793 24.1448 140.699 23.3242 140.536 22.527ZM121.45 22.527C121.59 22.1518 121.777 21.6829 122.081 21.1905C122.244 20.9091 122.525 20.487 122.945 20.0181C123.763 19.1036 124.814 18.4002 125.982 17.9782C126.753 17.6968 127.594 17.5561 128.458 17.5561C129.323 17.5561 130.14 17.6968 130.911 17.9782C132.103 18.4002 133.154 19.1036 133.972 20.0181C134.485 20.5808 134.906 21.2374 135.233 21.9408C135.35 22.1987 135.163 22.5035 134.883 22.5035C130.374 22.527 125.912 22.527 121.45 22.527Z" fill="white"/>
<path d="M19.7819 1.00461V15.1036C18.2998 13.9872 16.5866 13.2196 14.769 12.8576C12.9514 12.4956 11.0759 12.5484 9.2814 13.0121C7.48687 13.4759 5.8192 14.3386 4.40175 15.5366C2.9843 16.7346 1.85337 18.2372 1.09261 19.9331C0.331849 21.6291 -0.0392614 23.475 0.00673915 25.3344C0.0527397 27.1937 0.514668 29.0189 1.35835 30.6749C2.20204 32.3308 3.40589 33.7752 4.88083 34.9011C6.35577 36.027 8.06405 36.8056 9.8793 37.1794C10.4363 37.2959 11.0006 37.3742 11.5683 37.4139H13.1545C15.5558 37.2626 17.8602 36.4074 19.7819 34.9542V36.694C19.7825 36.8852 19.8586 37.0683 19.9935 37.2032C20.1284 37.3381 20.311 37.4139 20.5014 37.4139H23.9261C24.137 37.4139 24.3393 37.33 24.4886 37.1805C24.6379 37.0311 24.7221 36.8283 24.7227 36.6167V1.06088C24.7227 0.947262 24.7004 0.834754 24.6571 0.729781C24.6138 0.624809 24.5503 0.529428 24.4703 0.449086C24.3902 0.368744 24.2952 0.305012 24.1906 0.261531C24.086 0.21805 23.9739 0.195671 23.8607 0.195671H20.5902C20.3762 0.19567 20.171 0.280823 20.0195 0.432461C19.868 0.584099 19.7825 0.789851 19.7819 1.00461ZM19.3661 27.5003C18.9969 28.5539 18.3968 29.5108 17.61 30.3005C16.8232 31.0903 15.8698 31.6926 14.8201 32.0632C14.2217 32.2757 13.5981 32.4081 12.9653 32.4571C12.7643 32.4758 12.5634 32.4829 12.3625 32.4829C12.1616 32.4829 11.9584 32.4829 11.7598 32.4571C10.2188 32.3305 8.75572 31.7234 7.57553 30.7207C6.39533 29.718 5.55709 28.37 5.17814 26.8653C4.79919 25.3607 4.89853 23.7748 5.46223 22.3296C6.02593 20.8845 7.02578 19.6525 8.32179 18.806C9.61779 17.9596 11.1451 17.5411 12.6898 17.6093C14.2345 17.6774 15.7194 18.2287 16.9364 19.1859C18.1535 20.1432 19.0418 21.4585 19.4771 22.9477C19.9124 24.4369 19.8727 26.0254 19.3638 27.4909L19.3661 27.5003Z" fill="white"/>
<path d="M112.83 0.195595H109.667C109.177 0.195595 108.779 0.594511 108.779 1.0866V36.5134C108.779 37.0055 109.177 37.4044 109.667 37.4044H112.83C113.32 37.4044 113.718 37.0055 113.718 36.5134V1.0866C113.718 0.594511 113.32 0.195595 112.83 0.195595Z" fill="white"/>
<path d="M51.6764 22.534C51.3052 20.7122 50.5308 18.9975 49.4104 17.5166C48.29 16.0357 46.8524 14.8264 45.2038 13.9782C43.5551 13.13 41.7376 12.6646 39.8856 12.6163C38.0337 12.568 36.1946 12.9381 34.5043 13.6993C32.814 14.4604 31.3157 15.5932 30.1203 17.0137C28.9249 18.4343 28.0628 20.1063 27.5978 21.9063C27.1329 23.7063 27.0769 25.5881 27.4341 27.4127C27.7912 29.2373 28.5524 30.958 29.6612 32.4476C30.3673 33.3935 31.2034 34.2343 32.1445 34.9447C33.6049 36.0499 35.293 36.8134 37.0853 37.1793C37.6482 37.2982 38.2189 37.3766 38.793 37.4138H40.3394C40.9047 37.3812 41.4668 37.3076 42.0214 37.1934C43.8225 36.8299 45.519 36.0646 46.9856 34.9541V36.5134C46.9856 36.6318 47.0089 36.7491 47.0541 36.8585C47.0993 36.9679 47.1656 37.0672 47.2492 37.1509C47.3327 37.2345 47.4319 37.3008 47.541 37.3459C47.6501 37.391 47.767 37.4141 47.885 37.4138H51.0597C51.2896 37.4138 51.51 37.3221 51.6725 37.159C51.8351 36.9958 51.9264 36.7746 51.9264 36.5439V25.0358C51.9275 24.1956 51.8437 23.3573 51.6764 22.534ZM46.5698 27.4908C46.2 28.5443 45.5997 29.5012 44.813 30.2913C44.0263 31.0813 43.0732 31.6843 42.0238 32.056C41.4259 32.2671 40.8031 32.3988 40.1712 32.4476C39.9703 32.4664 39.7694 32.4734 39.5685 32.4734C39.3676 32.4734 39.1644 32.4734 38.9658 32.4476C38.3281 32.3962 37.6999 32.2614 37.097 32.0466C35.4479 31.4592 34.0587 30.3058 33.1747 28.7901C32.2906 27.2744 31.9685 25.4939 32.2653 23.7631C32.5621 22.0322 33.4586 20.4622 34.7966 19.3304C36.1346 18.1985 37.8281 17.5776 39.5779 17.5772C40.7635 17.5775 41.9319 17.8628 42.9852 18.4092C44.0385 18.9556 44.9462 19.7471 45.6323 20.7177C46.3184 21.6882 46.763 22.8096 46.929 23.9879C47.0949 25.1663 46.9774 26.3674 46.5861 27.4908H46.5698Z" fill="white"/>
<path d="M158.223 30.1427C158.221 30.0906 158.237 30.0395 158.267 29.9973C158.284 29.9779 158.306 29.9624 158.33 29.9519C158.353 29.9413 158.379 29.9361 158.405 29.9363H162.844C162.91 29.9369 162.974 29.9606 163.025 30.0034C163.075 30.0462 163.11 30.1054 163.122 30.1708C163.589 32.3796 165.224 33.6762 168.261 33.6762C171.228 33.6762 173.005 32.4476 173.005 30.5132V30.4897C173.005 28.9422 172.139 28.0559 169.562 27.4415L165.64 26.5552C161.077 25.5071 158.818 23.3242 158.818 19.8399V19.8188C158.818 15.5396 162.556 12.604 168.079 12.604C173.758 12.604 177.189 15.767 177.423 19.8399C177.426 19.8745 177.422 19.9095 177.411 19.9425C177.4 19.9756 177.383 20.0059 177.359 20.0318C177.336 20.0576 177.308 20.0782 177.276 20.0924C177.244 20.1066 177.21 20.114 177.175 20.1142H173.106C173.028 20.1144 172.953 20.0873 172.893 20.0376C172.834 19.9879 172.793 19.9188 172.779 19.8422C172.673 19.173 172.403 18.5407 171.994 18.0016C170.648 16.2477 168.359 16.386 168.074 16.386C165.43 16.386 163.764 17.6381 163.764 19.5491V19.5726C163.764 21.0521 164.745 22.0533 167.322 22.6676L171.223 23.5539C171.616 23.5774 175.503 23.8705 177.229 26.9257C177.775 27.8778 178.04 28.9655 177.995 30.063C177.895 32.1287 176.276 33.9201 175.954 34.2671C173.305 37.1136 169.483 37.3903 168.06 37.395C165.881 37.3921 163.743 36.8009 161.869 35.6833C160.632 34.9697 159.614 33.9271 158.928 32.6703C158.493 31.8976 158.251 31.0301 158.223 30.1427Z" fill="white"/>
</svg>
