<svg width="768" height="6965" viewBox="0 0 768 6965" fill="none" xmlns="http://www.w3.org/2000/svg">
<g clip-path="url(#clip0_1103_1314)"/>
<line x1="728.5" y1="96" x2="728.5" y2="650" stroke="#303030" stroke-dasharray="2 2"/>
<line x1="40.5" y1="96" x2="40.5" y2="650" stroke="#303030" stroke-dasharray="2 2"/>
<line x1="40" y1="301.5" y2="301.5" stroke="#303030" stroke-dasharray="2 2"/>
<line x1="768" y1="301.5" x2="728" y2="301.5" stroke="#303030" stroke-dasharray="2 2"/>
<line x1="728" y1="640.5" x2="40" y2="640.5" stroke="#303030" stroke-dasharray="2 2"/>
<line x1="728" y1="894.5" x2="41" y2="894.5" stroke="#303030" stroke-dasharray="2 2"/>
<line x1="728" y1="96.5" x2="40" y2="96.5" stroke="#303030" stroke-dasharray="2 2"/>
<line x1="728" y1="503.5" x2="40" y2="503.5" stroke="#303030" stroke-dasharray="2 2"/>
<circle cx="40" cy="96" r="19.5" fill="#1D1D1D" stroke="#303030" stroke-dasharray="2 2"/>
<circle cx="41" cy="894" r="19.5" fill="#1D1D1D" stroke="#303030" stroke-dasharray="2 2"/>
<circle cx="40" cy="640" r="19.5" fill="#1D1D1D" stroke="#303030" stroke-dasharray="2 2"/>
<circle cx="40" cy="503" r="19.5" fill="#1D1D1D" stroke="#303030" stroke-dasharray="2 2"/>
<circle cx="728" cy="640" r="19.5" fill="#1D1D1D" stroke="#303030" stroke-dasharray="2 2"/>
<circle cx="728" cy="503" r="19.5" fill="#1D1D1D" stroke="#303030" stroke-dasharray="2 2"/>
<circle cx="728" cy="894" r="19.5" fill="#1D1D1D" stroke="#303030" stroke-dasharray="2 2"/>
<circle cx="728" cy="96" r="19.5" fill="#1D1D1D" stroke="#303030" stroke-dasharray="2 2"/>
<path d="M440.999 3487.5L1298.5 3487.5M440.5 4345.5L440.5 3487M440 3507.49L1297.5 3507.49M460.488 4346.5L460.488 3488M440 3527.48L1297.5 3527.48M480.477 4346.5L480.476 3488M440 3547.46L1297.5 3547.46M500.465 4346.5L500.465 3488M440 3567.45L1297.5 3567.45M520.453 4346.5L520.453 3488M440 3587.44L1297.5 3587.44M540.442 4346.5L540.442 3488M440 3607.43L1297.5 3607.43M560.43 4346.5L560.43 3488M440 3627.42L1297.5 3627.42M580.418 4346.5L580.418 3488M440 3647.41L1297.5 3647.41M600.407 4346.5L600.407 3488M440 3667.4L1297.5 3667.4M620.395 4346.5L620.395 3488M440 3687.38L1297.5 3687.38M640.384 4346.5L640.383 3488M440 3707.37L1297.5 3707.37M660.372 4346.5L660.372 3488M440 3727.36L1297.5 3727.36M680.36 4346.5L680.36 3488M440 3747.35L1297.5 3747.35M700.349 4346.5L700.349 3488M440 3767.34L1297.5 3767.34M720.337 4346.5L720.337 3488M440 3787.33L1297.5 3787.33M740.325 4346.5L740.325 3488M440 3807.31L1297.5 3807.31M760.314 4346.5L760.314 3488M440 3827.3L1297.5 3827.3M780.302 4346.5L780.302 3488M440 3847.29L1297.5 3847.29M800.291 4346.5L800.29 3488M440 3867.28L1297.5 3867.28M820.279 4346.5L820.279 3488M440 3887.27L1297.5 3887.27M840.267 4346.5L840.267 3488M440 3907.26L1297.5 3907.26M860.256 4346.5L860.256 3488M440 3927.24L1297.5 3927.24M880.244 4346.5L880.244 3488M440 3947.23L1297.5 3947.23M900.232 4346.5L900.232 3488M440 3967.22L1297.5 3967.22M920.221 4346.5L920.221 3488M440 3987.21L1297.5 3987.21M940.209 4346.5L940.209 3488M440 4007.2L1297.5 4007.2M960.198 4346.5L960.197 3488M440 4027.19L1297.5 4027.19M980.186 4346.5L980.186 3488M440 4047.17L1297.5 4047.17M1000.17 4346.5L1000.17 3488M440 4067.16L1297.5 4067.16M1020.16 4346.5L1020.16 3488M440 4087.15L1297.5 4087.15M1040.15 4346.5L1040.15 3488M440 4107.14L1297.5 4107.14M1060.14 4346.5L1060.14 3488M440 4127.13L1297.5 4127.13M1080.13 4346.5L1080.13 3488M440 4147.12L1297.5 4147.12M1100.12 4346.5L1100.12 3488M440 4167.1L1297.5 4167.1M1120.1 4346.5L1120.1 3488M440 4187.09L1297.5 4187.09M1140.09 4346.5L1140.09 3488M440 4207.08L1297.5 4207.08M1160.08 4346.5L1160.08 3488M440 4227.07L1297.5 4227.07M1180.07 4346.5L1180.07 3488M440 4247.06L1297.5 4247.06M1200.06 4346.5L1200.06 3488M440 4267.05L1297.5 4267.05M1220.05 4346.5L1220.05 3488M440 4287.03L1297.5 4287.03M1240.03 4346.5L1240.03 3488M440 4307.02L1297.5 4307.02M1260.02 4346.5L1260.02 3488M440 4327.01L1297.5 4327.01M1280.01 4346.5L1280.01 3488M440 4347L1297.5 4347M1300 4346.5L1300 3488" stroke="#303030"/>
<path d="M921.001 6685.5L63.4992 6685.5M921.5 7543.5L921.5 6685M922 6705.49L64.4986 6705.49M901.512 7544.5L901.512 6686M922 6725.48L64.4986 6725.48M881.523 7544.5L881.524 6686M922 6745.46L64.4986 6745.46M861.535 7544.5L861.535 6686M922 6765.45L64.4986 6765.45M841.547 7544.5L841.547 6686M922 6785.44L64.4986 6785.44M821.558 7544.5L821.558 6686M922 6805.43L64.4986 6805.43M801.57 7544.5L801.57 6686M922 6825.42L64.4986 6825.42M781.582 7544.5L781.582 6686M922 6845.41L64.4986 6845.41M761.593 7544.5L761.593 6686M922 6865.4L64.4986 6865.4M741.605 7544.5L741.605 6686M922 6885.38L64.4986 6885.38M721.616 7544.5L721.617 6686M922 6905.37L64.4986 6905.37M701.628 7544.5L701.628 6686M922 6925.36L64.4986 6925.36M681.64 7544.5L681.64 6686M922 6945.35L64.4986 6945.35M661.651 7544.5L661.651 6686M922 6965.34L64.4986 6965.34M641.663 7544.5L641.663 6686M922 6985.33L64.4986 6985.33M621.675 7544.5L621.675 6686M922 7005.31L64.4986 7005.31M601.686 7544.5L601.686 6686M922 7025.3L64.4986 7025.3M581.698 7544.5L581.698 6686M922 7045.29L64.4986 7045.29M561.709 7544.5L561.71 6686M922 7065.28L64.4986 7065.28M541.721 7544.5L541.721 6686M922 7085.27L64.4986 7085.27M521.733 7544.5L521.733 6686M922 7105.26L64.4986 7105.26M501.744 7544.5L501.744 6686M922 7125.24L64.4986 7125.24M481.756 7544.5L481.756 6686M922 7145.23L64.4986 7145.23M461.768 7544.5L461.768 6686M922 7165.22L64.4986 7165.22M441.779 7544.5L441.779 6686M922 7185.21L64.4985 7185.21M421.791 7544.5L421.791 6686M922 7205.2L64.4985 7205.2M401.802 7544.5L401.803 6686M922 7225.19L64.4985 7225.19M381.814 7544.5L381.814 6686M922 7245.17L64.4985 7245.17M361.826 7544.5L361.826 6686M922 7265.16L64.4985 7265.16M341.837 7544.5L341.837 6686M922 7285.15L64.4985 7285.15M321.849 7544.5L321.849 6686M922 7305.14L64.4985 7305.14M301.861 7544.5L301.861 6686M922 7325.13L64.4985 7325.13M281.872 7544.5L281.872 6686M922 7345.12L64.4985 7345.12M261.884 7544.5L261.884 6686M922 7365.1L64.4985 7365.1M241.895 7544.5L241.895 6686M922 7385.09L64.4985 7385.09M221.907 7544.5L221.907 6686M922 7405.08L64.4985 7405.08M201.919 7544.5L201.919 6686M922 7425.07L64.4985 7425.07M181.93 7544.5L181.93 6686M922 7445.06L64.4985 7445.06M161.942 7544.5L161.942 6686M922 7465.05L64.4985 7465.05M141.953 7544.5L141.954 6686M922 7485.03L64.4985 7485.03M121.965 7544.5L121.965 6686M922 7505.02L64.4985 7505.02M101.977 7544.5L101.977 6686M922 7525.01L64.4985 7525.01M81.9884 7544.5L81.9885 6686M922 7545L64.4985 7545M62 7544.5L62.0001 6686" stroke="#303030"/>
<g filter="url(#filter0_f_1103_1314)"/>

</svg>
