<svg width="1024" height="1024" viewBox="0 0 1024 1024" fill="none" xmlns="http://www.w3.org/2000/svg">
<g clip-path="url(#clip0_1519_319)">
<rect width="1024" height="1024" rx="512" fill="#E7ECEF"/>
<mask id="mask0_1519_319" style="mask-type:alpha" maskUnits="userSpaceOnUse" x="0" y="0" width="1024" height="1024">
<circle cx="512" cy="512" r="512" fill="#D9D9D9"/>
</mask>
<g mask="url(#mask0_1519_319)">
<path d="M706.283 44.2569V414.742C667.371 385.407 622.391 365.237 574.671 355.724C526.951 346.211 477.713 347.598 430.599 359.784C383.485 371.97 339.702 394.641 302.488 426.122C265.274 457.602 235.582 497.086 215.609 541.651C195.636 586.216 185.892 634.723 187.1 683.581C188.308 732.44 200.435 780.401 222.586 823.916C244.736 867.43 276.342 905.385 315.066 934.971C353.789 964.557 398.639 985.017 446.297 994.839C460.922 997.9 475.737 999.958 490.64 1001H532.284C595.33 997.024 655.828 974.551 706.283 936.367V982.085C706.299 987.107 708.297 991.918 711.837 995.464C715.378 999.009 720.174 1001 725.173 1001H815.086C820.622 1001 825.932 998.795 829.853 994.868C833.773 990.941 835.984 985.613 836 980.051V45.7356C836 42.7499 835.415 39.7935 834.277 37.0351C833.14 34.2766 831.473 31.7703 829.371 29.6591C827.27 27.5479 824.775 25.8732 822.029 24.7306C819.283 23.5881 816.341 23 813.368 23H727.504C721.886 23 716.498 25.2376 712.52 29.2222C708.542 33.2069 706.299 38.6135 706.283 44.2569V44.2569ZM695.366 740.496C685.673 768.181 669.917 793.327 649.26 814.079C628.603 834.831 603.572 850.66 576.014 860.397C560.304 865.981 543.931 869.461 527.316 870.748C522.042 871.241 516.767 871.426 511.493 871.426C506.218 871.426 500.882 871.426 495.669 870.748C455.209 867.421 416.798 851.467 385.813 825.119C354.828 798.772 332.82 763.349 322.871 723.811C312.922 684.273 315.53 642.6 330.33 604.625C345.129 566.65 371.38 534.275 405.405 512.033C439.431 489.791 479.529 478.795 520.085 480.585C560.64 482.375 599.624 496.861 631.577 522.015C663.529 547.17 686.852 581.733 698.28 620.865C709.707 659.997 708.667 701.74 695.304 740.249L695.366 740.496Z" fill="#222222"/>
</g>
</g>
<defs>
<clipPath id="clip0_1519_319">
<rect width="1024" height="1024" rx="512" fill="white"/>
</clipPath>
</defs>
</svg>
