<svg width="36" height="36" viewBox="0 0 36 36" fill="none" xmlns="http://www.w3.org/2000/svg">
<path fill-rule="evenodd" clip-rule="evenodd" d="M18 36.0024C27.9411 36.0024 36 27.9436 36 18.0024C36 8.06132 27.9411 0.00244141 18 0.00244141C8.05887 0.00244141 0 8.06132 0 18.0024C0 27.9436 8.05887 36.0024 18 36.0024ZM12.5146 25.2002C16.5034 25.2002 19.7354 21.9762 19.7354 18.0002C19.7341 17.0533 19.5463 16.1159 19.1828 15.2416C18.8192 14.3672 18.2869 13.5731 17.6164 12.9045C16.9459 12.2359 16.1502 11.7059 15.2748 11.3449C14.3994 10.9838 13.4615 10.7987 12.5146 10.8002C8.5274 10.8002 5.29541 14.0226 5.29541 18.0002C5.29667 18.947 5.4844 19.8842 5.84788 20.7584C6.21136 21.6327 6.74347 22.4267 7.41384 23.0953C8.0842 23.7639 8.87969 24.2939 9.75488 24.6551C10.6301 25.0162 11.5678 25.2014 12.5146 25.2002ZM24.0458 24.7778C26.0394 24.7778 27.6554 21.7442 27.6554 18.0002C27.6554 14.2578 26.0394 11.2226 24.0458 11.2226C22.0522 11.2226 20.4362 14.2562 20.4362 18.0002C20.4362 21.7426 22.0522 24.7778 24.0458 24.7778ZM29.625 24.0722C30.3274 24.0722 30.8954 21.3538 30.8954 18.0002C30.8954 14.6466 30.3274 11.9282 29.6266 11.9282C28.9242 11.9282 28.3562 14.6466 28.3562 18.0002C28.3562 21.3522 28.9242 24.0722 29.625 24.0722Z" fill="white"/>
</svg>
